<?xml version="1.0" encoding="us-ascii" standalone="no"?><svg xmlns="http://www.w3.org/2000/svg" xmlns:xlink="http://www.w3.org/1999/xlink" contentStyleType="text/css" height="7109.375px" preserveAspectRatio="none" style="width:12028px;height:7109px;background:#FFFFFF;" version="1.1" viewBox="0 0 12028 7109" width="12028.125px" zoomAndPan="magnify"><defs/><g><text fill="#000000" font-family="sans-serif" font-size="43.75" font-weight="bold" lengthAdjust="spacing" textLength="1328.125" x="5338.2813" y="89.1724">Things that affect the status of an Asset in Asset Manager</text><rect fill="#F2FEF8" height="6957.4158" style="stroke:#181818;stroke-width:1.5625;" width="9525" x="65.625" y="135.9009"/><text fill="#000000" font-family="sans-serif" font-size="40.625" font-weight="bold" lengthAdjust="spacing" textLength="196.875" x="4729.6875" y="175.177">Whitehall</text><rect fill="#F2FEF8" height="6957.4158" style="stroke:#181818;stroke-width:1.5625;" width="1587.5" x="9721.875" y="135.9009"/><text fill="#000000" font-family="sans-serif" font-size="40.625" font-weight="bold" lengthAdjust="spacing" textLength="896.875" x="10067.1875" y="175.177">AssetManagerAttachmentMetadataWorker</text><rect fill="#F2F8FE" height="6957.4158" style="stroke:#181818;stroke-width:1.5625;" width="465.625" x="11460.9375" y="135.9009"/><text fill="#000000" font-family="sans-serif" font-size="40.625" font-weight="bold" lengthAdjust="spacing" textLength="315.625" x="11535.9375" y="175.177">Asset Manager</text><rect fill="none" height="476.5137" style="stroke:#000000;stroke-width:4.6875;" width="2242.1875" x="9703.125" y="1042.0654"/><rect fill="none" height="145.6909" style="stroke:#000000;stroke-width:4.6875;" width="2246.875" x="2215.625" y="2159.7473"/><rect fill="none" height="328.8818" style="stroke:#000000;stroke-width:4.6875;" width="9921.875" x="850" y="2349.1882"/><rect fill="none" height="476.5137" style="stroke:#000000;stroke-width:4.6875;" width="2242.1875" x="9703.125" y="2721.8201"/><rect fill="none" height="1136.4319" style="stroke:#000000;stroke-width:4.6875;" width="11157.8125" x="818.75" y="3971.7224"/><rect fill="none" height="145.6909" style="stroke:#000000;stroke-width:4.6875;" width="2246.875" x="2215.625" y="4047.6929"/><rect fill="none" height="328.8818" style="stroke:#000000;stroke-width:4.6875;" width="9921.875" x="850" y="4237.1338"/><rect fill="none" height="476.5137" style="stroke:#000000;stroke-width:4.6875;" width="2242.1875" x="9703.125" y="4609.7656"/><rect fill="none" height="476.5137" style="stroke:#000000;stroke-width:4.6875;" width="3598.4375" x="8346.875" y="6315.2771"/><line style="stroke:#181818;stroke-width:1.5625;stroke-dasharray:5.0,5.0;" x1="150" x2="150" y1="435.2722" y2="6844.9158"/><line style="stroke:#181818;stroke-width:1.5625;stroke-dasharray:5.0,5.0;" x1="553.125" x2="553.125" y1="435.2722" y2="6844.9158"/><line style="stroke:#181818;stroke-width:1.5625;stroke-dasharray:5.0,5.0;" x1="1106.25" x2="1106.25" y1="435.2722" y2="6844.9158"/><line style="stroke:#181818;stroke-width:1.5625;stroke-dasharray:5.0,5.0;" x1="1928.125" x2="1928.125" y1="435.2722" y2="6844.9158"/><line style="stroke:#181818;stroke-width:1.5625;stroke-dasharray:5.0,5.0;" x1="2753.125" x2="2753.125" y1="435.2722" y2="6844.9158"/><line style="stroke:#181818;stroke-width:1.5625;stroke-dasharray:5.0,5.0;" x1="3862.5" x2="3862.5" y1="435.2722" y2="6844.9158"/><line style="stroke:#181818;stroke-width:1.5625;stroke-dasharray:5.0,5.0;" x1="4906.25" x2="4906.25" y1="435.2722" y2="6844.9158"/><line style="stroke:#181818;stroke-width:1.5625;stroke-dasharray:5.0,5.0;" x1="5765.625" x2="5765.625" y1="435.2722" y2="6844.9158"/><line style="stroke:#181818;stroke-width:1.5625;stroke-dasharray:5.0,5.0;" x1="6515.625" x2="6515.625" y1="435.2722" y2="6844.9158"/><line style="stroke:#181818;stroke-width:1.5625;stroke-dasharray:5.0,5.0;" x1="7218.75" x2="7218.75" y1="435.2722" y2="6844.9158"/><line style="stroke:#181818;stroke-width:1.5625;stroke-dasharray:5.0,5.0;" x1="7965.625" x2="7965.625" y1="435.2722" y2="6844.9158"/><line style="stroke:#181818;stroke-width:1.5625;stroke-dasharray:5.0,5.0;" x1="8978.125" x2="8978.125" y1="435.2722" y2="6844.9158"/><line style="stroke:#181818;stroke-width:1.5625;stroke-dasharray:5.0,5.0;" x1="10237.5" x2="10237.5" y1="435.2722" y2="6844.9158"/><line style="stroke:#181818;stroke-width:1.5625;stroke-dasharray:5.0,5.0;" x1="11034.375" x2="11034.375" y1="435.2722" y2="6844.9158"/><line style="stroke:#181818;stroke-width:1.5625;stroke-dasharray:5.0,5.0;" x1="11692.1875" x2="11692.1875" y1="435.2722" y2="6844.9158"/><text fill="#000000" font-family="sans-serif" font-size="43.75" lengthAdjust="spacing" textLength="128.125" x="78.125" y="426.0437">editor</text><ellipse cx="151.5625" cy="222.8088" fill="#E2E2F0" rx="25" ry="25" style="stroke:#181818;stroke-width:1.5625;"/><path d="M151.5625,247.8088 L151.5625,332.1838 M110.9375,272.8088 L192.1875,272.8088 M151.5625,332.1838 L110.9375,379.0588 M151.5625,332.1838 L192.1875,379.0588 " fill="none" style="stroke:#181818;stroke-width:1.5625;"/><text fill="#000000" font-family="sans-serif" font-size="43.75" lengthAdjust="spacing" textLength="128.125" x="78.125" y="6884.0881">editor</text><ellipse cx="151.5625" cy="6919.8792" fill="#E2E2F0" rx="25" ry="25" style="stroke:#181818;stroke-width:1.5625;"/><path d="M151.5625,6944.8792 L151.5625,7029.2542 M110.9375,6969.8792 L192.1875,6969.8792 M151.5625,7029.2542 L110.9375,7076.1292 M151.5625,7029.2542 L192.1875,7076.1292 " fill="none" style="stroke:#181818;stroke-width:1.5625;"/><rect fill="#E2E2F0" height="95.2759" rx="7.8125" ry="7.8125" style="stroke:#181818;stroke-width:1.5625;" width="531.25" x="287.5" y="336.8713"/><text fill="#000000" font-family="sans-serif" font-size="43.75" lengthAdjust="spacing" textLength="487.5" x="309.375" y="401.0437">AttachmentsController</text><rect fill="#E2E2F0" height="95.2759" rx="7.8125" ry="7.8125" style="stroke:#181818;stroke-width:1.5625;" width="531.25" x="287.5" y="6841.7908"/><text fill="#000000" font-family="sans-serif" font-size="43.75" lengthAdjust="spacing" textLength="487.5" x="309.375" y="6905.9631">AttachmentsController</text><rect fill="#E2E2F0" height="95.2759" rx="7.8125" ry="7.8125" style="stroke:#181818;stroke-width:1.5625;" width="387.5" x="912.5" y="336.8713"/><text fill="#000000" font-family="sans-serif" font-size="43.75" lengthAdjust="spacing" textLength="343.75" x="934.375" y="401.0437">AttachmentData</text><rect fill="#E2E2F0" height="95.2759" rx="7.8125" ry="7.8125" style="stroke:#181818;stroke-width:1.5625;" width="387.5" x="912.5" y="6841.7908"/><text fill="#000000" font-family="sans-serif" font-size="43.75" lengthAdjust="spacing" textLength="343.75" x="934.375" y="6905.9631">AttachmentData</text><rect fill="#E2E2F0" height="95.2759" rx="7.8125" ry="7.8125" style="stroke:#181818;stroke-width:1.5625;" width="512.5" x="1671.875" y="336.8713"/><text fill="#000000" font-family="sans-serif" font-size="43.75" lengthAdjust="spacing" textLength="468.75" x="1693.75" y="401.0437">AssetManagerStorage</text><rect fill="#E2E2F0" height="95.2759" rx="7.8125" ry="7.8125" style="stroke:#181818;stroke-width:1.5625;" width="512.5" x="1671.875" y="6841.7908"/><text fill="#000000" font-family="sans-serif" font-size="43.75" lengthAdjust="spacing" textLength="468.75" x="1693.75" y="6905.9631">AssetManagerStorage</text><rect fill="#E2E2F0" height="95.2759" rx="7.8125" ry="7.8125" style="stroke:#181818;stroke-width:1.5625;" width="953.125" x="2278.125" y="336.8713"/><text fill="#000000" font-family="sans-serif" font-size="43.75" lengthAdjust="spacing" textLength="909.375" x="2300" y="401.0437">AssetManagerCreateWhitehallAssetWorker</text><rect fill="#E2E2F0" height="95.2759" rx="7.8125" ry="7.8125" style="stroke:#181818;stroke-width:1.5625;" width="953.125" x="2278.125" y="6841.7908"/><text fill="#000000" font-family="sans-serif" font-size="43.75" lengthAdjust="spacing" textLength="909.375" x="2300" y="6905.9631">AssetManagerCreateWhitehallAssetWorker</text><rect fill="#E2E2F0" height="95.2759" rx="7.8125" ry="7.8125" style="stroke:#181818;stroke-width:1.5625;" width="1075" x="3325" y="336.8713"/><text fill="#000000" font-family="sans-serif" font-size="43.75" lengthAdjust="spacing" textLength="1031.25" x="3346.875" y="401.0437">AssetManagerAttachmentSetUploadedToWorker</text><rect fill="#E2E2F0" height="95.2759" rx="7.8125" ry="7.8125" style="stroke:#181818;stroke-width:1.5625;" width="1075" x="3325" y="6841.7908"/><text fill="#000000" font-family="sans-serif" font-size="43.75" lengthAdjust="spacing" textLength="1031.25" x="3346.875" y="6905.9631">AssetManagerAttachmentSetUploadedToWorker</text><rect fill="#E2E2F0" height="95.2759" rx="7.8125" ry="7.8125" style="stroke:#181818;stroke-width:1.5625;" width="828.125" x="4493.75" y="336.8713"/><text fill="#000000" font-family="sans-serif" font-size="43.75" lengthAdjust="spacing" textLength="784.375" x="4515.625" y="401.0437">ServiceListeners::AttachmentUpdater</text><rect fill="#E2E2F0" height="95.2759" rx="7.8125" ry="7.8125" style="stroke:#181818;stroke-width:1.5625;" width="828.125" x="4493.75" y="6841.7908"/><text fill="#000000" font-family="sans-serif" font-size="43.75" lengthAdjust="spacing" textLength="784.375" x="4515.625" y="6905.9631">ServiceListeners::AttachmentUpdater</text><rect fill="#E2E2F0" height="95.2759" rx="7.8125" ry="7.8125" style="stroke:#181818;stroke-width:1.5625;" width="700" x="5415.625" y="336.8713"/><text fill="#000000" font-family="sans-serif" font-size="43.75" lengthAdjust="spacing" textLength="656.25" x="5437.5" y="401.0437">EditionUnpublishingController</text><rect fill="#E2E2F0" height="95.2759" rx="7.8125" ry="7.8125" style="stroke:#181818;stroke-width:1.5625;" width="700" x="5415.625" y="6841.7908"/><text fill="#000000" font-family="sans-serif" font-size="43.75" lengthAdjust="spacing" textLength="656.25" x="5437.5" y="6905.9631">EditionUnpublishingController</text><rect fill="#E2E2F0" height="95.2759" rx="7.8125" ry="7.8125" style="stroke:#181818;stroke-width:1.5625;" width="612.5" x="6209.375" y="336.8713"/><text fill="#000000" font-family="sans-serif" font-size="43.75" lengthAdjust="spacing" textLength="568.75" x="6231.25" y="401.0437">EditionWorkflowController</text><rect fill="#E2E2F0" height="95.2759" rx="7.8125" ry="7.8125" style="stroke:#181818;stroke-width:1.5625;" width="612.5" x="6209.375" y="6841.7908"/><text fill="#000000" font-family="sans-serif" font-size="43.75" lengthAdjust="spacing" textLength="568.75" x="6231.25" y="6905.9631">EditionWorkflowController</text><rect fill="#E2E2F0" height="95.2759" rx="7.8125" ry="7.8125" style="stroke:#181818;stroke-width:1.5625;" width="606.25" x="6915.625" y="336.8713"/><text fill="#000000" font-family="sans-serif" font-size="43.75" lengthAdjust="spacing" textLength="562.5" x="6937.5" y="401.0437">EditionServiceCoordinator</text><rect fill="#E2E2F0" height="95.2759" rx="7.8125" ry="7.8125" style="stroke:#181818;stroke-width:1.5625;" width="606.25" x="6915.625" y="6841.7908"/><text fill="#000000" font-family="sans-serif" font-size="43.75" lengthAdjust="spacing" textLength="562.5" x="6937.5" y="6905.9631">EditionServiceCoordinator</text><rect fill="#E2E2F0" height="95.2759" rx="7.8125" ry="7.8125" style="stroke:#181818;stroke-width:1.5625;" width="700" x="7615.625" y="336.8713"/><text fill="#000000" font-family="sans-serif" font-size="43.75" lengthAdjust="spacing" textLength="656.25" x="7637.5" y="401.0437">AttachmentRedirectUrlUpdater</text><rect fill="#E2E2F0" height="95.2759" rx="7.8125" ry="7.8125" style="stroke:#181818;stroke-width:1.5625;" width="700" x="7615.625" y="6841.7908"/><text fill="#000000" font-family="sans-serif" font-size="43.75" lengthAdjust="spacing" textLength="656.25" x="7637.5" y="6905.9631">AttachmentRedirectUrlUpdater</text><rect fill="#E2E2F0" height="95.2759" rx="7.8125" ry="7.8125" style="stroke:#181818;stroke-width:1.5625;" width="1137.5" x="8409.375" y="336.8713"/><text fill="#000000" font-family="sans-serif" font-size="43.75" lengthAdjust="spacing" textLength="1093.75" x="8431.25" y="401.0437">AssetManagerAttachmentRedirectUrlUpdateWorker</text><rect fill="#E2E2F0" height="95.2759" rx="7.8125" ry="7.8125" style="stroke:#181818;stroke-width:1.5625;" width="1137.5" x="8409.375" y="6841.7908"/><text fill="#000000" font-family="sans-serif" font-size="43.75" lengthAdjust="spacing" textLength="1093.75" x="8431.25" y="6905.9631">AssetManagerAttachmentRedirectUrlUpdateWorker</text><rect fill="#E2E2F0" height="95.2759" rx="7.8125" ry="7.8125" style="stroke:#181818;stroke-width:1.5625;" width="943.75" x="9765.625" y="336.8713"/><text fill="#000000" font-family="sans-serif" font-size="43.75" lengthAdjust="spacing" textLength="900" x="9787.5" y="401.0437">AssetManagerAttachmentMetadataWorker</text><rect fill="#E2E2F0" height="95.2759" rx="7.8125" ry="7.8125" style="stroke:#181818;stroke-width:1.5625;" width="943.75" x="9765.625" y="6841.7908"/><text fill="#000000" font-family="sans-serif" font-size="43.75" lengthAdjust="spacing" textLength="900" x="9787.5" y="6905.9631">AssetManagerAttachmentMetadataWorker</text><rect fill="#E2E2F0" height="95.2759" rx="7.8125" ry="7.8125" style="stroke:#181818;stroke-width:1.5625;" width="462.5" x="10803.125" y="336.8713"/><text fill="#000000" font-family="sans-serif" font-size="43.75" lengthAdjust="spacing" textLength="418.75" x="10825" y="401.0437">AttachmentUpdater</text><rect fill="#E2E2F0" height="95.2759" rx="7.8125" ry="7.8125" style="stroke:#181818;stroke-width:1.5625;" width="462.5" x="10803.125" y="6841.7908"/><text fill="#000000" font-family="sans-serif" font-size="43.75" lengthAdjust="spacing" textLength="418.75" x="10825" y="6905.9631">AttachmentUpdater</text><rect fill="#E2E2F0" height="95.2759" rx="7.8125" ry="7.8125" style="stroke:#181818;stroke-width:1.5625;" width="378.125" x="11504.6875" y="336.8713"/><text fill="#000000" font-family="sans-serif" font-size="43.75" lengthAdjust="spacing" textLength="334.375" x="11526.5625" y="401.0437">AssetController</text><rect fill="#E2E2F0" height="95.2759" rx="7.8125" ry="7.8125" style="stroke:#181818;stroke-width:1.5625;" width="378.125" x="11504.6875" y="6841.7908"/><text fill="#000000" font-family="sans-serif" font-size="43.75" lengthAdjust="spacing" textLength="334.375" x="11526.5625" y="6905.9631">AssetController</text><rect fill="#EEEEEE" height="9.375" style="stroke:#EEEEEE;stroke-width:3.125;" width="12007.8125" x="0" y="531.0699"/><line style="stroke:#000000;stroke-width:3.125;" x1="0" x2="12007.8125" y1="531.0699" y2="531.0699"/><line style="stroke:#000000;stroke-width:3.125;" x1="0" x2="12007.8125" y1="540.4449" y2="540.4449"/><rect fill="#EEEEEE" height="72.8455" style="stroke:#000000;stroke-width:6.25;" width="1043.75" x="5482.0313" y="497.7722"/><text fill="#000000" font-family="sans-serif" font-size="40.625" font-weight="bold" lengthAdjust="spacing" textLength="987.5" x="5500.7813" y="549.5483">Controller invokes AttachmentUpdater directly</text><polygon fill="#181818" points="515.625,799.4995,546.875,811.9995,515.625,824.4995,528.125,811.9995" style="stroke:#181818;stroke-width:3.125;"/><line style="stroke:#181818;stroke-width:3.125;" x1="151.5625" x2="534.375" y1="811.9995" y2="811.9995"/><text fill="#000000" font-family="sans-serif" font-size="40.625" lengthAdjust="spacing" textLength="140.625" x="173.4375" y="653.6438">/create</text><text fill="#000000" font-family="sans-serif" font-size="40.625" lengthAdjust="spacing" textLength="156.25" x="173.4375" y="701.4893">/update</text><text fill="#000000" font-family="sans-serif" font-size="40.625" lengthAdjust="spacing" textLength="284.375" x="173.4375" y="749.3347">/update_many</text><text fill="#000000" font-family="sans-serif" font-size="40.625" lengthAdjust="spacing" textLength="168.75" x="173.4375" y="797.1802">/destroy</text><polygon fill="#181818" points="4870.3125,891.095,4901.5625,903.595,4870.3125,916.095,4882.8125,903.595" style="stroke:#181818;stroke-width:3.125;"/><line style="stroke:#181818;stroke-width:3.125;" x1="553.125" x2="4889.0625" y1="903.595" y2="903.595"/><text fill="#000000" font-family="sans-serif" font-size="40.625" lengthAdjust="spacing" textLength="131.25" x="575" y="888.7756">invoke</text><polygon fill="#181818" points="10200,982.6904,10231.25,995.1904,10200,1007.6904,10212.5,995.1904" style="stroke:#181818;stroke-width:3.125;"/><line style="stroke:#181818;stroke-width:3.125;" x1="4907.8125" x2="10218.75" y1="995.1904" y2="995.1904"/><text fill="#000000" font-family="sans-serif" font-size="40.625" lengthAdjust="spacing" textLength="165.625" x="4929.6875" y="980.3711">Enqueue</text><path d="M9703.125,1042.0654 L9996.875,1042.0654 L9996.875,1064.9109 L9965.625,1096.1609 L9703.125,1096.1609 L9703.125,1042.0654 " fill="#EEEEEE" style="stroke:#000000;stroke-width:4.6875;"/><rect fill="none" height="476.5137" style="stroke:#000000;stroke-width:4.6875;" width="2242.1875" x="9703.125" y="1042.0654"/><text fill="#000000" font-family="sans-serif" font-size="40.625" font-weight="bold" lengthAdjust="spacing" textLength="153.125" x="9750" y="1084.4666">sidekiq</text><polygon fill="#181818" points="10996.875,1150.2563,11028.125,1162.7563,10996.875,1175.2563,11009.375,1162.7563" style="stroke:#181818;stroke-width:3.125;"/><line style="stroke:#181818;stroke-width:3.125;" x1="10237.5" x2="11015.625" y1="1162.7563" y2="1162.7563"/><text fill="#000000" font-family="sans-serif" font-size="40.625" lengthAdjust="spacing" textLength="250" x="10259.375" y="1147.937">update asset</text><polygon fill="#181818" points="11656.25,1481.0791,11687.5,1493.5791,11656.25,1506.0791,11668.75,1493.5791" style="stroke:#181818;stroke-width:3.125;"/><line style="stroke:#181818;stroke-width:3.125;" x1="11034.375" x2="11675" y1="1493.5791" y2="1493.5791"/><text fill="#000000" font-family="sans-serif" font-size="40.625" lengthAdjust="spacing" textLength="493.75" x="11056.25" y="1239.5325">update the state of Asset</text><text fill="#000000" font-family="sans-serif" font-size="40.625" lengthAdjust="spacing" textLength="303.125" x="11056.25" y="1287.3779">:access_limited</text><text fill="#000000" font-family="sans-serif" font-size="40.625" lengthAdjust="spacing" textLength="106.25" x="11056.25" y="1335.2234">:draft</text><text fill="#000000" font-family="sans-serif" font-size="40.625" lengthAdjust="spacing" textLength="431.25" x="11056.25" y="1383.0688">:parent_document_url</text><text fill="#000000" font-family="sans-serif" font-size="40.625" lengthAdjust="spacing" textLength="237.5" x="11056.25" y="1430.9143">:redirect_url</text><text fill="#000000" font-family="sans-serif" font-size="40.625" lengthAdjust="spacing" textLength="584.375" x="11056.25" y="1478.7598">:replacement_legacy_url_path</text><rect fill="#EEEEEE" height="9.375" style="stroke:#EEEEEE;stroke-width:3.125;" width="12007.8125" x="0" y="1605.0018"/><line style="stroke:#000000;stroke-width:3.125;" x1="0" x2="12007.8125" y1="1605.0018" y2="1605.0018"/><line style="stroke:#000000;stroke-width:3.125;" x1="0" x2="12007.8125" y1="1614.3768" y2="1614.3768"/><rect fill="#EEEEEE" height="72.8455" style="stroke:#000000;stroke-width:6.25;" width="1784.375" x="5111.7188" y="1571.7041"/><text fill="#000000" font-family="sans-serif" font-size="40.625" font-weight="bold" lengthAdjust="spacing" textLength="1728.125" x="5130.4688" y="1623.4802">CarrierWave invokes AttachmentUpdater whenever a file-attachment is uploaded</text><polygon fill="#181818" points="515.625,1729.895,546.875,1742.395,515.625,1754.895,528.125,1742.395" style="stroke:#181818;stroke-width:3.125;"/><line style="stroke:#181818;stroke-width:3.125;" x1="151.5625" x2="534.375" y1="1742.395" y2="1742.395"/><text fill="#000000" font-family="sans-serif" font-size="40.625" lengthAdjust="spacing" textLength="140.625" x="173.4375" y="1727.5757">/create</text><polygon fill="#181818" points="1068.75,1869.3359,1100,1881.8359,1068.75,1894.3359,1081.25,1881.8359" style="stroke:#181818;stroke-width:3.125;"/><line style="stroke:#181818;stroke-width:3.125;" x1="553.125" x2="1087.5" y1="1881.8359" y2="1881.8359"/><text fill="#000000" font-family="sans-serif" font-size="40.625" lengthAdjust="spacing" textLength="109.375" x="575" y="1819.1711">/save</text><text fill="#000000" font-family="sans-serif" font-size="40.625" lengthAdjust="spacing" textLength="156.25" x="575" y="1867.0166">/update</text><polygon fill="#181818" points="1890.625,2008.7769,1921.875,2021.2769,1890.625,2033.7769,1903.125,2021.2769" style="stroke:#181818;stroke-width:3.125;"/><line style="stroke:#181818;stroke-width:3.125;" x1="1106.25" x2="1909.375" y1="2021.2769" y2="2021.2769"/><text fill="#000000" font-family="sans-serif" font-size="40.625" lengthAdjust="spacing" textLength="109.375" x="1128.125" y="1958.6121">/save</text><text fill="#000000" font-family="sans-serif" font-size="40.625" lengthAdjust="spacing" textLength="156.25" x="1128.125" y="2006.4575">/update</text><polygon fill="#181818" points="2717.1875,2100.3723,2748.4375,2112.8723,2717.1875,2125.3723,2729.6875,2112.8723" style="stroke:#181818;stroke-width:3.125;"/><line style="stroke:#181818;stroke-width:3.125;" x1="1928.125" x2="2735.9375" y1="2112.8723" y2="2112.8723"/><text fill="#000000" font-family="sans-serif" font-size="40.625" lengthAdjust="spacing" textLength="165.625" x="1950" y="2098.053">Enqueue</text><path d="M2215.625,2159.7473 L2509.375,2159.7473 L2509.375,2182.5928 L2478.125,2213.8428 L2215.625,2213.8428 L2215.625,2159.7473 " fill="#EEEEEE" style="stroke:#000000;stroke-width:4.6875;"/><rect fill="none" height="145.6909" style="stroke:#000000;stroke-width:4.6875;" width="2246.875" x="2215.625" y="2159.7473"/><text fill="#000000" font-family="sans-serif" font-size="40.625" font-weight="bold" lengthAdjust="spacing" textLength="153.125" x="2262.5" y="2202.1484">sidekiq</text><polygon fill="#181818" points="3825,2267.9382,3856.25,2280.4382,3825,2292.9382,3837.5,2280.4382" style="stroke:#181818;stroke-width:3.125;"/><line style="stroke:#181818;stroke-width:3.125;" x1="2754.6875" x2="3843.75" y1="2280.4382" y2="2280.4382"/><text fill="#000000" font-family="sans-serif" font-size="40.625" lengthAdjust="spacing" textLength="165.625" x="2776.5625" y="2265.6189">Enqueue</text><path d="M850,2349.1882 L1143.75,2349.1882 L1143.75,2372.0337 L1112.5,2403.2837 L850,2403.2837 L850,2349.1882 " fill="#EEEEEE" style="stroke:#000000;stroke-width:4.6875;"/><rect fill="none" height="328.8818" style="stroke:#000000;stroke-width:4.6875;" width="9921.875" x="850" y="2349.1882"/><text fill="#000000" font-family="sans-serif" font-size="40.625" font-weight="bold" lengthAdjust="spacing" textLength="153.125" x="896.875" y="2391.5894">sidekiq</text><polygon fill="#181818" points="1140.625,2457.3792,1109.375,2469.8792,1140.625,2482.3792,1128.125,2469.8792" style="stroke:#181818;stroke-width:3.125;"/><line style="stroke:#181818;stroke-width:3.125;" x1="1121.875" x2="3859.375" y1="2469.8792" y2="2469.8792"/><text fill="#000000" font-family="sans-serif" font-size="40.625" lengthAdjust="spacing" textLength="571.875" x="1159.375" y="2455.0598">uploaded_to_asset_manager!</text><polygon fill="#181818" points="4870.3125,2548.9746,4901.5625,2561.4746,4870.3125,2573.9746,4882.8125,2561.4746" style="stroke:#181818;stroke-width:3.125;"/><line style="stroke:#181818;stroke-width:3.125;" x1="1106.25" x2="4889.0625" y1="2561.4746" y2="2561.4746"/><text fill="#000000" font-family="sans-serif" font-size="40.625" lengthAdjust="spacing" textLength="131.25" x="1128.125" y="2546.6553">invoke</text><polygon fill="#181818" points="10200,2640.5701,10231.25,2653.0701,10200,2665.5701,10212.5,2653.0701" style="stroke:#181818;stroke-width:3.125;"/><line style="stroke:#181818;stroke-width:3.125;" x1="4907.8125" x2="10218.75" y1="2653.0701" y2="2653.0701"/><text fill="#000000" font-family="sans-serif" font-size="40.625" lengthAdjust="spacing" textLength="165.625" x="4929.6875" y="2638.2507">Enqueue</text><path d="M9703.125,2721.8201 L9996.875,2721.8201 L9996.875,2744.6655 L9965.625,2775.9155 L9703.125,2775.9155 L9703.125,2721.8201 " fill="#EEEEEE" style="stroke:#000000;stroke-width:4.6875;"/><rect fill="none" height="476.5137" style="stroke:#000000;stroke-width:4.6875;" width="2242.1875" x="9703.125" y="2721.8201"/><text fill="#000000" font-family="sans-serif" font-size="40.625" font-weight="bold" lengthAdjust="spacing" textLength="153.125" x="9750" y="2764.2212">sidekiq</text><polygon fill="#181818" points="10996.875,2830.011,11028.125,2842.511,10996.875,2855.011,11009.375,2842.511" style="stroke:#181818;stroke-width:3.125;"/><line style="stroke:#181818;stroke-width:3.125;" x1="10237.5" x2="11015.625" y1="2842.511" y2="2842.511"/><text fill="#000000" font-family="sans-serif" font-size="40.625" lengthAdjust="spacing" textLength="250" x="10259.375" y="2827.6917">update asset</text><polygon fill="#181818" points="11656.25,3160.8337,11687.5,3173.3337,11656.25,3185.8337,11668.75,3173.3337" style="stroke:#181818;stroke-width:3.125;"/><line style="stroke:#181818;stroke-width:3.125;" x1="11034.375" x2="11675" y1="3173.3337" y2="3173.3337"/><text fill="#000000" font-family="sans-serif" font-size="40.625" lengthAdjust="spacing" textLength="493.75" x="11056.25" y="2919.2871">update the state of Asset</text><text fill="#000000" font-family="sans-serif" font-size="40.625" lengthAdjust="spacing" textLength="303.125" x="11056.25" y="2967.1326">:access_limited</text><text fill="#000000" font-family="sans-serif" font-size="40.625" lengthAdjust="spacing" textLength="106.25" x="11056.25" y="3014.978">:draft</text><text fill="#000000" font-family="sans-serif" font-size="40.625" lengthAdjust="spacing" textLength="431.25" x="11056.25" y="3062.8235">:parent_document_url</text><text fill="#000000" font-family="sans-serif" font-size="40.625" lengthAdjust="spacing" textLength="237.5" x="11056.25" y="3110.6689">:redirect_url</text><text fill="#000000" font-family="sans-serif" font-size="40.625" lengthAdjust="spacing" textLength="584.375" x="11056.25" y="3158.5144">:replacement_legacy_url_path</text><rect fill="#EEEEEE" height="9.375" style="stroke:#EEEEEE;stroke-width:3.125;" width="12007.8125" x="0" y="3284.7565"/><line style="stroke:#000000;stroke-width:3.125;" x1="0" x2="12007.8125" y1="3284.7565" y2="3284.7565"/><line style="stroke:#000000;stroke-width:3.125;" x1="0" x2="12007.8125" y1="3294.1315" y2="3294.1315"/><rect fill="#EEEEEE" height="72.8455" style="stroke:#000000;stroke-width:6.25;" width="1687.5" x="5160.1563" y="3251.4587"/><text fill="#000000" font-family="sans-serif" font-size="40.625" font-weight="bold" lengthAdjust="spacing" textLength="1631.25" x="5178.9063" y="3303.2349">CarrierWave invokes AttachmentUpdater 7 times when an image is uploaded</text><polygon fill="#181818" points="515.625,3409.6497,546.875,3422.1497,515.625,3434.6497,528.125,3422.1497" style="stroke:#181818;stroke-width:3.125;"/><line style="stroke:#181818;stroke-width:3.125;" x1="151.5625" x2="534.375" y1="3422.1497" y2="3422.1497"/><text fill="#000000" font-family="sans-serif" font-size="40.625" lengthAdjust="spacing" textLength="140.625" x="173.4375" y="3407.3303">/create</text><polygon fill="#181818" points="1068.75,3549.0906,1100,3561.5906,1068.75,3574.0906,1081.25,3561.5906" style="stroke:#181818;stroke-width:3.125;"/><line style="stroke:#181818;stroke-width:3.125;" x1="553.125" x2="1087.5" y1="3561.5906" y2="3561.5906"/><text fill="#000000" font-family="sans-serif" font-size="40.625" lengthAdjust="spacing" textLength="109.375" x="575" y="3498.9258">/save</text><text fill="#000000" font-family="sans-serif" font-size="40.625" lengthAdjust="spacing" textLength="156.25" x="575" y="3546.7712">/update</text><line style="stroke:#181818;stroke-width:3.125;" x1="1106.25" x2="1237.5" y1="3653.186" y2="3653.186"/><line style="stroke:#181818;stroke-width:3.125;" x1="1237.5" x2="1237.5" y1="3653.186" y2="3693.811"/><line style="stroke:#181818;stroke-width:3.125;" x1="1109.375" x2="1237.5" y1="3693.811" y2="3693.811"/><polygon fill="#181818" points="1140.625,3681.311,1109.375,3693.811,1140.625,3706.311,1128.125,3693.811" style="stroke:#181818;stroke-width:3.125;"/><text fill="#000000" font-family="sans-serif" font-size="40.625" lengthAdjust="spacing" textLength="778.125" x="1128.125" y="3638.3667">ImageUploader creates resized versions</text><polygon fill="#181818" points="1890.625,3820.752,1921.875,3833.252,1890.625,3845.752,1903.125,3833.252" style="stroke:#181818;stroke-width:3.125;"/><line style="stroke:#181818;stroke-width:3.125;" x1="1106.25" x2="1909.375" y1="3833.252" y2="3833.252"/><text fill="#000000" font-family="sans-serif" font-size="40.625" lengthAdjust="spacing" textLength="109.375" x="1128.125" y="3770.5872">/save</text><text fill="#000000" font-family="sans-serif" font-size="40.625" lengthAdjust="spacing" textLength="156.25" x="1128.125" y="3818.4326">/update</text><polygon fill="#181818" points="2717.1875,3912.3474,2748.4375,3924.8474,2717.1875,3937.3474,2729.6875,3924.8474" style="stroke:#181818;stroke-width:3.125;"/><line style="stroke:#181818;stroke-width:3.125;" x1="1928.125" x2="2735.9375" y1="3924.8474" y2="3924.8474"/><text fill="#000000" font-family="sans-serif" font-size="40.625" lengthAdjust="spacing" textLength="325" x="1950" y="3910.0281">Enqueue 7 times</text><path d="M818.75,3971.7224 L1443.75,3971.7224 L1443.75,3994.5679 L1412.5,4025.8179 L818.75,4025.8179 L818.75,3971.7224 " fill="#EEEEEE" style="stroke:#000000;stroke-width:4.6875;"/><rect fill="none" height="1136.4319" style="stroke:#000000;stroke-width:4.6875;" width="11157.8125" x="818.75" y="3971.7224"/><text fill="#000000" font-family="sans-serif" font-size="40.625" font-weight="bold" lengthAdjust="spacing" textLength="484.375" x="865.625" y="4014.1235">for each image version</text><path d="M2215.625,4047.6929 L2509.375,4047.6929 L2509.375,4070.5383 L2478.125,4101.7883 L2215.625,4101.7883 L2215.625,4047.6929 " fill="#EEEEEE" style="stroke:#000000;stroke-width:4.6875;"/><rect fill="none" height="145.6909" style="stroke:#000000;stroke-width:4.6875;" width="2246.875" x="2215.625" y="4047.6929"/><text fill="#000000" font-family="sans-serif" font-size="40.625" font-weight="bold" lengthAdjust="spacing" textLength="153.125" x="2262.5" y="4090.094">sidekiq</text><polygon fill="#181818" points="3825,4155.8838,3856.25,4168.3838,3825,4180.8838,3837.5,4168.3838" style="stroke:#181818;stroke-width:3.125;"/><line style="stroke:#181818;stroke-width:3.125;" x1="2754.6875" x2="3843.75" y1="4168.3838" y2="4168.3838"/><text fill="#000000" font-family="sans-serif" font-size="40.625" lengthAdjust="spacing" textLength="165.625" x="2776.5625" y="4153.5645">Enqueue</text><path d="M850,4237.1338 L1143.75,4237.1338 L1143.75,4259.9792 L1112.5,4291.2292 L850,4291.2292 L850,4237.1338 " fill="#EEEEEE" style="stroke:#000000;stroke-width:4.6875;"/><rect fill="none" height="328.8818" style="stroke:#000000;stroke-width:4.6875;" width="9921.875" x="850" y="4237.1338"/><text fill="#000000" font-family="sans-serif" font-size="40.625" font-weight="bold" lengthAdjust="spacing" textLength="153.125" x="896.875" y="4279.5349">sidekiq</text><polygon fill="#181818" points="1140.625,4345.3247,1109.375,4357.8247,1140.625,4370.3247,1128.125,4357.8247" style="stroke:#181818;stroke-width:3.125;"/><line style="stroke:#181818;stroke-width:3.125;" x1="1121.875" x2="3859.375" y1="4357.8247" y2="4357.8247"/><text fill="#000000" font-family="sans-serif" font-size="40.625" lengthAdjust="spacing" textLength="571.875" x="1159.375" y="4343.0054">uploaded_to_asset_manager!</text><polygon fill="#181818" points="4870.3125,4436.9202,4901.5625,4449.4202,4870.3125,4461.9202,4882.8125,4449.4202" style="stroke:#181818;stroke-width:3.125;"/><line style="stroke:#181818;stroke-width:3.125;" x1="1106.25" x2="4889.0625" y1="4449.4202" y2="4449.4202"/><text fill="#000000" font-family="sans-serif" font-size="40.625" lengthAdjust="spacing" textLength="131.25" x="1128.125" y="4434.6008">invoke</text><polygon fill="#181818" points="10200,4528.5156,10231.25,4541.0156,10200,4553.5156,10212.5,4541.0156" style="stroke:#181818;stroke-width:3.125;"/><line style="stroke:#181818;stroke-width:3.125;" x1="4907.8125" x2="10218.75" y1="4541.0156" y2="4541.0156"/><text fill="#000000" font-family="sans-serif" font-size="40.625" lengthAdjust="spacing" textLength="165.625" x="4929.6875" y="4526.1963">Enqueue</text><path d="M9703.125,4609.7656 L9996.875,4609.7656 L9996.875,4632.6111 L9965.625,4663.8611 L9703.125,4663.8611 L9703.125,4609.7656 " fill="#EEEEEE" style="stroke:#000000;stroke-width:4.6875;"/><rect fill="none" height="476.5137" style="stroke:#000000;stroke-width:4.6875;" width="2242.1875" x="9703.125" y="4609.7656"/><text fill="#000000" font-family="sans-serif" font-size="40.625" font-weight="bold" lengthAdjust="spacing" textLength="153.125" x="9750" y="4652.1667">sidekiq</text><polygon fill="#181818" points="10996.875,4717.9565,11028.125,4730.4565,10996.875,4742.9565,11009.375,4730.4565" style="stroke:#181818;stroke-width:3.125;"/><line style="stroke:#181818;stroke-width:3.125;" x1="10237.5" x2="11015.625" y1="4730.4565" y2="4730.4565"/><text fill="#000000" font-family="sans-serif" font-size="40.625" lengthAdjust="spacing" textLength="250" x="10259.375" y="4715.6372">update asset</text><polygon fill="#181818" points="11656.25,5048.7793,11687.5,5061.2793,11656.25,5073.7793,11668.75,5061.2793" style="stroke:#181818;stroke-width:3.125;"/><line style="stroke:#181818;stroke-width:3.125;" x1="11034.375" x2="11675" y1="5061.2793" y2="5061.2793"/><text fill="#000000" font-family="sans-serif" font-size="40.625" lengthAdjust="spacing" textLength="493.75" x="11056.25" y="4807.2327">update the state of Asset</text><text fill="#000000" font-family="sans-serif" font-size="40.625" lengthAdjust="spacing" textLength="303.125" x="11056.25" y="4855.0781">:access_limited</text><text fill="#000000" font-family="sans-serif" font-size="40.625" lengthAdjust="spacing" textLength="106.25" x="11056.25" y="4902.9236">:draft</text><text fill="#000000" font-family="sans-serif" font-size="40.625" lengthAdjust="spacing" textLength="431.25" x="11056.25" y="4950.769">:parent_document_url</text><text fill="#000000" font-family="sans-serif" font-size="40.625" lengthAdjust="spacing" textLength="237.5" x="11056.25" y="4998.6145">:redirect_url</text><text fill="#000000" font-family="sans-serif" font-size="40.625" lengthAdjust="spacing" textLength="584.375" x="11056.25" y="5046.46">:replacement_legacy_url_path</text><rect fill="#EEEEEE" height="9.375" style="stroke:#EEEEEE;stroke-width:3.125;" width="12007.8125" x="0" y="5194.577"/><line style="stroke:#000000;stroke-width:3.125;" x1="0" x2="12007.8125" y1="5194.577" y2="5194.577"/><line style="stroke:#000000;stroke-width:3.125;" x1="0" x2="12007.8125" y1="5203.952" y2="5203.952"/><rect fill="#EEEEEE" height="72.8455" style="stroke:#000000;stroke-width:6.25;" width="1775" x="5116.4063" y="5161.2793"/><text fill="#000000" font-family="sans-serif" font-size="40.625" font-weight="bold" lengthAdjust="spacing" textLength="1718.75" x="5135.1563" y="5213.0554">Edition workflow for publishing and unpublishing causing Assets to change state</text><polygon fill="#181818" points="6478.125,5463.0066,6509.375,5475.5066,6478.125,5488.0066,6490.625,5475.5066" style="stroke:#181818;stroke-width:3.125;"/><line style="stroke:#181818;stroke-width:3.125;" x1="151.5625" x2="6496.875" y1="5475.5066" y2="5475.5066"/><text fill="#000000" font-family="sans-serif" font-size="40.625" lengthAdjust="spacing" textLength="168.75" x="173.4375" y="5317.1509">/publish</text><text fill="#000000" font-family="sans-serif" font-size="40.625" lengthAdjust="spacing" textLength="290.625" x="173.4375" y="5364.9963">/force_publish</text><text fill="#000000" font-family="sans-serif" font-size="40.625" lengthAdjust="spacing" textLength="250" x="173.4375" y="5412.8418">/unwithdraw</text><text fill="#000000" font-family="sans-serif" font-size="40.625" lengthAdjust="spacing" textLength="218.75" x="173.4375" y="5460.6873">/unpublish</text><polygon fill="#181818" points="7181.25,5698.1384,7212.5,5710.6384,7181.25,5723.1384,7193.75,5710.6384" style="stroke:#181818;stroke-width:3.125;"/><line style="stroke:#181818;stroke-width:3.125;" x1="6515.625" x2="7200" y1="5710.6384" y2="5710.6384"/><text fill="#000000" font-family="sans-serif" font-size="40.625" lengthAdjust="spacing" textLength="146.875" x="6537.5" y="5552.2827">publish</text><text fill="#000000" font-family="sans-serif" font-size="40.625" lengthAdjust="spacing" textLength="268.75" x="6537.5" y="5600.1282">force_publish</text><text fill="#000000" font-family="sans-serif" font-size="40.625" lengthAdjust="spacing" textLength="228.125" x="6537.5" y="5647.9736">unwithdraw</text><text fill="#000000" font-family="sans-serif" font-size="40.625" lengthAdjust="spacing" textLength="196.875" x="6537.5" y="5695.8191">unpublish</text><polygon fill="#181818" points="5728.125,5789.7339,5759.375,5802.2339,5728.125,5814.7339,5740.625,5802.2339" style="stroke:#181818;stroke-width:3.125;"/><line style="stroke:#181818;stroke-width:3.125;" x1="151.5625" x2="5746.875" y1="5802.2339" y2="5802.2339"/><text fill="#000000" font-family="sans-serif" font-size="40.625" lengthAdjust="spacing" textLength="218.75" x="173.4375" y="5787.4146">/unpublish</text><polygon fill="#181818" points="7181.25,5881.3293,7212.5,5893.8293,7181.25,5906.3293,7193.75,5893.8293" style="stroke:#181818;stroke-width:3.125;"/><line style="stroke:#181818;stroke-width:3.125;" x1="5765.625" x2="7200" y1="5893.8293" y2="5893.8293"/><text fill="#000000" font-family="sans-serif" font-size="40.625" lengthAdjust="spacing" textLength="196.875" x="5787.5" y="5879.01">unpublish</text><polygon fill="#181818" points="7928.125,6164.3066,7959.375,6176.8066,7928.125,6189.3066,7940.625,6176.8066" style="stroke:#181818;stroke-width:3.125;"/><line style="stroke:#181818;stroke-width:3.125;" x1="7218.75" x2="7946.875" y1="6176.8066" y2="6176.8066"/><text fill="#000000" font-family="sans-serif" font-size="40.625" lengthAdjust="spacing" textLength="265.625" x="7240.625" y="5970.6055">"*any_event*"</text><text fill="#000000" font-family="sans-serif" font-size="40.625" lengthAdjust="spacing" textLength="146.875" x="7240.625" y="6018.4509">publish</text><text fill="#000000" font-family="sans-serif" font-size="40.625" lengthAdjust="spacing" textLength="268.75" x="7240.625" y="6066.2964">force_publish</text><text fill="#000000" font-family="sans-serif" font-size="40.625" lengthAdjust="spacing" textLength="228.125" x="7240.625" y="6114.1418">unwithdraw</text><text fill="#000000" font-family="sans-serif" font-size="40.625" lengthAdjust="spacing" textLength="196.875" x="7240.625" y="6161.9873">unpublish</text><polygon fill="#181818" points="8940.625,6255.9021,8971.875,6268.4021,8940.625,6280.9021,8953.125,6268.4021" style="stroke:#181818;stroke-width:3.125;"/><line style="stroke:#181818;stroke-width:3.125;" x1="7965.625" x2="8959.375" y1="6268.4021" y2="6268.4021"/><text fill="#000000" font-family="sans-serif" font-size="40.625" lengthAdjust="spacing" textLength="165.625" x="7987.5" y="6253.5828">Enqueue</text><path d="M8346.875,6315.2771 L8640.625,6315.2771 L8640.625,6338.1226 L8609.375,6369.3726 L8346.875,6369.3726 L8346.875,6315.2771 " fill="#EEEEEE" style="stroke:#000000;stroke-width:4.6875;"/><rect fill="none" height="476.5137" style="stroke:#000000;stroke-width:4.6875;" width="3598.4375" x="8346.875" y="6315.2771"/><text fill="#000000" font-family="sans-serif" font-size="40.625" font-weight="bold" lengthAdjust="spacing" textLength="153.125" x="8393.75" y="6357.6782">sidekiq</text><polygon fill="#181818" points="10996.875,6423.468,11028.125,6435.968,10996.875,6448.468,11009.375,6435.968" style="stroke:#181818;stroke-width:3.125;"/><line style="stroke:#181818;stroke-width:3.125;" x1="8978.125" x2="11015.625" y1="6435.968" y2="6435.968"/><text fill="#000000" font-family="sans-serif" font-size="40.625" lengthAdjust="spacing" textLength="250" x="9000" y="6421.1487">update asset</text><polygon fill="#181818" points="11656.25,6754.2908,11687.5,6766.7908,11656.25,6779.2908,11668.75,6766.7908" style="stroke:#181818;stroke-width:3.125;"/><line style="stroke:#181818;stroke-width:3.125;" x1="11034.375" x2="11675" y1="6766.7908" y2="6766.7908"/><text fill="#000000" font-family="sans-serif" font-size="40.625" lengthAdjust="spacing" textLength="493.75" x="11056.25" y="6512.7441">update the state of Asset</text><text fill="#000000" font-family="sans-serif" font-size="40.625" lengthAdjust="spacing" textLength="303.125" x="11056.25" y="6560.5896">:access_limited</text><text fill="#000000" font-family="sans-serif" font-size="40.625" lengthAdjust="spacing" textLength="106.25" x="11056.25" y="6608.4351">:draft</text><text fill="#000000" font-family="sans-serif" font-size="40.625" lengthAdjust="spacing" textLength="431.25" x="11056.25" y="6656.2805">:parent_document_url</text><text fill="#000000" font-family="sans-serif" font-size="40.625" lengthAdjust="spacing" textLength="237.5" x="11056.25" y="6704.126">:redirect_url</text><text fill="#000000" font-family="sans-serif" font-size="40.625" lengthAdjust="spacing" textLength="584.375" x="11056.25" y="6751.9714">:replacement_legacy_url_path</text><!--SRC=[xLTDRzGm4BtdLmpBhH9gAGTGf2ALqWCII8XIzL8fcYQJZRLPExMTRiklPvmuoMQJb1HQKI7saiJp_VncrZOh8GlKk8Qa4F3cu22mmkO4tpCXbmPiXXOmJIcs_4vWBDhIW4e19HmRGnP4y_859Iv91wPr-K7TViKaOKzmUB2r_XMr5R4eKDf6_leWo4H2KCfSo1KbGN2bRc5naGbB6URv0bwcXocbxmAChT90YU17K7IUuDXQZBCrIMjEbBHQvJbDQNn4YtsHAy5NSCQU-JafFz64bjhKAj65qglTQ5icNUGpikT5hZ2XvBiQiLgSaRuHCNqMnf8aRSAmCpul4ewi5psBKuP2A7akY_8g5yPjt4JzNjD5JNErkL_Bvt6YbEOTmccql_5UQ2R8kSvzVZDW61XvA4Wcm3lljt_SzWjPP1EiJJfc_3fgttAYdgQ8aLGQZjSntwKZ7Da2jNLmT0JTCZVCZLgH6KQ46fBy3ewEWg1cEBnwFqxi4FRZYeUNSh-ixDkNQ8toZhyICgny5upQEyUpk1RwX8DPsbM-Cx0FuLHUbrHIiDIgBC1myw_4TG3ycsFVnyL73w460D1vg7qDG6uIt8AYjMj67Ba9LsbToX3Zc8o9Sh7cXazu8T6OEW7lFVkD4XMNBa1KwfnNjMTs-rda65EbaDCIupidY0gqMKMGgloQ8gYr87s1DtGFHpOPOt_3BmYfoEaLjXeW3DTHZvO7CMYQ8Fs1oGQ6asjv5lJ5krlln-ZGQgYpQpezOUVoPjh3D4D7HdCNhjkhkOGTSJV4jE9UhHHP5LN4TVthNBtOON03yiFQrlbuejPzE2R_cxXA_orOiMQ9QsPtaX9hrmJFeNzt33wvn3oBDTJX36WouWSdoMF8y4d1_DL1q83fEPYwmo4dup7rALOq6fBqoQU62z0HP5uIZpv17ckAFE4a-JESVc-gFFl9qWUbFsVy8Hqs_YnVyRwx0F1GIVWkjRKGOsdSiqgRBtOAuWpbiYceFsycBmgCnRvtodtCCMEAkkzIReJDkFvDzU45mRItBjJmjX52wtWdpdQOBieW-_4BaQjWaDg4wltf3RmCbVfK75wKGbZiyLazuWETj7kBI_cmakzpFTs34rUlhXbd_vjFUFh7_jP_0W00]--></g></svg>