<?xml version="1.0" encoding="us-ascii" standalone="no"?><svg xmlns="http://www.w3.org/2000/svg" xmlns:xlink="http://www.w3.org/1999/xlink" contentStyleType="text/css" height="1815.625px" preserveAspectRatio="none" style="width:3587px;height:1815px;background:#FFFFFF;" version="1.1" viewBox="0 0 3587 1815" width="3587.5px" zoomAndPan="magnify"><defs/><g><text fill="#000000" font-family="sans-serif" font-size="43.75" font-weight="bold" lengthAdjust="spacing" textLength="1303.125" x="1130.4688" y="89.1724">The sequence of uploading an image in content publisher</text><rect fill="#F2F8FE" height="1661.5723" style="stroke:#181818;stroke-width:1.5625;" width="2857.8125" x="65.625" y="135.9009"/><text fill="#000000" font-family="sans-serif" font-size="40.625" font-weight="bold" lengthAdjust="spacing" textLength="381.25" x="1303.9063" y="175.177">Content publisher</text><rect fill="#F2FEF8" height="1661.5723" style="stroke:#181818;stroke-width:1.5625;" width="446.875" x="3054.6875" y="135.9009"/><text fill="#000000" font-family="sans-serif" font-size="40.625" font-weight="bold" lengthAdjust="spacing" textLength="315.625" x="3120.3125" y="175.177">Asset Manager</text><line style="stroke:#181818;stroke-width:1.5625;stroke-dasharray:5.0,5.0;" x1="150" x2="150" y1="435.2722" y2="1549.0723"/><line style="stroke:#181818;stroke-width:1.5625;stroke-dasharray:5.0,5.0;" x1="493.75" x2="493.75" y1="435.2722" y2="1549.0723"/><line style="stroke:#181818;stroke-width:1.5625;stroke-dasharray:5.0,5.0;" x1="1051.5625" x2="1051.5625" y1="435.2722" y2="1549.0723"/><line style="stroke:#181818;stroke-width:1.5625;stroke-dasharray:5.0,5.0;" x1="1548.4375" x2="1548.4375" y1="435.2722" y2="1549.0723"/><line style="stroke:#181818;stroke-width:1.5625;stroke-dasharray:5.0,5.0;" x1="2089.0625" x2="2089.0625" y1="435.2722" y2="1549.0723"/><line style="stroke:#181818;stroke-width:1.5625;stroke-dasharray:5.0,5.0;" x1="2635.9375" x2="2635.9375" y1="435.2722" y2="1549.0723"/><line style="stroke:#181818;stroke-width:1.5625;stroke-dasharray:5.0,5.0;" x1="3276.5625" x2="3276.5625" y1="435.2722" y2="1549.0723"/><text fill="#000000" font-family="sans-serif" font-size="43.75" lengthAdjust="spacing" textLength="128.125" x="78.125" y="426.0437">editor</text><ellipse cx="151.5625" cy="222.8088" fill="#E2E2F0" rx="25" ry="25" style="stroke:#181818;stroke-width:1.5625;"/><path d="M151.5625,247.8088 L151.5625,332.1838 M110.9375,272.8088 L192.1875,272.8088 M151.5625,332.1838 L110.9375,379.0588 M151.5625,332.1838 L192.1875,379.0588 " fill="none" style="stroke:#181818;stroke-width:1.5625;"/><text fill="#000000" font-family="sans-serif" font-size="43.75" lengthAdjust="spacing" textLength="128.125" x="78.125" y="1588.2446">editor</text><ellipse cx="151.5625" cy="1624.0356" fill="#E2E2F0" rx="25" ry="25" style="stroke:#181818;stroke-width:1.5625;"/><path d="M151.5625,1649.0356 L151.5625,1733.4106 M110.9375,1674.0356 L192.1875,1674.0356 M151.5625,1733.4106 L110.9375,1780.2856 M151.5625,1733.4106 L192.1875,1780.2856 " fill="none" style="stroke:#181818;stroke-width:1.5625;"/><rect fill="#E2E2F0" height="95.2759" rx="7.8125" ry="7.8125" style="stroke:#181818;stroke-width:1.5625;" width="415.625" x="287.5" y="336.8713"/><text fill="#000000" font-family="sans-serif" font-size="43.75" lengthAdjust="spacing" textLength="371.875" x="309.375" y="401.0437">ImagesController</text><rect fill="#E2E2F0" height="95.2759" rx="7.8125" ry="7.8125" style="stroke:#181818;stroke-width:1.5625;" width="415.625" x="287.5" y="1545.9473"/><text fill="#000000" font-family="sans-serif" font-size="43.75" lengthAdjust="spacing" textLength="371.875" x="309.375" y="1610.1196">ImagesController</text><rect fill="#E2E2F0" height="95.2759" rx="7.8125" ry="7.8125" style="stroke:#181818;stroke-width:1.5625;" width="337.5" x="882.8125" y="336.8713"/><text fill="#000000" font-family="sans-serif" font-size="43.75" lengthAdjust="spacing" textLength="293.75" x="904.6875" y="401.0437">ActiveStorage</text><rect fill="#E2E2F0" height="95.2759" rx="7.8125" ry="7.8125" style="stroke:#181818;stroke-width:1.5625;" width="337.5" x="882.8125" y="1545.9473"/><text fill="#000000" font-family="sans-serif" font-size="43.75" lengthAdjust="spacing" textLength="293.75" x="904.6875" y="1610.1196">ActiveStorage</text><rect fill="#E2E2F0" height="95.2759" rx="7.8125" ry="7.8125" style="stroke:#181818;stroke-width:1.5625;" width="471.875" x="1314.0625" y="336.8713"/><text fill="#000000" font-family="sans-serif" font-size="43.75" lengthAdjust="spacing" textLength="428.125" x="1335.9375" y="401.0437">PreviewAssetService</text><rect fill="#E2E2F0" height="95.2759" rx="7.8125" ry="7.8125" style="stroke:#181818;stroke-width:1.5625;" width="471.875" x="1314.0625" y="1545.9473"/><text fill="#000000" font-family="sans-serif" font-size="43.75" lengthAdjust="spacing" textLength="428.125" x="1335.9375" y="1610.1196">PreviewAssetService</text><rect fill="#E2E2F0" height="95.2759" rx="7.8125" ry="7.8125" style="stroke:#181818;stroke-width:1.5625;" width="418.75" x="1879.6875" y="336.8713"/><text fill="#000000" font-family="sans-serif" font-size="43.75" lengthAdjust="spacing" textLength="375" x="1901.5625" y="401.0437">PublishController</text><rect fill="#E2E2F0" height="95.2759" rx="7.8125" ry="7.8125" style="stroke:#181818;stroke-width:1.5625;" width="418.75" x="1879.6875" y="1545.9473"/><text fill="#000000" font-family="sans-serif" font-size="43.75" lengthAdjust="spacing" textLength="375" x="1901.5625" y="1610.1196">PublishController</text><rect fill="#E2E2F0" height="95.2759" rx="7.8125" ry="7.8125" style="stroke:#181818;stroke-width:1.5625;" width="487.5" x="2392.1875" y="336.8713"/><text fill="#000000" font-family="sans-serif" font-size="43.75" lengthAdjust="spacing" textLength="443.75" x="2414.0625" y="401.0437">PublishAssetsService</text><rect fill="#E2E2F0" height="95.2759" rx="7.8125" ry="7.8125" style="stroke:#181818;stroke-width:1.5625;" width="487.5" x="2392.1875" y="1545.9473"/><text fill="#000000" font-family="sans-serif" font-size="43.75" lengthAdjust="spacing" textLength="443.75" x="2414.0625" y="1610.1196">PublishAssetsService</text><rect fill="#E2E2F0" height="95.2759" rx="7.8125" ry="7.8125" style="stroke:#181818;stroke-width:1.5625;" width="359.375" x="3098.4375" y="336.8713"/><text fill="#000000" font-family="sans-serif" font-size="43.75" lengthAdjust="spacing" textLength="315.625" x="3120.3125" y="401.0437">Asset Manager</text><rect fill="#E2E2F0" height="95.2759" rx="7.8125" ry="7.8125" style="stroke:#181818;stroke-width:1.5625;" width="359.375" x="3098.4375" y="1545.9473"/><text fill="#000000" font-family="sans-serif" font-size="43.75" lengthAdjust="spacing" textLength="315.625" x="3120.3125" y="1610.1196">Asset Manager</text><polygon fill="#181818" points="457.8125,520.6177,489.0625,533.1177,457.8125,545.6177,470.3125,533.1177" style="stroke:#181818;stroke-width:3.125;"/><line style="stroke:#181818;stroke-width:3.125;" x1="151.5625" x2="476.5625" y1="533.1177" y2="533.1177"/><text fill="#000000" font-family="sans-serif" font-size="40.625" lengthAdjust="spacing" textLength="140.625" x="173.4375" y="518.2983">/create</text><polygon fill="#181818" points="1014.0625,612.2131,1045.3125,624.7131,1014.0625,637.2131,1026.5625,624.7131" style="stroke:#181818;stroke-width:3.125;"/><line style="stroke:#181818;stroke-width:3.125;" x1="495.3125" x2="1032.8125" y1="624.7131" y2="624.7131"/><text fill="#000000" font-family="sans-serif" font-size="40.625" lengthAdjust="spacing" textLength="100" x="517.1875" y="609.8938">store</text><polygon fill="#181818" points="457.8125,703.8086,489.0625,716.3086,457.8125,728.8086,470.3125,716.3086" style="stroke:#181818;stroke-width:3.125;"/><line style="stroke:#181818;stroke-width:3.125;" x1="151.5625" x2="476.5625" y1="716.3086" y2="716.3086"/><text fill="#000000" font-family="sans-serif" font-size="40.625" lengthAdjust="spacing" textLength="268.75" x="173.4375" y="701.4893">/update-crop</text><polygon fill="#181818" points="1014.0625,795.4041,1045.3125,807.9041,1014.0625,820.4041,1026.5625,807.9041" style="stroke:#181818;stroke-width:3.125;"/><line style="stroke:#181818;stroke-width:3.125;" x1="495.3125" x2="1032.8125" y1="807.9041" y2="807.9041"/><text fill="#000000" font-family="sans-serif" font-size="40.625" lengthAdjust="spacing" textLength="481.25" x="517.1875" y="793.0847">create a cropped version</text><polygon fill="#181818" points="1512.5,886.9995,1543.75,899.4995,1512.5,911.9995,1525,899.4995" style="stroke:#181818;stroke-width:3.125;"/><line style="stroke:#181818;stroke-width:3.125;" x1="495.3125" x2="1531.25" y1="899.4995" y2="899.4995"/><text fill="#000000" font-family="sans-serif" font-size="40.625" lengthAdjust="spacing" textLength="68.75" x="517.1875" y="884.6802">call</text><polygon fill="#181818" points="3240.625,978.595,3271.875,991.095,3240.625,1003.595,3253.125,991.095" style="stroke:#181818;stroke-width:3.125;"/><line style="stroke:#181818;stroke-width:3.125;" x1="1550" x2="3259.375" y1="991.095" y2="991.095"/><text fill="#000000" font-family="sans-serif" font-size="40.625" lengthAdjust="spacing" textLength="437.5" x="1571.875" y="976.2756">upload cropped image</text><rect fill="#EEEEEE" height="9.375" style="stroke:#EEEEEE;stroke-width:3.125;" width="3567.1875" x="0" y="1080.6427"/><line style="stroke:#000000;stroke-width:3.125;" x1="0" x2="3567.1875" y1="1080.6427" y2="1080.6427"/><line style="stroke:#000000;stroke-width:3.125;" x1="0" x2="3567.1875" y1="1090.0177" y2="1090.0177"/><rect fill="#EEEEEE" height="72.8455" style="stroke:#000000;stroke-width:6.25;" width="215.625" x="1675.7813" y="1047.345"/><text fill="#000000" font-family="sans-serif" font-size="40.625" font-weight="bold" lengthAdjust="spacing" textLength="159.375" x="1694.5313" y="1099.1211">publish</text><polygon fill="#181818" points="2051.5625,1205.5359,2082.8125,1218.0359,2051.5625,1230.5359,2064.0625,1218.0359" style="stroke:#181818;stroke-width:3.125;"/><line style="stroke:#181818;stroke-width:3.125;" x1="151.5625" x2="2070.3125" y1="1218.0359" y2="1218.0359"/><text fill="#000000" font-family="sans-serif" font-size="40.625" lengthAdjust="spacing" textLength="168.75" x="173.4375" y="1203.2166">/publish</text><polygon fill="#181818" points="2598.4375,1297.1313,2629.6875,1309.6313,2598.4375,1322.1313,2610.9375,1309.6313" style="stroke:#181818;stroke-width:3.125;"/><line style="stroke:#181818;stroke-width:3.125;" x1="2089.0625" x2="2617.1875" y1="1309.6313" y2="1309.6313"/><text fill="#000000" font-family="sans-serif" font-size="40.625" lengthAdjust="spacing" textLength="68.75" x="2110.9375" y="1294.812">call</text><polygon fill="#181818" points="3240.625,1388.7268,3271.875,1401.2268,3240.625,1413.7268,3253.125,1401.2268" style="stroke:#181818;stroke-width:3.125;"/><line style="stroke:#181818;stroke-width:3.125;" x1="2635.9375" x2="3259.375" y1="1401.2268" y2="1401.2268"/><text fill="#000000" font-family="sans-serif" font-size="40.625" lengthAdjust="spacing" textLength="512.5" x="2657.8125" y="1386.4075">update-asset {draft: false}</text><polygon fill="#181818" points="3240.625,1480.3223,3271.875,1492.8223,3240.625,1505.3223,3253.125,1492.8223" style="stroke:#181818;stroke-width:3.125;"/><line style="stroke:#181818;stroke-width:3.125;" x1="2635.9375" x2="3259.375" y1="1492.8223" y2="1492.8223"/><text fill="#000000" font-family="sans-serif" font-size="40.625" lengthAdjust="spacing" textLength="246.875" x="2657.8125" y="1478.0029">delete-asset</text><!--SRC=[bP9DRi8m48NtFiM8hb5Jka58gKIxwg8I4ht0O8_1mjYkxQH8LUzU9oH0Vb3RLIA_UT_C6plibN7eyG32ANZCCXPLr0JlEu907mKPJc0b54vR5Cfi0Gse0su9b05kJIGJmHKRhSAEF0jdthCzhb3KbbbsTRv27nLN3arizOUCCRQnHvYyz84Jk9CpEPV4a4VhWOHA7-Ok47YjfWcLqrkjgIikULGbhPCd5NMKbQTIqUSo18fhygNYFVqqmWrkezRkqDh924WncYor1czeKkSc1ybvXzAhkG1ECM7wD4W72xZddZ0I6qYfl9CtrORqHx_n2YSIRygzTN-2dle3GkLm9A0a7vGre-QHFLS8r9gDISdHtzoYUNtdTlNxOopFstS2UNuLSN1pLSQcaWt5YwDpc-SXnxGRKzPhnFhyItYKSG4ITQ3lVr04QMefFm00]--></g></svg>