<?xml version="1.0" encoding="us-ascii" standalone="no"?><svg xmlns="http://www.w3.org/2000/svg" xmlns:xlink="http://www.w3.org/1999/xlink" contentStyleType="text/css" height="628px" preserveAspectRatio="none" style="width:1221px;height:628px;background:#FFFFFF;" version="1.1" viewBox="0 0 1221 628" width="1221px" zoomAndPan="magnify"><defs/><g><!--cluster Whitehall--><g id="cluster_Whitehall"><polygon fill="none" points="313,16,323,6,850,6,850,444,840,454,313,454,313,16" style="stroke:#181818;stroke-width:1.0;"/><line style="stroke:#181818;stroke-width:1.0;" x1="840" x2="850" y1="16" y2="6"/><line style="stroke:#181818;stroke-width:1.0;" x1="313" x2="840" y1="16" y2="16"/><line style="stroke:#181818;stroke-width:1.0;" x1="840" x2="840" y1="16" y2="454"/><text fill="#000000" font-family="sans-serif" font-size="14" font-weight="bold" lengthAdjust="spacing" textLength="68" x="543.5" y="32.5352">Whitehall</text></g><!--cluster PublishingApi--><g id="cluster_PublishingApi"><polygon fill="none" points="874,149.5,884,139.5,1196,139.5,1196,339,1186,349,874,349,874,149.5" style="stroke:#181818;stroke-width:1.0;"/><line style="stroke:#181818;stroke-width:1.0;" x1="1186" x2="1196" y1="149.5" y2="139.5"/><line style="stroke:#181818;stroke-width:1.0;" x1="874" x2="1186" y1="149.5" y2="149.5"/><line style="stroke:#181818;stroke-width:1.0;" x1="1186" x2="1186" y1="149.5" y2="349"/><text fill="#000000" font-family="sans-serif" font-size="14" font-weight="bold" lengthAdjust="spacing" textLength="101" x="980.5" y="166.0352">PublishingApi</text></g><!--cluster AssetManager--><g id="cluster_AssetManager"><polygon fill="none" points="16,488,26,478,1204,478,1204,601,1194,611,16,611,16,488" style="stroke:#181818;stroke-width:1.0;"/><line style="stroke:#181818;stroke-width:1.0;" x1="1194" x2="1204" y1="488" y2="478"/><line style="stroke:#181818;stroke-width:1.0;" x1="16" x2="1194" y1="488" y2="488"/><line style="stroke:#181818;stroke-width:1.0;" x1="1194" x2="1194" y1="488" y2="611"/><text fill="#000000" font-family="sans-serif" font-size="14" font-weight="bold" lengthAdjust="spacing" textLength="101" x="555.5" y="504.5352">AssetManager</text></g><g id="elem_Document_1"><rect fill="#F1F1F1" height="61.4648" style="stroke:#181818;stroke-width:0.5;" width="141" x="648.5" y="46"/><text fill="#000000" font-family="sans-serif" font-size="14" lengthAdjust="spacing" textLength="83" x="677.5" y="61.5352">Document:1</text><line style="stroke:#181818;stroke-width:0.5;" x1="649.5" x2="788.5" y1="66.4883" y2="66.4883"/><text fill="#000000" font-family="sans-serif" font-size="14" lengthAdjust="spacing" textLength="129" x="654.5" y="84.0234">latest_edition_id: 3</text><text fill="#000000" font-family="sans-serif" font-size="14" lengthAdjust="spacing" textLength="115" x="654.5" y="100.5117">live_edition_id: 3</text></g><g id="elem_NewsArticle_1"><rect fill="#F1F1F1" height="61.4648" style="stroke:#181818;stroke-width:0.5;" width="158" x="420" y="167"/><text fill="#000000" font-family="sans-serif" font-size="14" lengthAdjust="spacing" textLength="93" x="452.5" y="182.5352">NewsArticle:1</text><line style="stroke:#181818;stroke-width:0.5;" x1="421" x2="577" y1="187.4883" y2="187.4883"/><text fill="#000000" font-family="sans-serif" font-size="14" lengthAdjust="spacing" textLength="121" x="426" y="205.0234">state: superseded</text><text fill="#000000" font-family="sans-serif" font-size="14" lengthAdjust="spacing" textLength="146" x="426" y="221.5117">force_published: true</text></g><g id="elem_FileAttachment_1"><rect fill="#F1F1F1" height="44.9766" style="stroke:#181818;stroke-width:0.5;" width="130" x="434" y="288"/><text fill="#000000" font-family="sans-serif" font-size="14" lengthAdjust="spacing" textLength="116" x="441" y="303.5352">FileAttachment:1</text><line style="stroke:#181818;stroke-width:0.5;" x1="435" x2="563" y1="308.4883" y2="308.4883"/><text fill="#000000" font-family="sans-serif" font-size="14" lengthAdjust="spacing" textLength="91" x="440" y="326.0234">deleted: false</text></g><g id="elem_Image_2"><rect fill="#F1F1F1" height="36.4883" style="stroke:#181818;stroke-width:0.5;" width="69" x="329.5" y="292.5"/><text fill="#000000" font-family="sans-serif" font-size="14" lengthAdjust="spacing" textLength="55" x="336.5" y="308.0352">Image:2</text><line style="stroke:#181818;stroke-width:0.5;" x1="330.5" x2="397.5" y1="312.9883" y2="312.9883"/></g><g id="elem_NewsArticle_3"><rect fill="#F1F1F1" height="61.4648" style="stroke:#181818;stroke-width:0.5;" width="158" x="640" y="167"/><text fill="#000000" font-family="sans-serif" font-size="14" lengthAdjust="spacing" textLength="93" x="672.5" y="182.5352">NewsArticle:3</text><line style="stroke:#181818;stroke-width:0.5;" x1="641" x2="797" y1="187.4883" y2="187.4883"/><text fill="#000000" font-family="sans-serif" font-size="14" lengthAdjust="spacing" textLength="109" x="646" y="205.0234">state: published</text><text fill="#000000" font-family="sans-serif" font-size="14" lengthAdjust="spacing" textLength="146" x="646" y="221.5117">force_published: true</text></g><g id="elem_FileAttachment_3"><rect fill="#F1F1F1" height="44.9766" style="stroke:#181818;stroke-width:0.5;" width="130" x="704" y="288"/><text fill="#000000" font-family="sans-serif" font-size="14" lengthAdjust="spacing" textLength="116" x="711" y="303.5352">FileAttachment:3</text><line style="stroke:#181818;stroke-width:0.5;" x1="705" x2="833" y1="308.4883" y2="308.4883"/><text fill="#000000" font-family="sans-serif" font-size="14" lengthAdjust="spacing" textLength="91" x="710" y="326.0234">deleted: false</text></g><g id="elem_Image_3"><rect fill="#F1F1F1" height="36.4883" style="stroke:#181818;stroke-width:0.5;" width="69" x="599.5" y="292.5"/><text fill="#000000" font-family="sans-serif" font-size="14" lengthAdjust="spacing" textLength="55" x="606.5" y="308.0352">Image:3</text><line style="stroke:#181818;stroke-width:0.5;" x1="600.5" x2="667.5" y1="312.9883" y2="312.9883"/></g><g id="elem_AttachmentData_1"><rect fill="#F1F1F1" height="44.9766" style="stroke:#181818;stroke-width:0.5;" width="200" x="634" y="393"/><text fill="#000000" font-family="sans-serif" font-size="14" lengthAdjust="spacing" textLength="123" x="672.5" y="408.5352">AttachmentData:1</text><line style="stroke:#181818;stroke-width:0.5;" x1="635" x2="833" y1="413.4883" y2="413.4883"/><text fill="#000000" font-family="sans-serif" font-size="14" lengthAdjust="spacing" textLength="188" x="640" y="431.0234">present_at_unpublish: false</text></g><g id="elem_ImageData_2"><rect fill="#F1F1F1" height="36.4883" style="stroke:#181818;stroke-width:0.5;" width="100" x="329" y="397.5"/><text fill="#000000" font-family="sans-serif" font-size="14" lengthAdjust="spacing" textLength="86" x="336" y="413.0352">ImageData:2</text><line style="stroke:#181818;stroke-width:0.5;" x1="330" x2="428" y1="417.9883" y2="417.9883"/></g><g id="elem_pubapi_Document_4"><rect fill="#F1F1F1" height="36.4883" style="stroke:#181818;stroke-width:0.5;" width="97" x="908.5" y="179.5"/><text fill="#000000" font-family="sans-serif" font-size="14" lengthAdjust="spacing" textLength="83" x="915.5" y="195.0352">Document:4</text><line style="stroke:#181818;stroke-width:0.5;" x1="909.5" x2="1004.5" y1="199.9883" y2="199.9883"/></g><g id="elem_pubapi_Edition_4"><rect fill="#F1F1F1" height="44.9766" style="stroke:#181818;stroke-width:0.5;" width="133" x="890.5" y="288"/><text fill="#000000" font-family="sans-serif" font-size="14" lengthAdjust="spacing" textLength="61" x="926.5" y="303.5352">Edition:4</text><line style="stroke:#181818;stroke-width:0.5;" x1="891.5" x2="1022.5" y1="308.4883" y2="308.4883"/><text fill="#000000" font-family="sans-serif" font-size="14" lengthAdjust="spacing" textLength="121" x="896.5" y="326.0234">state: superseded</text></g><g id="elem_pubapi_Edition_6"><rect fill="#F1F1F1" height="44.9766" style="stroke:#181818;stroke-width:0.5;" width="121" x="1058.5" y="288"/><text fill="#000000" font-family="sans-serif" font-size="14" lengthAdjust="spacing" textLength="61" x="1088.5" y="303.5352">Edition:6</text><line style="stroke:#181818;stroke-width:0.5;" x1="1059.5" x2="1178.5" y1="308.4883" y2="308.4883"/><text fill="#000000" font-family="sans-serif" font-size="14" lengthAdjust="spacing" textLength="109" x="1064.5" y="326.0234">state: published</text></g><g id="elem_am_WhitehallAsset_X164e681f"><rect fill="#F1F1F1" height="61.4648" style="stroke:#181818;stroke-width:0.5;" width="194" x="986" y="526"/><text fill="#000000" font-family="sans-serif" font-size="14" lengthAdjust="spacing" textLength="180" x="993" y="541.5352">WhitehallAsset:X164e681f</text><line style="stroke:#181818;stroke-width:0.5;" x1="987" x2="1179" y1="546.4883" y2="546.4883"/><text fill="#000000" font-family="sans-serif" font-size="14" lengthAdjust="spacing" textLength="106" x="992" y="564.0234">state: uploaded</text><text fill="#000000" font-family="sans-serif" font-size="14" lengthAdjust="spacing" textLength="73" x="992" y="580.5117">draft: false</text></g><g id="elem_am_WhitehallAsset_X174e681f"><rect fill="#F1F1F1" height="61.4648" style="stroke:#181818;stroke-width:0.5;" width="194" x="757" y="526"/><text fill="#000000" font-family="sans-serif" font-size="14" lengthAdjust="spacing" textLength="180" x="764" y="541.5352">WhitehallAsset:X174e681f</text><line style="stroke:#181818;stroke-width:0.5;" x1="758" x2="950" y1="546.4883" y2="546.4883"/><text fill="#000000" font-family="sans-serif" font-size="14" lengthAdjust="spacing" textLength="106" x="763" y="564.0234">state: uploaded</text><text fill="#000000" font-family="sans-serif" font-size="14" lengthAdjust="spacing" textLength="73" x="763" y="580.5117">draft: false</text></g><g id="elem_am_WhitehallAsset_X174e6824"><rect fill="#F1F1F1" height="61.4648" style="stroke:#181818;stroke-width:0.5;" width="198" x="40" y="526"/><text fill="#000000" font-family="sans-serif" font-size="14" lengthAdjust="spacing" textLength="184" x="47" y="541.5352">WhitehallAsset:X174e6824</text><line style="stroke:#181818;stroke-width:0.5;" x1="41" x2="237" y1="546.4883" y2="546.4883"/><text fill="#000000" font-family="sans-serif" font-size="14" lengthAdjust="spacing" textLength="106" x="46" y="564.0234">state: uploaded</text><text fill="#000000" font-family="sans-serif" font-size="14" lengthAdjust="spacing" textLength="73" x="46" y="580.5117">draft: false</text></g><g id="elem_am_WhitehallAsset_X174e6825"><rect fill="#F1F1F1" height="61.4648" style="stroke:#181818;stroke-width:0.5;" width="198" x="273" y="526"/><text fill="#000000" font-family="sans-serif" font-size="14" lengthAdjust="spacing" textLength="184" x="280" y="541.5352">WhitehallAsset:X174e6825</text><line style="stroke:#181818;stroke-width:0.5;" x1="274" x2="470" y1="546.4883" y2="546.4883"/><text fill="#000000" font-family="sans-serif" font-size="14" lengthAdjust="spacing" textLength="106" x="279" y="564.0234">state: uploaded</text><text fill="#000000" font-family="sans-serif" font-size="14" lengthAdjust="spacing" textLength="73" x="279" y="580.5117">draft: false</text></g><g id="elem_GMN37"><path d="M506.5,544 L506.5,552.5 L471.26,556.5 L506.5,560.5 L506.5,569.3105 A0,0 0 0 0 506.5,569.3105 L721.5,569.3105 A0,0 0 0 0 721.5,569.3105 L721.5,554 L711.5,544 L506.5,544 A0,0 0 0 0 506.5,544 " fill="#FEFFDD" style="stroke:#181818;stroke-width:0.5;"/><path d="M711.5,544 L711.5,554 L721.5,554 L711.5,544 " fill="#FEFFDD" style="stroke:#181818;stroke-width:0.5;"/><text fill="#000000" font-family="sans-serif" font-size="13" lengthAdjust="spacing" textLength="194" x="512.5" y="561.5684">also 5 other images not shown</text></g><!--reverse link Document_1 to NewsArticle_1--><g id="link_Document_1_NewsArticle_1"><path codeLine="11" d="M651.24,114.15 C620.12,130.99 583.68,150.7 554.25,166.61 " fill="none" id="Document_1-backto-NewsArticle_1" style="stroke:#181818;stroke-width:1.0;"/><polygon fill="#181818" points="662.44,108.1,655.2593,107.4382,651.8867,113.812,659.0673,114.4738,662.44,108.1" style="stroke:#181818;stroke-width:1.0;"/></g><!--reverse link NewsArticle_1 to FileAttachment_1--><g id="link_NewsArticle_1_FileAttachment_1"><path codeLine="15" d="M499,242.59 C499,258.12 499,274.9 499,287.77 " fill="none" id="NewsArticle_1-backto-FileAttachment_1" style="stroke:#181818;stroke-width:1.0;"/><polygon fill="#181818" points="499,229.76,495,235.76,499,241.76,503,235.76,499,229.76" style="stroke:#181818;stroke-width:1.0;"/></g><!--reverse link NewsArticle_1 to Image_2--><g id="link_NewsArticle_1_Image_2"><path codeLine="18" d="M451.65,237.43 C428.94,256.1 402.88,277.53 385.11,292.14 " fill="none" id="NewsArticle_1-backto-Image_2" style="stroke:#181818;stroke-width:1.0;"/><polygon fill="#181818" points="461.65,229.21,454.475,229.9308,452.3808,236.8311,459.5557,236.1103,461.65,229.21" style="stroke:#181818;stroke-width:1.0;"/></g><!--reverse link Document_1 to NewsArticle_3--><g id="link_Document_1_NewsArticle_3"><path codeLine="25" d="M719,121.63 C719,136.67 719,153.11 719,166.74 " fill="none" id="Document_1-backto-NewsArticle_3" style="stroke:#181818;stroke-width:1.0;"/><polygon fill="#181818" points="719,108.74,715,114.74,719,120.74,723,114.74,719,108.74" style="stroke:#181818;stroke-width:1.0;"/></g><!--reverse link NewsArticle_3 to FileAttachment_3--><g id="link_NewsArticle_3_FileAttachment_3"><path codeLine="29" d="M738.21,241.15 C745.39,257.08 753.24,274.5 759.21,287.77 " fill="none" id="NewsArticle_3-backto-FileAttachment_3" style="stroke:#181818;stroke-width:1.0;"/><polygon fill="#181818" points="733.02,229.63,731.8381,236.7436,737.9499,240.5706,739.1318,233.457,733.02,229.63" style="stroke:#181818;stroke-width:1.0;"/></g><!--reverse link NewsArticle_3 to Image_3--><g id="link_NewsArticle_3_Image_3"><path codeLine="32" d="M687.42,239.74 C673.55,257.85 658.02,278.13 647.29,292.14 " fill="none" id="NewsArticle_3-backto-Image_3" style="stroke:#181818;stroke-width:1.0;"/><polygon fill="#181818" points="695.3,229.45,688.474,231.7751,687.9949,238.9703,694.8209,236.6452,695.3,229.45" style="stroke:#181818;stroke-width:1.0;"/></g><!--link FileAttachment_1 to AttachmentData_1--><g id="link_FileAttachment_1_AttachmentData_1"><path codeLine="37" d="M536.44,333.47 C550.51,341.34 566.78,349.99 582,357 C605.78,367.95 632.3,378.52 656.44,387.54 " fill="none" id="FileAttachment_1-to-AttachmentData_1" style="stroke:#181818;stroke-width:1.0;"/><polygon fill="#181818" points="668.53,392,664.2872,386.1692,657.273,387.843,661.5158,393.6738,668.53,392" style="stroke:#181818;stroke-width:1.0;"/></g><!--link FileAttachment_3 to AttachmentData_1--><g id="link_FileAttachment_3_AttachmentData_1"><path codeLine="38" d="M761.58,333.34 C757.08,346.59 751.23,363.81 746.07,378.97 " fill="none" id="FileAttachment_3-to-AttachmentData_1" style="stroke:#181818;stroke-width:1.0;"/><polygon fill="#181818" points="741.9,391.25,747.6181,386.8565,745.7619,379.8884,740.0437,384.2819,741.9,391.25" style="stroke:#181818;stroke-width:1.0;"/></g><!--link Image_2 to ImageData_2--><g id="link_Image_2_ImageData_2"><path codeLine="41" d="M366.54,328.97 C368.7,343.78 371.85,365.4 374.44,383.19 " fill="none" id="Image_2-to-ImageData_2" style="stroke:#181818;stroke-width:1.0;"/><polygon fill="#181818" points="376.27,395.79,379.3641,389.2764,374.5415,383.9151,371.4475,390.4287,376.27,395.79" style="stroke:#181818;stroke-width:1.0;"/></g><!--link Image_3 to ImageData_2--><g id="link_Image_3_ImageData_2"><path codeLine="42" d="M618.12,328.75 C608.49,338.3 595.49,349.67 582,357 C538.66,380.53 484.77,395.21 443.4,403.85 " fill="none" id="Image_3-to-ImageData_2" style="stroke:#181818;stroke-width:1.0;"/><polygon fill="#181818" points="430.81,406.36,437.4762,409.1099,442.5785,404.0142,435.9123,401.2643,430.81,406.36" style="stroke:#181818;stroke-width:1.0;"/></g><!--reverse link pubapi_Document_4 to pubapi_Edition_4--><g id="link_pubapi_Document_4_pubapi_Edition_4"><path codeLine="50" d="M957,230.34 C957,248.72 957,271.35 957,287.7 " fill="none" id="pubapi_Document_4-backto-pubapi_Edition_4" style="stroke:#181818;stroke-width:1.0;"/><polygon fill="#181818" points="957,217.36,953,223.36,957,229.36,961,223.36,957,217.36" style="stroke:#181818;stroke-width:1.0;"/></g><!--reverse link pubapi_Document_4 to pubapi_Edition_6--><g id="link_pubapi_Document_4_pubapi_Edition_6"><path codeLine="54" d="M994.02,223.87 C1022.05,243.07 1060.15,269.18 1086.9,287.5 " fill="none" id="pubapi_Document_4-backto-pubapi_Edition_6" style="stroke:#181818;stroke-width:1.0;"/><polygon fill="#181818" points="983.56,216.7,986.2461,223.3922,993.4566,223.4866,990.7705,216.7944,983.56,216.7" style="stroke:#181818;stroke-width:1.0;"/></g><!--link Document_1 to pubapi_Document_4--><g id="link_Document_1_pubapi_Document_4"><path codeLine="81" d="M778.75,107.38 C824.05,130.03 884.73,160.37 922.33,179.16 " fill="none" id="Document_1-pubapi_Document_4" style="stroke:#181818;stroke-width:1.0;stroke-dasharray:7.0,7.0;"/></g><!--link AttachmentData_1 to am_WhitehallAsset_X164e681f--><g id="link_AttachmentData_1_am_WhitehallAsset_X164e681f"><path codeLine="82" d="M834.5,429.82 C877.3,437.89 926.95,450.53 969,470 C999.31,484.03 1029.35,507.04 1050.98,525.66 " fill="none" id="AttachmentData_1-am_WhitehallAsset_X164e681f" style="stroke:#181818;stroke-width:1.0;stroke-dasharray:7.0,7.0;"/></g><!--link AttachmentData_1 to am_WhitehallAsset_X174e681f--><g id="link_AttachmentData_1_am_WhitehallAsset_X174e681f"><path codeLine="83" d="M752.75,438.22 C773.05,461.74 805.57,499.4 828.26,525.68 " fill="none" id="AttachmentData_1-am_WhitehallAsset_X174e681f" style="stroke:#181818;stroke-width:1.0;stroke-dasharray:7.0,7.0;"/></g><!--link ImageData_2 to am_WhitehallAsset_X174e6824--><g id="link_ImageData_2_am_WhitehallAsset_X174e6824"><path codeLine="84" d="M332.27,433.98 C308.78,443.47 280.24,456.1 256,470 C227.63,486.27 197.9,508.06 175.51,525.58 " fill="none" id="ImageData_2-am_WhitehallAsset_X174e6824" style="stroke:#181818;stroke-width:1.0;stroke-dasharray:7.0,7.0;"/></g><!--link ImageData_2 to am_WhitehallAsset_X174e6825--><g id="link_ImageData_2_am_WhitehallAsset_X174e6825"><path codeLine="85" d="M378.13,433.82 C376.97,456.75 374.92,497.52 373.51,525.5 " fill="none" id="ImageData_2-am_WhitehallAsset_X174e6825" style="stroke:#181818;stroke-width:1.0;stroke-dasharray:7.0,7.0;"/></g><!--SRC=[hLHDZvim4BtpAwmzhfILWWbRSOkqkr8FhNfhRvON9i4LiH4UkeSg_xssCSHy9A5LRtW-tfjvCuDK1P3lfK0eULMHtv5w_mavaeSNbRSda9Xj7mZNf7-ohOaXfE886XaK0eMIJ1GPeTOiVi74U8vG7G5BQ0Bmh_2XzmsAl0AF7rWyXKR3aH7Trj1eAA0mjeDgSc1r-ru9NOB1nwO5Gn5KzxZPZC46qZTHmHwHvsNGrzZegGke02tyWLVQue-hinJJl87byuaV8OiTkFjciS5SWl3U-mhHcK8qL6YGuzy4ejS4eai2qVi2qIM1w4GW6WX4PmBHG22xGdtk1V258_SZ71lz2Ei6jENbo5hfzRYKEqjvtBGBCrqLDkdC5HQCtsLsAn2-7LA_0LSSjdDfx_DRLx-GntqjbcuqSNocJLuBDimwSQnzy6jtbkDORtIXIoTtZkQWTZJJz1bBkiIIBg_jIfAqbsElDU0NBer6zcGMhcVueRdGxCSsJI3zj3suelY9ZVriy8VrjNMbUFVRAHf-mClsN6LvliFo_3SivrMDESWukKqP9_-ZiNXtXsMtZaKg1DA8OuaHCIP5TaIvDeNTUasCd-XIVSW8P65VdHh1B-pfQRxhysCrKJT6lJhU3srqfBT2usHzwEuF]--></g></svg>