<?xml version="1.0" encoding="us-ascii" standalone="no"?><svg xmlns="http://www.w3.org/2000/svg" xmlns:xlink="http://www.w3.org/1999/xlink" contentStyleType="text/css" height="619px" preserveAspectRatio="none" style="width:1221px;height:619px;background:#FFFFFF;" version="1.1" viewBox="0 0 1221 619" width="1221px" zoomAndPan="magnify"><defs/><g><!--cluster Whitehall--><g id="cluster_Whitehall"><polygon fill="none" points="354,16,364,6,891,6,891,435,881,445,354,445,354,16" style="stroke:#181818;stroke-width:1.0;"/><line style="stroke:#181818;stroke-width:1.0;" x1="881" x2="891" y1="16" y2="6"/><line style="stroke:#181818;stroke-width:1.0;" x1="354" x2="881" y1="16" y2="16"/><line style="stroke:#181818;stroke-width:1.0;" x1="881" x2="881" y1="16" y2="445"/><text fill="#000000" font-family="sans-serif" font-size="14" font-weight="bold" lengthAdjust="spacing" textLength="68" x="584.5" y="32.5352">Whitehall</text></g><!--cluster PublishingApi--><g id="cluster_PublishingApi"><polygon fill="none" points="915,149.5,925,139.5,1092,139.5,1092,339,1082,349,915,349,915,149.5" style="stroke:#181818;stroke-width:1.0;"/><line style="stroke:#181818;stroke-width:1.0;" x1="1082" x2="1092" y1="149.5" y2="139.5"/><line style="stroke:#181818;stroke-width:1.0;" x1="915" x2="1082" y1="149.5" y2="149.5"/><line style="stroke:#181818;stroke-width:1.0;" x1="1082" x2="1082" y1="149.5" y2="349"/><text fill="#000000" font-family="sans-serif" font-size="14" font-weight="bold" lengthAdjust="spacing" textLength="101" x="949" y="166.0352">PublishingApi</text></g><!--cluster AssetManager--><g id="cluster_AssetManager"><polygon fill="none" points="16,479,26,469,1204,469,1204,592,1194,602,16,602,16,479" style="stroke:#181818;stroke-width:1.0;"/><line style="stroke:#181818;stroke-width:1.0;" x1="1194" x2="1204" y1="479" y2="469"/><line style="stroke:#181818;stroke-width:1.0;" x1="16" x2="1194" y1="479" y2="479"/><line style="stroke:#181818;stroke-width:1.0;" x1="1194" x2="1194" y1="479" y2="602"/><text fill="#000000" font-family="sans-serif" font-size="14" font-weight="bold" lengthAdjust="spacing" textLength="101" x="555.5" y="495.5352">AssetManager</text></g><g id="elem_Document_1"><rect fill="#F1F1F1" height="61.4648" style="stroke:#181818;stroke-width:0.5;" width="141" x="689.5" y="46"/><text fill="#000000" font-family="sans-serif" font-size="14" lengthAdjust="spacing" textLength="83" x="718.5" y="61.5352">Document:1</text><line style="stroke:#181818;stroke-width:0.5;" x1="690.5" x2="829.5" y1="66.4883" y2="66.4883"/><text fill="#000000" font-family="sans-serif" font-size="14" lengthAdjust="spacing" textLength="129" x="695.5" y="84.0234">latest_edition_id: 3</text><text fill="#000000" font-family="sans-serif" font-size="14" lengthAdjust="spacing" textLength="115" x="695.5" y="100.5117">live_edition_id: 1</text></g><g id="elem_NewsArticle_1"><rect fill="#F1F1F1" height="61.4648" style="stroke:#181818;stroke-width:0.5;" width="158" x="461" y="167"/><text fill="#000000" font-family="sans-serif" font-size="14" lengthAdjust="spacing" textLength="93" x="493.5" y="182.5352">NewsArticle:1</text><line style="stroke:#181818;stroke-width:0.5;" x1="462" x2="618" y1="187.4883" y2="187.4883"/><text fill="#000000" font-family="sans-serif" font-size="14" lengthAdjust="spacing" textLength="109" x="467" y="205.0234">state: published</text><text fill="#000000" font-family="sans-serif" font-size="14" lengthAdjust="spacing" textLength="146" x="467" y="221.5117">force_published: true</text></g><g id="elem_FileAttachment_1"><rect fill="#F1F1F1" height="44.9766" style="stroke:#181818;stroke-width:0.5;" width="130" x="475" y="288"/><text fill="#000000" font-family="sans-serif" font-size="14" lengthAdjust="spacing" textLength="116" x="482" y="303.5352">FileAttachment:1</text><line style="stroke:#181818;stroke-width:0.5;" x1="476" x2="604" y1="308.4883" y2="308.4883"/><text fill="#000000" font-family="sans-serif" font-size="14" lengthAdjust="spacing" textLength="91" x="481" y="326.0234">deleted: false</text></g><g id="elem_Image_2"><rect fill="#F1F1F1" height="36.4883" style="stroke:#181818;stroke-width:0.5;" width="69" x="370.5" y="292.5"/><text fill="#000000" font-family="sans-serif" font-size="14" lengthAdjust="spacing" textLength="55" x="377.5" y="308.0352">Image:2</text><line style="stroke:#181818;stroke-width:0.5;" x1="371.5" x2="438.5" y1="312.9883" y2="312.9883"/></g><g id="elem_NewsArticle_3"><rect fill="#F1F1F1" height="61.4648" style="stroke:#181818;stroke-width:0.5;" width="126" x="697" y="167"/><text fill="#000000" font-family="sans-serif" font-size="14" lengthAdjust="spacing" textLength="93" x="713.5" y="182.5352">NewsArticle:3</text><line style="stroke:#181818;stroke-width:0.5;" x1="698" x2="822" y1="187.4883" y2="187.4883"/><text fill="#000000" font-family="sans-serif" font-size="14" lengthAdjust="spacing" textLength="74" x="703" y="205.0234">state: draft</text><text fill="#000000" font-family="sans-serif" font-size="14" lengthAdjust="spacing" textLength="114" x="703" y="221.5117">force_published:</text></g><g id="elem_FileAttachment_3"><rect fill="#F1F1F1" height="44.9766" style="stroke:#181818;stroke-width:0.5;" width="130" x="745" y="288"/><text fill="#000000" font-family="sans-serif" font-size="14" lengthAdjust="spacing" textLength="116" x="752" y="303.5352">FileAttachment:3</text><line style="stroke:#181818;stroke-width:0.5;" x1="746" x2="874" y1="308.4883" y2="308.4883"/><text fill="#000000" font-family="sans-serif" font-size="14" lengthAdjust="spacing" textLength="91" x="751" y="326.0234">deleted: false</text></g><g id="elem_Image_3"><rect fill="#F1F1F1" height="36.4883" style="stroke:#181818;stroke-width:0.5;" width="69" x="640.5" y="292.5"/><text fill="#000000" font-family="sans-serif" font-size="14" lengthAdjust="spacing" textLength="55" x="647.5" y="308.0352">Image:3</text><line style="stroke:#181818;stroke-width:0.5;" x1="641.5" x2="708.5" y1="312.9883" y2="312.9883"/></g><g id="elem_AttachmentData_1"><rect fill="#F1F1F1" height="36.4883" style="stroke:#181818;stroke-width:0.5;" width="137" x="737.5" y="393"/><text fill="#000000" font-family="sans-serif" font-size="14" lengthAdjust="spacing" textLength="123" x="744.5" y="408.5352">AttachmentData:1</text><line style="stroke:#181818;stroke-width:0.5;" x1="738.5" x2="873.5" y1="413.4883" y2="413.4883"/></g><g id="elem_ImageData_2"><rect fill="#F1F1F1" height="36.4883" style="stroke:#181818;stroke-width:0.5;" width="100" x="370" y="393"/><text fill="#000000" font-family="sans-serif" font-size="14" lengthAdjust="spacing" textLength="86" x="377" y="408.5352">ImageData:2</text><line style="stroke:#181818;stroke-width:0.5;" x1="371" x2="469" y1="413.4883" y2="413.4883"/></g><g id="elem_pubapi_Document_4"><rect fill="#F1F1F1" height="36.4883" style="stroke:#181818;stroke-width:0.5;" width="97" x="937.5" y="179.5"/><text fill="#000000" font-family="sans-serif" font-size="14" lengthAdjust="spacing" textLength="83" x="944.5" y="195.0352">Document:4</text><line style="stroke:#181818;stroke-width:0.5;" x1="938.5" x2="1033.5" y1="199.9883" y2="199.9883"/></g><g id="elem_pubapi_Edition_4"><rect fill="#F1F1F1" height="44.9766" style="stroke:#181818;stroke-width:0.5;" width="121" x="931.5" y="288"/><text fill="#000000" font-family="sans-serif" font-size="14" lengthAdjust="spacing" textLength="61" x="961.5" y="303.5352">Edition:4</text><line style="stroke:#181818;stroke-width:0.5;" x1="932.5" x2="1051.5" y1="308.4883" y2="308.4883"/><text fill="#000000" font-family="sans-serif" font-size="14" lengthAdjust="spacing" textLength="109" x="937.5" y="326.0234">state: published</text></g><g id="elem_am_WhitehallAsset_X164e681f"><rect fill="#F1F1F1" height="61.4648" style="stroke:#181818;stroke-width:0.5;" width="194" x="986" y="517"/><text fill="#000000" font-family="sans-serif" font-size="14" lengthAdjust="spacing" textLength="180" x="993" y="532.5352">WhitehallAsset:X164e681f</text><line style="stroke:#181818;stroke-width:0.5;" x1="987" x2="1179" y1="537.4883" y2="537.4883"/><text fill="#000000" font-family="sans-serif" font-size="14" lengthAdjust="spacing" textLength="106" x="992" y="555.0234">state: uploaded</text><text fill="#000000" font-family="sans-serif" font-size="14" lengthAdjust="spacing" textLength="73" x="992" y="571.5117">draft: false</text></g><g id="elem_am_WhitehallAsset_X174e681f"><rect fill="#F1F1F1" height="61.4648" style="stroke:#181818;stroke-width:0.5;" width="194" x="757" y="517"/><text fill="#000000" font-family="sans-serif" font-size="14" lengthAdjust="spacing" textLength="180" x="764" y="532.5352">WhitehallAsset:X174e681f</text><line style="stroke:#181818;stroke-width:0.5;" x1="758" x2="950" y1="537.4883" y2="537.4883"/><text fill="#000000" font-family="sans-serif" font-size="14" lengthAdjust="spacing" textLength="106" x="763" y="555.0234">state: uploaded</text><text fill="#000000" font-family="sans-serif" font-size="14" lengthAdjust="spacing" textLength="73" x="763" y="571.5117">draft: false</text></g><g id="elem_am_WhitehallAsset_X174e6824"><rect fill="#F1F1F1" height="61.4648" style="stroke:#181818;stroke-width:0.5;" width="198" x="40" y="517"/><text fill="#000000" font-family="sans-serif" font-size="14" lengthAdjust="spacing" textLength="184" x="47" y="532.5352">WhitehallAsset:X174e6824</text><line style="stroke:#181818;stroke-width:0.5;" x1="41" x2="237" y1="537.4883" y2="537.4883"/><text fill="#000000" font-family="sans-serif" font-size="14" lengthAdjust="spacing" textLength="106" x="46" y="555.0234">state: uploaded</text><text fill="#000000" font-family="sans-serif" font-size="14" lengthAdjust="spacing" textLength="73" x="46" y="571.5117">draft: false</text></g><g id="elem_am_WhitehallAsset_X174e6825"><rect fill="#F1F1F1" height="61.4648" style="stroke:#181818;stroke-width:0.5;" width="198" x="273" y="517"/><text fill="#000000" font-family="sans-serif" font-size="14" lengthAdjust="spacing" textLength="184" x="280" y="532.5352">WhitehallAsset:X174e6825</text><line style="stroke:#181818;stroke-width:0.5;" x1="274" x2="470" y1="537.4883" y2="537.4883"/><text fill="#000000" font-family="sans-serif" font-size="14" lengthAdjust="spacing" textLength="106" x="279" y="555.0234">state: uploaded</text><text fill="#000000" font-family="sans-serif" font-size="14" lengthAdjust="spacing" textLength="73" x="279" y="571.5117">draft: false</text></g><g id="elem_GMN35"><path d="M506.5,535 L506.5,543.5 L471.26,547.5 L506.5,551.5 L506.5,560.3105 A0,0 0 0 0 506.5,560.3105 L721.5,560.3105 A0,0 0 0 0 721.5,560.3105 L721.5,545 L711.5,535 L506.5,535 A0,0 0 0 0 506.5,535 " fill="#FEFFDD" style="stroke:#181818;stroke-width:0.5;"/><path d="M711.5,535 L711.5,545 L721.5,545 L711.5,535 " fill="#FEFFDD" style="stroke:#181818;stroke-width:0.5;"/><text fill="#000000" font-family="sans-serif" font-size="13" lengthAdjust="spacing" textLength="194" x="512.5" y="552.5684">also 5 other images not shown</text></g><!--reverse link Document_1 to NewsArticle_1--><g id="link_Document_1_NewsArticle_1"><path codeLine="11" d="M692.24,114.15 C661.12,130.99 624.68,150.7 595.25,166.61 " fill="none" id="Document_1-backto-NewsArticle_1" style="stroke:#181818;stroke-width:1.0;"/><polygon fill="#181818" points="703.44,108.1,696.2593,107.4382,692.8867,113.812,700.0673,114.4738,703.44,108.1" style="stroke:#181818;stroke-width:1.0;"/></g><!--reverse link NewsArticle_1 to FileAttachment_1--><g id="link_NewsArticle_1_FileAttachment_1"><path codeLine="15" d="M540,242.59 C540,258.12 540,274.9 540,287.77 " fill="none" id="NewsArticle_1-backto-FileAttachment_1" style="stroke:#181818;stroke-width:1.0;"/><polygon fill="#181818" points="540,229.76,536,235.76,540,241.76,544,235.76,540,229.76" style="stroke:#181818;stroke-width:1.0;"/></g><!--reverse link NewsArticle_1 to Image_2--><g id="link_NewsArticle_1_Image_2"><path codeLine="18" d="M492.65,237.43 C469.94,256.1 443.88,277.53 426.11,292.14 " fill="none" id="NewsArticle_1-backto-Image_2" style="stroke:#181818;stroke-width:1.0;"/><polygon fill="#181818" points="502.65,229.21,495.475,229.9308,493.3808,236.8311,500.5557,236.1103,502.65,229.21" style="stroke:#181818;stroke-width:1.0;"/></g><!--reverse link Document_1 to NewsArticle_3--><g id="link_Document_1_NewsArticle_3"><path codeLine="25" d="M760,121.63 C760,136.67 760,153.11 760,166.74 " fill="none" id="Document_1-backto-NewsArticle_3" style="stroke:#181818;stroke-width:1.0;"/><polygon fill="#181818" points="760,108.74,756,114.74,760,120.74,764,114.74,760,108.74" style="stroke:#181818;stroke-width:1.0;"/></g><!--reverse link NewsArticle_3 to FileAttachment_3--><g id="link_NewsArticle_3_FileAttachment_3"><path codeLine="29" d="M779.21,241.15 C786.39,257.08 794.24,274.5 800.21,287.77 " fill="none" id="NewsArticle_3-backto-FileAttachment_3" style="stroke:#181818;stroke-width:1.0;"/><polygon fill="#181818" points="774.02,229.63,772.8381,236.7436,778.9499,240.5706,780.1318,233.457,774.02,229.63" style="stroke:#181818;stroke-width:1.0;"/></g><!--reverse link NewsArticle_3 to Image_3--><g id="link_NewsArticle_3_Image_3"><path codeLine="32" d="M728.42,239.74 C714.55,257.85 699.02,278.13 688.29,292.14 " fill="none" id="NewsArticle_3-backto-Image_3" style="stroke:#181818;stroke-width:1.0;"/><polygon fill="#181818" points="736.3,229.45,729.474,231.7751,728.9949,238.9703,735.8209,236.6452,736.3,229.45" style="stroke:#181818;stroke-width:1.0;"/></g><!--link FileAttachment_1 to AttachmentData_1--><g id="link_FileAttachment_1_AttachmentData_1"><path codeLine="36" d="M575.92,333.44 C590.22,341.58 607.05,350.41 623,357 C655.09,370.25 691.63,381.55 723.58,390.26 " fill="none" id="FileAttachment_1-to-AttachmentData_1" style="stroke:#181818;stroke-width:1.0;"/><polygon fill="#181818" points="735.97,393.57,731.2067,388.156,724.3772,390.4707,729.1405,395.8846,735.97,393.57" style="stroke:#181818;stroke-width:1.0;"/></g><!--link FileAttachment_3 to AttachmentData_1--><g id="link_FileAttachment_3_AttachmentData_1"><path codeLine="37" d="M809.11,333.36 C808.57,346.65 807.87,363.85 807.28,378.58 " fill="none" id="FileAttachment_3-to-AttachmentData_1" style="stroke:#181818;stroke-width:1.0;"/><polygon fill="#181818" points="806.76,391.27,811.0007,385.4376,807.248,379.2799,803.0073,385.1123,806.76,391.27" style="stroke:#181818;stroke-width:1.0;"/></g><!--link Image_2 to ImageData_2--><g id="link_Image_2_ImageData_2"><path codeLine="40" d="M407.61,328.66 C409.7,342.34 412.67,361.89 415.19,378.39 " fill="none" id="Image_2-to-ImageData_2" style="stroke:#181818;stroke-width:1.0;"/><polygon fill="#181818" points="417.14,391.21,420.1915,384.6764,415.3341,379.3467,412.2826,385.8803,417.14,391.21" style="stroke:#181818;stroke-width:1.0;"/></g><!--link Image_3 to ImageData_2--><g id="link_Image_3_ImageData_2"><path codeLine="41" d="M659.18,328.86 C649.57,338.44 636.57,349.81 623,357 C579.67,379.95 525.77,393.42 484.4,401.03 " fill="none" id="Image_3-to-ImageData_2" style="stroke:#181818;stroke-width:1.0;"/><polygon fill="#181818" points="471.82,403.23,478.4166,406.1428,483.6425,401.1739,477.0459,398.2611,471.82,403.23" style="stroke:#181818;stroke-width:1.0;"/></g><!--reverse link pubapi_Document_4 to pubapi_Edition_4--><g id="link_pubapi_Document_4_pubapi_Edition_4"><path codeLine="49" d="M987.71,230.06 C988.7,248.49 989.93,271.27 990.82,287.7 " fill="none" id="pubapi_Document_4-backto-pubapi_Edition_4" style="stroke:#181818;stroke-width:1.0;"/><polygon fill="#181818" points="987.02,217.36,983.3491,223.5668,987.6666,229.3426,991.3375,223.1357,987.02,217.36" style="stroke:#181818;stroke-width:1.0;"/></g><!--link Document_1 to pubapi_Document_4--><g id="link_Document_1_pubapi_Document_4"><path codeLine="76" d="M816.74,107.38 C859.76,130.03 917.38,160.37 953.07,179.16 " fill="none" id="Document_1-pubapi_Document_4" style="stroke:#181818;stroke-width:1.0;stroke-dasharray:7.0,7.0;"/></g><!--link AttachmentData_1 to am_WhitehallAsset_X164e681f--><g id="link_AttachmentData_1_am_WhitehallAsset_X164e681f"><path codeLine="77" d="M874.66,426.91 C904.57,434.83 939.46,446.08 969,461 C998.37,475.84 1027.99,498.33 1049.68,516.53 " fill="none" id="AttachmentData_1-am_WhitehallAsset_X164e681f" style="stroke:#181818;stroke-width:1.0;stroke-dasharray:7.0,7.0;"/></g><!--link AttachmentData_1 to am_WhitehallAsset_X174e681f--><g id="link_AttachmentData_1_am_WhitehallAsset_X174e681f"><path codeLine="78" d="M812.18,429.31 C820.05,451.37 833.79,489.87 843.36,516.7 " fill="none" id="AttachmentData_1-am_WhitehallAsset_X174e681f" style="stroke:#181818;stroke-width:1.0;stroke-dasharray:7.0,7.0;"/></g><!--link ImageData_2 to am_WhitehallAsset_X174e6824--><g id="link_ImageData_2_am_WhitehallAsset_X174e6824"><path codeLine="79" d="M369.54,422.36 C336.22,430.33 292.2,443.03 256,461 C226.03,475.88 195.62,498.37 173.32,516.56 " fill="none" id="ImageData_2-am_WhitehallAsset_X174e6824" style="stroke:#181818;stroke-width:1.0;stroke-dasharray:7.0,7.0;"/></g><!--link ImageData_2 to am_WhitehallAsset_X174e6825--><g id="link_ImageData_2_am_WhitehallAsset_X174e6825"><path codeLine="80" d="M413.82,429.31 C405.95,451.37 392.21,489.87 382.64,516.7 " fill="none" id="ImageData_2-am_WhitehallAsset_X174e6825" style="stroke:#181818;stroke-width:1.0;stroke-dasharray:7.0,7.0;"/></g><!--SRC=[hLInReCm4Dtv2gjZf5G2axHYYvHMwj2gMxiX1ox1bMD7-6Y6AlzUsm5Y0acer0tVdTyxltU7L3cGZu8Z54m8yXEerHTaIEwMAgks8349xmZJf3cceQaXH304ZIda7BcIASyJGcsOVqCd60Q70DK6i83I0t-3lLwKo3C1DRuNgIaq6ew4xAgLuBg0t8JMgimWRIC9mR82m-0rDvbEkrWjvpCNi41aMU4zgnkicNCGW1P-pOIs-DtcBCNvlPRbPSisa4GEt7sdaS4SWgYpjmMYFO6eBr1UiZKEY7DT5tf95pga2xsj2ntIXPxfGZrTQ4yNwkb2JQwvUm9SCcIrSzsWS-uGz8AJQJLWrgYoizuTjUUhktdqrZyxfCRQ2mdxDcdtxlre5fURnOuFxLxi-8odRCVJritOiJR5JyTrwzRMGLSwi4g7e8zfjJ-_tJIwq1hmbKdJlPtIWO5jVo6kDFaCvp7C7yErQufjqsu-RVD-VzLEA9QxJNT3VHgqYomFDrWU_i9o6FKm1nd5rocZ-3yU5irkiCp6iKY5G4g-ASn_meGKcH7bdidjF6fYyaGNQYy3aBaz7TNmVX_tz_qfxA-HgRfYzUZwshJE-bmhZUBnfRDV]--></g></svg>