<?xml version="1.0" encoding="us-ascii" standalone="no"?><svg xmlns="http://www.w3.org/2000/svg" xmlns:xlink="http://www.w3.org/1999/xlink" contentStyleType="text/css" height="619px" preserveAspectRatio="none" style="width:1221px;height:619px;background:#FFFFFF;" version="1.1" viewBox="0 0 1221 619" width="1221px" zoomAndPan="magnify"><defs/><g><!--cluster Whitehall--><g id="cluster_Whitehall"><polygon fill="none" points="337,16,347,6,874,6,874,435,864,445,337,445,337,16" style="stroke:#181818;stroke-width:1.0;"/><line style="stroke:#181818;stroke-width:1.0;" x1="864" x2="874" y1="16" y2="6"/><line style="stroke:#181818;stroke-width:1.0;" x1="337" x2="864" y1="16" y2="16"/><line style="stroke:#181818;stroke-width:1.0;" x1="864" x2="864" y1="16" y2="445"/><text fill="#000000" font-family="sans-serif" font-size="14" font-weight="bold" lengthAdjust="spacing" textLength="68" x="567.5" y="32.5352">Whitehall</text></g><!--cluster PublishingApi--><g id="cluster_PublishingApi"><polygon fill="none" points="898,149.5,908,139.5,1173,139.5,1173,339,1163,349,898,349,898,149.5" style="stroke:#181818;stroke-width:1.0;"/><line style="stroke:#181818;stroke-width:1.0;" x1="1163" x2="1173" y1="149.5" y2="139.5"/><line style="stroke:#181818;stroke-width:1.0;" x1="898" x2="1163" y1="149.5" y2="149.5"/><line style="stroke:#181818;stroke-width:1.0;" x1="1163" x2="1163" y1="149.5" y2="349"/><text fill="#000000" font-family="sans-serif" font-size="14" font-weight="bold" lengthAdjust="spacing" textLength="101" x="981" y="166.0352">PublishingApi</text></g><!--cluster AssetManager--><g id="cluster_AssetManager"><polygon fill="none" points="16,479,26,469,1204,469,1204,592,1194,602,16,602,16,479" style="stroke:#181818;stroke-width:1.0;"/><line style="stroke:#181818;stroke-width:1.0;" x1="1194" x2="1204" y1="479" y2="469"/><line style="stroke:#181818;stroke-width:1.0;" x1="16" x2="1194" y1="479" y2="479"/><line style="stroke:#181818;stroke-width:1.0;" x1="1194" x2="1194" y1="479" y2="602"/><text fill="#000000" font-family="sans-serif" font-size="14" font-weight="bold" lengthAdjust="spacing" textLength="101" x="555.5" y="495.5352">AssetManager</text></g><g id="elem_Document_1"><rect fill="#F1F1F1" height="61.4648" style="stroke:#181818;stroke-width:0.5;" width="141" x="672.5" y="46"/><text fill="#000000" font-family="sans-serif" font-size="14" lengthAdjust="spacing" textLength="83" x="701.5" y="61.5352">Document:1</text><line style="stroke:#181818;stroke-width:0.5;" x1="673.5" x2="812.5" y1="66.4883" y2="66.4883"/><text fill="#000000" font-family="sans-serif" font-size="14" lengthAdjust="spacing" textLength="129" x="678.5" y="84.0234">latest_edition_id: 3</text><text fill="#000000" font-family="sans-serif" font-size="14" lengthAdjust="spacing" textLength="115" x="678.5" y="100.5117">live_edition_id: 1</text></g><g id="elem_NewsArticle_1"><rect fill="#F1F1F1" height="61.4648" style="stroke:#181818;stroke-width:0.5;" width="158" x="444" y="167"/><text fill="#000000" font-family="sans-serif" font-size="14" lengthAdjust="spacing" textLength="93" x="476.5" y="182.5352">NewsArticle:1</text><line style="stroke:#181818;stroke-width:0.5;" x1="445" x2="601" y1="187.4883" y2="187.4883"/><text fill="#000000" font-family="sans-serif" font-size="14" lengthAdjust="spacing" textLength="109" x="450" y="205.0234">state: published</text><text fill="#000000" font-family="sans-serif" font-size="14" lengthAdjust="spacing" textLength="146" x="450" y="221.5117">force_published: true</text></g><g id="elem_FileAttachment_1"><rect fill="#F1F1F1" height="44.9766" style="stroke:#181818;stroke-width:0.5;" width="130" x="458" y="288"/><text fill="#000000" font-family="sans-serif" font-size="14" lengthAdjust="spacing" textLength="116" x="465" y="303.5352">FileAttachment:1</text><line style="stroke:#181818;stroke-width:0.5;" x1="459" x2="587" y1="308.4883" y2="308.4883"/><text fill="#000000" font-family="sans-serif" font-size="14" lengthAdjust="spacing" textLength="91" x="464" y="326.0234">deleted: false</text></g><g id="elem_Image_2"><rect fill="#F1F1F1" height="36.4883" style="stroke:#181818;stroke-width:0.5;" width="69" x="353.5" y="292.5"/><text fill="#000000" font-family="sans-serif" font-size="14" lengthAdjust="spacing" textLength="55" x="360.5" y="308.0352">Image:2</text><line style="stroke:#181818;stroke-width:0.5;" x1="354.5" x2="421.5" y1="312.9883" y2="312.9883"/></g><g id="elem_NewsArticle_3"><rect fill="#F1F1F1" height="61.4648" style="stroke:#181818;stroke-width:0.5;" width="126" x="680" y="167"/><text fill="#000000" font-family="sans-serif" font-size="14" lengthAdjust="spacing" textLength="93" x="696.5" y="182.5352">NewsArticle:3</text><line style="stroke:#181818;stroke-width:0.5;" x1="681" x2="805" y1="187.4883" y2="187.4883"/><text fill="#000000" font-family="sans-serif" font-size="14" lengthAdjust="spacing" textLength="74" x="686" y="205.0234">state: draft</text><text fill="#000000" font-family="sans-serif" font-size="14" lengthAdjust="spacing" textLength="114" x="686" y="221.5117">force_published:</text></g><g id="elem_FileAttachment_3"><rect fill="#F1F1F1" height="44.9766" style="stroke:#181818;stroke-width:0.5;" width="130" x="728" y="288"/><text fill="#000000" font-family="sans-serif" font-size="14" lengthAdjust="spacing" textLength="116" x="735" y="303.5352">FileAttachment:3</text><line style="stroke:#181818;stroke-width:0.5;" x1="729" x2="857" y1="308.4883" y2="308.4883"/><text fill="#000000" font-family="sans-serif" font-size="14" lengthAdjust="spacing" textLength="91" x="734" y="326.0234">deleted: false</text></g><g id="elem_Image_3"><rect fill="#F1F1F1" height="36.4883" style="stroke:#181818;stroke-width:0.5;" width="69" x="623.5" y="292.5"/><text fill="#000000" font-family="sans-serif" font-size="14" lengthAdjust="spacing" textLength="55" x="630.5" y="308.0352">Image:3</text><line style="stroke:#181818;stroke-width:0.5;" x1="624.5" x2="691.5" y1="312.9883" y2="312.9883"/></g><g id="elem_AttachmentData_1"><rect fill="#F1F1F1" height="36.4883" style="stroke:#181818;stroke-width:0.5;" width="137" x="720.5" y="393"/><text fill="#000000" font-family="sans-serif" font-size="14" lengthAdjust="spacing" textLength="123" x="727.5" y="408.5352">AttachmentData:1</text><line style="stroke:#181818;stroke-width:0.5;" x1="721.5" x2="856.5" y1="413.4883" y2="413.4883"/></g><g id="elem_ImageData_2"><rect fill="#F1F1F1" height="36.4883" style="stroke:#181818;stroke-width:0.5;" width="100" x="353" y="393"/><text fill="#000000" font-family="sans-serif" font-size="14" lengthAdjust="spacing" textLength="86" x="360" y="408.5352">ImageData:2</text><line style="stroke:#181818;stroke-width:0.5;" x1="354" x2="452" y1="413.4883" y2="413.4883"/></g><g id="elem_pubapi_Document_4"><rect fill="#F1F1F1" height="36.4883" style="stroke:#181818;stroke-width:0.5;" width="97" x="926.5" y="179.5"/><text fill="#000000" font-family="sans-serif" font-size="14" lengthAdjust="spacing" textLength="83" x="933.5" y="195.0352">Document:4</text><line style="stroke:#181818;stroke-width:0.5;" x1="927.5" x2="1022.5" y1="199.9883" y2="199.9883"/></g><g id="elem_pubapi_Edition_4"><rect fill="#F1F1F1" height="44.9766" style="stroke:#181818;stroke-width:0.5;" width="121" x="914.5" y="288"/><text fill="#000000" font-family="sans-serif" font-size="14" lengthAdjust="spacing" textLength="61" x="944.5" y="303.5352">Edition:4</text><line style="stroke:#181818;stroke-width:0.5;" x1="915.5" x2="1034.5" y1="308.4883" y2="308.4883"/><text fill="#000000" font-family="sans-serif" font-size="14" lengthAdjust="spacing" textLength="109" x="920.5" y="326.0234">state: published</text></g><g id="elem_pubapi_Edition_6"><rect fill="#F1F1F1" height="44.9766" style="stroke:#181818;stroke-width:0.5;" width="86" x="1071" y="288"/><text fill="#000000" font-family="sans-serif" font-size="14" lengthAdjust="spacing" textLength="61" x="1083.5" y="303.5352">Edition:6</text><line style="stroke:#181818;stroke-width:0.5;" x1="1072" x2="1156" y1="308.4883" y2="308.4883"/><text fill="#000000" font-family="sans-serif" font-size="14" lengthAdjust="spacing" textLength="74" x="1077" y="326.0234">state: draft</text></g><g id="elem_am_WhitehallAsset_X164e681f"><rect fill="#F1F1F1" height="61.4648" style="stroke:#181818;stroke-width:0.5;" width="194" x="986" y="517"/><text fill="#000000" font-family="sans-serif" font-size="14" lengthAdjust="spacing" textLength="180" x="993" y="532.5352">WhitehallAsset:X164e681f</text><line style="stroke:#181818;stroke-width:0.5;" x1="987" x2="1179" y1="537.4883" y2="537.4883"/><text fill="#000000" font-family="sans-serif" font-size="14" lengthAdjust="spacing" textLength="106" x="992" y="555.0234">state: uploaded</text><text fill="#000000" font-family="sans-serif" font-size="14" lengthAdjust="spacing" textLength="73" x="992" y="571.5117">draft: false</text></g><g id="elem_am_WhitehallAsset_X174e681f"><rect fill="#F1F1F1" height="61.4648" style="stroke:#181818;stroke-width:0.5;" width="194" x="757" y="517"/><text fill="#000000" font-family="sans-serif" font-size="14" lengthAdjust="spacing" textLength="180" x="764" y="532.5352">WhitehallAsset:X174e681f</text><line style="stroke:#181818;stroke-width:0.5;" x1="758" x2="950" y1="537.4883" y2="537.4883"/><text fill="#000000" font-family="sans-serif" font-size="14" lengthAdjust="spacing" textLength="106" x="763" y="555.0234">state: uploaded</text><text fill="#000000" font-family="sans-serif" font-size="14" lengthAdjust="spacing" textLength="73" x="763" y="571.5117">draft: false</text></g><g id="elem_am_WhitehallAsset_X174e6824"><rect fill="#F1F1F1" height="61.4648" style="stroke:#181818;stroke-width:0.5;" width="198" x="40" y="517"/><text fill="#000000" font-family="sans-serif" font-size="14" lengthAdjust="spacing" textLength="184" x="47" y="532.5352">WhitehallAsset:X174e6824</text><line style="stroke:#181818;stroke-width:0.5;" x1="41" x2="237" y1="537.4883" y2="537.4883"/><text fill="#000000" font-family="sans-serif" font-size="14" lengthAdjust="spacing" textLength="106" x="46" y="555.0234">state: uploaded</text><text fill="#000000" font-family="sans-serif" font-size="14" lengthAdjust="spacing" textLength="73" x="46" y="571.5117">draft: false</text></g><g id="elem_am_WhitehallAsset_X174e6825"><rect fill="#F1F1F1" height="61.4648" style="stroke:#181818;stroke-width:0.5;" width="198" x="273" y="517"/><text fill="#000000" font-family="sans-serif" font-size="14" lengthAdjust="spacing" textLength="184" x="280" y="532.5352">WhitehallAsset:X174e6825</text><line style="stroke:#181818;stroke-width:0.5;" x1="274" x2="470" y1="537.4883" y2="537.4883"/><text fill="#000000" font-family="sans-serif" font-size="14" lengthAdjust="spacing" textLength="106" x="279" y="555.0234">state: uploaded</text><text fill="#000000" font-family="sans-serif" font-size="14" lengthAdjust="spacing" textLength="73" x="279" y="571.5117">draft: false</text></g><g id="elem_GMN37"><path d="M506.5,535 L506.5,543.5 L471.26,547.5 L506.5,551.5 L506.5,560.3105 A0,0 0 0 0 506.5,560.3105 L721.5,560.3105 A0,0 0 0 0 721.5,560.3105 L721.5,545 L711.5,535 L506.5,535 A0,0 0 0 0 506.5,535 " fill="#FEFFDD" style="stroke:#181818;stroke-width:0.5;"/><path d="M711.5,535 L711.5,545 L721.5,545 L711.5,535 " fill="#FEFFDD" style="stroke:#181818;stroke-width:0.5;"/><text fill="#000000" font-family="sans-serif" font-size="13" lengthAdjust="spacing" textLength="194" x="512.5" y="552.5684">also 5 other images not shown</text></g><!--reverse link Document_1 to NewsArticle_1--><g id="link_Document_1_NewsArticle_1"><path codeLine="11" d="M675.24,114.15 C644.12,130.99 607.68,150.7 578.25,166.61 " fill="none" id="Document_1-backto-NewsArticle_1" style="stroke:#181818;stroke-width:1.0;"/><polygon fill="#181818" points="686.44,108.1,679.2593,107.4382,675.8867,113.812,683.0673,114.4738,686.44,108.1" style="stroke:#181818;stroke-width:1.0;"/></g><!--reverse link NewsArticle_1 to FileAttachment_1--><g id="link_NewsArticle_1_FileAttachment_1"><path codeLine="15" d="M523,242.59 C523,258.12 523,274.9 523,287.77 " fill="none" id="NewsArticle_1-backto-FileAttachment_1" style="stroke:#181818;stroke-width:1.0;"/><polygon fill="#181818" points="523,229.76,519,235.76,523,241.76,527,235.76,523,229.76" style="stroke:#181818;stroke-width:1.0;"/></g><!--reverse link NewsArticle_1 to Image_2--><g id="link_NewsArticle_1_Image_2"><path codeLine="18" d="M475.65,237.43 C452.94,256.1 426.88,277.53 409.11,292.14 " fill="none" id="NewsArticle_1-backto-Image_2" style="stroke:#181818;stroke-width:1.0;"/><polygon fill="#181818" points="485.65,229.21,478.475,229.9308,476.3808,236.8311,483.5557,236.1103,485.65,229.21" style="stroke:#181818;stroke-width:1.0;"/></g><!--reverse link Document_1 to NewsArticle_3--><g id="link_Document_1_NewsArticle_3"><path codeLine="25" d="M743,121.63 C743,136.67 743,153.11 743,166.74 " fill="none" id="Document_1-backto-NewsArticle_3" style="stroke:#181818;stroke-width:1.0;"/><polygon fill="#181818" points="743,108.74,739,114.74,743,120.74,747,114.74,743,108.74" style="stroke:#181818;stroke-width:1.0;"/></g><!--reverse link NewsArticle_3 to FileAttachment_3--><g id="link_NewsArticle_3_FileAttachment_3"><path codeLine="29" d="M762.21,241.15 C769.39,257.08 777.24,274.5 783.21,287.77 " fill="none" id="NewsArticle_3-backto-FileAttachment_3" style="stroke:#181818;stroke-width:1.0;"/><polygon fill="#181818" points="757.02,229.63,755.8381,236.7436,761.9499,240.5706,763.1318,233.457,757.02,229.63" style="stroke:#181818;stroke-width:1.0;"/></g><!--reverse link NewsArticle_3 to Image_3--><g id="link_NewsArticle_3_Image_3"><path codeLine="32" d="M711.42,239.74 C697.55,257.85 682.02,278.13 671.29,292.14 " fill="none" id="NewsArticle_3-backto-Image_3" style="stroke:#181818;stroke-width:1.0;"/><polygon fill="#181818" points="719.3,229.45,712.474,231.7751,711.9949,238.9703,718.8209,236.6452,719.3,229.45" style="stroke:#181818;stroke-width:1.0;"/></g><!--link FileAttachment_1 to AttachmentData_1--><g id="link_FileAttachment_1_AttachmentData_1"><path codeLine="36" d="M558.92,333.44 C573.22,341.58 590.05,350.41 606,357 C638.09,370.25 674.63,381.55 706.58,390.26 " fill="none" id="FileAttachment_1-to-AttachmentData_1" style="stroke:#181818;stroke-width:1.0;"/><polygon fill="#181818" points="718.97,393.57,714.2067,388.156,707.3772,390.4707,712.1405,395.8846,718.97,393.57" style="stroke:#181818;stroke-width:1.0;"/></g><!--link FileAttachment_3 to AttachmentData_1--><g id="link_FileAttachment_3_AttachmentData_1"><path codeLine="37" d="M792.11,333.36 C791.57,346.65 790.87,363.85 790.28,378.58 " fill="none" id="FileAttachment_3-to-AttachmentData_1" style="stroke:#181818;stroke-width:1.0;"/><polygon fill="#181818" points="789.76,391.27,794.0007,385.4376,790.248,379.2799,786.0073,385.1123,789.76,391.27" style="stroke:#181818;stroke-width:1.0;"/></g><!--link Image_2 to ImageData_2--><g id="link_Image_2_ImageData_2"><path codeLine="40" d="M390.61,328.66 C392.7,342.34 395.67,361.89 398.19,378.39 " fill="none" id="Image_2-to-ImageData_2" style="stroke:#181818;stroke-width:1.0;"/><polygon fill="#181818" points="400.14,391.21,403.1915,384.6764,398.3341,379.3467,395.2826,385.8803,400.14,391.21" style="stroke:#181818;stroke-width:1.0;"/></g><!--link Image_3 to ImageData_2--><g id="link_Image_3_ImageData_2"><path codeLine="41" d="M642.18,328.86 C632.57,338.44 619.57,349.81 606,357 C562.67,379.95 508.77,393.42 467.4,401.03 " fill="none" id="Image_3-to-ImageData_2" style="stroke:#181818;stroke-width:1.0;"/><polygon fill="#181818" points="454.82,403.23,461.4166,406.1428,466.6425,401.1739,460.0459,398.2611,454.82,403.23" style="stroke:#181818;stroke-width:1.0;"/></g><!--reverse link pubapi_Document_4 to pubapi_Edition_4--><g id="link_pubapi_Document_4_pubapi_Edition_4"><path codeLine="49" d="M975,230.34 C975,248.72 975,271.35 975,287.7 " fill="none" id="pubapi_Document_4-backto-pubapi_Edition_4" style="stroke:#181818;stroke-width:1.0;"/><polygon fill="#181818" points="975,217.36,971,223.36,975,229.36,979,223.36,975,217.36" style="stroke:#181818;stroke-width:1.0;"/></g><!--reverse link pubapi_Document_4 to pubapi_Edition_6--><g id="link_pubapi_Document_4_pubapi_Edition_6"><path codeLine="53" d="M1007.78,224.68 C1031.81,243.87 1064.07,269.62 1086.7,287.7 " fill="none" id="pubapi_Document_4-backto-pubapi_Edition_6" style="stroke:#181818;stroke-width:1.0;"/><polygon fill="#181818" points="997.9,216.79,1000.0959,223.6586,1007.2807,224.2735,1005.0848,217.4048,997.9,216.79" style="stroke:#181818;stroke-width:1.0;"/></g><!--link Document_1 to pubapi_Document_4--><g id="link_Document_1_pubapi_Document_4"><path codeLine="80" d="M801.24,107.38 C845.4,130.03 904.56,160.37 941.2,179.16 " fill="none" id="Document_1-pubapi_Document_4" style="stroke:#181818;stroke-width:1.0;stroke-dasharray:7.0,7.0;"/></g><!--link AttachmentData_1 to am_WhitehallAsset_X164e681f--><g id="link_AttachmentData_1_am_WhitehallAsset_X164e681f"><path codeLine="81" d="M857.86,424.34 C892.35,432.1 934.08,443.93 969,461 C998.78,475.56 1028.62,498.3 1050.3,516.67 " fill="none" id="AttachmentData_1-am_WhitehallAsset_X164e681f" style="stroke:#181818;stroke-width:1.0;stroke-dasharray:7.0,7.0;"/></g><!--link AttachmentData_1 to am_WhitehallAsset_X174e681f--><g id="link_AttachmentData_1_am_WhitehallAsset_X174e681f"><path codeLine="82" d="M797.36,429.31 C808.03,451.37 826.63,489.87 839.6,516.7 " fill="none" id="AttachmentData_1-am_WhitehallAsset_X174e681f" style="stroke:#181818;stroke-width:1.0;stroke-dasharray:7.0,7.0;"/></g><!--link ImageData_2 to am_WhitehallAsset_X174e6824--><g id="link_ImageData_2_am_WhitehallAsset_X174e6824"><path codeLine="83" d="M352.79,424.56 C323.64,432.86 286.72,445.15 256,461 C226.38,476.29 196.08,498.65 173.73,516.68 " fill="none" id="ImageData_2-am_WhitehallAsset_X174e6824" style="stroke:#181818;stroke-width:1.0;stroke-dasharray:7.0,7.0;"/></g><!--link ImageData_2 to am_WhitehallAsset_X174e6825--><g id="link_ImageData_2_am_WhitehallAsset_X174e6825"><path codeLine="84" d="M399.01,429.31 C393.93,451.37 385.05,489.87 378.87,516.7 " fill="none" id="ImageData_2-am_WhitehallAsset_X174e6825" style="stroke:#181818;stroke-width:1.0;stroke-dasharray:7.0,7.0;"/></g><!--SRC=[hLJ1RgCm4Btp5LQFbH89JCYAMwIqKWzTxQrxGovCWbUE7U5XUrZbtsixG4rm4Yhj3MR6xysyvx5K5P2tcYFKJ0ZoBrBlVw14yh1LPNi0YNdyG9Wc_MyHcnf214FGM435aIjPy2edr8RvNnW5u-WKeTe3rj1uu3_XGsyQvAM03j-BT1GQ3KTEZksxuBg6oeHsgYcX628vmQO5m-0rzxXOZB46pcSkO8F8ojeRQnpic2iGW1P-nuIs-EFcBCNbkO7bvS3sa2SEt7qNYS4CGNJP-mBHYK3K5wXgs0u3ujpMXLxJXOPqeVTreI5Tw8KkrDE5JdIXdYxKvFgpNu1RXgnpRXnqpfsYIV1nqGRCcbLsqRkZzdnr9y_U-lyEgRVsIiBE9ktU_JgRnUL-S-IXtKiTd_6K7Nank9awrhxuwRnkuzekw4e3gtIAffXM-ylJ4v8iH99Dh-DCWgnNOgCru2kJHXwx1e6D6DueLvh_ZhCKiX_npZN43iKuNmnvlxVsA1Iht5FYslowoLTPrdTOrjzXESqQp44cwMtA9FqVWoMhEoohUInI8P26xslp49cG8YkYt9ZSNdXDJ9xeMdt826Hb_yvgUE_JSZczvjCzDLKth9vTtvassizRfKawltJr2G00]--></g></svg>