<?xml version="1.0" encoding="us-ascii" standalone="no"?><svg xmlns="http://www.w3.org/2000/svg" xmlns:xlink="http://www.w3.org/1999/xlink" contentStyleType="text/css" height="449px" preserveAspectRatio="none" style="width:408px;height:449px;background:#FFFFFF;" version="1.1" viewBox="0 0 408 449" width="408px" zoomAndPan="magnify"><defs/><g><!--cluster Whitehall--><g id="cluster_Whitehall"><polygon fill="none" points="16,16,26,6,190,6,190,422,180,432,16,432,16,16" style="stroke:#181818;stroke-width:1.0;"/><line style="stroke:#181818;stroke-width:1.0;" x1="180" x2="190" y1="16" y2="6"/><line style="stroke:#181818;stroke-width:1.0;" x1="16" x2="180" y1="16" y2="16"/><line style="stroke:#181818;stroke-width:1.0;" x1="180" x2="180" y1="16" y2="432"/><text fill="#000000" font-family="sans-serif" font-size="14" font-weight="bold" lengthAdjust="spacing" textLength="68" x="65" y="32.5352">Whitehall</text></g><!--cluster PublishingApi--><g id="cluster_PublishingApi"><polygon fill="none" points="214,144.5,224,134.5,391,134.5,391,326,381,336,214,336,214,144.5" style="stroke:#181818;stroke-width:1.0;"/><line style="stroke:#181818;stroke-width:1.0;" x1="381" x2="391" y1="144.5" y2="134.5"/><line style="stroke:#181818;stroke-width:1.0;" x1="214" x2="381" y1="144.5" y2="144.5"/><line style="stroke:#181818;stroke-width:1.0;" x1="381" x2="381" y1="144.5" y2="336"/><text fill="#000000" font-family="sans-serif" font-size="14" font-weight="bold" lengthAdjust="spacing" textLength="101" x="248" y="161.0352">PublishingApi</text></g><!--cluster AssetManager--><g id="cluster_AssetManager"><polygon fill="none" points="214,28.5,224,18.5,391,18.5,391,100.5,381,110.5,214,110.5,214,28.5" style="stroke:#181818;stroke-width:1.0;"/><line style="stroke:#181818;stroke-width:1.0;" x1="381" x2="391" y1="28.5" y2="18.5"/><line style="stroke:#181818;stroke-width:1.0;" x1="214" x2="381" y1="28.5" y2="28.5"/><line style="stroke:#181818;stroke-width:1.0;" x1="381" x2="381" y1="28.5" y2="110.5"/><text fill="#000000" font-family="sans-serif" font-size="14" font-weight="bold" lengthAdjust="spacing" textLength="101" x="248" y="45.0352">AssetManager</text></g><g id="elem_Document_1"><rect fill="#F1F1F1" height="61.4648" style="stroke:#181818;stroke-width:0.5;" width="141" x="32.5" y="46"/><text fill="#000000" font-family="sans-serif" font-size="14" lengthAdjust="spacing" textLength="83" x="61.5" y="61.5352">Document:1</text><line style="stroke:#181818;stroke-width:0.5;" x1="33.5" x2="172.5" y1="66.4883" y2="66.4883"/><text fill="#000000" font-family="sans-serif" font-size="14" lengthAdjust="spacing" textLength="129" x="38.5" y="84.0234">latest_edition_id: 1</text><text fill="#000000" font-family="sans-serif" font-size="14" lengthAdjust="spacing" textLength="102" x="38.5" y="100.5117">live_edition_id:</text></g><g id="elem_NewsArticle_1"><rect fill="#F1F1F1" height="44.9766" style="stroke:#181818;stroke-width:0.5;" width="107" x="49.5" y="170"/><text fill="#000000" font-family="sans-serif" font-size="14" lengthAdjust="spacing" textLength="93" x="56.5" y="185.5352">NewsArticle:1</text><line style="stroke:#181818;stroke-width:0.5;" x1="50.5" x2="155.5" y1="190.4883" y2="190.4883"/><text fill="#000000" font-family="sans-serif" font-size="14" lengthAdjust="spacing" textLength="74" x="55.5" y="208.0234">state: draft</text></g><g id="elem_FileAttachment_1"><rect fill="#F1F1F1" height="44.9766" style="stroke:#181818;stroke-width:0.5;" width="130" x="38" y="275"/><text fill="#000000" font-family="sans-serif" font-size="14" lengthAdjust="spacing" textLength="116" x="45" y="290.5352">FileAttachment:1</text><line style="stroke:#181818;stroke-width:0.5;" x1="39" x2="167" y1="295.4883" y2="295.4883"/><text fill="#000000" font-family="sans-serif" font-size="14" lengthAdjust="spacing" textLength="91" x="44" y="313.0234">deleted: false</text></g><g id="elem_AttachmentData_1"><rect fill="#F1F1F1" height="36.4883" style="stroke:#181818;stroke-width:0.5;" width="137" x="34.5" y="380"/><text fill="#000000" font-family="sans-serif" font-size="14" lengthAdjust="spacing" textLength="123" x="41.5" y="395.5352">AttachmentData:1</text><line style="stroke:#181818;stroke-width:0.5;" x1="35.5" x2="170.5" y1="400.4883" y2="400.4883"/></g><g id="elem_pubapi_Document_4"><rect fill="#F1F1F1" height="36.4883" style="stroke:#181818;stroke-width:0.5;" width="97" x="230.5" y="174.5"/><text fill="#000000" font-family="sans-serif" font-size="14" lengthAdjust="spacing" textLength="83" x="237.5" y="190.0352">Document:4</text><line style="stroke:#181818;stroke-width:0.5;" x1="231.5" x2="326.5" y1="194.9883" y2="194.9883"/></g><g id="elem_pubapi_Edition_4"><rect fill="#F1F1F1" height="44.9766" style="stroke:#181818;stroke-width:0.5;" width="86" x="236" y="275"/><text fill="#000000" font-family="sans-serif" font-size="14" lengthAdjust="spacing" textLength="61" x="248.5" y="290.5352">Edition:4</text><line style="stroke:#181818;stroke-width:0.5;" x1="237" x2="321" y1="295.4883" y2="295.4883"/><text fill="#000000" font-family="sans-serif" font-size="14" lengthAdjust="spacing" textLength="74" x="242" y="313.0234">state: draft</text></g><!--entity no assets--><g id="elem_no assets"><rect fill="#F1F1F1" height="36.4883" rx="2.5" ry="2.5" style="stroke:#181818;stroke-width:0.5;" width="84" x="260" y="58.5"/><text fill="#000000" font-family="sans-serif" font-size="14" lengthAdjust="spacing" textLength="64" x="270" y="82.0352">no assets</text></g><!--reverse link Document_1 to NewsArticle_1--><g id="link_Document_1_NewsArticle_1"><path codeLine="10" d="M103,121.92 C103,138.31 103,156.16 103,169.67 " fill="none" id="Document_1-backto-NewsArticle_1" style="stroke:#181818;stroke-width:1.0;"/><polygon fill="#181818" points="103,108.97,99,114.97,103,120.97,107,114.97,103,108.97" style="stroke:#181818;stroke-width:1.0;"/></g><!--reverse link NewsArticle_1 to FileAttachment_1--><g id="link_NewsArticle_1_FileAttachment_1"><path codeLine="14" d="M103,229.53 C103,244.59 103,261.58 103,274.69 " fill="none" id="NewsArticle_1-backto-FileAttachment_1" style="stroke:#181818;stroke-width:1.0;"/><polygon fill="#181818" points="103,216.86,99,222.86,103,228.86,107,222.86,103,216.86" style="stroke:#181818;stroke-width:1.0;"/></g><!--link FileAttachment_1 to AttachmentData_1--><g id="link_FileAttachment_1_AttachmentData_1"><path codeLine="18" d="M103,320.36 C103,333.65 103,350.85 103,365.58 " fill="none" id="FileAttachment_1-to-AttachmentData_1" style="stroke:#181818;stroke-width:1.0;"/><polygon fill="#181818" points="103,378.27,107,372.27,103,366.27,99,372.27,103,378.27" style="stroke:#181818;stroke-width:1.0;"/></g><!--reverse link pubapi_Document_4 to pubapi_Edition_4--><g id="link_pubapi_Document_4_pubapi_Edition_4"><path codeLine="26" d="M279,225.16 C279,241.19 279,260.25 279,274.63 " fill="none" id="pubapi_Document_4-backto-pubapi_Edition_4" style="stroke:#181818;stroke-width:1.0;"/><polygon fill="#181818" points="279,212.49,275,218.49,279,224.49,283,218.49,279,212.49" style="stroke:#181818;stroke-width:1.0;"/></g><!--link Document_1 to pubapi_Document_4--><g id="link_Document_1_pubapi_Document_4"><path codeLine="32" d="M149.24,107.45 C182.04,128.69 224.9,156.46 252.2,174.14 " fill="none" id="Document_1-pubapi_Document_4" style="stroke:#181818;stroke-width:1.0;stroke-dasharray:7.0,7.0;"/></g><!--SRC=[RP4nRyCW48Lt_mhaCP8ZMShapLBQhLMtZjRPNCnL52npReSg_xsOuXJYZ3mUxtlS6IjHl2jYLA2r-2bi_u43Y_9iX-KJ3JTrAS29xTZLtYE41aR77KfYigOZsOXwbUaBKx6u5cn7P8Lp4lsAtwwTcGQDCJrH8i2n9pH2pd1XdvBW3rML-s-vpwInPOP19SLpCQPBrCZeIrz0E_JvUO4LSV_EcpREltm6XiZ9nS2v5ZlnK2qFeyswXhUbr-GKcR6TwD4gJe4qBJrCrDr6SWgepVpqD_tS6yLWtSrsdxV-__xbLh9r3la538nXfxE7WXarYj9OJ_INhWo5igKTZ_lQnIy0]--></g></svg>