<?xml version="1.0" encoding="us-ascii" standalone="no"?><svg xmlns="http://www.w3.org/2000/svg" xmlns:xlink="http://www.w3.org/1999/xlink" contentStyleType="text/css" height="596px" preserveAspectRatio="none" style="width:602px;height:596px;background:#FFFFFF;" version="1.1" viewBox="0 0 602 596" width="602px" zoomAndPan="magnify"><defs/><g><!--cluster Whitehall--><g id="cluster_Whitehall"><polygon fill="none" points="22,16,32,6,384,6,384,428,374,438,22,438,22,16" style="stroke:#181818;stroke-width:1.0;"/><line style="stroke:#181818;stroke-width:1.0;" x1="374" x2="384" y1="16" y2="6"/><line style="stroke:#181818;stroke-width:1.0;" x1="22" x2="374" y1="16" y2="16"/><line style="stroke:#181818;stroke-width:1.0;" x1="374" x2="374" y1="16" y2="438"/><text fill="#000000" font-family="sans-serif" font-size="14" font-weight="bold" lengthAdjust="spacing" textLength="68" x="165" y="32.5352">Whitehall</text></g><!--cluster AssetManager--><g id="cluster_AssetManager"><polygon fill="none" points="16,472,26,462,471,462,471,569,461,579,16,579,16,472" style="stroke:#181818;stroke-width:1.0;"/><line style="stroke:#181818;stroke-width:1.0;" x1="461" x2="471" y1="472" y2="462"/><line style="stroke:#181818;stroke-width:1.0;" x1="16" x2="461" y1="472" y2="472"/><line style="stroke:#181818;stroke-width:1.0;" x1="461" x2="461" y1="472" y2="579"/><text fill="#000000" font-family="sans-serif" font-size="14" font-weight="bold" lengthAdjust="spacing" textLength="101" x="189" y="488.5352">AssetManager</text></g><!--cluster PublishingApi--><g id="cluster_PublishingApi"><polygon fill="none" points="408,141.5,418,131.5,585,131.5,585,323,575,333,408,333,408,141.5" style="stroke:#181818;stroke-width:1.0;"/><line style="stroke:#181818;stroke-width:1.0;" x1="575" x2="585" y1="141.5" y2="131.5"/><line style="stroke:#181818;stroke-width:1.0;" x1="408" x2="575" y1="141.5" y2="141.5"/><line style="stroke:#181818;stroke-width:1.0;" x1="575" x2="575" y1="141.5" y2="333"/><text fill="#000000" font-family="sans-serif" font-size="14" font-weight="bold" lengthAdjust="spacing" textLength="101" x="442" y="158.0352">PublishingApi</text></g><g id="elem_Document_1"><rect fill="#F1F1F1" height="61.4648" style="stroke:#181818;stroke-width:0.5;" width="141" x="214.5" y="46"/><text fill="#000000" font-family="sans-serif" font-size="14" lengthAdjust="spacing" textLength="83" x="243.5" y="61.5352">Document:1</text><line style="stroke:#181818;stroke-width:0.5;" x1="215.5" x2="354.5" y1="66.4883" y2="66.4883"/><text fill="#000000" font-family="sans-serif" font-size="14" lengthAdjust="spacing" textLength="129" x="220.5" y="84.0234">latest_edition_id: 1</text><text fill="#000000" font-family="sans-serif" font-size="14" lengthAdjust="spacing" textLength="102" x="220.5" y="100.5117">live_edition_id:</text></g><g id="elem_NewsArticle_1"><rect fill="#F1F1F1" height="44.9766" style="stroke:#181818;stroke-width:0.5;" width="107" x="184.5" y="167"/><text fill="#000000" font-family="sans-serif" font-size="14" lengthAdjust="spacing" textLength="93" x="191.5" y="182.5352">NewsArticle:1</text><line style="stroke:#181818;stroke-width:0.5;" x1="185.5" x2="290.5" y1="187.4883" y2="187.4883"/><text fill="#000000" font-family="sans-serif" font-size="14" lengthAdjust="spacing" textLength="74" x="190.5" y="205.0234">state: draft</text></g><g id="elem_FileAttachment_1"><rect fill="#F1F1F1" height="44.9766" style="stroke:#181818;stroke-width:0.5;" width="130" x="150" y="272"/><text fill="#000000" font-family="sans-serif" font-size="14" lengthAdjust="spacing" textLength="116" x="157" y="287.5352">FileAttachment:1</text><line style="stroke:#181818;stroke-width:0.5;" x1="151" x2="279" y1="292.4883" y2="292.4883"/><text fill="#000000" font-family="sans-serif" font-size="14" lengthAdjust="spacing" textLength="91" x="156" y="310.0234">deleted: false</text></g><g id="elem_AttachmentData_1"><rect fill="#F1F1F1" height="44.9766" style="stroke:#181818;stroke-width:0.5;" width="329" x="38.5" y="377"/><text fill="#000000" font-family="sans-serif" font-size="14" lengthAdjust="spacing" textLength="123" x="141.5" y="392.5352">AttachmentData:1</text><line style="stroke:#181818;stroke-width:0.5;" x1="39.5" x2="366.5" y1="397.4883" y2="397.4883"/><text fill="#000000" font-family="sans-serif" font-size="14" lengthAdjust="spacing" textLength="317" x="44.5" y="415.0234">uploaded_to_asset_manager_at: 24 May 16:28</text></g><g id="elem_am_WhitehallAsset_X164e681f"><rect fill="#F1F1F1" height="61.4648" style="stroke:#181818;stroke-width:0.5;" width="194" x="261" y="502"/><text fill="#000000" font-family="sans-serif" font-size="14" lengthAdjust="spacing" textLength="180" x="268" y="517.5352">WhitehallAsset:X164e681f</text><line style="stroke:#181818;stroke-width:0.5;" x1="262" x2="454" y1="522.4883" y2="522.4883"/><text fill="#000000" font-family="sans-serif" font-size="14" lengthAdjust="spacing" textLength="116" x="267" y="540.0234">state: unscanned</text><text fill="#000000" font-family="sans-serif" font-size="14" lengthAdjust="spacing" textLength="69" x="267" y="556.5117">draft: true</text></g><g id="elem_am_WhitehallAsset_X174e681f"><rect fill="#F1F1F1" height="61.4648" style="stroke:#181818;stroke-width:0.5;" width="194" x="32" y="502"/><text fill="#000000" font-family="sans-serif" font-size="14" lengthAdjust="spacing" textLength="180" x="39" y="517.5352">WhitehallAsset:X174e681f</text><line style="stroke:#181818;stroke-width:0.5;" x1="33" x2="225" y1="522.4883" y2="522.4883"/><text fill="#000000" font-family="sans-serif" font-size="14" lengthAdjust="spacing" textLength="116" x="38" y="540.0234">state: unscanned</text><text fill="#000000" font-family="sans-serif" font-size="14" lengthAdjust="spacing" textLength="69" x="38" y="556.5117">draft: true</text></g><g id="elem_pubapi_Document_4"><rect fill="#F1F1F1" height="36.4883" style="stroke:#181818;stroke-width:0.5;" width="97" x="424.5" y="171.5"/><text fill="#000000" font-family="sans-serif" font-size="14" lengthAdjust="spacing" textLength="83" x="431.5" y="187.0352">Document:4</text><line style="stroke:#181818;stroke-width:0.5;" x1="425.5" x2="520.5" y1="191.9883" y2="191.9883"/></g><g id="elem_pubapi_Edition_4"><rect fill="#F1F1F1" height="44.9766" style="stroke:#181818;stroke-width:0.5;" width="86" x="430" y="272"/><text fill="#000000" font-family="sans-serif" font-size="14" lengthAdjust="spacing" textLength="61" x="442.5" y="287.5352">Edition:4</text><line style="stroke:#181818;stroke-width:0.5;" x1="431" x2="515" y1="292.4883" y2="292.4883"/><text fill="#000000" font-family="sans-serif" font-size="14" lengthAdjust="spacing" textLength="74" x="436" y="310.0234">state: draft</text></g><!--reverse link Document_1 to NewsArticle_1--><g id="link_Document_1_NewsArticle_1"><path codeLine="10" d="M266.94,120.15 C260.2,136.08 252.82,153.5 247.2,166.77 " fill="none" id="Document_1-backto-NewsArticle_1" style="stroke:#181818;stroke-width:1.0;"/><polygon fill="#181818" points="271.81,108.64,265.7905,112.6105,267.1403,119.6942,273.1599,115.7236,271.81,108.64" style="stroke:#181818;stroke-width:1.0;"/></g><!--reverse link NewsArticle_1 to FileAttachment_1--><g id="link_NewsArticle_1_FileAttachment_1"><path codeLine="14" d="M230.06,226.06 C226.67,241.23 222.83,258.45 219.87,271.69 " fill="none" id="NewsArticle_1-backto-FileAttachment_1" style="stroke:#181818;stroke-width:1.0;"/><polygon fill="#181818" points="232.79,213.82,227.5801,218.8057,230.1785,225.5324,235.3884,220.5467,232.79,213.82" style="stroke:#181818;stroke-width:1.0;"/></g><!--link FileAttachment_1 to AttachmentData_1--><g id="link_FileAttachment_1_AttachmentData_1"><path codeLine="19" d="M212.46,317.34 C210.93,330.45 208.95,347.45 207.19,362.5 " fill="none" id="FileAttachment_1-to-AttachmentData_1" style="stroke:#181818;stroke-width:1.0;"/><polygon fill="#181818" points="205.72,375.18,210.3855,369.6816,207.1045,363.2601,202.439,368.7586,205.72,375.18" style="stroke:#181818;stroke-width:1.0;"/></g><!--reverse link pubapi_Document_4 to pubapi_Edition_4--><g id="link_pubapi_Document_4_pubapi_Edition_4"><path codeLine="37" d="M473,222.16 C473,238.19 473,257.25 473,271.63 " fill="none" id="pubapi_Document_4-backto-pubapi_Edition_4" style="stroke:#181818;stroke-width:1.0;"/><polygon fill="#181818" points="473,209.49,469,215.49,473,221.49,477,215.49,473,209.49" style="stroke:#181818;stroke-width:1.0;"/></g><!--link Document_1 to pubapi_Document_4--><g id="link_Document_1_pubapi_Document_4"><path codeLine="39" d="M335.38,107.25 C369.97,127.67 414.68,154.07 443.6,171.14 " fill="none" id="Document_1-pubapi_Document_4" style="stroke:#181818;stroke-width:1.0;stroke-dasharray:7.0,7.0;"/></g><!--link AttachmentData_1 to am_WhitehallAsset_X164e681f--><g id="link_AttachmentData_1_am_WhitehallAsset_X164e681f"><path codeLine="40" d="M228.94,422.43 C254.63,444.13 294.13,477.52 322.67,501.64 " fill="none" id="AttachmentData_1-am_WhitehallAsset_X164e681f" style="stroke:#181818;stroke-width:1.0;stroke-dasharray:7.0,7.0;"/></g><!--link AttachmentData_1 to am_WhitehallAsset_X174e681f--><g id="link_AttachmentData_1_am_WhitehallAsset_X174e681f"><path codeLine="41" d="M190.61,422.43 C178.35,444.13 159.49,477.52 145.87,501.64 " fill="none" id="AttachmentData_1-am_WhitehallAsset_X174e681f" style="stroke:#181818;stroke-width:1.0;stroke-dasharray:7.0,7.0;"/></g><!--SRC=[bLBBRi8m4Bpp5LQFI205HO1yYqHxe-gjlLbBl11NnexYJQkgwh_N3YOu1FLnpEnuPh8xnafapvKYh41hzZcnkrSiYTrjRDaUqH3FxXWuTluKcUSmfe7GaK2fI5aZbEGi2x1wmnISV4t87f0gR1BfHtntHKEgr1ZL4oGQEF8EdCa6zkHL4llfR3RazxeFIcD116ML11-2KLsYHa8VUW_QeTSV1WWMr-yywUnpWJT047s6OFHfQsr1eXHa1JY798vWu82D0E9iaRCjVB1ioHThBpzIcCxQcpbCk5aHvBOdjMIt_IcxEN_9bZakrzc-omX7CPoBVfuklJMk16DGXas50t16JOl91aOkgrzSLlznYN_urEwqSfKoXw9MjvgPTtPrkuDQYRuXkQTUajwVoZZaHh2ZZgesrWjrk7uvxEHyFeunlgTd_N21F_FZBhy1]--></g></svg>