<?xml version="1.0" encoding="us-ascii" standalone="no"?><svg xmlns="http://www.w3.org/2000/svg" xmlns:xlink="http://www.w3.org/1999/xlink" contentStyleType="text/css" height="612px" preserveAspectRatio="none" style="width:752px;height:612px;background:#FFFFFF;" version="1.1" viewBox="0 0 752 612" width="752px" zoomAndPan="magnify"><defs/><g><!--cluster Whitehall--><g id="cluster_Whitehall"><polygon fill="none" points="34,16,44,6,531,6,531,444,521,454,34,454,34,16" style="stroke:#181818;stroke-width:1.0;"/><line style="stroke:#181818;stroke-width:1.0;" x1="521" x2="531" y1="16" y2="6"/><line style="stroke:#181818;stroke-width:1.0;" x1="34" x2="521" y1="16" y2="16"/><line style="stroke:#181818;stroke-width:1.0;" x1="521" x2="521" y1="16" y2="454"/><text fill="#000000" font-family="sans-serif" font-size="14" font-weight="bold" lengthAdjust="spacing" textLength="68" x="244.5" y="32.5352">Whitehall</text></g><!--cluster PublishingApi--><g id="cluster_PublishingApi"><polygon fill="none" points="555,141.5,565,131.5,735,131.5,735,339,725,349,555,349,555,141.5" style="stroke:#181818;stroke-width:1.0;"/><line style="stroke:#181818;stroke-width:1.0;" x1="725" x2="735" y1="141.5" y2="131.5"/><line style="stroke:#181818;stroke-width:1.0;" x1="555" x2="725" y1="141.5" y2="141.5"/><line style="stroke:#181818;stroke-width:1.0;" x1="725" x2="725" y1="141.5" y2="349"/><text fill="#000000" font-family="sans-serif" font-size="14" font-weight="bold" lengthAdjust="spacing" textLength="101" x="590.5" y="158.0352">PublishingApi</text></g><!--cluster AssetManager--><g id="cluster_AssetManager"><polygon fill="none" points="16,488,26,478,622,478,622,585,612,595,16,595,16,488" style="stroke:#181818;stroke-width:1.0;"/><line style="stroke:#181818;stroke-width:1.0;" x1="612" x2="622" y1="488" y2="478"/><line style="stroke:#181818;stroke-width:1.0;" x1="16" x2="612" y1="488" y2="488"/><line style="stroke:#181818;stroke-width:1.0;" x1="612" x2="612" y1="488" y2="595"/><text fill="#000000" font-family="sans-serif" font-size="14" font-weight="bold" lengthAdjust="spacing" textLength="101" x="264.5" y="504.5352">AssetManager</text></g><g id="elem_Document_1"><rect fill="#F1F1F1" height="61.4648" style="stroke:#181818;stroke-width:0.5;" width="141" x="326.5" y="46"/><text fill="#000000" font-family="sans-serif" font-size="14" lengthAdjust="spacing" textLength="83" x="355.5" y="61.5352">Document:1</text><line style="stroke:#181818;stroke-width:0.5;" x1="327.5" x2="466.5" y1="66.4883" y2="66.4883"/><text fill="#000000" font-family="sans-serif" font-size="14" lengthAdjust="spacing" textLength="129" x="332.5" y="84.0234">latest_edition_id: 1</text><text fill="#000000" font-family="sans-serif" font-size="14" lengthAdjust="spacing" textLength="102" x="332.5" y="100.5117">live_edition_id:</text></g><g id="elem_NewsArticle_1"><rect fill="#F1F1F1" height="44.9766" style="stroke:#181818;stroke-width:0.5;" width="107" x="296.5" y="167"/><text fill="#000000" font-family="sans-serif" font-size="14" lengthAdjust="spacing" textLength="93" x="303.5" y="182.5352">NewsArticle:1</text><line style="stroke:#181818;stroke-width:0.5;" x1="297.5" x2="402.5" y1="187.4883" y2="187.4883"/><text fill="#000000" font-family="sans-serif" font-size="14" lengthAdjust="spacing" textLength="74" x="302.5" y="205.0234">state: draft</text></g><g id="elem_FileAttachment_1"><rect fill="#F1F1F1" height="44.9766" style="stroke:#181818;stroke-width:0.5;" width="130" x="285" y="280"/><text fill="#000000" font-family="sans-serif" font-size="14" lengthAdjust="spacing" textLength="116" x="292" y="295.5352">FileAttachment:1</text><line style="stroke:#181818;stroke-width:0.5;" x1="286" x2="414" y1="300.4883" y2="300.4883"/><text fill="#000000" font-family="sans-serif" font-size="14" lengthAdjust="spacing" textLength="91" x="291" y="318.0234">deleted: false</text></g><g id="elem_Image_2"><rect fill="#F1F1F1" height="36.4883" style="stroke:#181818;stroke-width:0.5;" width="69" x="122.5" y="284.5"/><text fill="#000000" font-family="sans-serif" font-size="14" lengthAdjust="spacing" textLength="55" x="129.5" y="300.0352">Image:2</text><line style="stroke:#181818;stroke-width:0.5;" x1="123.5" x2="190.5" y1="304.9883" y2="304.9883"/></g><g id="elem_AttachmentData_1"><rect fill="#F1F1F1" height="44.9766" style="stroke:#181818;stroke-width:0.5;" width="329" x="185.5" y="393"/><text fill="#000000" font-family="sans-serif" font-size="14" lengthAdjust="spacing" textLength="123" x="288.5" y="408.5352">AttachmentData:1</text><line style="stroke:#181818;stroke-width:0.5;" x1="186.5" x2="513.5" y1="413.4883" y2="413.4883"/><text fill="#000000" font-family="sans-serif" font-size="14" lengthAdjust="spacing" textLength="317" x="191.5" y="431.0234">uploaded_to_asset_manager_at: 24 May 16:28</text></g><g id="elem_ImageData_2"><rect fill="#F1F1F1" height="36.4883" style="stroke:#181818;stroke-width:0.5;" width="100" x="50" y="397.5"/><text fill="#000000" font-family="sans-serif" font-size="14" lengthAdjust="spacing" textLength="86" x="57" y="413.0352">ImageData:2</text><line style="stroke:#181818;stroke-width:0.5;" x1="51" x2="149" y1="417.9883" y2="417.9883"/></g><g id="elem_pubapi_Document_4"><rect fill="#F1F1F1" height="36.4883" style="stroke:#181818;stroke-width:0.5;" width="97" x="583.5" y="171.5"/><text fill="#000000" font-family="sans-serif" font-size="14" lengthAdjust="spacing" textLength="83" x="590.5" y="187.0352">Document:4</text><line style="stroke:#181818;stroke-width:0.5;" x1="584.5" x2="679.5" y1="191.9883" y2="191.9883"/></g><g id="elem_pubapi_Edition_4"><rect fill="#F1F1F1" height="61.4648" style="stroke:#181818;stroke-width:0.5;" width="147" x="571.5" y="272"/><text fill="#000000" font-family="sans-serif" font-size="14" lengthAdjust="spacing" textLength="61" x="614.5" y="287.5352">Edition:4</text><line style="stroke:#181818;stroke-width:0.5;" x1="572.5" x2="717.5" y1="292.4883" y2="292.4883"/><text fill="#000000" font-family="sans-serif" font-size="14" lengthAdjust="spacing" textLength="74" x="577.5" y="310.0234">state: draft</text><text fill="#000000" font-family="sans-serif" font-size="14" lengthAdjust="spacing" textLength="135" x="577.5" y="326.5117">content_store: draft</text></g><g id="elem_am_WhitehallAsset_X164e681f"><rect fill="#F1F1F1" height="61.4648" style="stroke:#181818;stroke-width:0.5;" width="194" x="412" y="518"/><text fill="#000000" font-family="sans-serif" font-size="14" lengthAdjust="spacing" textLength="180" x="419" y="533.5352">WhitehallAsset:X164e681f</text><line style="stroke:#181818;stroke-width:0.5;" x1="413" x2="605" y1="538.4883" y2="538.4883"/><text fill="#000000" font-family="sans-serif" font-size="14" lengthAdjust="spacing" textLength="106" x="418" y="556.0234">state: uploaded</text><text fill="#000000" font-family="sans-serif" font-size="14" lengthAdjust="spacing" textLength="69" x="418" y="572.5117">draft: true</text></g><g id="elem_am_WhitehallAsset_X174e681f"><rect fill="#F1F1F1" height="61.4648" style="stroke:#181818;stroke-width:0.5;" width="194" x="183" y="518"/><text fill="#000000" font-family="sans-serif" font-size="14" lengthAdjust="spacing" textLength="180" x="190" y="533.5352">WhitehallAsset:X174e681f</text><line style="stroke:#181818;stroke-width:0.5;" x1="184" x2="376" y1="538.4883" y2="538.4883"/><text fill="#000000" font-family="sans-serif" font-size="14" lengthAdjust="spacing" textLength="106" x="189" y="556.0234">state: uploaded</text><text fill="#000000" font-family="sans-serif" font-size="14" lengthAdjust="spacing" textLength="69" x="189" y="572.5117">draft: true</text></g><!--entity no images yet--><g id="elem_no images yet"><rect fill="#F1F1F1" height="36.4883" rx="2.5" ry="2.5" style="stroke:#181818;stroke-width:0.5;" width="115" x="32.5" y="530.5"/><text fill="#000000" font-family="sans-serif" font-size="14" lengthAdjust="spacing" textLength="95" x="42.5" y="554.0352">no images yet</text></g><!--reverse link Document_1 to NewsArticle_1--><g id="link_Document_1_NewsArticle_1"><path codeLine="10" d="M378.94,120.15 C372.2,136.08 364.82,153.5 359.2,166.77 " fill="none" id="Document_1-backto-NewsArticle_1" style="stroke:#181818;stroke-width:1.0;"/><polygon fill="#181818" points="383.81,108.64,377.7905,112.6105,379.1403,119.6942,385.1599,115.7236,383.81,108.64" style="stroke:#181818;stroke-width:1.0;"/></g><!--reverse link NewsArticle_1 to FileAttachment_1--><g id="link_NewsArticle_1_FileAttachment_1"><path codeLine="14" d="M350,226.81 C350,244.25 350,264.58 350,279.62 " fill="none" id="NewsArticle_1-backto-FileAttachment_1" style="stroke:#181818;stroke-width:1.0;"/><polygon fill="#181818" points="350,213.94,346,219.94,350,225.94,354,219.94,350,213.94" style="stroke:#181818;stroke-width:1.0;"/></g><!--reverse link NewsArticle_1 to Image_2--><g id="link_NewsArticle_1_Image_2"><path codeLine="17" d="M299.74,219.4 C264.02,239.95 217.23,266.86 187.14,284.17 " fill="none" id="NewsArticle_1-backto-Image_2" style="stroke:#181818;stroke-width:1.0;"/><polygon fill="#181818" points="310.56,213.18,303.3645,212.7054,300.159,219.1649,307.3544,219.6394,310.56,213.18" style="stroke:#181818;stroke-width:1.0;"/></g><!--link FileAttachment_1 to AttachmentData_1--><g id="link_FileAttachment_1_AttachmentData_1"><path codeLine="22" d="M350,325.43 C350,340.48 350,360.81 350,378.24 " fill="none" id="FileAttachment_1-to-AttachmentData_1" style="stroke:#181818;stroke-width:1.0;"/><polygon fill="#181818" points="350,391.1,354,385.1,350,379.1,346,385.1,350,391.1" style="stroke:#181818;stroke-width:1.0;"/></g><!--link Image_2 to ImageData_2--><g id="link_Image_2_ImageData_2"><path codeLine="25" d="M148.09,320.84 C139.35,337.87 125.84,364.18 115.36,384.58 " fill="none" id="Image_2-to-ImageData_2" style="stroke:#181818;stroke-width:1.0;"/><polygon fill="#181818" points="109.54,395.93,115.841,392.4233,115.0276,385.2582,108.7265,388.7649,109.54,395.93" style="stroke:#181818;stroke-width:1.0;"/></g><!--reverse link pubapi_Document_4 to pubapi_Edition_4--><g id="link_pubapi_Document_4_pubapi_Edition_4"><path codeLine="34" d="M635.71,222.16 C637.53,237.75 639.72,256.43 641.52,271.75 " fill="none" id="pubapi_Document_4-backto-pubapi_Edition_4" style="stroke:#181818;stroke-width:1.0;"/><polygon fill="#181818" points="634.21,209.35,630.936,215.775,635.6075,221.2683,638.8815,214.8433,634.21,209.35" style="stroke:#181818;stroke-width:1.0;"/></g><!--link Document_1 to pubapi_Document_4--><g id="link_Document_1_pubapi_Document_4"><path codeLine="48" d="M460.28,107.39 C503.38,127.75 558.94,153.99 595,171.02 " fill="none" id="Document_1-pubapi_Document_4" style="stroke:#181818;stroke-width:1.0;stroke-dasharray:7.0,7.0;"/></g><!--link AttachmentData_1 to am_WhitehallAsset_X164e681f--><g id="link_AttachmentData_1_am_WhitehallAsset_X164e681f"><path codeLine="49" d="M376.61,438.43 C402.96,460.13 443.48,493.52 472.76,517.64 " fill="none" id="AttachmentData_1-am_WhitehallAsset_X164e681f" style="stroke:#181818;stroke-width:1.0;stroke-dasharray:7.0,7.0;"/></g><!--link AttachmentData_1 to am_WhitehallAsset_X174e681f--><g id="link_AttachmentData_1_am_WhitehallAsset_X174e681f"><path codeLine="50" d="M338.28,438.43 C326.69,460.13 308.84,493.52 295.96,517.64 " fill="none" id="AttachmentData_1-am_WhitehallAsset_X174e681f" style="stroke:#181818;stroke-width:1.0;stroke-dasharray:7.0,7.0;"/></g><!--SRC=[bPF1Ri8m38RlF8N54Gca8WIeDoGsQGUctRPRP5f3CuK4DUucDEtTbuIsf1IDxTROplV_TbnjSeBNGZ8Lg1Hy3SpsdJA6uTfarO4qfyaGq49p58ch0L38P5bGBbaQBMIUGkB3yeFYuE1xm6PFN50PeP_fqwvAbfcYcXv5QW7BJY65lCGTEqeaFngFk_Kjzr4gMZ5ZLaJ6ky6QdfCY9cTwXygIutSDU8dhUwtAqm7tb4u3F7oBgMFUGjHPbslkNe1hPAmTTeErm-ge3EQK2pO2hIKM1zGELmha5AOpsE09adawNJfyZp0QL_Sw20QYBiBDSoVnEP0kZMY_BY_LLabRIBrV7UMjbPa5xB7Qub6Azkbc0TuKFvotf5jR1qFfrGu0P4QpvrWsPRGQVHa_-sjWuttbPxavZpAotlu18P- -9VCPpPV9BfZ3W-ZcHPkFVJPFvlVBUqk1ougYbdiYYpiYYt-8b4u2zLuH3BK1wL_Cmebu6ARU-OCca_xRz7V8LVtI-9_hwnv-0000]--></g></svg>