<?xml version="1.0" encoding="us-ascii" standalone="no"?><svg xmlns="http://www.w3.org/2000/svg" xmlns:xlink="http://www.w3.org/1999/xlink" contentStyleType="text/css" height="612px" preserveAspectRatio="none" style="width:1221px;height:612px;background:#FFFFFF;" version="1.1" viewBox="0 0 1221 612" width="1221px" zoomAndPan="magnify"><defs/><g><!--cluster Whitehall--><g id="cluster_Whitehall"><polygon fill="none" points="406,16,416,6,903,6,903,428,893,438,406,438,406,16" style="stroke:#181818;stroke-width:1.0;"/><line style="stroke:#181818;stroke-width:1.0;" x1="893" x2="903" y1="16" y2="6"/><line style="stroke:#181818;stroke-width:1.0;" x1="406" x2="893" y1="16" y2="16"/><line style="stroke:#181818;stroke-width:1.0;" x1="893" x2="893" y1="16" y2="438"/><text fill="#000000" font-family="sans-serif" font-size="14" font-weight="bold" lengthAdjust="spacing" textLength="68" x="616.5" y="32.5352">Whitehall</text></g><!--cluster PublishingApi--><g id="cluster_PublishingApi"><polygon fill="none" points="927,141.5,937,131.5,1104,131.5,1104,323,1094,333,927,333,927,141.5" style="stroke:#181818;stroke-width:1.0;"/><line style="stroke:#181818;stroke-width:1.0;" x1="1094" x2="1104" y1="141.5" y2="131.5"/><line style="stroke:#181818;stroke-width:1.0;" x1="927" x2="1094" y1="141.5" y2="141.5"/><line style="stroke:#181818;stroke-width:1.0;" x1="1094" x2="1094" y1="141.5" y2="333"/><text fill="#000000" font-family="sans-serif" font-size="14" font-weight="bold" lengthAdjust="spacing" textLength="101" x="961" y="158.0352">PublishingApi</text></g><!--cluster AssetManager--><g id="cluster_AssetManager"><polygon fill="none" points="16,472,26,462,1204,462,1204,585,1194,595,16,595,16,472" style="stroke:#181818;stroke-width:1.0;"/><line style="stroke:#181818;stroke-width:1.0;" x1="1194" x2="1204" y1="472" y2="462"/><line style="stroke:#181818;stroke-width:1.0;" x1="16" x2="1194" y1="472" y2="472"/><line style="stroke:#181818;stroke-width:1.0;" x1="1194" x2="1194" y1="472" y2="595"/><text fill="#000000" font-family="sans-serif" font-size="14" font-weight="bold" lengthAdjust="spacing" textLength="101" x="555.5" y="488.5352">AssetManager</text></g><g id="elem_Document_1"><rect fill="#F1F1F1" height="61.4648" style="stroke:#181818;stroke-width:0.5;" width="141" x="698.5" y="46"/><text fill="#000000" font-family="sans-serif" font-size="14" lengthAdjust="spacing" textLength="83" x="727.5" y="61.5352">Document:1</text><line style="stroke:#181818;stroke-width:0.5;" x1="699.5" x2="838.5" y1="66.4883" y2="66.4883"/><text fill="#000000" font-family="sans-serif" font-size="14" lengthAdjust="spacing" textLength="129" x="704.5" y="84.0234">latest_edition_id: 1</text><text fill="#000000" font-family="sans-serif" font-size="14" lengthAdjust="spacing" textLength="102" x="704.5" y="100.5117">live_edition_id:</text></g><g id="elem_NewsArticle_1"><rect fill="#F1F1F1" height="44.9766" style="stroke:#181818;stroke-width:0.5;" width="107" x="668.5" y="167"/><text fill="#000000" font-family="sans-serif" font-size="14" lengthAdjust="spacing" textLength="93" x="675.5" y="182.5352">NewsArticle:1</text><line style="stroke:#181818;stroke-width:0.5;" x1="669.5" x2="774.5" y1="187.4883" y2="187.4883"/><text fill="#000000" font-family="sans-serif" font-size="14" lengthAdjust="spacing" textLength="74" x="674.5" y="205.0234">state: draft</text></g><g id="elem_FileAttachment_1"><rect fill="#F1F1F1" height="44.9766" style="stroke:#181818;stroke-width:0.5;" width="130" x="657" y="272"/><text fill="#000000" font-family="sans-serif" font-size="14" lengthAdjust="spacing" textLength="116" x="664" y="287.5352">FileAttachment:1</text><line style="stroke:#181818;stroke-width:0.5;" x1="658" x2="786" y1="292.4883" y2="292.4883"/><text fill="#000000" font-family="sans-serif" font-size="14" lengthAdjust="spacing" textLength="91" x="663" y="310.0234">deleted: false</text></g><g id="elem_Image_2"><rect fill="#F1F1F1" height="36.4883" style="stroke:#181818;stroke-width:0.5;" width="69" x="494.5" y="276.5"/><text fill="#000000" font-family="sans-serif" font-size="14" lengthAdjust="spacing" textLength="55" x="501.5" y="292.0352">Image:2</text><line style="stroke:#181818;stroke-width:0.5;" x1="495.5" x2="562.5" y1="296.9883" y2="296.9883"/></g><g id="elem_AttachmentData_1"><rect fill="#F1F1F1" height="44.9766" style="stroke:#181818;stroke-width:0.5;" width="329" x="557.5" y="377"/><text fill="#000000" font-family="sans-serif" font-size="14" lengthAdjust="spacing" textLength="123" x="660.5" y="392.5352">AttachmentData:1</text><line style="stroke:#181818;stroke-width:0.5;" x1="558.5" x2="885.5" y1="397.4883" y2="397.4883"/><text fill="#000000" font-family="sans-serif" font-size="14" lengthAdjust="spacing" textLength="317" x="563.5" y="415.0234">uploaded_to_asset_manager_at: 24 May 16:28</text></g><g id="elem_ImageData_2"><rect fill="#F1F1F1" height="36.4883" style="stroke:#181818;stroke-width:0.5;" width="100" x="422" y="381.5"/><text fill="#000000" font-family="sans-serif" font-size="14" lengthAdjust="spacing" textLength="86" x="429" y="397.0352">ImageData:2</text><line style="stroke:#181818;stroke-width:0.5;" x1="423" x2="521" y1="401.9883" y2="401.9883"/></g><g id="elem_pubapi_Document_4"><rect fill="#F1F1F1" height="36.4883" style="stroke:#181818;stroke-width:0.5;" width="97" x="943.5" y="171.5"/><text fill="#000000" font-family="sans-serif" font-size="14" lengthAdjust="spacing" textLength="83" x="950.5" y="187.0352">Document:4</text><line style="stroke:#181818;stroke-width:0.5;" x1="944.5" x2="1039.5" y1="191.9883" y2="191.9883"/></g><g id="elem_pubapi_Edition_4"><rect fill="#F1F1F1" height="44.9766" style="stroke:#181818;stroke-width:0.5;" width="86" x="949" y="272"/><text fill="#000000" font-family="sans-serif" font-size="14" lengthAdjust="spacing" textLength="61" x="961.5" y="287.5352">Edition:4</text><line style="stroke:#181818;stroke-width:0.5;" x1="950" x2="1034" y1="292.4883" y2="292.4883"/><text fill="#000000" font-family="sans-serif" font-size="14" lengthAdjust="spacing" textLength="74" x="955" y="310.0234">state: draft</text></g><g id="elem_am_WhitehallAsset_X164e681f"><rect fill="#F1F1F1" height="61.4648" style="stroke:#181818;stroke-width:0.5;" width="194" x="986" y="510"/><text fill="#000000" font-family="sans-serif" font-size="14" lengthAdjust="spacing" textLength="180" x="993" y="525.5352">WhitehallAsset:X164e681f</text><line style="stroke:#181818;stroke-width:0.5;" x1="987" x2="1179" y1="530.4883" y2="530.4883"/><text fill="#000000" font-family="sans-serif" font-size="14" lengthAdjust="spacing" textLength="106" x="992" y="548.0234">state: uploaded</text><text fill="#000000" font-family="sans-serif" font-size="14" lengthAdjust="spacing" textLength="69" x="992" y="564.5117">draft: true</text></g><g id="elem_am_WhitehallAsset_X174e681f"><rect fill="#F1F1F1" height="61.4648" style="stroke:#181818;stroke-width:0.5;" width="194" x="757" y="510"/><text fill="#000000" font-family="sans-serif" font-size="14" lengthAdjust="spacing" textLength="180" x="764" y="525.5352">WhitehallAsset:X174e681f</text><line style="stroke:#181818;stroke-width:0.5;" x1="758" x2="950" y1="530.4883" y2="530.4883"/><text fill="#000000" font-family="sans-serif" font-size="14" lengthAdjust="spacing" textLength="106" x="763" y="548.0234">state: uploaded</text><text fill="#000000" font-family="sans-serif" font-size="14" lengthAdjust="spacing" textLength="69" x="763" y="564.5117">draft: true</text></g><g id="elem_am_WhitehallAsset_X174e6824"><rect fill="#F1F1F1" height="61.4648" style="stroke:#181818;stroke-width:0.5;" width="198" x="40" y="510"/><text fill="#000000" font-family="sans-serif" font-size="14" lengthAdjust="spacing" textLength="184" x="47" y="525.5352">WhitehallAsset:X174e6824</text><line style="stroke:#181818;stroke-width:0.5;" x1="41" x2="237" y1="530.4883" y2="530.4883"/><text fill="#000000" font-family="sans-serif" font-size="14" lengthAdjust="spacing" textLength="106" x="46" y="548.0234">state: uploaded</text><text fill="#000000" font-family="sans-serif" font-size="14" lengthAdjust="spacing" textLength="73" x="46" y="564.5117">draft: false</text></g><g id="elem_am_WhitehallAsset_X174e6825"><rect fill="#F1F1F1" height="61.4648" style="stroke:#181818;stroke-width:0.5;" width="198" x="273" y="510"/><text fill="#000000" font-family="sans-serif" font-size="14" lengthAdjust="spacing" textLength="184" x="280" y="525.5352">WhitehallAsset:X174e6825</text><line style="stroke:#181818;stroke-width:0.5;" x1="274" x2="470" y1="530.4883" y2="530.4883"/><text fill="#000000" font-family="sans-serif" font-size="14" lengthAdjust="spacing" textLength="106" x="279" y="548.0234">state: uploaded</text><text fill="#000000" font-family="sans-serif" font-size="14" lengthAdjust="spacing" textLength="73" x="279" y="564.5117">draft: false</text></g><g id="elem_GMN25"><path d="M506.5,528 L506.5,536.5 L471.26,540.5 L506.5,544.5 L506.5,553.3105 A0,0 0 0 0 506.5,553.3105 L721.5,553.3105 A0,0 0 0 0 721.5,553.3105 L721.5,538 L711.5,528 L506.5,528 A0,0 0 0 0 506.5,528 " fill="#FEFFDD" style="stroke:#181818;stroke-width:0.5;"/><path d="M711.5,528 L711.5,538 L721.5,538 L711.5,528 " fill="#FEFFDD" style="stroke:#181818;stroke-width:0.5;"/><text fill="#000000" font-family="sans-serif" font-size="13" lengthAdjust="spacing" textLength="194" x="512.5" y="545.5684">also 5 other images not shown</text></g><!--reverse link Document_1 to NewsArticle_1--><g id="link_Document_1_NewsArticle_1"><path codeLine="10" d="M750.94,120.15 C744.2,136.08 736.82,153.5 731.2,166.77 " fill="none" id="Document_1-backto-NewsArticle_1" style="stroke:#181818;stroke-width:1.0;"/><polygon fill="#181818" points="755.81,108.64,749.7905,112.6105,751.1403,119.6942,757.1599,115.7236,755.81,108.64" style="stroke:#181818;stroke-width:1.0;"/></g><!--reverse link NewsArticle_1 to FileAttachment_1--><g id="link_NewsArticle_1_FileAttachment_1"><path codeLine="14" d="M722,226.53 C722,241.59 722,258.58 722,271.69 " fill="none" id="NewsArticle_1-backto-FileAttachment_1" style="stroke:#181818;stroke-width:1.0;"/><polygon fill="#181818" points="722,213.86,718,219.86,722,225.86,726,219.86,722,213.86" style="stroke:#181818;stroke-width:1.0;"/></g><!--reverse link NewsArticle_1 to Image_2--><g id="link_NewsArticle_1_Image_2"><path codeLine="17" d="M668.42,219.09 C634.13,237.4 590.75,260.55 561.56,276.12 " fill="none" id="NewsArticle_1-backto-Image_2" style="stroke:#181818;stroke-width:1.0;"/><polygon fill="#181818" points="679.73,213.06,672.553,212.3592,669.1458,218.7146,676.3228,219.4154,679.73,213.06" style="stroke:#181818;stroke-width:1.0;"/></g><!--link FileAttachment_1 to AttachmentData_1--><g id="link_FileAttachment_1_AttachmentData_1"><path codeLine="22" d="M722,317.34 C722,330.45 722,347.45 722,362.5 " fill="none" id="FileAttachment_1-to-AttachmentData_1" style="stroke:#181818;stroke-width:1.0;"/><polygon fill="#181818" points="722,375.17,726,369.17,722,363.17,718,369.17,722,375.17" style="stroke:#181818;stroke-width:1.0;"/></g><!--link Image_2 to ImageData_2--><g id="link_Image_2_ImageData_2"><path codeLine="25" d="M519.33,312.97 C510.89,328.23 498.45,350.7 488.44,368.79 " fill="none" id="Image_2-to-ImageData_2" style="stroke:#181818;stroke-width:1.0;"/><polygon fill="#181818" points="482.26,379.96,488.6648,376.6467,488.0698,369.4602,481.665,372.7735,482.26,379.96" style="stroke:#181818;stroke-width:1.0;"/></g><!--reverse link pubapi_Document_4 to pubapi_Edition_4--><g id="link_pubapi_Document_4_pubapi_Edition_4"><path codeLine="33" d="M992,222.16 C992,238.19 992,257.25 992,271.63 " fill="none" id="pubapi_Document_4-backto-pubapi_Edition_4" style="stroke:#181818;stroke-width:1.0;"/><polygon fill="#181818" points="992,209.49,988,215.49,992,221.49,996,215.49,992,209.49" style="stroke:#181818;stroke-width:1.0;"/></g><!--link Document_1 to pubapi_Document_4--><g id="link_Document_1_pubapi_Document_4"><path codeLine="60" d="M829.05,107.39 C869.95,127.75 922.67,153.99 956.89,171.02 " fill="none" id="Document_1-pubapi_Document_4" style="stroke:#181818;stroke-width:1.0;stroke-dasharray:7.0,7.0;"/></g><!--link AttachmentData_1 to am_WhitehallAsset_X164e681f--><g id="link_AttachmentData_1_am_WhitehallAsset_X164e681f"><path codeLine="61" d="M873.26,422.49 C905.7,430.15 939.17,440.38 969,454 C999.38,467.87 1029.42,490.89 1051.03,509.55 " fill="none" id="AttachmentData_1-am_WhitehallAsset_X164e681f" style="stroke:#181818;stroke-width:1.0;stroke-dasharray:7.0,7.0;"/></g><!--link AttachmentData_1 to am_WhitehallAsset_X174e681f--><g id="link_AttachmentData_1_am_WhitehallAsset_X174e681f"><path codeLine="62" d="M742.62,422.22 C764.96,445.74 800.73,483.4 825.68,509.68 " fill="none" id="AttachmentData_1-am_WhitehallAsset_X174e681f" style="stroke:#181818;stroke-width:1.0;stroke-dasharray:7.0,7.0;"/></g><!--link ImageData_2 to am_WhitehallAsset_X174e6824--><g id="link_ImageData_2_am_WhitehallAsset_X174e6824"><path codeLine="63" d="M421.69,407.29 C376.69,414.67 309.73,428.91 256,454 C225.23,468.37 194.37,491.36 172.08,509.89 " fill="none" id="ImageData_2-am_WhitehallAsset_X174e6824" style="stroke:#181818;stroke-width:1.0;stroke-dasharray:7.0,7.0;"/></g><!--link ImageData_2 to am_WhitehallAsset_X174e6825--><g id="link_ImageData_2_am_WhitehallAsset_X174e6825"><path codeLine="64" d="M459.54,417.82 C443.04,440.75 413.71,481.52 393.58,509.5 " fill="none" id="ImageData_2-am_WhitehallAsset_X174e6825" style="stroke:#181818;stroke-width:1.0;stroke-dasharray:7.0,7.0;"/></g><!--SRC=[bLJBRi8m4BpdArOSaK1A51xA3ObMwe6gj_Pc6R8GLyP6yQQeglZtsYO9JeE0tkBTySoiFOxIES9x8GWBBYNyH7hzYHk2mL9lgZqgok81S0FDaiKM0o0veI66kI2X5HDv1h4hYoyCYz4f8hr3Ah0Cg5_nQ1ObYOt4cZser0A6h486USctP5a2-U5erCMtlCz2ueA8Ruh0UBTOi-SeaT2Qtd9fqF9t3JY9l_jQbPSzts6MU7B_pHBBUOsYxjfUi_T2kEJ4QuVTOksmEaZDSymPQSQDGM9xhYnToJXbaAImujyGJxDaRkbx3CDHTMy2Ro2OmkyyJnAkFTDb4ENYybQjfJ25KBl5GLoBJEff3zMQ7mHhhoxrv0tuwPoIBhOkUcWl0tq-TyX_TpOc5-xGLkSpisnNOjYctaEpZtYQudGURxqXlcVTFclxeRVccbocdCqCgAmm6BCdChiZClk7oEcXiJnZajvMJDBRYir3kQCokQCoUKn5QK8enQwW26n9mmIq7rEu91gmVJ25Fge8LUvMvzC8_XBZSJz__NTYKJSk-c5yVMUTXtCBcgIFGoU_]--></g></svg>