<?xml version="1.0" encoding="us-ascii" standalone="no"?><svg xmlns="http://www.w3.org/2000/svg" xmlns:xlink="http://www.w3.org/1999/xlink" contentStyleType="text/css" height="2653.125px" preserveAspectRatio="none" style="width:4000px;height:2653px;background:#FFFFFF;" version="1.1" viewBox="0 0 4000 2653" width="4000px" zoomAndPan="magnify"><defs/><g><!--cluster Editions--><g id="cluster_Editions"><rect fill="none" height="853.125" rx="7.8125" ry="7.8125" style="stroke:#181818;stroke-width:3.125;" width="1168.75" x="1000" y="425"/><text fill="#000000" font-family="sans-serif" font-size="43.75" font-weight="bold" lengthAdjust="spacing" textLength="184.375" x="1492.1875" y="473.5474">Editions</text></g><!--cluster Attachments--><g id="cluster_Attachments"><rect fill="none" height="873.4375" rx="7.8125" ry="7.8125" style="stroke:#181818;stroke-width:3.125;" width="2753.125" x="21.875" y="1487.5"/><text fill="#000000" font-family="sans-serif" font-size="43.75" font-weight="bold" lengthAdjust="spacing" textLength="284.375" x="1256.25" y="1536.0474">Attachments</text></g><!--cluster Images--><g id="cluster_Images"><rect fill="none" height="846.875" rx="7.8125" ry="7.8125" style="stroke:#181818;stroke-width:3.125;" width="1131.25" x="2850" y="990.625"/><text fill="#000000" font-family="sans-serif" font-size="43.75" font-weight="bold" lengthAdjust="spacing" textLength="162.5" x="3334.375" y="1039.1724">Images</text></g><!--class Edition--><g id="elem_Edition"><rect codeLine="9" fill="#F1F1F1" height="203.4668" id="Edition" rx="7.8125" ry="7.8125" style="stroke:#181818;stroke-width:1.5625;" width="250" x="1056.25" y="534.375"/><ellipse cx="1103.125" cy="597.8455" fill="#A9DCDF" rx="34.375" ry="34.375" style="stroke:#181818;stroke-width:3.125;"/><path d="M1102.6978,583.3084 L1099.0921,599.1577 L1106.3293,599.1577 Z M1098.0286,576.3046 L1107.3929,576.3046 L1117.8467,615.033 L1110.1944,615.033 L1107.8079,605.4611 L1097.5616,605.4611 L1095.2271,615.033 L1087.5748,615.033 Z " fill="#000000"/><text fill="#000000" font-family="sans-serif" font-size="37.5" font-style="italic" lengthAdjust="spacing" textLength="150" x="1146.875" y="586.2549">&#171;model&#187;</text><text fill="#000000" font-family="sans-serif" font-size="43.75" font-style="italic" lengthAdjust="spacing" textLength="150" x="1146.875" y="636.4624">Edition</text><line style="stroke:#181818;stroke-width:1.5625;" x1="1059.375" x2="1303.125" y1="661.3159" y2="661.3159"/><text fill="#000000" font-family="sans-serif" font-size="43.75" lengthAdjust="spacing" textLength="103.125" x="1075" y="716.1133">state</text></g><g id="elem_othereds"><ellipse cx="1205.6148" cy="1164.659" fill="#F1F1F1" rx="155.6148" ry="45.909" style="stroke:#181818;stroke-width:1.5625;"/><text fill="#000000" font-family="sans-serif" font-size="43.75" lengthAdjust="spacing" textLength="168.75" x="1113.6061" y="1176.8505">(others)</text></g><!--class Attachable--><g id="elem_Attachable"><rect codeLine="16" fill="#F1F1F1" height="126.9409" id="Attachable" rx="7.8125" ry="7.8125" style="stroke:#181818;stroke-width:1.5625;" width="328.125" x="1473.4375" y="1100"/><ellipse cx="1520.3125" cy="1163.4705" fill="#A9DCDF" rx="34.375" ry="34.375" style="stroke:#181818;stroke-width:3.125;"/><path d="M1519.8853,1148.9334 L1516.2796,1164.7827 L1523.5168,1164.7827 Z M1515.2161,1141.9296 L1524.5804,1141.9296 L1535.0342,1180.658 L1527.3819,1180.658 L1524.9954,1171.0861 L1514.7491,1171.0861 L1512.4146,1180.658 L1504.7623,1180.658 Z " fill="#000000"/><text fill="#000000" font-family="sans-serif" font-size="37.5" font-style="italic" lengthAdjust="spacing" textLength="178.125" x="1589.0625" y="1151.8799">&#171;concern&#187;</text><text fill="#000000" font-family="sans-serif" font-size="43.75" font-style="italic" lengthAdjust="spacing" textLength="228.125" x="1564.0625" y="1202.0874">Attachable</text></g><!--class Attachment--><g id="elem_Attachment"><rect codeLine="21" fill="#F1F1F1" height="126.9409" id="Attachment" rx="7.8125" ry="7.8125" style="stroke:#181818;stroke-width:1.5625;" width="346.875" x="1020.3125" y="1621.875"/><ellipse cx="1067.1875" cy="1685.3455" fill="#A9DCDF" rx="34.375" ry="34.375" style="stroke:#181818;stroke-width:3.125;"/><path d="M1066.7603,1670.8084 L1063.1546,1686.6577 L1070.3918,1686.6577 Z M1062.0911,1663.8046 L1071.4554,1663.8046 L1081.9092,1702.533 L1074.2569,1702.533 L1071.8704,1692.9611 L1061.6241,1692.9611 L1059.2896,1702.533 L1051.6373,1702.533 Z " fill="#000000"/><text fill="#000000" font-family="sans-serif" font-size="37.5" font-style="italic" lengthAdjust="spacing" textLength="150" x="1159.375" y="1673.7549">&#171;model&#187;</text><text fill="#000000" font-family="sans-serif" font-size="43.75" font-style="italic" lengthAdjust="spacing" textLength="246.875" x="1110.9375" y="1723.9624">Attachment</text></g><!--class FileAttachment--><g id="elem_FileAttachment"><rect codeLine="22" fill="#F1F1F1" height="126.9409" id="FileAttachment" rx="7.8125" ry="7.8125" style="stroke:#181818;stroke-width:1.5625;" width="421.875" x="98.4375" y="2128.125"/><ellipse cx="145.3125" cy="2191.5955" fill="#ADD1B2" rx="34.375" ry="34.375" style="stroke:#181818;stroke-width:3.125;"/><path d="M153.0411,2210.7925 Q151.2253,2211.7264 149.2279,2212.1933 Q147.2305,2212.6602 145.0256,2212.6602 Q137.1918,2212.6602 133.0673,2207.4982 Q128.9429,2202.3361 128.9429,2192.5827 Q128.9429,2182.8033 133.0673,2177.6413 Q137.1918,2172.4792 145.0256,2172.4792 Q147.2305,2172.4792 149.2538,2172.9462 Q151.2772,2173.4131 153.0411,2174.3469 L153.0411,2182.8552 Q151.0696,2181.0394 149.2149,2180.1964 Q147.3602,2179.3533 145.3888,2179.3533 Q141.1865,2179.3533 139.0465,2182.6866 Q136.9064,2186.0199 136.9064,2192.5827 Q136.9064,2199.1196 139.0465,2202.4529 Q141.1865,2205.7861 145.3888,2205.7861 Q147.3602,2205.7861 149.2149,2204.9431 Q151.0696,2204.1 153.0411,2202.2842 Z " fill="#000000"/><text fill="#000000" font-family="sans-serif" font-size="37.5" font-style="italic" lengthAdjust="spacing" textLength="150" x="275" y="2180.0049">&#171;model&#187;</text><text fill="#000000" font-family="sans-serif" font-size="43.75" lengthAdjust="spacing" textLength="321.875" x="189.0625" y="2230.2124">FileAttachment</text></g><g id="elem_otheratts"><ellipse cx="1065.3192" cy="2192.7513" fill="#F1F1F1" rx="434.0692" ry="94.3138" style="stroke:#181818;stroke-width:1.5625;"/><text fill="#000000" font-family="sans-serif" font-size="43.75" lengthAdjust="spacing" textLength="771.875" x="679.3817" y="2203.0358">(other attachments - html, external)</text></g><!--class AttachmentData--><g id="elem_AttachmentData"><rect codeLine="27" fill="#F1F1F1" height="203.4668" id="AttachmentData" rx="7.8125" ry="7.8125" style="stroke:#181818;stroke-width:1.5625;" width="443.75" x="1609.375" y="2090.625"/><ellipse cx="1656.25" cy="2154.0955" fill="#ADD1B2" rx="34.375" ry="34.375" style="stroke:#181818;stroke-width:3.125;"/><path d="M1663.9786,2173.2925 Q1662.1628,2174.2264 1660.1654,2174.6933 Q1658.168,2175.1602 1655.9631,2175.1602 Q1648.1293,2175.1602 1644.0048,2169.9982 Q1639.8804,2164.8361 1639.8804,2155.0827 Q1639.8804,2145.3033 1644.0048,2140.1413 Q1648.1293,2134.9792 1655.9631,2134.9792 Q1658.168,2134.9792 1660.1913,2135.4462 Q1662.2147,2135.9131 1663.9786,2136.8469 L1663.9786,2145.3552 Q1662.0071,2143.5394 1660.1524,2142.6964 Q1658.2977,2141.8533 1656.3263,2141.8533 Q1652.124,2141.8533 1649.984,2145.1866 Q1647.8439,2148.5199 1647.8439,2155.0827 Q1647.8439,2161.6196 1649.984,2164.9529 Q1652.124,2168.2861 1656.3263,2168.2861 Q1658.2977,2168.2861 1660.1524,2167.4431 Q1662.0071,2166.6 1663.9786,2164.7842 Z " fill="#000000"/><text fill="#000000" font-family="sans-serif" font-size="37.5" font-style="italic" lengthAdjust="spacing" textLength="150" x="1796.875" y="2142.5049">&#171;model&#187;</text><text fill="#000000" font-family="sans-serif" font-size="43.75" lengthAdjust="spacing" textLength="343.75" x="1700" y="2192.7124">AttachmentData</text><line style="stroke:#181818;stroke-width:1.5625;" x1="1612.5" x2="2050" y1="2217.5659" y2="2217.5659"/><text fill="#000000" font-family="sans-serif" font-size="43.75" lengthAdjust="spacing" textLength="65.625" x="1628.125" y="2272.3633">file</text></g><g id="elem_GMN16"><path d="M2162.5,2153.125 L2162.5,2179.6875 L2053.75,2192.1875 L2162.5,2204.6875 L2162.5,2232.2205 A0,0 0 0 0 2162.5,2232.2205 L2725,2232.2205 A0,0 0 0 0 2725,2232.2205 L2725,2184.375 L2693.75,2153.125 L2162.5,2153.125 A0,0 0 0 0 2162.5,2153.125 " fill="#FEFFDD" style="stroke:#181818;stroke-width:1.5625;"/><path d="M2693.75,2153.125 L2693.75,2184.375 L2725,2184.375 L2693.75,2153.125 " fill="#FEFFDD" style="stroke:#181818;stroke-width:1.5625;"/><text fill="#000000" font-family="sans-serif" font-size="40.625" lengthAdjust="spacing" textLength="496.875" x="2181.25" y="2208.0261">only for file attachments!</text></g><!--class Image--><g id="elem_Image"><rect codeLine="36" fill="#F1F1F1" height="126.9409" id="Image" rx="7.8125" ry="7.8125" style="stroke:#181818;stroke-width:1.5625;" width="237.5" x="2900" y="1100"/><ellipse cx="2946.875" cy="1163.4705" fill="#ADD1B2" rx="34.375" ry="34.375" style="stroke:#181818;stroke-width:3.125;"/><path d="M2954.6036,1182.6675 Q2952.7878,1183.6014 2950.7904,1184.0683 Q2948.793,1184.5352 2946.5881,1184.5352 Q2938.7543,1184.5352 2934.6298,1179.3732 Q2930.5054,1174.2111 2930.5054,1164.4577 Q2930.5054,1154.6783 2934.6298,1149.5163 Q2938.7543,1144.3542 2946.5881,1144.3542 Q2948.793,1144.3542 2950.8163,1144.8212 Q2952.8397,1145.2881 2954.6036,1146.2219 L2954.6036,1154.7302 Q2952.6321,1152.9144 2950.7774,1152.0714 Q2948.9227,1151.2283 2946.9513,1151.2283 Q2942.749,1151.2283 2940.609,1154.5616 Q2938.4689,1157.8949 2938.4689,1164.4577 Q2938.4689,1170.9946 2940.609,1174.3279 Q2942.749,1177.6611 2946.9513,1177.6611 Q2948.9227,1177.6611 2950.7774,1176.8181 Q2952.6321,1175.975 2954.6036,1174.1592 Z " fill="#000000"/><text fill="#000000" font-family="sans-serif" font-size="37.5" font-style="italic" lengthAdjust="spacing" textLength="150" x="2984.375" y="1151.8799">&#171;model&#187;</text><text fill="#000000" font-family="sans-serif" font-size="43.75" lengthAdjust="spacing" textLength="131.25" x="2993.75" y="1202.0874">Image</text></g><!--class ImageData--><g id="elem_ImageData"><rect codeLine="37" fill="#F1F1F1" height="203.4668" id="ImageData" rx="7.8125" ry="7.8125" style="stroke:#181818;stroke-width:1.5625;" width="328.125" x="2901.5625" y="1584.375"/><ellipse cx="2948.4375" cy="1647.8455" fill="#ADD1B2" rx="34.375" ry="34.375" style="stroke:#181818;stroke-width:3.125;"/><path d="M2956.1661,1667.0425 Q2954.3503,1667.9764 2952.3529,1668.4433 Q2950.3555,1668.9102 2948.1506,1668.9102 Q2940.3168,1668.9102 2936.1923,1663.7482 Q2932.0679,1658.5861 2932.0679,1648.8327 Q2932.0679,1639.0533 2936.1923,1633.8913 Q2940.3168,1628.7292 2948.1506,1628.7292 Q2950.3555,1628.7292 2952.3788,1629.1962 Q2954.4022,1629.6631 2956.1661,1630.5969 L2956.1661,1639.1052 Q2954.1946,1637.2894 2952.3399,1636.4464 Q2950.4852,1635.6033 2948.5138,1635.6033 Q2944.3115,1635.6033 2942.1715,1638.9366 Q2940.0314,1642.2699 2940.0314,1648.8327 Q2940.0314,1655.3696 2942.1715,1658.7029 Q2944.3115,1662.0361 2948.5138,1662.0361 Q2950.4852,1662.0361 2952.3399,1661.1931 Q2954.1946,1660.35 2956.1661,1658.5342 Z " fill="#000000"/><text fill="#000000" font-family="sans-serif" font-size="37.5" font-style="italic" lengthAdjust="spacing" textLength="150" x="3031.25" y="1636.2549">&#171;model&#187;</text><text fill="#000000" font-family="sans-serif" font-size="43.75" lengthAdjust="spacing" textLength="228.125" x="2992.1875" y="1686.4624">ImageData</text><line style="stroke:#181818;stroke-width:1.5625;" x1="2904.6875" x2="3226.5625" y1="1711.3159" y2="1711.3159"/><text fill="#000000" font-family="sans-serif" font-size="43.75" lengthAdjust="spacing" textLength="65.625" x="2920.3125" y="1766.1133">file</text></g><!--class Document--><g id="elem_Document"><rect codeLine="50" fill="#F1F1F1" height="254.9927" id="Document" rx="7.8125" ry="7.8125" style="stroke:#181818;stroke-width:1.5625;" width="325" x="1018.75" y="21.875"/><ellipse cx="1068.4375" cy="85.3455" fill="#ADD1B2" rx="34.375" ry="34.375" style="stroke:#181818;stroke-width:3.125;"/><path d="M1076.1661,104.5425 Q1074.3503,105.4764 1072.3529,105.9433 Q1070.3555,106.4102 1068.1506,106.4102 Q1060.3168,106.4102 1056.1923,101.2482 Q1052.0679,96.0861 1052.0679,86.3327 Q1052.0679,76.5533 1056.1923,71.3913 Q1060.3168,66.2292 1068.1506,66.2292 Q1070.3555,66.2292 1072.3788,66.6962 Q1074.4022,67.1631 1076.1661,68.0969 L1076.1661,76.6052 Q1074.1946,74.7894 1072.3399,73.9464 Q1070.4852,73.1033 1068.5138,73.1033 Q1064.3115,73.1033 1062.1715,76.4366 Q1060.0314,79.7699 1060.0314,86.3327 Q1060.0314,92.8696 1062.1715,96.2029 Q1064.3115,99.5361 1068.5138,99.5361 Q1070.4852,99.5361 1072.3399,98.6931 Q1074.1946,97.85 1076.1661,96.0342 Z " fill="#000000"/><text fill="#000000" font-family="sans-serif" font-size="37.5" font-style="italic" lengthAdjust="spacing" textLength="150" x="1147.1875" y="73.7549">&#171;model&#187;</text><text fill="#000000" font-family="sans-serif" font-size="43.75" lengthAdjust="spacing" textLength="218.75" x="1112.8125" y="123.9624">Document</text><line style="stroke:#181818;stroke-width:1.5625;" x1="1021.875" x2="1340.625" y1="148.8159" y2="148.8159"/><text fill="#000000" font-family="sans-serif" font-size="43.75" lengthAdjust="spacing" textLength="287.5" x="1037.5" y="203.6133">latest_edition</text><text fill="#000000" font-family="sans-serif" font-size="43.75" lengthAdjust="spacing" textLength="243.75" x="1037.5" y="255.1392">live_edition</text></g><!--class CarrierWave::Validations::ActiveModel--><g id="elem_CarrierWave::Validations::ActiveModel"><rect codeLine="55" fill="#F1F1F1" height="126.9409" id="CarrierWave::Validations::ActiveModel" rx="7.8125" ry="7.8125" style="stroke:#181818;stroke-width:1.5625;" width="906.25" x="1950" y="2507.8125"/><ellipse cx="1996.875" cy="2571.283" fill="#CCCCCC" rx="34.375" ry="34.375" style="stroke:#181818;stroke-width:3.125;"/><path d="M1983.4808,2552.8671 L1992.6117,2552.8671 L1997.229,2569.8578 L2001.8204,2552.8671 L2011.0031,2552.8671 L2011.0031,2591.5955 L2004.4144,2591.5955 L2004.4144,2560.5713 L2000.3159,2577.5101 L1994.22,2577.5101 L1990.0696,2560.5713 L1990.0696,2591.5955 L1983.4808,2591.5955 Z " fill="#000000"/><text fill="#000000" font-family="sans-serif" font-size="37.5" font-style="italic" lengthAdjust="spacing" textLength="178.125" x="2354.6875" y="2559.6924">&#171;concern&#187;</text><text fill="#000000" font-family="sans-serif" font-size="43.75" lengthAdjust="spacing" textLength="806.25" x="2040.625" y="2609.8999">CarrierWave::Validations::ActiveModel</text></g><g id="elem_GMN28"><path d="M2967.1875,2532.8125 L2967.1875,2559.375 L2857.125,2571.875 L2967.1875,2584.375 L2967.1875,2611.908 A0,0 0 0 0 2967.1875,2611.908 L3764.0625,2611.908 A0,0 0 0 0 3764.0625,2611.908 L3764.0625,2564.0625 L3732.8125,2532.8125 L2967.1875,2532.8125 A0,0 0 0 0 2967.1875,2532.8125 " fill="#FEFFDD" style="stroke:#181818;stroke-width:1.5625;"/><path d="M3732.8125,2532.8125 L3732.8125,2564.0625 L3764.0625,2564.0625 L3732.8125,2532.8125 " fill="#FEFFDD" style="stroke:#181818;stroke-width:1.5625;"/><text fill="#000000" font-family="sans-serif" font-size="40.625" lengthAdjust="spacing" textLength="731.25" x="2985.9375" y="2587.7136">concern added by `mount_uploader`</text></g><!--reverse link Edition to othereds--><g id="link_Edition_othereds"><path codeLine="13" d="M1079.9375,798.25 C1075.5313,809.1875 1071.75,820.2188 1068.75,831.25 C1056.0313,878.1563 1055.375,893.9062 1068.75,940.625 C1088.375,1009.0937 1136.1563,1076.9688 1169.8438,1118.9063 " fill="none" id="Edition-backto-othereds" style="stroke:#0000FF;stroke-width:6.25;"/><polygon fill="none" points="1060.25,788.7188,1107.7188,742.5313,1099.4063,808.2188,1060.25,788.7188" style="stroke:#0000FF;stroke-width:6.25;"/></g><!--reverse link Edition to Attachable--><g id="link_Edition_Attachable"><path codeLine="14" d="M1311.375,787.9063 C1401.6875,891.1875 1517.25,1023.4063 1583.7812,1099.5 " fill="none" id="Edition-backto-Attachable" style="stroke:#0000FF;stroke-width:6.25;"/><polygon fill="none" points="1295.9375,803.4688,1271.25,742,1328.875,774.6563,1295.9375,803.4688" style="stroke:#0000FF;stroke-width:6.25;"/><path d="M1450,846.875 L1450,925 L2356.25,925 L2356.25,878.125 L2325,846.875 L1450,846.875 " fill="#FEFFDD" style="stroke:#181818;stroke-width:1.5625;"/><path d="M2325,846.875 L2325,878.125 L2356.25,878.125 L2325,846.875 " fill="#FEFFDD" style="stroke:#181818;stroke-width:1.5625;"/><text fill="#000000" font-family="sans-serif" font-size="40.625" lengthAdjust="spacing" textLength="840.625" x="1468.75" y="901.7761">several Edition descendants are Attachable</text></g><!--reverse link Attachment to otheratts--><g id="link_Attachment_otheratts"><path codeLine="24" d="M1137.875,1812.875 C1128.3438,1837.25 1119.3438,1862.9063 1112.5,1887.5 C1093.1875,1956.9063 1081.1563,2037.6875 1074.125,2098.1563 " fill="none" id="Attachment-backto-otheratts" style="stroke:#0000FF;stroke-width:6.25;"/><polygon fill="none" points="1117.5938,1804.625,1162.0625,1755.5625,1157.9063,1821.625,1117.5938,1804.625" style="stroke:#0000FF;stroke-width:6.25;"/></g><!--reverse link Attachment to FileAttachment--><g id="link_Attachment_FileAttachment"><path codeLine="25" d="M1026.1563,1783.8125 C848.1563,1884.4375 571.9375,2040.625 419.5938,2126.75 " fill="none" id="Attachment-backto-FileAttachment" style="stroke:#0000FF;stroke-width:6.25;"/><polygon fill="none" points="1014.25,1765.4375,1079.4063,1753.7188,1035.7813,1803.5,1014.25,1765.4375" style="stroke:#0000FF;stroke-width:6.25;"/></g><!--link Attachment to AttachmentData--><g id="link_Attachment_AttachmentData"><path codeLine="31" d="M1273.1875,1751.375 C1371.8438,1828.75 1542.5313,1962.625 1669.2188,2062 " fill="none" id="Attachment-to-AttachmentData" style="stroke:#181818;stroke-width:3.125;"/><polygon fill="#181818" points="1700.8125,2086.75,1693.7812,2065.3403,1671.3141,2063.5963,1678.3454,2085.0059,1700.8125,2086.75" style="stroke:#181818;stroke-width:3.125;"/><path d="M1584.375,1903.125 L1584.375,1981.25 L2578.125,1981.25 L2578.125,1934.375 L2546.875,1903.125 L1584.375,1903.125 " fill="#FEFFDD" style="stroke:#181818;stroke-width:1.5625;"/><path d="M2546.875,1903.125 L2546.875,1934.375 L2578.125,1934.375 L2546.875,1903.125 " fill="#FEFFDD" style="stroke:#181818;stroke-width:1.5625;"/><text fill="#000000" font-family="sans-serif" font-size="40.625" lengthAdjust="spacing" textLength="928.125" x="1603.125" y="1958.0261">links to attachments from past editions as well</text></g><!--link Image to ImageData--><g id="link_Image_ImageData"><path codeLine="40" d="M3024.4063,1229.375 C3031.3438,1305.5625 3043.2813,1437.0625 3052.5313,1538.875 " fill="none" id="Image-to-ImageData" style="stroke:#181818;stroke-width:3.125;"/><polygon fill="#181818" points="3056.1563,1578.5625,3066.9153,1558.7621,3052.776,1541.2152,3042.017,1561.0156,3056.1563,1578.5625" style="stroke:#181818;stroke-width:3.125;"/><path d="M3056.25,1343.75 L3056.25,1421.875 L3946.875,1421.875 L3946.875,1375 L3915.625,1343.75 L3056.25,1343.75 " fill="#FEFFDD" style="stroke:#181818;stroke-width:1.5625;"/><path d="M3915.625,1343.75 L3915.625,1375 L3946.875,1375 L3915.625,1343.75 " fill="#FEFFDD" style="stroke:#181818;stroke-width:1.5625;"/><text fill="#000000" font-family="sans-serif" font-size="40.625" lengthAdjust="spacing" textLength="825" x="3075" y="1398.6511">links to images from past editions as well</text></g><!--reverse link Edition to Image--><g id="link_Edition_Image"><path codeLine="44" d="M1351.9375,648.2813 C1591.0625,665.125 2036.8125,711.0625 2396.875,831.25 C2595.6563,897.5938 2807.1875,1023 2925.1875,1098.5625 " fill="none" id="Edition-backto-Image" style="stroke:#181818;stroke-width:3.125;"/><polygon fill="#181818" points="1311.6875,645.5938,1329.5715,659.3041,1349.1057,648.069,1331.2217,634.3587,1311.6875,645.5938" style="stroke:#181818;stroke-width:3.125;"/></g><!--reverse link Document to Edition--><g id="link_Document_Edition"><path codeLine="46" d="M1181.25,323.7813 C1181.25,393.9688 1181.25,472.8437 1181.25,533.3437 " fill="none" id="Document-backto-Edition" style="stroke:#181818;stroke-width:3.125;"/><polygon fill="#181818" points="1181.25,283.875,1168.75,302.625,1181.25,321.375,1193.75,302.625,1181.25,283.875" style="stroke:#181818;stroke-width:3.125;"/></g><!--reverse link Attachable to Attachment--><g id="link_Attachable_Attachment"><path codeLine="48" d="M1554.5,1263.6563 C1464.5938,1368.0938 1323.875,1531.625 1247.4688,1620.4063 " fill="none" id="Attachable-backto-Attachment" style="stroke:#181818;stroke-width:3.125;"/><polygon fill="#181818" points="1580.875,1232.9688,1559.1696,1239.0259,1556.4126,1261.3913,1578.118,1255.3342,1580.875,1232.9688" style="stroke:#181818;stroke-width:3.125;"/></g><!--link AttachmentData to CarrierWave::Validations::ActiveModel--><g id="link_AttachmentData_CarrierWave::Validations::ActiveModel"><path codeLine="58" d="M1973.3438,2294.5 C2016.75,2324.2813 2064.7813,2356.8125 2109.375,2385.9375 C2166.3438,2423.1563 2230.4063,2463.25 2284.1563,2496.3438 " fill="none" id="AttachmentData-to-CarrierWave::Validations::ActiveModel" style="stroke:#181818;stroke-width:3.125;stroke-dasharray:7.0,7.0;"/><polygon fill="#181818" points="2296.4375,2503.9063,2279.0738,2478.4943,2283.1426,2495.6973,2265.9396,2499.7661,2296.4375,2503.9063" style="stroke:#181818;stroke-width:3.125;"/></g><!--link ImageData to CarrierWave::Validations::ActiveModel--><g id="link_ImageData_CarrierWave::Validations::ActiveModel"><path codeLine="59" d="M3047.25,1788.9375 C3015.5,1936.2813 2937.5,2213.0625 2775,2385.9375 C2730.125,2433.6875 2670.0938,2470.5938 2611.4063,2498.3438 " fill="none" id="ImageData-to-CarrierWave::Validations::ActiveModel" style="stroke:#181818;stroke-width:3.125;stroke-dasharray:7.0,7.0;"/><polygon fill="#181818" points="2597.5625,2504.6875,2628.3383,2504.349,2611.7702,2498.1849,2617.9342,2481.6168,2597.5625,2504.6875" style="stroke:#181818;stroke-width:3.125;"/></g><!--SRC=[ZLHDRzim3BthLt3PPGkMeC1kNX2WM3TWXrstOqjRJ29K7uR4f0sw_FT9icih3eBM1yCX7yd7HpAejNiowbdPhTWfIK2cvID82erNBIjdIxCXKvCF8Zmgsw970x9LyFNcHeX6OmXmvvgz8SkmMXadIQ_NGdXg6ErM4yn-I9LIXXcy28WFre4zDWozOmph0Ua9Z4pvroc_YtoV7EyYdyypm03vcsJ8e27XlyLYyC17hInLjTxJj_Irh9sMb_1RPcnsMCSALmEiOu8O4AsF5GGwa4Szf4doaPLeEG1wAZAUjptQLwl6sOQyZOgTpZJhC4dKNZPsMqeDJJKSWONw2T6DvgVIT1LoeIdWM1OMi6EZlm0zSsI8kj0xmZh1ozI3vibxNSDfo8JXbRYq15r78_OE6IzsPwEot0cVf-NLTiTL79e-miRvx2_R_23EA2qMyqa5CHrxUeSuZpEnDjuPQ34mKB_jIQmdqdeos5y6jzJFj6ieMyucKzZVwh4BJgm7-7N2AjT-W-lhDi_ZR79E8ORxJhPNln35nSo70qguY_-5ZlQBYHliv0bqFEt0zttrYKyTQF14Ej6ENRRlwBqY_nSFL5L_K2k9cNnLtJOSetudZQ0ygN81UYkWb2IXFiA3SNlBz_jMEvJa7rxx6JPhkLo_hwOO9_N-cFy0]--></g></svg>