<?xml version="1.0" encoding="us-ascii" standalone="no"?><svg xmlns="http://www.w3.org/2000/svg" xmlns:xlink="http://www.w3.org/1999/xlink" contentStyleType="text/css" height="587px" preserveAspectRatio="none" style="width:941px;height:587px;background:#FFFFFF;" version="1.1" viewBox="0 0 941 587" width="941px" zoomAndPan="magnify"><defs/><g><!--cluster Whitehall--><g id="cluster_Whitehall"><polygon fill="none" points="329,16,339,6,634,6,634,419,624,429,329,429,329,16" style="stroke:#181818;stroke-width:1.0;"/><line style="stroke:#181818;stroke-width:1.0;" x1="624" x2="634" y1="16" y2="6"/><line style="stroke:#181818;stroke-width:1.0;" x1="329" x2="624" y1="16" y2="16"/><line style="stroke:#181818;stroke-width:1.0;" x1="624" x2="624" y1="16" y2="429"/><text fill="#000000" font-family="sans-serif" font-size="14" font-weight="bold" lengthAdjust="spacing" textLength="68" x="443.5" y="32.5352">Whitehall</text></g><!--cluster PublishingApi--><g id="cluster_PublishingApi"><polygon fill="none" points="658,141.5,668,131.5,835,131.5,835,323,825,333,658,333,658,141.5" style="stroke:#181818;stroke-width:1.0;"/><line style="stroke:#181818;stroke-width:1.0;" x1="825" x2="835" y1="141.5" y2="131.5"/><line style="stroke:#181818;stroke-width:1.0;" x1="658" x2="825" y1="141.5" y2="141.5"/><line style="stroke:#181818;stroke-width:1.0;" x1="825" x2="825" y1="141.5" y2="333"/><text fill="#000000" font-family="sans-serif" font-size="14" font-weight="bold" lengthAdjust="spacing" textLength="101" x="692" y="158.0352">PublishingApi</text></g><!--cluster AssetManager--><g id="cluster_AssetManager"><polygon fill="none" points="16,463,26,453,924,453,924,560,914,570,16,570,16,463" style="stroke:#181818;stroke-width:1.0;"/><line style="stroke:#181818;stroke-width:1.0;" x1="914" x2="924" y1="463" y2="453"/><line style="stroke:#181818;stroke-width:1.0;" x1="16" x2="914" y1="463" y2="463"/><line style="stroke:#181818;stroke-width:1.0;" x1="914" x2="914" y1="463" y2="570"/><text fill="#000000" font-family="sans-serif" font-size="14" font-weight="bold" lengthAdjust="spacing" textLength="101" x="415.5" y="479.5352">AssetManager</text></g><g id="elem_Document_8"><rect fill="#F1F1F1" height="61.4648" style="stroke:#181818;stroke-width:0.5;" width="141" x="476.5" y="46"/><text fill="#000000" font-family="sans-serif" font-size="14" lengthAdjust="spacing" textLength="83" x="505.5" y="61.5352">Document:8</text><line style="stroke:#181818;stroke-width:0.5;" x1="477.5" x2="616.5" y1="66.4883" y2="66.4883"/><text fill="#000000" font-family="sans-serif" font-size="14" lengthAdjust="spacing" textLength="129" x="482.5" y="84.0234">latest_edition_id: 8</text><text fill="#000000" font-family="sans-serif" font-size="14" lengthAdjust="spacing" textLength="102" x="482.5" y="100.5117">live_edition_id:</text></g><g id="elem_NewsArticle_8"><rect fill="#F1F1F1" height="44.9766" style="stroke:#181818;stroke-width:0.5;" width="107" x="493.5" y="167"/><text fill="#000000" font-family="sans-serif" font-size="14" lengthAdjust="spacing" textLength="93" x="500.5" y="182.5352">NewsArticle:8</text><line style="stroke:#181818;stroke-width:0.5;" x1="494.5" x2="599.5" y1="187.4883" y2="187.4883"/><text fill="#000000" font-family="sans-serif" font-size="14" lengthAdjust="spacing" textLength="74" x="499.5" y="205.0234">state: draft</text></g><g id="elem_FileAttachment_9"><rect fill="#F1F1F1" height="44.9766" style="stroke:#181818;stroke-width:0.5;" width="130" x="483" y="272"/><text fill="#000000" font-family="sans-serif" font-size="14" lengthAdjust="spacing" textLength="116" x="490" y="287.5352">FileAttachment:9</text><line style="stroke:#181818;stroke-width:0.5;" x1="484" x2="612" y1="292.4883" y2="292.4883"/><text fill="#000000" font-family="sans-serif" font-size="14" lengthAdjust="spacing" textLength="91" x="489" y="310.0234">deleted: false</text></g><g id="elem_Image_5"><rect fill="#F1F1F1" height="36.4883" style="stroke:#181818;stroke-width:0.5;" width="69" x="369.5" y="276.5"/><text fill="#000000" font-family="sans-serif" font-size="14" lengthAdjust="spacing" textLength="55" x="376.5" y="292.0352">Image:5</text><line style="stroke:#181818;stroke-width:0.5;" x1="370.5" x2="437.5" y1="296.9883" y2="296.9883"/></g><g id="elem_AttachmentData_9"><rect fill="#F1F1F1" height="36.4883" style="stroke:#181818;stroke-width:0.5;" width="137" x="480.5" y="377"/><text fill="#000000" font-family="sans-serif" font-size="14" lengthAdjust="spacing" textLength="123" x="487.5" y="392.5352">AttachmentData:9</text><line style="stroke:#181818;stroke-width:0.5;" x1="481.5" x2="616.5" y1="397.4883" y2="397.4883"/></g><g id="elem_ImageData_5"><rect fill="#F1F1F1" height="36.4883" style="stroke:#181818;stroke-width:0.5;" width="100" x="345" y="377"/><text fill="#000000" font-family="sans-serif" font-size="14" lengthAdjust="spacing" textLength="86" x="352" y="392.5352">ImageData:5</text><line style="stroke:#181818;stroke-width:0.5;" x1="346" x2="444" y1="397.4883" y2="397.4883"/></g><g id="elem_pubapi_Document_11"><rect fill="#F1F1F1" height="36.4883" style="stroke:#181818;stroke-width:0.5;" width="106" x="674" y="171.5"/><text fill="#000000" font-family="sans-serif" font-size="14" lengthAdjust="spacing" textLength="92" x="681" y="187.0352">Document:11</text><line style="stroke:#181818;stroke-width:0.5;" x1="675" x2="779" y1="191.9883" y2="191.9883"/></g><g id="elem_pubapi_Edition_11"><rect fill="#F1F1F1" height="44.9766" style="stroke:#181818;stroke-width:0.5;" width="86" x="684" y="272"/><text fill="#000000" font-family="sans-serif" font-size="14" lengthAdjust="spacing" textLength="70" x="692" y="287.5352">Edition:11</text><line style="stroke:#181818;stroke-width:0.5;" x1="685" x2="769" y1="292.4883" y2="292.4883"/><text fill="#000000" font-family="sans-serif" font-size="14" lengthAdjust="spacing" textLength="74" x="690" y="310.0234">state: draft</text></g><g id="elem_am_WhitehallAsset_X16c302fe"><rect fill="#F1F1F1" height="61.4648" style="stroke:#181818;stroke-width:0.5;" width="192" x="716" y="493"/><text fill="#000000" font-family="sans-serif" font-size="14" lengthAdjust="spacing" textLength="178" x="723" y="508.5352">WhitehallAsset:X16c302fe</text><line style="stroke:#181818;stroke-width:0.5;" x1="717" x2="907" y1="513.4883" y2="513.4883"/><text fill="#000000" font-family="sans-serif" font-size="14" lengthAdjust="spacing" textLength="106" x="722" y="531.0234">state: uploaded</text><text fill="#000000" font-family="sans-serif" font-size="14" lengthAdjust="spacing" textLength="69" x="722" y="547.5117">draft: true</text></g><g id="elem_am_WhitehallAsset_X17c302fe"><rect fill="#F1F1F1" height="61.4648" style="stroke:#181818;stroke-width:0.5;" width="192" x="489" y="493"/><text fill="#000000" font-family="sans-serif" font-size="14" lengthAdjust="spacing" textLength="178" x="496" y="508.5352">WhitehallAsset:X17c302fe</text><line style="stroke:#181818;stroke-width:0.5;" x1="490" x2="680" y1="513.4883" y2="513.4883"/><text fill="#000000" font-family="sans-serif" font-size="14" lengthAdjust="spacing" textLength="106" x="495" y="531.0234">state: uploaded</text><text fill="#000000" font-family="sans-serif" font-size="14" lengthAdjust="spacing" textLength="69" x="495" y="547.5117">draft: true</text></g><g id="elem_am_WhitehallAsset_X17c302ff"><rect fill="#F1F1F1" height="61.4648" style="stroke:#181818;stroke-width:0.5;" width="189" x="264.5" y="493"/><text fill="#000000" font-family="sans-serif" font-size="14" lengthAdjust="spacing" textLength="175" x="271.5" y="508.5352">WhitehallAsset:X17c302ff</text><line style="stroke:#181818;stroke-width:0.5;" x1="265.5" x2="452.5" y1="513.4883" y2="513.4883"/><text fill="#000000" font-family="sans-serif" font-size="14" lengthAdjust="spacing" textLength="106" x="270.5" y="531.0234">state: uploaded</text><text fill="#000000" font-family="sans-serif" font-size="14" lengthAdjust="spacing" textLength="73" x="270.5" y="547.5117">draft: false</text></g><g id="elem_am_WhitehallAsset_X17c30300"><rect fill="#F1F1F1" height="61.4648" style="stroke:#181818;stroke-width:0.5;" width="197" x="32.5" y="493"/><text fill="#000000" font-family="sans-serif" font-size="14" lengthAdjust="spacing" textLength="183" x="39.5" y="508.5352">WhitehallAsset:X17c30300</text><line style="stroke:#181818;stroke-width:0.5;" x1="33.5" x2="228.5" y1="513.4883" y2="513.4883"/><text fill="#000000" font-family="sans-serif" font-size="14" lengthAdjust="spacing" textLength="106" x="38.5" y="531.0234">state: uploaded</text><text fill="#000000" font-family="sans-serif" font-size="14" lengthAdjust="spacing" textLength="73" x="38.5" y="547.5117">draft: false</text></g><!--reverse link Document_8 to NewsArticle_8--><g id="link_Document_8_NewsArticle_8"><path codeLine="10" d="M547,121.59 C547,137.12 547,153.9 547,166.77 " fill="none" id="Document_8-backto-NewsArticle_8" style="stroke:#181818;stroke-width:1.0;"/><polygon fill="#181818" points="547,108.76,543,114.76,547,120.76,551,114.76,547,108.76" style="stroke:#181818;stroke-width:1.0;"/></g><!--reverse link NewsArticle_8 to FileAttachment_9--><g id="link_NewsArticle_8_FileAttachment_9"><path codeLine="14" d="M547.35,226.53 C547.5,241.59 547.66,258.58 547.79,271.69 " fill="none" id="NewsArticle_8-backto-FileAttachment_9" style="stroke:#181818;stroke-width:1.0;"/><polygon fill="#181818" points="547.23,213.86,543.2895,219.8993,547.3487,225.8594,551.2891,219.8201,547.23,213.86" style="stroke:#181818;stroke-width:1.0;"/></g><!--reverse link NewsArticle_8 to Image_5--><g id="link_NewsArticle_8_Image_5"><path codeLine="17" d="M504.93,220.8 C479.92,238.82 449.09,261.03 428.13,276.12 " fill="none" id="NewsArticle_8-backto-Image_5" style="stroke:#181818;stroke-width:1.0;"/><polygon fill="#181818" points="515.45,213.23,508.2436,213.4892,505.7111,220.241,512.9175,219.9818,515.45,213.23" style="stroke:#181818;stroke-width:1.0;"/></g><!--link FileAttachment_9 to AttachmentData_9--><g id="link_FileAttachment_9_AttachmentData_9"><path codeLine="21" d="M548.22,317.36 C548.36,330.65 548.53,347.85 548.68,362.58 " fill="none" id="FileAttachment_9-to-AttachmentData_9" style="stroke:#181818;stroke-width:1.0;"/><polygon fill="#181818" points="548.81,375.27,552.7505,369.2307,548.6913,363.2706,544.7509,369.3099,548.81,375.27" style="stroke:#181818;stroke-width:1.0;"/></g><!--link Image_5 to ImageData_5--><g id="link_Image_5_ImageData_5"><path codeLine="24" d="M402.43,312.66 C401.18,326.34 399.4,345.89 397.89,362.39 " fill="none" id="Image_5-to-ImageData_5" style="stroke:#181818;stroke-width:1.0;"/><polygon fill="#181818" points="396.72,375.2,401.2507,369.5899,397.8148,363.25,393.2841,368.8601,396.72,375.2" style="stroke:#181818;stroke-width:1.0;"/></g><!--reverse link pubapi_Document_11 to pubapi_Edition_11--><g id="link_pubapi_Document_11_pubapi_Edition_11"><path codeLine="34" d="M727,222.16 C727,238.19 727,257.25 727,271.63 " fill="none" id="pubapi_Document_11-backto-pubapi_Edition_11" style="stroke:#181818;stroke-width:1.0;"/><polygon fill="#181818" points="727,209.49,723,215.49,727,221.49,731,215.49,727,209.49" style="stroke:#181818;stroke-width:1.0;"/></g><!--link Document_8 to pubapi_Document_11--><g id="link_Document_8_pubapi_Document_11"><path codeLine="58" d="M595.24,107.25 C628.35,127.67 671.16,154.07 698.85,171.14 " fill="none" id="Document_8-pubapi_Document_11" style="stroke:#181818;stroke-width:1.0;stroke-dasharray:7.0,7.0;"/></g><!--link ImageData_5 to am_WhitehallAsset_X17c302ff--><g id="link_ImageData_5_am_WhitehallAsset_X17c302ff"><path codeLine="59" d="M390.07,413.32 C384.25,433.76 374.49,468.07 367.46,492.78 " fill="none" id="ImageData_5-am_WhitehallAsset_X17c302ff" style="stroke:#181818;stroke-width:1.0;stroke-dasharray:7.0,7.0;"/></g><!--link ImageData_5 to am_WhitehallAsset_X17c30300--><g id="link_ImageData_5_am_WhitehallAsset_X17c30300"><path codeLine="60" d="M344.69,409 C315.42,417.45 278.25,429.74 247,445 C219.91,458.23 191.73,476.93 169.93,492.64 " fill="none" id="ImageData_5-am_WhitehallAsset_X17c30300" style="stroke:#181818;stroke-width:1.0;stroke-dasharray:7.0,7.0;"/></g><!--link AttachmentData_9 to am_WhitehallAsset_X16c302fe--><g id="link_AttachmentData_9_am_WhitehallAsset_X16c302fe"><path codeLine="61" d="M615.95,413.4 C642.48,421.44 672.84,432.09 699,445 C725.56,458.11 753.01,476.8 774.21,492.54 " fill="none" id="AttachmentData_9-am_WhitehallAsset_X16c302fe" style="stroke:#181818;stroke-width:1.0;stroke-dasharray:7.0,7.0;"/></g><!--link AttachmentData_9 to am_WhitehallAsset_X17c302fe--><g id="link_AttachmentData_9_am_WhitehallAsset_X17c302fe"><path codeLine="62" d="M553.93,413.32 C559.75,433.76 569.51,468.07 576.54,492.78 " fill="none" id="AttachmentData_9-am_WhitehallAsset_X17c302fe" style="stroke:#181818;stroke-width:1.0;stroke-dasharray:7.0,7.0;"/></g><!--SRC=[hLEnReCm4Dtv2YjZf4IXKPg43IcjrA5LjtQp77m4LmuWVBH3bN-lCOQOG4Y6RlZktNlFt7EQSI0VYK18c9JarylsNn0XcUoog3n2Yi5cGfWYpP5kD8OGoH0KKk02HPPImGEogShY6zoYT_8mEm0cK3ZKR_2ZmW959C6oEnKhe50h18GNB4RDuiXFPxCklkLz5X92H1ObnlZMK7UBT6lOEKX0qAPZ9XLe_gw1Ik9ohbLvER8312j3RhxfIdCEKTYkxZMpPy8TGsOTTel6uSdh5QUpyfOfm-aOCvErEVTicCxUF2-jCl1UxgLGYKWFOIw6Sk3xXZalzomNj5s8xnk11lvKB_y2RQirkBVS0Shgz_LcZTdQRQWKu2jBzINSPBL1DltWqt-Cbek768mNTgJTFctxhgiobndZmAkOL0O3WaK9pXLx8kiR8kl_4ublYCJZ8atSHrMMYyMeYkxVfwBNvRpR-NmWEvrWQiJ8pUw5QdlzrtC5RzT_DzvkyWy0]--></g></svg>