<?xml version="1.0" encoding="us-ascii" standalone="no"?><svg xmlns="http://www.w3.org/2000/svg" xmlns:xlink="http://www.w3.org/1999/xlink" contentStyleType="text/css" height="695px" preserveAspectRatio="none" style="width:1487px;height:695px;background:#FFFFFF;" version="1.1" viewBox="0 0 1487 695" width="1487px" zoomAndPan="magnify"><defs/><g><!--cluster Whitehall--><g id="cluster_Whitehall"><polygon fill="none" points="359,16,369,6,769,6,769,510,759,520,359,520,359,16" style="stroke:#181818;stroke-width:1.0;"/><line style="stroke:#181818;stroke-width:1.0;" x1="759" x2="769" y1="16" y2="6"/><line style="stroke:#181818;stroke-width:1.0;" x1="359" x2="759" y1="16" y2="16"/><line style="stroke:#181818;stroke-width:1.0;" x1="759" x2="759" y1="16" y2="520"/><text fill="#000000" font-family="sans-serif" font-size="14" font-weight="bold" lengthAdjust="spacing" textLength="68" x="526" y="32.5352">Whitehall</text></g><!--cluster PublishingApi--><g id="cluster_PublishingApi"><polygon fill="none" points="793,158,803,148,1317,148,1317,405,1307,415,793,415,793,158" style="stroke:#181818;stroke-width:1.0;"/><line style="stroke:#181818;stroke-width:1.0;" x1="1307" x2="1317" y1="158" y2="148"/><line style="stroke:#181818;stroke-width:1.0;" x1="793" x2="1307" y1="158" y2="158"/><line style="stroke:#181818;stroke-width:1.0;" x1="1307" x2="1307" y1="158" y2="415"/><text fill="#000000" font-family="sans-serif" font-size="14" font-weight="bold" lengthAdjust="spacing" textLength="101" x="1000.5" y="174.5352">PublishingApi</text></g><!--cluster AssetManager--><g id="cluster_AssetManager"><polygon fill="none" points="16,554,26,544,1470,544,1470,668,1460,678,16,678,16,554" style="stroke:#181818;stroke-width:1.0;"/><line style="stroke:#181818;stroke-width:1.0;" x1="1460" x2="1470" y1="554" y2="544"/><line style="stroke:#181818;stroke-width:1.0;" x1="16" x2="1460" y1="554" y2="554"/><line style="stroke:#181818;stroke-width:1.0;" x1="1460" x2="1460" y1="554" y2="678"/><text fill="#000000" font-family="sans-serif" font-size="14" font-weight="bold" lengthAdjust="spacing" textLength="101" x="688.5" y="570.5352">AssetManager</text></g><g id="elem_Document_8"><rect fill="#F1F1F1" height="61.4648" style="stroke:#181818;stroke-width:0.5;" width="141" x="493.5" y="46"/><text fill="#000000" font-family="sans-serif" font-size="14" lengthAdjust="spacing" textLength="83" x="522.5" y="61.5352">Document:8</text><line style="stroke:#181818;stroke-width:0.5;" x1="494.5" x2="633.5" y1="66.4883" y2="66.4883"/><text fill="#000000" font-family="sans-serif" font-size="14" lengthAdjust="spacing" textLength="129" x="499.5" y="84.0234">latest_edition_id: 8</text><text fill="#000000" font-family="sans-serif" font-size="14" lengthAdjust="spacing" textLength="102" x="499.5" y="100.5117">live_edition_id:</text></g><g id="elem_NewsArticle_8"><rect fill="#F1F1F1" height="44.9766" style="stroke:#181818;stroke-width:0.5;" width="107" x="383.5" y="183.5"/><text fill="#000000" font-family="sans-serif" font-size="14" lengthAdjust="spacing" textLength="93" x="390.5" y="199.0352">NewsArticle:8</text><line style="stroke:#181818;stroke-width:0.5;" x1="384.5" x2="489.5" y1="203.9883" y2="203.9883"/><text fill="#000000" font-family="sans-serif" font-size="14" lengthAdjust="spacing" textLength="74" x="389.5" y="221.5234">state: draft</text></g><g id="elem_FileAttachment_9"><rect fill="#F1F1F1" height="44.9766" style="stroke:#181818;stroke-width:0.5;" width="130" x="548" y="329.5"/><text fill="#000000" font-family="sans-serif" font-size="14" lengthAdjust="spacing" textLength="116" x="555" y="345.0352">FileAttachment:9</text><line style="stroke:#181818;stroke-width:0.5;" x1="549" x2="677" y1="349.9883" y2="349.9883"/><text fill="#000000" font-family="sans-serif" font-size="14" lengthAdjust="spacing" textLength="91" x="554" y="367.5234">deleted: false</text></g><g id="elem_Image_5"><rect fill="#F1F1F1" height="36.4883" style="stroke:#181818;stroke-width:0.5;" width="69" x="396.5" y="334"/><text fill="#000000" font-family="sans-serif" font-size="14" lengthAdjust="spacing" textLength="55" x="403.5" y="349.5352">Image:5</text><line style="stroke:#181818;stroke-width:0.5;" x1="397.5" x2="464.5" y1="354.4883" y2="354.4883"/></g><g id="elem_Unpublishing_1"><rect fill="#F1F1F1" height="77.9531" style="stroke:#181818;stroke-width:0.5;" width="219" x="525.5" y="167"/><text fill="#000000" font-family="sans-serif" font-size="14" lengthAdjust="spacing" textLength="105" x="582.5" y="182.5352">Unpublishing:1</text><line style="stroke:#181818;stroke-width:0.5;" x1="526.5" x2="743.5" y1="187.4883" y2="187.4883"/><text fill="#000000" font-family="sans-serif" font-size="14" lengthAdjust="spacing" textLength="182" x="531.5" y="205.0234">unpublishing_reason_id: 1</text><text fill="#000000" font-family="sans-serif" font-size="14" lengthAdjust="spacing" textLength="93" x="531.5" y="221.5117">redirect: false</text><text fill="#000000" font-family="sans-serif" font-size="14" lengthAdjust="spacing" textLength="207" x="531.5" y="238">unpublished_at: 25 May 15:16</text></g><g id="elem_AttachmentData_9"><rect fill="#F1F1F1" height="44.9766" style="stroke:#181818;stroke-width:0.5;" width="196" x="557" y="459"/><text fill="#000000" font-family="sans-serif" font-size="14" lengthAdjust="spacing" textLength="123" x="593.5" y="474.5352">AttachmentData:9</text><line style="stroke:#181818;stroke-width:0.5;" x1="558" x2="752" y1="479.4883" y2="479.4883"/><text fill="#000000" font-family="sans-serif" font-size="14" lengthAdjust="spacing" textLength="184" x="563" y="497.0234">present_at_unpublish: true</text></g><g id="elem_ImageData_5"><rect fill="#F1F1F1" height="36.4883" style="stroke:#181818;stroke-width:0.5;" width="100" x="375" y="463.5"/><text fill="#000000" font-family="sans-serif" font-size="14" lengthAdjust="spacing" textLength="86" x="382" y="479.0352">ImageData:5</text><line style="stroke:#181818;stroke-width:0.5;" x1="376" x2="474" y1="483.9883" y2="483.9883"/></g><g id="elem_pubapi_Document_11"><rect fill="#F1F1F1" height="36.4883" style="stroke:#181818;stroke-width:0.5;" width="106" x="826" y="188"/><text fill="#000000" font-family="sans-serif" font-size="14" lengthAdjust="spacing" textLength="92" x="833" y="203.5352">Document:11</text><line style="stroke:#181818;stroke-width:0.5;" x1="827" x2="931" y1="208.4883" y2="208.4883"/></g><g id="elem_pubapi_Edition_12"><rect fill="#F1F1F1" height="44.9766" style="stroke:#181818;stroke-width:0.5;" width="86" x="1215" y="329.5"/><text fill="#000000" font-family="sans-serif" font-size="14" lengthAdjust="spacing" textLength="70" x="1223" y="345.0352">Edition:12</text><line style="stroke:#181818;stroke-width:0.5;" x1="1216" x2="1300" y1="349.9883" y2="349.9883"/><text fill="#000000" font-family="sans-serif" font-size="14" lengthAdjust="spacing" textLength="74" x="1221" y="367.5234">state: draft</text></g><g id="elem_pubapi_Edition_11"><rect fill="#F1F1F1" height="44.9766" style="stroke:#181818;stroke-width:0.5;" width="139" x="809.5" y="329.5"/><text fill="#000000" font-family="sans-serif" font-size="14" lengthAdjust="spacing" textLength="70" x="844" y="345.0352">Edition:11</text><line style="stroke:#181818;stroke-width:0.5;" x1="810.5" x2="947.5" y1="349.9883" y2="349.9883"/><text fill="#000000" font-family="sans-serif" font-size="14" lengthAdjust="spacing" textLength="127" x="815.5" y="367.5234">state: unpublished</text></g><g id="elem_pubapi_Unpublishing_1"><rect fill="#F1F1F1" height="94.4414" style="stroke:#181818;stroke-width:0.5;" width="196" x="984" y="305"/><text fill="#000000" font-family="sans-serif" font-size="14" lengthAdjust="spacing" textLength="105" x="1029.5" y="320.5352">Unpublishing:1</text><line style="stroke:#181818;stroke-width:0.5;" x1="985" x2="1179" y1="325.4883" y2="325.4883"/><text fill="#000000" font-family="sans-serif" font-size="14" lengthAdjust="spacing" textLength="72" x="990" y="343.0234">type: gone</text><text fill="#000000" font-family="sans-serif" font-size="14" lengthAdjust="spacing" textLength="184" x="990" y="359.5117">alternative_path: /example</text><text fill="#000000" font-family="sans-serif" font-size="14" lengthAdjust="spacing" textLength="110" x="990" y="376">unpublished_at:</text><text fill="#000000" font-family="sans-serif" font-size="14" lengthAdjust="spacing" textLength="64" x="990" y="392.4883">redirects:</text></g><g id="elem_am_WhitehallAsset_X16c302fe"><rect fill="#F1F1F1" height="77.9531" style="stroke:#181818;stroke-width:0.5;" width="465" x="988.5" y="584"/><text fill="#000000" font-family="sans-serif" font-size="14" lengthAdjust="spacing" textLength="178" x="1132" y="599.5352">WhitehallAsset:X16c302fe</text><line style="stroke:#181818;stroke-width:0.5;" x1="989.5" x2="1452.5" y1="604.4883" y2="604.4883"/><text fill="#000000" font-family="sans-serif" font-size="14" lengthAdjust="spacing" textLength="106" x="994.5" y="622.0234">state: uploaded</text><text fill="#000000" font-family="sans-serif" font-size="14" lengthAdjust="spacing" textLength="73" x="994.5" y="638.5117">draft: false</text><text fill="#000000" font-family="sans-serif" font-size="14" lengthAdjust="spacing" textLength="453" x="994.5" y="655">redirect_url: http://www.dev.gov.uk/government/news/newsnews</text></g><g id="elem_am_WhitehallAsset_X17c302fe"><rect fill="#F1F1F1" height="77.9531" style="stroke:#181818;stroke-width:0.5;" width="465" x="488.5" y="584"/><text fill="#000000" font-family="sans-serif" font-size="14" lengthAdjust="spacing" textLength="178" x="632" y="599.5352">WhitehallAsset:X17c302fe</text><line style="stroke:#181818;stroke-width:0.5;" x1="489.5" x2="952.5" y1="604.4883" y2="604.4883"/><text fill="#000000" font-family="sans-serif" font-size="14" lengthAdjust="spacing" textLength="106" x="494.5" y="622.0234">state: uploaded</text><text fill="#000000" font-family="sans-serif" font-size="14" lengthAdjust="spacing" textLength="73" x="494.5" y="638.5117">draft: false</text><text fill="#000000" font-family="sans-serif" font-size="14" lengthAdjust="spacing" textLength="453" x="494.5" y="655">redirect_url: http://www.dev.gov.uk/government/news/newsnews</text></g><g id="elem_am_WhitehallAsset_X17c302ff"><rect fill="#F1F1F1" height="77.9531" style="stroke:#181818;stroke-width:0.5;" width="189" x="264.5" y="584"/><text fill="#000000" font-family="sans-serif" font-size="14" lengthAdjust="spacing" textLength="175" x="271.5" y="599.5352">WhitehallAsset:X17c302ff</text><line style="stroke:#181818;stroke-width:0.5;" x1="265.5" x2="452.5" y1="604.4883" y2="604.4883"/><text fill="#000000" font-family="sans-serif" font-size="14" lengthAdjust="spacing" textLength="106" x="270.5" y="622.0234">state: uploaded</text><text fill="#000000" font-family="sans-serif" font-size="14" lengthAdjust="spacing" textLength="73" x="270.5" y="638.5117">draft: false</text><text fill="#000000" font-family="sans-serif" font-size="14" lengthAdjust="spacing" textLength="83" x="270.5" y="655">redirect_url:</text></g><g id="elem_am_WhitehallAsset_X17c30300"><rect fill="#F1F1F1" height="77.9531" style="stroke:#181818;stroke-width:0.5;" width="197" x="32.5" y="584"/><text fill="#000000" font-family="sans-serif" font-size="14" lengthAdjust="spacing" textLength="183" x="39.5" y="599.5352">WhitehallAsset:X17c30300</text><line style="stroke:#181818;stroke-width:0.5;" x1="33.5" x2="228.5" y1="604.4883" y2="604.4883"/><text fill="#000000" font-family="sans-serif" font-size="14" lengthAdjust="spacing" textLength="106" x="38.5" y="622.0234">state: uploaded</text><text fill="#000000" font-family="sans-serif" font-size="14" lengthAdjust="spacing" textLength="73" x="38.5" y="638.5117">draft: false</text><text fill="#000000" font-family="sans-serif" font-size="14" lengthAdjust="spacing" textLength="83" x="38.5" y="655">redirect_url:</text></g><!--reverse link Document_8 to NewsArticle_8--><g id="link_Document_8_NewsArticle_8"><path codeLine="10" d="M524,117.65 C502.38,139.36 476.53,165.32 458.65,183.27 " fill="none" id="Document_8-backto-NewsArticle_8" style="stroke:#181818;stroke-width:1.0;"/><polygon fill="#181818" points="533.16,108.47,526.0911,109.8952,524.6879,116.9684,531.7568,115.5433,533.16,108.47" style="stroke:#181818;stroke-width:1.0;"/></g><!--reverse link NewsArticle_8 to FileAttachment_9--><g id="link_NewsArticle_8_FileAttachment_9"><path codeLine="14" d="M474.94,238.04 C508.51,265.51 556.65,304.89 586.31,329.16 " fill="none" id="NewsArticle_8-backto-FileAttachment_9" style="stroke:#181818;stroke-width:1.0;"/><polygon fill="#181818" points="464.9,229.83,467.0108,236.7253,474.1875,237.4289,472.0767,230.5336,464.9,229.83" style="stroke:#181818;stroke-width:1.0;"/></g><!--reverse link NewsArticle_8 to Image_5--><g id="link_NewsArticle_8_Image_5"><path codeLine="17" d="M435.49,243.35 C434.28,272.36 432.64,311.69 431.71,333.9 " fill="none" id="NewsArticle_8-backto-Image_5" style="stroke:#181818;stroke-width:1.0;"/><polygon fill="#181818" points="436.03,230.38,431.7829,236.2077,435.5288,242.3695,439.7759,236.5418,436.03,230.38" style="stroke:#181818;stroke-width:1.0;"/></g><!--reverse link NewsArticle_8 to Unpublishing_1--><g id="link_NewsArticle_8_Unpublishing_1"><path codeLine="23" d="M505.25,206 C511.88,206 518.5,206 525.13,206 " fill="none" id="NewsArticle_8-backto-Unpublishing_1" style="stroke:#181818;stroke-width:1.0;"/><polygon fill="#181818" points="492.27,206,498.27,210,504.27,206,498.27,202,492.27,206" style="stroke:#181818;stroke-width:1.0;"/></g><!--link FileAttachment_9 to AttachmentData_9--><g id="link_FileAttachment_9_AttachmentData_9"><path codeLine="28" d="M620.22,374.92 C626.57,394.19 635.93,422.6 643.34,445.09 " fill="none" id="FileAttachment_9-to-AttachmentData_9" style="stroke:#181818;stroke-width:1.0;"/><polygon fill="#181818" points="647.4,457.43,649.3191,450.479,643.6409,446.034,641.7218,452.985,647.4,457.43" style="stroke:#181818;stroke-width:1.0;"/></g><!--link Image_5 to ImageData_5--><g id="link_Image_5_ImageData_5"><path codeLine="31" d="M430.18,370.46 C429.23,390.59 427.66,424.06 426.49,448.82 " fill="none" id="Image_5-to-ImageData_5" style="stroke:#181818;stroke-width:1.0;"/><polygon fill="#181818" points="425.88,461.74,430.159,455.9357,426.447,449.7534,422.168,455.5577,425.88,461.74" style="stroke:#181818;stroke-width:1.0;"/></g><!--reverse link pubapi_Document_11 to pubapi_Edition_12--><g id="link_pubapi_Document_11_pubapi_Edition_12"><path codeLine="45" d="M946.33,220.34 C1012.8,235.18 1116.08,262.76 1198,305 C1210.6,311.5 1223.25,320.7 1233.66,329.17 " fill="none" id="pubapi_Document_11-backto-pubapi_Edition_12" style="stroke:#181818;stroke-width:1.0;"/><polygon fill="#181818" points="933.79,217.6,938.7992,222.7873,945.5141,220.1585,940.5049,214.9712,933.79,217.6" style="stroke:#181818;stroke-width:1.0;"/></g><!--reverse link pubapi_Document_11 to pubapi_Edition_11--><g id="link_pubapi_Document_11_pubapi_Edition_11"><path codeLine="49" d="M879,238.66 C879,266.16 879,305.27 879,329.34 " fill="none" id="pubapi_Document_11-backto-pubapi_Edition_11" style="stroke:#181818;stroke-width:1.0;"/><polygon fill="#181818" points="879,225.88,875,231.88,879,237.88,883,231.88,879,225.88" style="stroke:#181818;stroke-width:1.0;"/></g><!--reverse link pubapi_Edition_11 to pubapi_Unpublishing_1--><g id="link_pubapi_Edition_11_pubapi_Unpublishing_1"><path codeLine="56" d="M963.22,352 C970.03,352 976.84,352 983.65,352 " fill="none" id="pubapi_Edition_11-backto-pubapi_Unpublishing_1" style="stroke:#181818;stroke-width:1.0;"/><polygon fill="#181818" points="950.29,352,956.29,356,962.29,352,956.29,348,950.29,352" style="stroke:#181818;stroke-width:1.0;"/></g><!--link Document_8 to pubapi_Document_11--><g id="link_Document_8_pubapi_Document_11"><path codeLine="87" d="M634.97,96.35 C673,107.37 720.28,122.53 761,140 C793.02,153.74 827.74,173.51 851.17,187.63 " fill="none" id="Document_8-pubapi_Document_11" style="stroke:#181818;stroke-width:1.0;stroke-dasharray:7.0,7.0;"/></g><!--link ImageData_5 to am_WhitehallAsset_X17c302ff--><g id="link_ImageData_5_am_WhitehallAsset_X17c302ff"><path codeLine="88" d="M416.77,499.89 C406.93,520.7 390.14,556.18 377.19,583.55 " fill="none" id="ImageData_5-am_WhitehallAsset_X17c302ff" style="stroke:#181818;stroke-width:1.0;stroke-dasharray:7.0,7.0;"/></g><!--link ImageData_5 to am_WhitehallAsset_X17c30300--><g id="link_ImageData_5_am_WhitehallAsset_X17c30300"><path codeLine="89" d="M374.52,492.75 C337.89,501.34 287.81,515.53 247,536 C221.57,548.76 195.88,567.11 175.17,583.58 " fill="none" id="ImageData_5-am_WhitehallAsset_X17c30300" style="stroke:#181818;stroke-width:1.0;stroke-dasharray:7.0,7.0;"/></g><!--link AttachmentData_9 to am_WhitehallAsset_X16c302fe--><g id="link_AttachmentData_9_am_WhitehallAsset_X16c302fe"><path codeLine="90" d="M753.38,494.93 C816.18,503.9 899.02,517.66 971,536 C1021.37,548.84 1076.1,567.15 1121.48,583.57 " fill="none" id="AttachmentData_9-am_WhitehallAsset_X16c302fe" style="stroke:#181818;stroke-width:1.0;stroke-dasharray:7.0,7.0;"/></g><!--link AttachmentData_9 to am_WhitehallAsset_X17c302fe--><g id="link_AttachmentData_9_am_WhitehallAsset_X17c302fe"><path codeLine="91" d="M665.31,504.3 C675.32,525.45 690.72,558 702.79,583.51 " fill="none" id="AttachmentData_9-am_WhitehallAsset_X17c302fe" style="stroke:#181818;stroke-width:1.0;stroke-dasharray:7.0,7.0;"/></g><!--SRC=[pLNBRjim4BpxAuWS3VX11quStWoa1Nf8qKlHteYDjRROqf8Whkm6HVwzAvgIgLYnZPngm0yjbpF3uP3EyWJ5ZzGGfc2j-3l8dt_XYiJDOxwgjfYHMjm8SA9vr0lk4S82eIEDYI6JPzeaIYpgijbXN1oy3YZV8ALOHj1VSU-M9PcLnO0ULGA18sPG8YbXJOmIqGz7esv_Y_lPM5mImIhrmXyyTBUe7pnwWXO9MVGQh4F6xmgeATxEQrc-R663Qkx1_MyzPym-Y33QploU5TMpDIursKP93n2NjFJQghXK8hZWh-Inahqj6QiH7dLZee7hixbuWXSXvqhUzOXwGyWTZRZZMX-189ZNBGRpYX9TRGcGRjcLeBAgZJoPCHnLbypqX96XVkR1rFZP8pMUlWuEhwpExxTsISl2z6LO7jnciL0OtOP9Ia_Ij7yw15V9MTmTgbhE-eBP0rbl_SdSKnBPIo9ZacXphwUIv_8McdjYHoy5Csxoh4uLMC8o0wgFSm74spl1Fx0jR4_aebWwTPGPhMWuwkSDc-YtSEaSqXDalBlnLT7UJ7vS_PHtgzlfR8r-CR3LtN7TZdTSB6mE2Lie3hjsF3oDRbsLLecKg52JoNw_7oUu6s_otRZwFU4ljg8sV9BnOV8VzJlApOd8-miYx_yVaUiB8jSV47c9zNOwFSlAunzZzNcA_Yh6uvuZtxbJkEFCsgzjPS6d5zyx_I6WL_U7h0p-0G00]--></g></svg>