<?xml version="1.0" encoding="us-ascii" standalone="no"?><svg xmlns="http://www.w3.org/2000/svg" xmlns:xlink="http://www.w3.org/1999/xlink" contentStyleType="text/css" height="2803.125px" preserveAspectRatio="none" style="width:3996px;height:2803px;background:#FFFFFF;" version="1.1" viewBox="0 0 3996 2803" width="3996.875px" zoomAndPan="magnify"><defs/><g><!--cluster Editions--><g id="cluster_Editions"><rect fill="none" height="786.6562" rx="7.8125" ry="7.8125" style="stroke:#181818;stroke-width:3.125;" width="1168.75" x="996.875" y="423.75"/><text fill="#000000" font-family="sans-serif" font-size="43.75" font-weight="bold" lengthAdjust="spacing" textLength="184.375" x="1489.0625" y="472.2974">Editions</text></g><!--cluster Attachments--><g id="cluster_Attachments"><rect fill="none" height="829.25" rx="7.8125" ry="7.8125" style="stroke:#181818;stroke-width:3.125;" width="2750" x="21.875" y="1313.5313"/><text fill="#000000" font-family="sans-serif" font-size="43.75" font-weight="bold" lengthAdjust="spacing" textLength="284.375" x="1254.6875" y="1362.0786">Attachments</text></g><!--cluster Images--><g id="cluster_Images"><rect fill="none" height="786.6562" rx="7.8125" ry="7.8125" style="stroke:#181818;stroke-width:3.125;" width="1131.25" x="2846.875" y="1338.5313"/><text fill="#000000" font-family="sans-serif" font-size="43.75" font-weight="bold" lengthAdjust="spacing" textLength="162.5" x="3331.25" y="1387.0786">Images</text></g><!--cluster AssetManager--><g id="cluster_AssetManager"><polygon fill="none" points="2246.875,2327.1563,2278.125,2295.9063,2800,2295.9063,2800,2719.2188,2768.75,2750.4688,2246.875,2750.4688,2246.875,2327.1563" style="stroke:#181818;stroke-width:3.125;"/><line style="stroke:#181818;stroke-width:3.125;" x1="2768.75" x2="2800" y1="2327.1563" y2="2295.9063"/><line style="stroke:#181818;stroke-width:3.125;" x1="2246.875" x2="2768.75" y1="2327.1563" y2="2327.1563"/><line style="stroke:#181818;stroke-width:3.125;" x1="2768.75" x2="2768.75" y1="2327.1563" y2="2750.4688"/><text fill="#000000" font-family="sans-serif" font-size="43.75" font-weight="bold" lengthAdjust="spacing" textLength="315.625" x="2353.125" y="2378.8286">AssetManager</text></g><!--class Edition--><g id="elem_Edition"><rect codeLine="9" fill="#F1F1F1" height="203.4668" id="Edition" rx="7.8125" ry="7.8125" style="stroke:#181818;stroke-width:1.5625;" width="250" x="1053.125" y="533.125"/><ellipse cx="1100" cy="596.5955" fill="#A9DCDF" rx="34.375" ry="34.375" style="stroke:#181818;stroke-width:3.125;"/><path d="M1099.5728,582.0584 L1095.9671,597.9077 L1103.2043,597.9077 Z M1094.9036,575.0546 L1104.2679,575.0546 L1114.7217,613.783 L1107.0694,613.783 L1104.6829,604.2111 L1094.4366,604.2111 L1092.1021,613.783 L1084.4498,613.783 Z " fill="#000000"/><text fill="#000000" font-family="sans-serif" font-size="37.5" font-style="italic" lengthAdjust="spacing" textLength="150" x="1143.75" y="585.0049">&#171;model&#187;</text><text fill="#000000" font-family="sans-serif" font-size="43.75" font-style="italic" lengthAdjust="spacing" textLength="150" x="1143.75" y="635.2124">Edition</text><line style="stroke:#181818;stroke-width:1.5625;" x1="1056.25" x2="1300" y1="660.0659" y2="660.0659"/><text fill="#000000" font-family="sans-serif" font-size="43.75" lengthAdjust="spacing" textLength="103.125" x="1071.875" y="714.8633">state</text></g><g id="elem_othereds"><ellipse cx="1203.1148" cy="1096.9402" fill="#F1F1F1" rx="155.6148" ry="45.909" style="stroke:#181818;stroke-width:1.5625;"/><text fill="#000000" font-family="sans-serif" font-size="43.75" lengthAdjust="spacing" textLength="168.75" x="1111.1061" y="1109.1317">(others)</text></g><!--class Attachable--><g id="elem_Attachable"><rect codeLine="16" fill="#F1F1F1" height="126.9409" id="Attachable" rx="7.8125" ry="7.8125" style="stroke:#181818;stroke-width:1.5625;" width="328.125" x="1467.1875" y="1033.4687"/><ellipse cx="1514.0625" cy="1096.9392" fill="#A9DCDF" rx="34.375" ry="34.375" style="stroke:#181818;stroke-width:3.125;"/><path d="M1513.6353,1082.4022 L1510.0296,1098.2515 L1517.2668,1098.2515 Z M1508.9661,1075.3984 L1518.3304,1075.3984 L1528.7842,1114.1267 L1521.1319,1114.1267 L1518.7454,1104.5549 L1508.4991,1104.5549 L1506.1646,1114.1267 L1498.5123,1114.1267 Z " fill="#000000"/><text fill="#000000" font-family="sans-serif" font-size="37.5" font-style="italic" lengthAdjust="spacing" textLength="178.125" x="1582.8125" y="1085.3486">&#171;concern&#187;</text><text fill="#000000" font-family="sans-serif" font-size="43.75" font-style="italic" lengthAdjust="spacing" textLength="228.125" x="1557.8125" y="1135.5562">Attachable</text></g><!--class Attachment--><g id="elem_Attachment"><rect codeLine="21" fill="#F1F1F1" height="126.9409" id="Attachment" rx="7.8125" ry="7.8125" style="stroke:#181818;stroke-width:1.5625;" width="346.875" x="1017.1875" y="1447.9063"/><ellipse cx="1064.0625" cy="1511.3767" fill="#A9DCDF" rx="34.375" ry="34.375" style="stroke:#181818;stroke-width:3.125;"/><path d="M1063.6353,1496.8397 L1060.0296,1512.689 L1067.2668,1512.689 Z M1058.9661,1489.8359 L1068.3304,1489.8359 L1078.7842,1528.5642 L1071.1319,1528.5642 L1068.7454,1518.9924 L1058.4991,1518.9924 L1056.1646,1528.5642 L1048.5123,1528.5642 Z " fill="#000000"/><text fill="#000000" font-family="sans-serif" font-size="37.5" font-style="italic" lengthAdjust="spacing" textLength="150" x="1156.25" y="1499.7861">&#171;model&#187;</text><text fill="#000000" font-family="sans-serif" font-size="43.75" font-style="italic" lengthAdjust="spacing" textLength="246.875" x="1107.8125" y="1549.9937">Attachment</text></g><!--class FileAttachment--><g id="elem_FileAttachment"><rect codeLine="22" fill="#F1F1F1" height="126.9409" id="FileAttachment" rx="7.8125" ry="7.8125" style="stroke:#181818;stroke-width:1.5625;" width="421.875" x="98.4375" y="1909.9687"/><ellipse cx="145.3125" cy="1973.4392" fill="#ADD1B2" rx="34.375" ry="34.375" style="stroke:#181818;stroke-width:3.125;"/><path d="M153.0411,1992.6363 Q151.2253,1993.5701 149.2279,1994.037 Q147.2305,1994.504 145.0256,1994.504 Q137.1918,1994.504 133.0673,1989.3419 Q128.9429,1984.1799 128.9429,1974.4265 Q128.9429,1964.6471 133.0673,1959.485 Q137.1918,1954.323 145.0256,1954.323 Q147.2305,1954.323 149.2538,1954.7899 Q151.2772,1955.2568 153.0411,1956.1907 L153.0411,1964.699 Q151.0696,1962.8832 149.2149,1962.0401 Q147.3602,1961.1971 145.3888,1961.1971 Q141.1865,1961.1971 139.0465,1964.5304 Q136.9064,1967.8636 136.9064,1974.4265 Q136.9064,1980.9633 139.0465,1984.2966 Q141.1865,1987.6299 145.3888,1987.6299 Q147.3602,1987.6299 149.2149,1986.7868 Q151.0696,1985.9438 153.0411,1984.128 Z " fill="#000000"/><text fill="#000000" font-family="sans-serif" font-size="37.5" font-style="italic" lengthAdjust="spacing" textLength="150" x="275" y="1961.8486">&#171;model&#187;</text><text fill="#000000" font-family="sans-serif" font-size="43.75" lengthAdjust="spacing" textLength="321.875" x="189.0625" y="2012.0562">FileAttachment</text></g><g id="elem_otheratts"><ellipse cx="1062.5067" cy="1973.4388" fill="#F1F1F1" rx="434.0692" ry="94.3138" style="stroke:#181818;stroke-width:1.5625;"/><text fill="#000000" font-family="sans-serif" font-size="43.75" lengthAdjust="spacing" textLength="771.875" x="676.5692" y="1983.7233">(other attachments - html, external)</text></g><!--class AttachmentData--><g id="elem_AttachmentData"><rect codeLine="27" fill="#F1F1F1" height="203.4668" id="AttachmentData" rx="7.8125" ry="7.8125" style="stroke:#181818;stroke-width:1.5625;" width="443.75" x="1606.25" y="1871.7187"/><ellipse cx="1653.125" cy="1935.1892" fill="#ADD1B2" rx="34.375" ry="34.375" style="stroke:#181818;stroke-width:3.125;"/><path d="M1660.8536,1954.3863 Q1659.0378,1955.3201 1657.0404,1955.787 Q1655.043,1956.254 1652.8381,1956.254 Q1645.0043,1956.254 1640.8798,1951.0919 Q1636.7554,1945.9299 1636.7554,1936.1765 Q1636.7554,1926.3971 1640.8798,1921.235 Q1645.0043,1916.073 1652.8381,1916.073 Q1655.043,1916.073 1657.0663,1916.5399 Q1659.0897,1917.0068 1660.8536,1917.9407 L1660.8536,1926.449 Q1658.8821,1924.6332 1657.0274,1923.7901 Q1655.1727,1922.9471 1653.2013,1922.9471 Q1648.999,1922.9471 1646.859,1926.2804 Q1644.7189,1929.6136 1644.7189,1936.1765 Q1644.7189,1942.7133 1646.859,1946.0466 Q1648.999,1949.3799 1653.2013,1949.3799 Q1655.1727,1949.3799 1657.0274,1948.5368 Q1658.8821,1947.6938 1660.8536,1945.878 Z " fill="#000000"/><text fill="#000000" font-family="sans-serif" font-size="37.5" font-style="italic" lengthAdjust="spacing" textLength="150" x="1793.75" y="1923.5986">&#171;model&#187;</text><text fill="#000000" font-family="sans-serif" font-size="43.75" lengthAdjust="spacing" textLength="343.75" x="1696.875" y="1973.8062">AttachmentData</text><line style="stroke:#181818;stroke-width:1.5625;" x1="1609.375" x2="2046.875" y1="1998.6597" y2="1998.6597"/><text fill="#000000" font-family="sans-serif" font-size="43.75" lengthAdjust="spacing" textLength="334.375" x="1625" y="2053.457">carrierwave_file</text></g><g id="elem_GMN16"><path d="M2159.375,1933.9063 L2159.375,1960.9375 L2050.625,1973.4375 L2159.375,1985.9375 L2159.375,2013.0017 A0,0 0 0 0 2159.375,2013.0017 L2721.875,2013.0017 A0,0 0 0 0 2721.875,2013.0017 L2721.875,1965.1563 L2690.625,1933.9063 L2159.375,1933.9063 A0,0 0 0 0 2159.375,1933.9063 " fill="#FEFFDD" style="stroke:#181818;stroke-width:1.5625;"/><path d="M2690.625,1933.9063 L2690.625,1965.1563 L2721.875,1965.1563 L2690.625,1933.9063 " fill="#FEFFDD" style="stroke:#181818;stroke-width:1.5625;"/><text fill="#000000" font-family="sans-serif" font-size="40.625" lengthAdjust="spacing" textLength="496.875" x="2178.125" y="1988.8074">only for file attachments!</text></g><!--class Image--><g id="elem_Image"><rect codeLine="36" fill="#F1F1F1" height="126.9409" id="Image" rx="7.8125" ry="7.8125" style="stroke:#181818;stroke-width:1.5625;" width="237.5" x="2896.875" y="1447.9063"/><ellipse cx="2943.75" cy="1511.3767" fill="#ADD1B2" rx="34.375" ry="34.375" style="stroke:#181818;stroke-width:3.125;"/><path d="M2951.4786,1530.5738 Q2949.6628,1531.5076 2947.6654,1531.9745 Q2945.668,1532.4415 2943.4631,1532.4415 Q2935.6293,1532.4415 2931.5048,1527.2794 Q2927.3804,1522.1174 2927.3804,1512.364 Q2927.3804,1502.5846 2931.5048,1497.4225 Q2935.6293,1492.2605 2943.4631,1492.2605 Q2945.668,1492.2605 2947.6913,1492.7274 Q2949.7147,1493.1943 2951.4786,1494.1282 L2951.4786,1502.6365 Q2949.5071,1500.8207 2947.6524,1499.9776 Q2945.7977,1499.1346 2943.8263,1499.1346 Q2939.624,1499.1346 2937.484,1502.4679 Q2935.3439,1505.8011 2935.3439,1512.364 Q2935.3439,1518.9008 2937.484,1522.2341 Q2939.624,1525.5674 2943.8263,1525.5674 Q2945.7977,1525.5674 2947.6524,1524.7243 Q2949.5071,1523.8813 2951.4786,1522.0655 Z " fill="#000000"/><text fill="#000000" font-family="sans-serif" font-size="37.5" font-style="italic" lengthAdjust="spacing" textLength="150" x="2981.25" y="1499.7861">&#171;model&#187;</text><text fill="#000000" font-family="sans-serif" font-size="43.75" lengthAdjust="spacing" textLength="131.25" x="2990.625" y="1549.9937">Image</text></g><!--class ImageData--><g id="elem_ImageData"><rect codeLine="37" fill="#F1F1F1" height="203.4668" id="ImageData" rx="7.8125" ry="7.8125" style="stroke:#181818;stroke-width:1.5625;" width="371.875" x="2898.4375" y="1871.7187"/><ellipse cx="2965" cy="1935.1892" fill="#ADD1B2" rx="34.375" ry="34.375" style="stroke:#181818;stroke-width:3.125;"/><path d="M2972.7286,1954.3863 Q2970.9128,1955.3201 2968.9154,1955.787 Q2966.918,1956.254 2964.7131,1956.254 Q2956.8793,1956.254 2952.7548,1951.0919 Q2948.6304,1945.9299 2948.6304,1936.1765 Q2948.6304,1926.3971 2952.7548,1921.235 Q2956.8793,1916.073 2964.7131,1916.073 Q2966.918,1916.073 2968.9413,1916.5399 Q2970.9647,1917.0068 2972.7286,1917.9407 L2972.7286,1926.449 Q2970.7571,1924.6332 2968.9024,1923.7901 Q2967.0477,1922.9471 2965.0763,1922.9471 Q2960.874,1922.9471 2958.734,1926.2804 Q2956.5939,1929.6136 2956.5939,1936.1765 Q2956.5939,1942.7133 2958.734,1946.0466 Q2960.874,1949.3799 2965.0763,1949.3799 Q2967.0477,1949.3799 2968.9024,1948.5368 Q2970.7571,1947.6938 2972.7286,1945.878 Z " fill="#000000"/><text fill="#000000" font-family="sans-serif" font-size="37.5" font-style="italic" lengthAdjust="spacing" textLength="150" x="3052.1875" y="1923.5986">&#171;model&#187;</text><text fill="#000000" font-family="sans-serif" font-size="43.75" lengthAdjust="spacing" textLength="228.125" x="3013.125" y="1973.8062">ImageData</text><line style="stroke:#181818;stroke-width:1.5625;" x1="2901.5625" x2="3267.1875" y1="1998.6597" y2="1998.6597"/><text fill="#000000" font-family="sans-serif" font-size="43.75" lengthAdjust="spacing" textLength="334.375" x="2917.1875" y="2053.457">carrierwave_file</text></g><!--class Asset--><g id="elem_Asset"><rect codeLine="56" fill="#F1F1F1" height="279.5776" id="Asset" rx="7.8125" ry="7.8125" style="stroke:#181818;stroke-width:1.5625;" width="371.875" x="2335.9375" y="2420.9063"/><ellipse cx="2453.125" cy="2470.9063" fill="#ADD1B2" rx="34.375" ry="34.375" style="stroke:#181818;stroke-width:3.125;"/><path d="M2460.8536,2490.1033 Q2459.0378,2491.0372 2457.0404,2491.5041 Q2455.043,2491.971 2452.8381,2491.971 Q2445.0043,2491.971 2440.8798,2486.809 Q2436.7554,2481.6469 2436.7554,2471.8935 Q2436.7554,2462.1141 2440.8798,2456.9521 Q2445.0043,2451.79 2452.8381,2451.79 Q2455.043,2451.79 2457.0663,2452.257 Q2459.0897,2452.7239 2460.8536,2453.6577 L2460.8536,2462.166 Q2458.8821,2460.3502 2457.0274,2459.5072 Q2455.1727,2458.6641 2453.2013,2458.6641 Q2448.999,2458.6641 2446.859,2461.9974 Q2444.7189,2465.3307 2444.7189,2471.8935 Q2444.7189,2478.4304 2446.859,2481.7636 Q2448.999,2485.0969 2453.2013,2485.0969 Q2455.1727,2485.0969 2457.0274,2484.2539 Q2458.8821,2483.4108 2460.8536,2481.595 Z " fill="#000000"/><text fill="#000000" font-family="sans-serif" font-size="43.75" lengthAdjust="spacing" textLength="115.625" x="2512.5" y="2487.4407">Asset</text><line style="stroke:#181818;stroke-width:1.5625;" x1="2339.0625" x2="2704.6875" y1="2520.9063" y2="2520.9063"/><text fill="#000000" font-family="sans-serif" font-size="43.75" lengthAdjust="spacing" textLength="184.375" x="2354.6875" y="2575.7036">filename</text><text fill="#000000" font-family="sans-serif" font-size="43.75" lengthAdjust="spacing" textLength="334.375" x="2354.6875" y="2627.2295">legacy_url_path</text><text fill="#000000" font-family="sans-serif" font-size="43.75" lengthAdjust="spacing" textLength="103.125" x="2354.6875" y="2678.7554">state</text></g><!--class Document--><g id="elem_Document"><rect codeLine="50" fill="#F1F1F1" height="254.9927" id="Document" rx="7.8125" ry="7.8125" style="stroke:#181818;stroke-width:1.5625;" width="325" x="1015.625" y="21.875"/><ellipse cx="1065.3125" cy="85.3455" fill="#ADD1B2" rx="34.375" ry="34.375" style="stroke:#181818;stroke-width:3.125;"/><path d="M1073.0411,104.5425 Q1071.2253,105.4764 1069.2279,105.9433 Q1067.2305,106.4102 1065.0256,106.4102 Q1057.1918,106.4102 1053.0673,101.2482 Q1048.9429,96.0861 1048.9429,86.3327 Q1048.9429,76.5533 1053.0673,71.3913 Q1057.1918,66.2292 1065.0256,66.2292 Q1067.2305,66.2292 1069.2538,66.6962 Q1071.2772,67.1631 1073.0411,68.0969 L1073.0411,76.6052 Q1071.0696,74.7894 1069.2149,73.9464 Q1067.3602,73.1033 1065.3888,73.1033 Q1061.1865,73.1033 1059.0465,76.4366 Q1056.9064,79.7699 1056.9064,86.3327 Q1056.9064,92.8696 1059.0465,96.2029 Q1061.1865,99.5361 1065.3888,99.5361 Q1067.3602,99.5361 1069.2149,98.6931 Q1071.0696,97.85 1073.0411,96.0342 Z " fill="#000000"/><text fill="#000000" font-family="sans-serif" font-size="37.5" font-style="italic" lengthAdjust="spacing" textLength="150" x="1144.0625" y="73.7549">&#171;model&#187;</text><text fill="#000000" font-family="sans-serif" font-size="43.75" lengthAdjust="spacing" textLength="218.75" x="1109.6875" y="123.9624">Document</text><line style="stroke:#181818;stroke-width:1.5625;" x1="1018.75" x2="1337.5" y1="148.8159" y2="148.8159"/><text fill="#000000" font-family="sans-serif" font-size="43.75" lengthAdjust="spacing" textLength="287.5" x="1034.375" y="203.6133">latest_edition</text><text fill="#000000" font-family="sans-serif" font-size="43.75" lengthAdjust="spacing" textLength="243.75" x="1034.375" y="255.1392">live_edition</text></g><!--reverse link Edition to othereds--><g id="link_Edition_othereds"><path codeLine="13" d="M1074.4375,796 C1056.125,842.375 1047.875,893.125 1065.625,939.7187 C1082.75,984.5937 1119.625,1024.7188 1150.875,1052.75 " fill="none" id="Edition-backto-othereds" style="stroke:#0000FF;stroke-width:6.25;"/><polygon fill="none" points="1056.1875,786.7188,1103.5625,740.4375,1095.375,806.1563,1056.1875,786.7188" style="stroke:#0000FF;stroke-width:6.25;"/></g><!--reverse link Edition to Attachable--><g id="link_Edition_Attachable"><path codeLine="14" d="M1323.25,783.9688 C1407.0625,868.2813 1508.0313,969.8438 1570.9375,1033.1563 " fill="none" id="Edition-backto-Attachable" style="stroke:#0000FF;stroke-width:6.25;"/><polygon fill="none" points="1309.25,800.875,1280.6875,741.125,1340.2813,770.0312,1309.25,800.875" style="stroke:#0000FF;stroke-width:6.25;"/><path d="M1484.375,845.9687 L1484.375,924.0937 L2390.625,924.0937 L2390.625,877.2187 L2359.375,845.9687 L1484.375,845.9687 " fill="#FEFFDD" style="stroke:#181818;stroke-width:1.5625;"/><path d="M2359.375,845.9687 L2359.375,877.2187 L2390.625,877.2187 L2359.375,845.9687 " fill="#FEFFDD" style="stroke:#181818;stroke-width:1.5625;"/><text fill="#000000" font-family="sans-serif" font-size="40.625" lengthAdjust="spacing" textLength="840.625" x="1503.125" y="900.8699">several Edition descendants are Attachable</text></g><!--reverse link Attachment to otheratts--><g id="link_Attachment_otheratts"><path codeLine="24" d="M1122.9063,1633.75 C1117.8438,1645.3125 1113.1875,1657.0313 1109.375,1668.5937 C1086.7188,1737.0313 1074.9063,1817.9062 1068.8125,1878.7187 " fill="none" id="Attachment-backto-otheratts" style="stroke:#0000FF;stroke-width:6.25;"/><polygon fill="none" points="1104.75,1624.3438,1152.5313,1578.5313,1143.75,1644.1563,1104.75,1624.3438" style="stroke:#0000FF;stroke-width:6.25;"/></g><!--reverse link Attachment to FileAttachment--><g id="link_Attachment_FileAttachment"><path codeLine="25" d="M1014.125,1605.7813 C839.9063,1695.9062 578.375,1831.1875 427.75,1909.0938 " fill="none" id="Attachment-backto-FileAttachment" style="stroke:#0000FF;stroke-width:6.25;"/><polygon fill="none" points="1003.0938,1585.25,1068.6563,1575.9688,1023.1875,1624.125,1003.0938,1585.25" style="stroke:#0000FF;stroke-width:6.25;"/></g><!--link Attachment to AttachmentData--><g id="link_Attachment_AttachmentData"><path codeLine="31" d="M1276.5938,1575.9688 C1372.8125,1644.75 1531.1875,1758.0313 1653.625,1845.5625 " fill="none" id="Attachment-to-AttachmentData" style="stroke:#181818;stroke-width:3.125;"/><polygon fill="#181818" points="1685.5938,1870.6563,1677.6286,1849.5762,1655.1066,1848.8209,1663.0717,1869.9009,1685.5938,1870.6563" style="stroke:#181818;stroke-width:3.125;"/><path d="M1562.5,1684.2187 L1562.5,1762.3437 L2556.25,1762.3437 L2556.25,1715.4687 L2525,1684.2187 L1562.5,1684.2187 " fill="#FEFFDD" style="stroke:#181818;stroke-width:1.5625;"/><path d="M2525,1684.2187 L2525,1715.4687 L2556.25,1715.4687 L2525,1684.2187 " fill="#FEFFDD" style="stroke:#181818;stroke-width:1.5625;"/><text fill="#000000" font-family="sans-serif" font-size="40.625" lengthAdjust="spacing" textLength="928.125" x="1581.25" y="1739.1199">links to attachments from past editions as well</text></g><!--link Image to ImageData--><g id="link_Image_ImageData"><path codeLine="40" d="M3024.9063,1575.9688 C3034.5938,1640.3438 3050.1875,1743.625 3062.9688,1828.3438 " fill="none" id="Image-to-ImageData" style="stroke:#181818;stroke-width:3.125;"/><polygon fill="#181818" points="3069.3438,1867.5313,3078.9241,1847.1344,3063.781,1830.4461,3054.2007,1850.8429,3069.3438,1867.5313" style="stroke:#181818;stroke-width:3.125;"/><path d="M3068.75,1684.2187 L3068.75,1762.3437 L3959.375,1762.3437 L3959.375,1715.4687 L3928.125,1684.2187 L3068.75,1684.2187 " fill="#FEFFDD" style="stroke:#181818;stroke-width:1.5625;"/><path d="M3928.125,1684.2187 L3928.125,1715.4687 L3959.375,1715.4687 L3928.125,1684.2187 " fill="#FEFFDD" style="stroke:#181818;stroke-width:1.5625;"/><text fill="#000000" font-family="sans-serif" font-size="40.625" lengthAdjust="spacing" textLength="825" x="3087.5" y="1739.1199">links to images from past editions as well</text></g><!--reverse link Edition to Image--><g id="link_Edition_Image"><path codeLine="44" d="M1347.4688,649.4687 C1645.1875,672 2248.125,728.9063 2431.25,830.3437 C2703.0938,980.9063 2906.875,1309.9688 2983,1446.75 " fill="none" id="Edition-backto-Image" style="stroke:#181818;stroke-width:3.125;"/><polygon fill="#181818" points="1307.2813,646.25,1325.0606,660.0959,1344.6796,649.0096,1326.9003,635.1637,1307.2813,646.25" style="stroke:#181818;stroke-width:3.125;"/></g><!--reverse link Document to Edition--><g id="link_Document_Edition"><path codeLine="46" d="M1178.125,321.9687 C1178.125,392.375 1178.125,471.625 1178.125,532.3438 " fill="none" id="Document-backto-Edition" style="stroke:#181818;stroke-width:3.125;"/><polygon fill="#181818" points="1178.125,281.5313,1165.625,300.2813,1178.125,319.0313,1190.625,300.2813,1178.125,281.5313" style="stroke:#181818;stroke-width:3.125;"/></g><!--reverse link Attachable to Attachment--><g id="link_Attachable_Attachment"><path codeLine="48" d="M1533.8438,1190.2813 C1449.75,1268.1875 1330.5625,1378.625 1257.0313,1446.7188 " fill="none" id="Attachable-backto-Attachment" style="stroke:#181818;stroke-width:3.125;"/><polygon fill="#181818" points="1562.1563,1164.2812,1539.907,1167.8568,1534.6501,1189.7697,1556.8993,1186.1942,1562.1563,1164.2812" style="stroke:#181818;stroke-width:3.125;"/></g><!--link AttachmentData to Asset--><g id="link_AttachmentData_Asset"><path codeLine="63" d="M1947.375,2076.4375 C2050.7813,2163.0313 2202.5,2290.0938 2324.0625,2391.9063 " fill="none" id="AttachmentData-to-Asset" style="stroke:#181818;stroke-width:3.125;stroke-dasharray:7.0,7.0;"/><polygon fill="#181818" points="2354.3438,2419.875,2347.9997,2398.2517,2325.5998,2395.7911,2331.9438,2417.4144,2354.3438,2419.875" style="stroke:#181818;stroke-width:3.125;"/><text fill="#000000" font-family="sans-serif" font-size="40.625" lengthAdjust="spacing" textLength="600" x="2134.375" y="2235.1824">1:many e.g. asset + thumbnail</text></g><!--link ImageData to Asset--><g id="link_ImageData_Asset"><path codeLine="64" d="M2987.6875,2076.4375 C2904.5625,2162.3125 2782.9375,2287.9375 2684.8125,2389.2813 " fill="none" id="ImageData-to-Asset" style="stroke:#181818;stroke-width:3.125;stroke-dasharray:7.0,7.0;"/><polygon fill="#181818" points="2658.2813,2416.75,2680.3033,2411.9707,2684.3616,2389.8044,2662.3396,2394.5838,2658.2813,2416.75" style="stroke:#181818;stroke-width:3.125;"/><text fill="#000000" font-family="sans-serif" font-size="40.625" lengthAdjust="spacing" textLength="671.875" x="2871.875" y="2235.1824">1:many - multiple scaled versions</text></g><!--SRC=[bLHDRzim3BthLt3PPSlceCDkML2WG5jWX_s6WBOPMwW-38bf6dJvxnDjntOS1CLyC6poyOby98N6-8FLRzfLgjOb0Tc6Zr1IB89kM7itDLkoEOMeuejs3GQqK3OQVjxTALKOZ14UVR6tv1Ws6-jBClVtIWKg65rb21PFfHRAk81t1Ud1F7B0Wg5tZ64zG9x8oDJ-dThtXE-BvphbytK16A7zfZAse87mRvOD7lXijADrRlRqIxvMkJVbDVo16OiQytJ2pG3dcI059ElB6YAzKa0pq8Xyv4fq7043JHWlonxjcqtXNK719SLE5vfr616rburzHLBGNCCHE55V45rhdhMXcv0hJG77Oo63cgtv3lJ6AKCq4xqJh1DyIZreBjxR6iv3PXdUY9CXw2eQiO_8U3Kx1OQWAHpmbROxtKeliMtdWgvgNgS6cYFiV03nJql-f2xIoxBbx3Gr7m5vnzIR2-5smLjeC39GF_aYt86CcJNvjyMA-lvsnRMMYovDxFzJRqSa5GoXjvFNRHuVv7sUycNgMSkfrB3tOZlxbPfiqd9OBC5TtHTT2UysJROlJs3IoaVUzgVFV3eLUFQaT5nI0HvY9Fw3BcKZYz4FY1XRQj73eHLD35LO7BVxOBODSgtE5yn9k6OZjLejEv8r_5XRT4UWLRLAMWZlD-1wRtE7sgYnAzSX6TYzOTqa4MA1Xaf8bqKKKTK_]--></g></svg>