<?xml version="1.0" encoding="us-ascii" standalone="no"?><svg xmlns="http://www.w3.org/2000/svg" xmlns:xlink="http://www.w3.org/1999/xlink" contentStyleType="text/css" height="2868.75px" preserveAspectRatio="none" style="width:4990px;height:2868px;background:#FFFFFF;" version="1.1" viewBox="0 0 4990 2868" width="4990.625px" zoomAndPan="magnify"><defs/><g><!--cluster Attachables--><g id="cluster_Attachables"><rect fill="none" height="786.6562" rx="7.8125" ry="7.8125" style="stroke:#181818;stroke-width:3.125;" width="1190.625" x="1234.375" y="423.75"/><text fill="#000000" font-family="sans-serif" font-size="43.75" font-weight="bold" lengthAdjust="spacing" textLength="262.5" x="1698.4375" y="472.2974">Attachables</text></g><!--cluster Attachments--><g id="cluster_Attachments"><rect fill="none" height="894.875" rx="7.8125" ry="7.8125" style="stroke:#181818;stroke-width:3.125;" width="2750" x="21.875" y="1313.5313"/><text fill="#000000" font-family="sans-serif" font-size="43.75" font-weight="bold" lengthAdjust="spacing" textLength="284.375" x="1254.6875" y="1362.0786">Attachments</text></g><!--cluster Images--><g id="cluster_Images"><rect fill="none" height="852.2812" rx="7.8125" ry="7.8125" style="stroke:#181818;stroke-width:3.125;" width="1131.25" x="2846.875" y="1338.5313"/><text fill="#000000" font-family="sans-serif" font-size="43.75" font-weight="bold" lengthAdjust="spacing" textLength="162.5" x="3331.25" y="1387.0786">Images</text></g><!--cluster Other models with assets--><g id="cluster_Other models with assets"><rect fill="none" height="362.8438" rx="7.8125" ry="7.8125" style="stroke:#181818;stroke-width:3.125;" width="918.75" x="4053.125" y="1827.9687"/><text fill="#000000" font-family="sans-serif" font-size="43.75" font-weight="bold" lengthAdjust="spacing" textLength="584.375" x="4220.3125" y="1876.5161">Other models with assets</text></g><!--cluster AssetManager--><g id="cluster_AssetManager"><polygon fill="none" points="2809.375,2392.7813,2840.625,2361.5313,3362.5,2361.5313,3362.5,2784.8438,3331.25,2816.0938,2809.375,2816.0938,2809.375,2392.7813" style="stroke:#181818;stroke-width:3.125;"/><line style="stroke:#181818;stroke-width:3.125;" x1="3331.25" x2="3362.5" y1="2392.7813" y2="2361.5313"/><line style="stroke:#181818;stroke-width:3.125;" x1="2809.375" x2="3331.25" y1="2392.7813" y2="2392.7813"/><line style="stroke:#181818;stroke-width:3.125;" x1="3331.25" x2="3331.25" y1="2392.7813" y2="2816.0938"/><text fill="#000000" font-family="sans-serif" font-size="43.75" font-weight="bold" lengthAdjust="spacing" textLength="315.625" x="2915.625" y="2444.4536">AssetManager</text></g><!--class Edition--><g id="elem_Edition"><rect codeLine="9" fill="#F1F1F1" height="203.4668" id="Edition" rx="7.8125" ry="7.8125" style="stroke:#181818;stroke-width:1.5625;" width="250" x="2125" y="533.125"/><ellipse cx="2171.875" cy="596.5955" fill="#A9DCDF" rx="34.375" ry="34.375" style="stroke:#181818;stroke-width:3.125;"/><path d="M2171.4478,582.0584 L2167.8421,597.9077 L2175.0793,597.9077 Z M2166.7786,575.0546 L2176.1429,575.0546 L2186.5967,613.783 L2178.9444,613.783 L2176.5579,604.2111 L2166.3116,604.2111 L2163.9771,613.783 L2156.3248,613.783 Z " fill="#000000"/><text fill="#000000" font-family="sans-serif" font-size="37.5" font-style="italic" lengthAdjust="spacing" textLength="150" x="2215.625" y="585.0049">&#171;model&#187;</text><text fill="#000000" font-family="sans-serif" font-size="43.75" font-style="italic" lengthAdjust="spacing" textLength="150" x="2215.625" y="635.2124">Edition</text><line style="stroke:#181818;stroke-width:1.5625;" x1="2128.125" x2="2371.875" y1="660.0659" y2="660.0659"/><text fill="#000000" font-family="sans-serif" font-size="43.75" lengthAdjust="spacing" textLength="103.125" x="2143.75" y="714.8633">state</text></g><!--class PolicyGroup--><g id="elem_PolicyGroup"><rect codeLine="12" fill="#F1F1F1" height="126.9409" id="PolicyGroup" rx="7.8125" ry="7.8125" style="stroke:#181818;stroke-width:1.5625;" width="356.25" x="1284.375" y="571.375"/><ellipse cx="1331.25" cy="634.8455" fill="#ADD1B2" rx="34.375" ry="34.375" style="stroke:#181818;stroke-width:3.125;"/><path d="M1338.9786,654.0425 Q1337.1628,654.9764 1335.1654,655.4433 Q1333.168,655.9102 1330.9631,655.9102 Q1323.1293,655.9102 1319.0048,650.7482 Q1314.8804,645.5861 1314.8804,635.8327 Q1314.8804,626.0533 1319.0048,620.8913 Q1323.1293,615.7292 1330.9631,615.7292 Q1333.168,615.7292 1335.1913,616.1962 Q1337.2147,616.6631 1338.9786,617.5969 L1338.9786,626.1052 Q1337.0071,624.2894 1335.1524,623.4464 Q1333.2977,622.6033 1331.3263,622.6033 Q1327.124,622.6033 1324.984,625.9366 Q1322.8439,629.2699 1322.8439,635.8327 Q1322.8439,642.3696 1324.984,645.7029 Q1327.124,649.0361 1331.3263,649.0361 Q1333.2977,649.0361 1335.1524,648.1931 Q1337.0071,647.35 1338.9786,645.5342 Z " fill="#000000"/><text fill="#000000" font-family="sans-serif" font-size="37.5" font-style="italic" lengthAdjust="spacing" textLength="150" x="1428.125" y="623.2549">&#171;model&#187;</text><text fill="#000000" font-family="sans-serif" font-size="43.75" lengthAdjust="spacing" textLength="256.25" x="1375" y="673.4624">PolicyGroup</text></g><g id="elem_othereds"><ellipse cx="2218.7398" cy="1096.9402" fill="#F1F1F1" rx="155.6148" ry="45.909" style="stroke:#181818;stroke-width:1.5625;"/><text fill="#000000" font-family="sans-serif" font-size="43.75" lengthAdjust="spacing" textLength="168.75" x="2126.7311" y="1109.1317">(others)</text></g><!--class Attachable--><g id="elem_Attachable"><rect codeLine="18" fill="#F1F1F1" height="126.9409" id="Attachable" rx="7.8125" ry="7.8125" style="stroke:#181818;stroke-width:1.5625;" width="328.125" x="1282.8125" y="1033.4687"/><ellipse cx="1329.6875" cy="1096.9392" fill="#A9DCDF" rx="34.375" ry="34.375" style="stroke:#181818;stroke-width:3.125;"/><path d="M1329.2603,1082.4022 L1325.6546,1098.2515 L1332.8918,1098.2515 Z M1324.5911,1075.3984 L1333.9554,1075.3984 L1344.4092,1114.1267 L1336.7569,1114.1267 L1334.3704,1104.5549 L1324.1241,1104.5549 L1321.7896,1114.1267 L1314.1373,1114.1267 Z " fill="#000000"/><text fill="#000000" font-family="sans-serif" font-size="37.5" font-style="italic" lengthAdjust="spacing" textLength="178.125" x="1398.4375" y="1085.3486">&#171;concern&#187;</text><text fill="#000000" font-family="sans-serif" font-size="43.75" font-style="italic" lengthAdjust="spacing" textLength="228.125" x="1373.4375" y="1135.5562">Attachable</text></g><!--class Attachment--><g id="elem_Attachment"><rect codeLine="23" fill="#F1F1F1" height="126.9409" id="Attachment" rx="7.8125" ry="7.8125" style="stroke:#181818;stroke-width:1.5625;" width="346.875" x="1017.1875" y="1447.9063"/><ellipse cx="1064.0625" cy="1511.3767" fill="#A9DCDF" rx="34.375" ry="34.375" style="stroke:#181818;stroke-width:3.125;"/><path d="M1063.6353,1496.8397 L1060.0296,1512.689 L1067.2668,1512.689 Z M1058.9661,1489.8359 L1068.3304,1489.8359 L1078.7842,1528.5642 L1071.1319,1528.5642 L1068.7454,1518.9924 L1058.4991,1518.9924 L1056.1646,1528.5642 L1048.5123,1528.5642 Z " fill="#000000"/><text fill="#000000" font-family="sans-serif" font-size="37.5" font-style="italic" lengthAdjust="spacing" textLength="150" x="1156.25" y="1499.7861">&#171;model&#187;</text><text fill="#000000" font-family="sans-serif" font-size="43.75" font-style="italic" lengthAdjust="spacing" textLength="246.875" x="1107.8125" y="1549.9937">Attachment</text></g><!--class FileAttachment--><g id="elem_FileAttachment"><rect codeLine="24" fill="#F1F1F1" height="126.9409" id="FileAttachment" rx="7.8125" ry="7.8125" style="stroke:#181818;stroke-width:1.5625;" width="421.875" x="98.4375" y="1975.5937"/><ellipse cx="145.3125" cy="2039.0642" fill="#ADD1B2" rx="34.375" ry="34.375" style="stroke:#181818;stroke-width:3.125;"/><path d="M153.0411,2058.2613 Q151.2253,2059.1951 149.2279,2059.662 Q147.2305,2060.129 145.0256,2060.129 Q137.1918,2060.129 133.0673,2054.9669 Q128.9429,2049.8049 128.9429,2040.0515 Q128.9429,2030.2721 133.0673,2025.11 Q137.1918,2019.948 145.0256,2019.948 Q147.2305,2019.948 149.2538,2020.4149 Q151.2772,2020.8818 153.0411,2021.8157 L153.0411,2030.324 Q151.0696,2028.5082 149.2149,2027.6651 Q147.3602,2026.8221 145.3888,2026.8221 Q141.1865,2026.8221 139.0465,2030.1554 Q136.9064,2033.4886 136.9064,2040.0515 Q136.9064,2046.5883 139.0465,2049.9216 Q141.1865,2053.2549 145.3888,2053.2549 Q147.3602,2053.2549 149.2149,2052.4118 Q151.0696,2051.5688 153.0411,2049.753 Z " fill="#000000"/><text fill="#000000" font-family="sans-serif" font-size="37.5" font-style="italic" lengthAdjust="spacing" textLength="150" x="275" y="2027.4736">&#171;model&#187;</text><text fill="#000000" font-family="sans-serif" font-size="43.75" lengthAdjust="spacing" textLength="321.875" x="189.0625" y="2077.6812">FileAttachment</text></g><g id="elem_otheratts"><ellipse cx="1062.5067" cy="2039.0638" fill="#F1F1F1" rx="434.0692" ry="94.3138" style="stroke:#181818;stroke-width:1.5625;"/><text fill="#000000" font-family="sans-serif" font-size="43.75" lengthAdjust="spacing" textLength="771.875" x="676.5692" y="2049.3483">(other attachments - html, external)</text></g><!--class AttachmentData--><g id="elem_AttachmentData"><rect codeLine="29" fill="#F1F1F1" height="203.4668" id="AttachmentData" rx="7.8125" ry="7.8125" style="stroke:#181818;stroke-width:1.5625;" width="443.75" x="1606.25" y="1937.3437"/><ellipse cx="1653.125" cy="2000.8142" fill="#ADD1B2" rx="34.375" ry="34.375" style="stroke:#181818;stroke-width:3.125;"/><path d="M1660.8536,2020.0113 Q1659.0378,2020.9451 1657.0404,2021.412 Q1655.043,2021.879 1652.8381,2021.879 Q1645.0043,2021.879 1640.8798,2016.7169 Q1636.7554,2011.5549 1636.7554,2001.8015 Q1636.7554,1992.0221 1640.8798,1986.86 Q1645.0043,1981.698 1652.8381,1981.698 Q1655.043,1981.698 1657.0663,1982.1649 Q1659.0897,1982.6318 1660.8536,1983.5657 L1660.8536,1992.074 Q1658.8821,1990.2582 1657.0274,1989.4151 Q1655.1727,1988.5721 1653.2013,1988.5721 Q1648.999,1988.5721 1646.859,1991.9054 Q1644.7189,1995.2386 1644.7189,2001.8015 Q1644.7189,2008.3383 1646.859,2011.6716 Q1648.999,2015.0049 1653.2013,2015.0049 Q1655.1727,2015.0049 1657.0274,2014.1618 Q1658.8821,2013.3188 1660.8536,2011.503 Z " fill="#000000"/><text fill="#000000" font-family="sans-serif" font-size="37.5" font-style="italic" lengthAdjust="spacing" textLength="150" x="1793.75" y="1989.2236">&#171;model&#187;</text><text fill="#000000" font-family="sans-serif" font-size="43.75" lengthAdjust="spacing" textLength="343.75" x="1696.875" y="2039.4312">AttachmentData</text><line style="stroke:#181818;stroke-width:1.5625;" x1="1609.375" x2="2046.875" y1="2064.2847" y2="2064.2847"/><text fill="#000000" font-family="sans-serif" font-size="43.75" lengthAdjust="spacing" textLength="334.375" x="1625" y="2119.082">carrierwave_file</text></g><g id="elem_GMN18"><path d="M2159.375,1999.5313 L2159.375,2026.5625 L2050.625,2039.0625 L2159.375,2051.5625 L2159.375,2078.6267 A0,0 0 0 0 2159.375,2078.6267 L2721.875,2078.6267 A0,0 0 0 0 2721.875,2078.6267 L2721.875,2030.7813 L2690.625,1999.5313 L2159.375,1999.5313 A0,0 0 0 0 2159.375,1999.5313 " fill="#FEFFDD" style="stroke:#181818;stroke-width:1.5625;"/><path d="M2690.625,1999.5313 L2690.625,2030.7813 L2721.875,2030.7813 L2690.625,1999.5313 " fill="#FEFFDD" style="stroke:#181818;stroke-width:1.5625;"/><text fill="#000000" font-family="sans-serif" font-size="40.625" lengthAdjust="spacing" textLength="496.875" x="2178.125" y="2054.4324">only for file attachments!</text></g><!--class Image--><g id="elem_Image"><rect codeLine="38" fill="#F1F1F1" height="126.9409" id="Image" rx="7.8125" ry="7.8125" style="stroke:#181818;stroke-width:1.5625;" width="237.5" x="2896.875" y="1447.9063"/><ellipse cx="2943.75" cy="1511.3767" fill="#ADD1B2" rx="34.375" ry="34.375" style="stroke:#181818;stroke-width:3.125;"/><path d="M2951.4786,1530.5738 Q2949.6628,1531.5076 2947.6654,1531.9745 Q2945.668,1532.4415 2943.4631,1532.4415 Q2935.6293,1532.4415 2931.5048,1527.2794 Q2927.3804,1522.1174 2927.3804,1512.364 Q2927.3804,1502.5846 2931.5048,1497.4225 Q2935.6293,1492.2605 2943.4631,1492.2605 Q2945.668,1492.2605 2947.6913,1492.7274 Q2949.7147,1493.1943 2951.4786,1494.1282 L2951.4786,1502.6365 Q2949.5071,1500.8207 2947.6524,1499.9776 Q2945.7977,1499.1346 2943.8263,1499.1346 Q2939.624,1499.1346 2937.484,1502.4679 Q2935.3439,1505.8011 2935.3439,1512.364 Q2935.3439,1518.9008 2937.484,1522.2341 Q2939.624,1525.5674 2943.8263,1525.5674 Q2945.7977,1525.5674 2947.6524,1524.7243 Q2949.5071,1523.8813 2951.4786,1522.0655 Z " fill="#000000"/><text fill="#000000" font-family="sans-serif" font-size="37.5" font-style="italic" lengthAdjust="spacing" textLength="150" x="2981.25" y="1499.7861">&#171;model&#187;</text><text fill="#000000" font-family="sans-serif" font-size="43.75" lengthAdjust="spacing" textLength="131.25" x="2990.625" y="1549.9937">Image</text></g><!--class ImageData--><g id="elem_ImageData"><rect codeLine="39" fill="#F1F1F1" height="203.4668" id="ImageData" rx="7.8125" ry="7.8125" style="stroke:#181818;stroke-width:1.5625;" width="371.875" x="2898.4375" y="1937.3437"/><ellipse cx="2965" cy="2000.8142" fill="#ADD1B2" rx="34.375" ry="34.375" style="stroke:#181818;stroke-width:3.125;"/><path d="M2972.7286,2020.0113 Q2970.9128,2020.9451 2968.9154,2021.412 Q2966.918,2021.879 2964.7131,2021.879 Q2956.8793,2021.879 2952.7548,2016.7169 Q2948.6304,2011.5549 2948.6304,2001.8015 Q2948.6304,1992.0221 2952.7548,1986.86 Q2956.8793,1981.698 2964.7131,1981.698 Q2966.918,1981.698 2968.9413,1982.1649 Q2970.9647,1982.6318 2972.7286,1983.5657 L2972.7286,1992.074 Q2970.7571,1990.2582 2968.9024,1989.4151 Q2967.0477,1988.5721 2965.0763,1988.5721 Q2960.874,1988.5721 2958.734,1991.9054 Q2956.5939,1995.2386 2956.5939,2001.8015 Q2956.5939,2008.3383 2958.734,2011.6716 Q2960.874,2015.0049 2965.0763,2015.0049 Q2967.0477,2015.0049 2968.9024,2014.1618 Q2970.7571,2013.3188 2972.7286,2011.503 Z " fill="#000000"/><text fill="#000000" font-family="sans-serif" font-size="37.5" font-style="italic" lengthAdjust="spacing" textLength="150" x="3052.1875" y="1989.2236">&#171;model&#187;</text><text fill="#000000" font-family="sans-serif" font-size="43.75" lengthAdjust="spacing" textLength="228.125" x="3013.125" y="2039.4312">ImageData</text><line style="stroke:#181818;stroke-width:1.5625;" x1="2901.5625" x2="3267.1875" y1="2064.2847" y2="2064.2847"/><text fill="#000000" font-family="sans-serif" font-size="43.75" lengthAdjust="spacing" textLength="334.375" x="2917.1875" y="2119.082">carrierwave_file</text></g><!--class Person--><g id="elem_Person"><rect codeLine="47" fill="#F1F1F1" height="203.4668" id="Person" rx="7.8125" ry="7.8125" style="stroke:#181818;stroke-width:1.5625;" width="246.875" x="4676.5625" y="1937.3437"/><ellipse cx="4723.4375" cy="2000.8142" fill="#ADD1B2" rx="34.375" ry="34.375" style="stroke:#181818;stroke-width:3.125;"/><path d="M4731.1661,2020.0113 Q4729.3503,2020.9451 4727.3529,2021.412 Q4725.3555,2021.879 4723.1506,2021.879 Q4715.3168,2021.879 4711.1923,2016.7169 Q4707.0679,2011.5549 4707.0679,2001.8015 Q4707.0679,1992.0221 4711.1923,1986.86 Q4715.3168,1981.698 4723.1506,1981.698 Q4725.3555,1981.698 4727.3788,1982.1649 Q4729.4022,1982.6318 4731.1661,1983.5657 L4731.1661,1992.074 Q4729.1946,1990.2582 4727.3399,1989.4151 Q4725.4852,1988.5721 4723.5138,1988.5721 Q4719.3115,1988.5721 4717.1715,1991.9054 Q4715.0314,1995.2386 4715.0314,2001.8015 Q4715.0314,2008.3383 4717.1715,2011.6716 Q4719.3115,2015.0049 4723.5138,2015.0049 Q4725.4852,2015.0049 4727.3399,2014.1618 Q4729.1946,2013.3188 4731.1661,2011.503 Z " fill="#000000"/><text fill="#000000" font-family="sans-serif" font-size="37.5" font-style="italic" lengthAdjust="spacing" textLength="150" x="4765.625" y="1989.2236">&#171;model&#187;</text><text fill="#000000" font-family="sans-serif" font-size="43.75" lengthAdjust="spacing" textLength="146.875" x="4767.1875" y="2039.4312">Person</text><line style="stroke:#181818;stroke-width:1.5625;" x1="4679.6875" x2="4920.3125" y1="2064.2847" y2="2064.2847"/><text fill="#000000" font-family="sans-serif" font-size="43.75" lengthAdjust="spacing" textLength="96.875" x="4695.3125" y="2119.082">logo</text></g><g id="elem_N1"><path d="M4101.5625,1975.5937 L4101.5625,2102.5347 L4567.1875,2102.5347 L4567.1875,2006.8437 L4535.9375,1975.5937 L4101.5625,1975.5937 " fill="#FEFFDD" style="stroke:#181818;stroke-width:1.5625;"/><path d="M4535.9375,1975.5937 L4535.9375,2006.8437 L4567.1875,2006.8437 L4535.9375,1975.5937 " fill="#FEFFDD" style="stroke:#181818;stroke-width:3.125;"/><text fill="#000000" font-family="sans-serif" font-size="40.625" lengthAdjust="spacing" textLength="400" x="4120.3125" y="2030.4949">several other similar</text><text fill="#000000" font-family="sans-serif" font-size="40.625" lengthAdjust="spacing" textLength="362.5" x="4120.3125" y="2078.3403">models not shown</text></g><!--class Asset--><g id="elem_Asset"><rect codeLine="66" fill="#F1F1F1" height="279.5776" id="Asset" rx="7.8125" ry="7.8125" style="stroke:#181818;stroke-width:1.5625;" width="371.875" x="2898.4375" y="2486.5313"/><ellipse cx="3015.625" cy="2536.5313" fill="#ADD1B2" rx="34.375" ry="34.375" style="stroke:#181818;stroke-width:3.125;"/><path d="M3023.3536,2555.7283 Q3021.5378,2556.6622 3019.5404,2557.1291 Q3017.543,2557.596 3015.3381,2557.596 Q3007.5043,2557.596 3003.3798,2552.434 Q2999.2554,2547.2719 2999.2554,2537.5185 Q2999.2554,2527.7391 3003.3798,2522.5771 Q3007.5043,2517.415 3015.3381,2517.415 Q3017.543,2517.415 3019.5663,2517.882 Q3021.5897,2518.3489 3023.3536,2519.2827 L3023.3536,2527.791 Q3021.3821,2525.9752 3019.5274,2525.1322 Q3017.6727,2524.2891 3015.7013,2524.2891 Q3011.499,2524.2891 3009.359,2527.6224 Q3007.2189,2530.9557 3007.2189,2537.5185 Q3007.2189,2544.0554 3009.359,2547.3886 Q3011.499,2550.7219 3015.7013,2550.7219 Q3017.6727,2550.7219 3019.5274,2549.8789 Q3021.3821,2549.0358 3023.3536,2547.22 Z " fill="#000000"/><text fill="#000000" font-family="sans-serif" font-size="43.75" lengthAdjust="spacing" textLength="115.625" x="3075" y="2553.0657">Asset</text><line style="stroke:#181818;stroke-width:1.5625;" x1="2901.5625" x2="3267.1875" y1="2586.5313" y2="2586.5313"/><text fill="#000000" font-family="sans-serif" font-size="43.75" lengthAdjust="spacing" textLength="184.375" x="2917.1875" y="2641.3286">filename</text><text fill="#000000" font-family="sans-serif" font-size="43.75" lengthAdjust="spacing" textLength="334.375" x="2917.1875" y="2692.8545">legacy_url_path</text><text fill="#000000" font-family="sans-serif" font-size="43.75" lengthAdjust="spacing" textLength="103.125" x="2917.1875" y="2744.3804">state</text></g><!--class Document--><g id="elem_Document"><rect codeLine="60" fill="#F1F1F1" height="254.9927" id="Document" rx="7.8125" ry="7.8125" style="stroke:#181818;stroke-width:1.5625;" width="325" x="2087.5" y="21.875"/><ellipse cx="2137.1875" cy="85.3455" fill="#ADD1B2" rx="34.375" ry="34.375" style="stroke:#181818;stroke-width:3.125;"/><path d="M2144.9161,104.5425 Q2143.1003,105.4764 2141.1029,105.9433 Q2139.1055,106.4102 2136.9006,106.4102 Q2129.0668,106.4102 2124.9423,101.2482 Q2120.8179,96.0861 2120.8179,86.3327 Q2120.8179,76.5533 2124.9423,71.3913 Q2129.0668,66.2292 2136.9006,66.2292 Q2139.1055,66.2292 2141.1288,66.6962 Q2143.1522,67.1631 2144.9161,68.0969 L2144.9161,76.6052 Q2142.9446,74.7894 2141.0899,73.9464 Q2139.2352,73.1033 2137.2638,73.1033 Q2133.0615,73.1033 2130.9215,76.4366 Q2128.7814,79.7699 2128.7814,86.3327 Q2128.7814,92.8696 2130.9215,96.2029 Q2133.0615,99.5361 2137.2638,99.5361 Q2139.2352,99.5361 2141.0899,98.6931 Q2142.9446,97.85 2144.9161,96.0342 Z " fill="#000000"/><text fill="#000000" font-family="sans-serif" font-size="37.5" font-style="italic" lengthAdjust="spacing" textLength="150" x="2215.9375" y="73.7549">&#171;model&#187;</text><text fill="#000000" font-family="sans-serif" font-size="43.75" lengthAdjust="spacing" textLength="218.75" x="2181.5625" y="123.9624">Document</text><line style="stroke:#181818;stroke-width:1.5625;" x1="2090.625" x2="2409.375" y1="148.8159" y2="148.8159"/><text fill="#000000" font-family="sans-serif" font-size="43.75" lengthAdjust="spacing" textLength="287.5" x="2106.25" y="203.6133">latest_edition</text><text fill="#000000" font-family="sans-serif" font-size="43.75" lengthAdjust="spacing" textLength="243.75" x="2106.25" y="255.1392">live_edition</text></g><!--reverse link Edition to othereds--><g id="link_Edition_othereds"><path codeLine="14" d="M2349.0313,796.4063 C2366.3438,842.7812 2373.9063,893.4375 2356.25,939.7187 C2339.125,984.5937 2302.25,1024.7188 2271,1052.75 " fill="none" id="Edition-backto-othereds" style="stroke:#0000FF;stroke-width:6.25;"/><polygon fill="none" points="2328.1875,806.625,2321.3438,740.7812,2367.7813,788,2328.1875,806.625" style="stroke:#0000FF;stroke-width:6.25;"/></g><!--reverse link Edition to Attachable--><g id="link_Edition_Attachable"><path codeLine="15" d="M2060.0625,674.4375 C1814.2813,722.5 1414.75,804.0625 1393.75,830.3437 C1347.6875,887.9063 1378.7188,974.7812 1409.2188,1032.8438 " fill="none" id="Edition-backto-Attachable" style="stroke:#0000FF;stroke-width:6.25;"/><polygon fill="none" points="2055.4688,652.4375,2121,661.9687,2063.8125,695.375,2055.4688,652.4375" style="stroke:#0000FF;stroke-width:6.25;"/><path d="M1409.375,845.9687 L1409.375,924.0937 L2315.625,924.0937 L2315.625,877.2187 L2284.375,845.9687 L1409.375,845.9687 " fill="#FEFFDD" style="stroke:#181818;stroke-width:1.5625;"/><path d="M2284.375,845.9687 L2284.375,877.2187 L2315.625,877.2187 L2284.375,845.9687 " fill="#FEFFDD" style="stroke:#181818;stroke-width:1.5625;"/><text fill="#000000" font-family="sans-serif" font-size="40.625" lengthAdjust="spacing" textLength="840.625" x="1428.125" y="900.8699">several Edition descendants are Attachable</text></g><!--reverse link PolicyGroup to Attachable--><g id="link_PolicyGroup_Attachable"><path codeLine="17" d="M1350.3125,747.6563 C1331,772.8437 1313.7188,800.9375 1303.125,830.3437 C1286.6563,876.0625 1285.3125,894.5 1303.125,939.7187 C1317.0625,975.125 1343.4063,1007.1875 1369.7813,1032.7813 " fill="none" id="PolicyGroup-backto-Attachable" style="stroke:#0000FF;stroke-width:6.25;"/><polygon fill="none" points="1335.1563,734.875,1392.7813,702.2813,1368.0625,763.7188,1335.1563,734.875" style="stroke:#0000FF;stroke-width:6.25;"/></g><!--reverse link Attachment to otheratts--><g id="link_Attachment_otheratts"><path codeLine="26" d="M1122.5938,1633.625 C1117.5625,1645.2187 1113.0313,1657 1109.375,1668.5937 C1080.7188,1759.3125 1069.5313,1867.9375 1065.1875,1943.4063 " fill="none" id="Attachment-backto-otheratts" style="stroke:#0000FF;stroke-width:6.25;"/><polygon fill="none" points="1104.375,1624.2813,1152.125,1578.375,1143.4063,1644.0313,1104.375,1624.2813" style="stroke:#0000FF;stroke-width:6.25;"/></g><!--reverse link Attachment to FileAttachment--><g id="link_Attachment_FileAttachment"><path codeLine="27" d="M967.0313,1601.1875 C846.5313,1652.3125 697.8125,1722.6563 575,1802.9687 C498.5,1853 421.0625,1923.7188 369.7188,1974.0937 " fill="none" id="Attachment-backto-FileAttachment" style="stroke:#0000FF;stroke-width:6.25;"/><polygon fill="none" points="957.9688,1580,1024.0625,1576.2813,974.7188,1620.4063,957.9688,1580" style="stroke:#0000FF;stroke-width:6.25;"/></g><!--link Attachment to AttachmentData--><g id="link_Attachment_AttachmentData"><path codeLine="33" d="M1267.2813,1576.1563 C1339.5625,1634.4063 1450.8125,1724.3125 1546.875,1802.9687 C1588.6875,1837.2188 1633.8125,1874.4688 1675.4375,1908.9375 " fill="none" id="Attachment-to-AttachmentData" style="stroke:#181818;stroke-width:3.125;"/><polygon fill="#181818" points="1704.8125,1935.875,1698.3347,1914.2914,1675.9199,1911.9696,1682.3977,1933.5532,1704.8125,1935.875" style="stroke:#181818;stroke-width:3.125;"/><path d="M1521.875,1684.2187 L1521.875,1762.3437 L2515.625,1762.3437 L2515.625,1715.4687 L2484.375,1684.2187 L1521.875,1684.2187 " fill="#FEFFDD" style="stroke:#181818;stroke-width:1.5625;"/><path d="M2484.375,1684.2187 L2484.375,1715.4687 L2515.625,1715.4687 L2484.375,1684.2187 " fill="#FEFFDD" style="stroke:#181818;stroke-width:1.5625;"/><text fill="#000000" font-family="sans-serif" font-size="40.625" lengthAdjust="spacing" textLength="928.125" x="1540.625" y="1739.1199">links to attachments from past editions as well</text></g><!--link Image to ImageData--><g id="link_Image_ImageData"><path codeLine="42" d="M3023.7813,1576.375 C3034.0313,1654.0313 3051.9063,1789.6562 3065.5938,1893.5 " fill="none" id="Image-to-ImageData" style="stroke:#181818;stroke-width:3.125;"/><polygon fill="#181818" points="3071.1563,1932.6875,3081.0994,1912.4651,3066.2568,1895.5089,3056.3136,1915.7314,3071.1563,1932.6875" style="stroke:#181818;stroke-width:3.125;"/><path d="M3065.625,1684.2187 L3065.625,1762.3437 L3956.25,1762.3437 L3956.25,1715.4687 L3925,1684.2187 L3065.625,1684.2187 " fill="#FEFFDD" style="stroke:#181818;stroke-width:1.5625;"/><path d="M3925,1684.2187 L3925,1715.4687 L3956.25,1715.4687 L3925,1684.2187 " fill="#FEFFDD" style="stroke:#181818;stroke-width:1.5625;"/><text fill="#000000" font-family="sans-serif" font-size="40.625" lengthAdjust="spacing" textLength="825" x="3084.375" y="1739.1199">links to images from past editions as well</text></g><!--reverse link Edition to Image--><g id="link_Edition_Image"><path codeLine="54" d="M2366.5938,770.5 C2534.875,961.7813 2839.0625,1307.5625 2961.9688,1447.25 " fill="none" id="Edition-backto-Image" style="stroke:#181818;stroke-width:3.125;"/><polygon fill="#181818" points="2337.8125,740.9375,2340.8146,763.2713,2362.5851,769.0901,2359.583,746.7562,2337.8125,740.9375" style="stroke:#181818;stroke-width:3.125;"/></g><!--reverse link Document to Edition--><g id="link_Document_Edition"><path codeLine="56" d="M2250,321.9687 C2250,392.375 2250,471.625 2250,532.3438 " fill="none" id="Document-backto-Edition" style="stroke:#181818;stroke-width:3.125;"/><polygon fill="#181818" points="2250,281.5313,2237.5,300.2813,2250,319.0313,2262.5,300.2813,2250,281.5313" style="stroke:#181818;stroke-width:3.125;"/></g><!--reverse link Attachable to Attachment--><g id="link_Attachable_Attachment"><path codeLine="58" d="M1385.625,1197.625 C1337.0625,1274.9687 1270.6875,1380.7188 1229.25,1446.7188 " fill="none" id="Attachable-backto-Attachment" style="stroke:#181818;stroke-width:3.125;"/><polygon fill="#181818" points="1408.5,1164.2812,1387.9442,1173.5156,1388.5621,1196.0418,1409.1179,1186.8075,1408.5,1164.2812" style="stroke:#181818;stroke-width:3.125;"/></g><!--link AttachmentData to Asset--><g id="link_AttachmentData_Asset"><path codeLine="73" d="M1960.125,2141.8438 C2005.125,2173.375 2056.625,2206.875 2106.25,2233.4063 C2353.25,2365.375 2654.9063,2478.9688 2857.3438,2548.9375 " fill="none" id="AttachmentData-to-Asset" style="stroke:#181818;stroke-width:3.125;stroke-dasharray:7.0,7.0;"/><polygon fill="#181818" points="2894.5938,2562.7813,2880.9076,2544.8787,2859.1182,2550.6265,2872.8044,2568.529,2894.5938,2562.7813" style="stroke:#181818;stroke-width:3.125;"/><text fill="#000000" font-family="sans-serif" font-size="40.625" lengthAdjust="spacing" textLength="600" x="2262.5" y="2300.8074">1:many e.g. asset + thumbnail</text></g><!--link ImageData to Asset--><g id="link_ImageData_Asset"><path codeLine="74" d="M3084.375,2142.0625 C3084.375,2224.5938 3084.375,2343.875 3084.375,2443 " fill="none" id="ImageData-to-Asset" style="stroke:#181818;stroke-width:3.125;stroke-dasharray:7.0,7.0;"/><polygon fill="#181818" points="3084.375,2482.375,3096.875,2463.625,3084.375,2444.875,3071.875,2463.625,3084.375,2482.375" style="stroke:#181818;stroke-width:3.125;"/><text fill="#000000" font-family="sans-serif" font-size="40.625" lengthAdjust="spacing" textLength="671.875" x="3087.5" y="2300.8074">1:many - multiple scaled versions</text></g><!--link Person to Asset--><g id="link_Person_Asset"><path codeLine="75" d="M4726.5313,2141.9375 C4697.3438,2175.375 4661.3125,2210.0625 4621.875,2233.4063 C4202.625,2481.5938 3628.5,2572.9063 3313.8125,2605.625 " fill="none" id="Person-to-Asset" style="stroke:#181818;stroke-width:3.125;stroke-dasharray:7.0,7.0;"/><polygon fill="#181818" points="3274.3125,2609.875,3294.2063,2620.4603,3311.6288,2606.1681,3291.735,2595.5828,3274.3125,2609.875" style="stroke:#181818;stroke-width:3.125;"/><text fill="#000000" font-family="sans-serif" font-size="40.625" lengthAdjust="spacing" textLength="240.625" x="4550" y="2300.8074">1:1 typically</text></g><!--SRC=[bLJBRjim4BppAxRkfNLh8q5lZX4WGDgYXxRvW0B6IbfBH9QaGD9nXDJ_NfAo7fPZ8DL1aBYlsPbT8hFPA_aiTIagMH2Ggdq31RdSojfBeyV7YbH6rWdtA7MD5XKKjOGlLrT2v8pEmRt9TugqX_LQcOBuzbO8Ixb7NJB1xCvxp2lCcDmCNWI41pFdBUOUlXOobXiYZmxnSHuzfRz3UhV57WpBlFbkpQuUrOlsKSaFnbS1yiSPe8FqJOLBJdt1luj5Ru7tB3MjCjxHJVnQPeQBS_UXaSi1sdY2411E7rVWw8aiSfycCaowGEqTeALHnXHyqjjRA_PS3ixhTMvqJbO7PWwlQ175EchXJKcHXQamW-E4vLQ5RvBfeikP4813MLX0vHL_1dhs0I7oIAJWrgeqJjqB5QsNQPY6J11UY8kJrNOq-DwZnxE1pD5QINQFJxJPogHNZ4roMrbMVXLKvmQsnaAqZrj-9qxWBHRpIJKndPluTa6R4-AsrYYeqNcWTfnS96vFp1EHVoWikrrhcqid9ogDpl-dtpPHxA0FlGnU9Xnln_qxpKh24UpILy7FaJ_fv26izIlt1PlI98WTcbctUkq0Egaae_sZZzc33xZAx7KQlb_N4KctfFCmFQax8VgRBPvrTY56QpdljpJwdTs8BReN5NRC50VWSACvlpdoCB79G7Ld2N1qG0ftaO2Vg0EQkAB7KOs7ANLKHgEAwZ2Lc3URdULDZRuItVrvYBacmxrSpjiaAxXUATGDqB9Sjcp39_3LJcKQ9OjXFiv35g1sx6KTI70vCXKG27THNd4KwIJc6dnJo-38pJy0]--></g></svg>