<?xml version="1.0" encoding="us-ascii" standalone="no"?><svg xmlns="http://www.w3.org/2000/svg" xmlns:xlink="http://www.w3.org/1999/xlink" contentStyleType="text/css" height="792px" preserveAspectRatio="none" style="width:2447px;height:792px;background:#FFFFFF;" version="1.1" viewBox="0 0 2447 792" width="2447px" zoomAndPan="magnify"><defs/><g><!--cluster Whitehall--><g id="cluster_Whitehall"><polygon fill="none" points="831,16,841,6,1496,6,1496,549.59,1486,559.59,831,559.59,831,16" style="stroke:#181818;stroke-width:1.0;"/><line style="stroke:#181818;stroke-width:1.0;" x1="1486" x2="1496" y1="16" y2="6"/><line style="stroke:#181818;stroke-width:1.0;" x1="831" x2="1486" y1="16" y2="16"/><line style="stroke:#181818;stroke-width:1.0;" x1="1486" x2="1486" y1="16" y2="559.59"/><text fill="#000000" font-family="sans-serif" font-size="14" font-weight="bold" lengthAdjust="spacing" textLength="68" x="1125.5" y="32.5352">Whitehall</text></g><!--cluster PublishingApi--><g id="cluster_PublishingApi"><polygon fill="none" points="1520,197.44,1530,187.44,1764,187.44,1764,409.12,1754,419.12,1520,419.12,1520,197.44" style="stroke:#181818;stroke-width:1.0;"/><line style="stroke:#181818;stroke-width:1.0;" x1="1754" x2="1764" y1="197.44" y2="187.44"/><line style="stroke:#181818;stroke-width:1.0;" x1="1520" x2="1754" y1="197.44" y2="197.44"/><line style="stroke:#181818;stroke-width:1.0;" x1="1754" x2="1754" y1="197.44" y2="419.12"/><text fill="#000000" font-family="sans-serif" font-size="14" font-weight="bold" lengthAdjust="spacing" textLength="101" x="1587.5" y="213.9752">PublishingApi</text></g><!--cluster AssetManager--><g id="cluster_AssetManager"><polygon fill="none" points="16,618.59,26,608.59,2430,608.59,2430,765.03,2420,775.03,16,775.03,16,618.59" style="stroke:#181818;stroke-width:1.0;"/><line style="stroke:#181818;stroke-width:1.0;" x1="2420" x2="2430" y1="618.59" y2="608.59"/><line style="stroke:#181818;stroke-width:1.0;" x1="16" x2="2420" y1="618.59" y2="618.59"/><line style="stroke:#181818;stroke-width:1.0;" x1="2420" x2="2420" y1="618.59" y2="775.03"/><text fill="#000000" font-family="sans-serif" font-size="14" font-weight="bold" lengthAdjust="spacing" textLength="101" x="1168.5" y="635.1252">AssetManager</text></g><g id="elem_Document_1"><rect fill="#F1F1F1" height="94.4414" style="stroke:#181818;stroke-width:0.5;" width="212" x="1231" y="46"/><text fill="#000000" font-family="sans-serif" font-size="14" lengthAdjust="spacing" textLength="83" x="1295.5" y="61.5352">Document:1</text><line style="stroke:#181818;stroke-width:0.5;" x1="1232" x2="1442" y1="66.4883" y2="66.4883"/><text fill="#000000" font-family="sans-serif" font-size="14" lengthAdjust="spacing" textLength="107" x="1237" y="84.0234">slug: new_news</text><text fill="#000000" font-family="sans-serif" font-size="14" lengthAdjust="spacing" textLength="200" x="1237" y="100.5117">content_id: ...38699bd72b83</text><text fill="#000000" font-family="sans-serif" font-size="14" lengthAdjust="spacing" textLength="129" x="1237" y="117">latest_edition_id: 1</text><text fill="#000000" font-family="sans-serif" font-size="14" lengthAdjust="spacing" textLength="102" x="1237" y="133.4883">live_edition_id:</text></g><g id="elem_NewsArticle_1"><rect fill="#F1F1F1" height="61.4648" style="stroke:#181818;stroke-width:0.5;" width="119" x="1240.5" y="219.19"/><text fill="#000000" font-family="sans-serif" font-size="14" lengthAdjust="spacing" textLength="93" x="1253.5" y="234.7252">NewsArticle:1</text><line style="stroke:#181818;stroke-width:0.5;" x1="1241.5" x2="1358.5" y1="239.6783" y2="239.6783"/><text fill="#000000" font-family="sans-serif" font-size="14" lengthAdjust="spacing" textLength="107" x="1246.5" y="257.2134">title: New News!</text><text fill="#000000" font-family="sans-serif" font-size="14" lengthAdjust="spacing" textLength="74" x="1246.5" y="273.7017">state: draft</text></g><g id="elem_FileAttachment_1"><rect fill="#F1F1F1" height="44.9766" style="stroke:#181818;stroke-width:0.5;" width="188" x="961" y="349.9"/><text fill="#000000" font-family="sans-serif" font-size="14" lengthAdjust="spacing" textLength="116" x="997" y="365.4352">FileAttachment:1</text><line style="stroke:#181818;stroke-width:0.5;" x1="962" x2="1148" y1="370.3883" y2="370.3883"/><text fill="#000000" font-family="sans-serif" font-size="14" lengthAdjust="spacing" textLength="176" x="967" y="387.9234">title: Important Document</text></g><g id="elem_Image_2"><rect fill="#F1F1F1" height="44.9766" style="stroke:#181818;stroke-width:0.5;" width="192" x="1204" y="349.9"/><text fill="#000000" font-family="sans-serif" font-size="14" lengthAdjust="spacing" textLength="55" x="1272.5" y="365.4352">Image:2</text><line style="stroke:#181818;stroke-width:0.5;" x1="1205" x2="1395" y1="370.3883" y2="370.3883"/><text fill="#000000" font-family="sans-serif" font-size="14" lengthAdjust="spacing" textLength="180" x="1210" y="387.9234">caption: Dramatic Footage</text></g><g id="elem_AttachmentData_1"><rect fill="#F1F1F1" height="61.4648" style="stroke:#181818;stroke-width:0.5;" width="298" x="847" y="482.12"/><text fill="#000000" font-family="sans-serif" font-size="14" lengthAdjust="spacing" textLength="123" x="934.5" y="497.6552">AttachmentData:1</text><line style="stroke:#181818;stroke-width:0.5;" x1="848" x2="1144" y1="502.6083" y2="502.6083"/><text fill="#000000" font-family="sans-serif" font-size="14" lengthAdjust="spacing" textLength="286" x="853" y="520.1434">carrierwave_file: important_document.pdf</text><text fill="#000000" font-family="sans-serif" font-size="14" lengthAdjust="spacing" textLength="202" x="853" y="536.6317">content_type: application/pdf</text></g><g id="elem_ImageData_2"><rect fill="#F1F1F1" height="44.9766" style="stroke:#181818;stroke-width:0.5;" width="299" x="1180.5" y="490.37"/><text fill="#000000" font-family="sans-serif" font-size="14" lengthAdjust="spacing" textLength="86" x="1287" y="505.9052">ImageData:2</text><line style="stroke:#181818;stroke-width:0.5;" x1="1181.5" x2="1478.5" y1="510.8583" y2="510.8583"/><text fill="#000000" font-family="sans-serif" font-size="14" lengthAdjust="spacing" textLength="287" x="1186.5" y="528.3934">carrierwave_image: dramatic_footage.png</text></g><g id="elem_pubapi_Document_4"><rect fill="#F1F1F1" height="44.9766" style="stroke:#181818;stroke-width:0.5;" width="212" x="1536" y="227.44"/><text fill="#000000" font-family="sans-serif" font-size="14" lengthAdjust="spacing" textLength="83" x="1600.5" y="242.9752">Document:4</text><line style="stroke:#181818;stroke-width:0.5;" x1="1537" x2="1747" y1="247.9283" y2="247.9283"/><text fill="#000000" font-family="sans-serif" font-size="14" lengthAdjust="spacing" textLength="200" x="1542" y="265.4634">content_id: ...38699bd72b83</text></g><g id="elem_pubapi_Edition_4"><rect fill="#F1F1F1" height="61.4648" style="stroke:#181818;stroke-width:0.5;" width="119" x="1582.5" y="341.66"/><text fill="#000000" font-family="sans-serif" font-size="14" lengthAdjust="spacing" textLength="61" x="1611.5" y="357.1952">Edition:4</text><line style="stroke:#181818;stroke-width:0.5;" x1="1583.5" x2="1700.5" y1="362.1483" y2="362.1483"/><text fill="#000000" font-family="sans-serif" font-size="14" lengthAdjust="spacing" textLength="107" x="1588.5" y="379.6834">title: New News!</text><text fill="#000000" font-family="sans-serif" font-size="14" lengthAdjust="spacing" textLength="74" x="1588.5" y="396.1717">state: draft</text></g><g id="elem_am_WhitehallAsset_X164e681f"><rect fill="#F1F1F1" height="94.4414" style="stroke:#181818;stroke-width:0.5;" width="482" x="40" y="656.59"/><text fill="#000000" font-family="sans-serif" font-size="14" lengthAdjust="spacing" textLength="180" x="191" y="672.1252">WhitehallAsset:X164e681f</text><line style="stroke:#181818;stroke-width:0.5;" x1="41" x2="521" y1="677.0783" y2="677.0783"/><text fill="#000000" font-family="sans-serif" font-size="14" lengthAdjust="spacing" textLength="200" x="46" y="694.6134">file: important_document.pdf</text><text fill="#000000" font-family="sans-serif" font-size="14" lengthAdjust="spacing" textLength="470" x="46" y="711.1017">legacy_url_path: .../attachment_data/file/1/important_document.pdf</text><text fill="#000000" font-family="sans-serif" font-size="14" lengthAdjust="spacing" textLength="106" x="46" y="727.59">state: uploaded</text><text fill="#000000" font-family="sans-serif" font-size="14" lengthAdjust="spacing" textLength="69" x="46" y="744.0783">draft: true</text></g><g id="elem_am_WhitehallAsset_X174e681f"><rect fill="#F1F1F1" height="94.4414" style="stroke:#181818;stroke-width:0.5;" width="590" x="557" y="656.59"/><text fill="#000000" font-family="sans-serif" font-size="14" lengthAdjust="spacing" textLength="180" x="762" y="672.1252">WhitehallAsset:X174e681f</text><line style="stroke:#181818;stroke-width:0.5;" x1="558" x2="1146" y1="677.0783" y2="677.0783"/><text fill="#000000" font-family="sans-serif" font-size="14" lengthAdjust="spacing" textLength="308" x="563" y="694.6134">file: thumbnail_important_document.pdf.png</text><text fill="#000000" font-family="sans-serif" font-size="14" lengthAdjust="spacing" textLength="578" x="563" y="711.1017">legacy_url_path: .../attachment_data/file/1/thumbnail_important_document.pdf.png</text><text fill="#000000" font-family="sans-serif" font-size="14" lengthAdjust="spacing" textLength="106" x="563" y="727.59">state: uploaded</text><text fill="#000000" font-family="sans-serif" font-size="14" lengthAdjust="spacing" textLength="69" x="563" y="744.0783">draft: true</text></g><g id="elem_am_WhitehallAsset_X174e6824"><rect fill="#F1F1F1" height="94.4414" style="stroke:#181818;stroke-width:0.5;" width="427" x="1978.5" y="656.59"/><text fill="#000000" font-family="sans-serif" font-size="14" lengthAdjust="spacing" textLength="184" x="2100" y="672.1252">WhitehallAsset:X174e6824</text><line style="stroke:#181818;stroke-width:0.5;" x1="1979.5" x2="2404.5" y1="677.0783" y2="677.0783"/><text fill="#000000" font-family="sans-serif" font-size="14" lengthAdjust="spacing" textLength="180" x="1984.5" y="694.6134">file: dramatic_footage.png</text><text fill="#000000" font-family="sans-serif" font-size="14" lengthAdjust="spacing" textLength="415" x="1984.5" y="711.1017">legacy_url_path: .../image_data/file/2/dramatic_footage.png</text><text fill="#000000" font-family="sans-serif" font-size="14" lengthAdjust="spacing" textLength="106" x="1984.5" y="727.59">state: uploaded</text><text fill="#000000" font-family="sans-serif" font-size="14" lengthAdjust="spacing" textLength="73" x="1984.5" y="744.0783">draft: false</text></g><g id="elem_am_WhitehallAsset_X174e6825"><rect fill="#F1F1F1" height="94.4414" style="stroke:#181818;stroke-width:0.5;" width="468" x="1182" y="656.59"/><text fill="#000000" font-family="sans-serif" font-size="14" lengthAdjust="spacing" textLength="184" x="1324" y="672.1252">WhitehallAsset:X174e6825</text><line style="stroke:#181818;stroke-width:0.5;" x1="1183" x2="1649" y1="677.0783" y2="677.0783"/><text fill="#000000" font-family="sans-serif" font-size="14" lengthAdjust="spacing" textLength="221" x="1188" y="694.6134">file: s216_dramatic_footage.png</text><text fill="#000000" font-family="sans-serif" font-size="14" lengthAdjust="spacing" textLength="456" x="1188" y="711.1017">legacy_url_path: .../image_data/file/2/s216_dramatic_footage.png</text><text fill="#000000" font-family="sans-serif" font-size="14" lengthAdjust="spacing" textLength="106" x="1188" y="727.59">state: uploaded</text><text fill="#000000" font-family="sans-serif" font-size="14" lengthAdjust="spacing" textLength="73" x="1188" y="744.0783">draft: false</text></g><g id="elem_GMN25"><path d="M1684.5,691.15 L1684.5,699.81 L1650.37,703.81 L1684.5,707.81 L1684.5,716.4605 A0,0 0 0 0 1684.5,716.4605 L1943.5,716.4605 A0,0 0 0 0 1943.5,716.4605 L1943.5,701.15 L1933.5,691.15 L1684.5,691.15 A0,0 0 0 0 1684.5,691.15 " fill="#FEFFDD" style="stroke:#181818;stroke-width:0.5;"/><path d="M1933.5,691.15 L1933.5,701.15 L1943.5,701.15 L1933.5,691.15 " fill="#FEFFDD" style="stroke:#181818;stroke-width:0.5;"/><text fill="#000000" font-family="sans-serif" font-size="13" lengthAdjust="spacing" textLength="238" x="1690.5" y="708.7184">also 5 other scaled images not shown</text></g><!--reverse link Document_1 to NewsArticle_1--><g id="link_Document_1_NewsArticle_1"><path codeLine="13" d="M1322.66,154.16 C1317.34,176.43 1311.53,200.72 1307.13,219.13 " fill="none" id="Document_1-backto-NewsArticle_1" style="stroke:#181818;stroke-width:1.0;"/><polygon fill="#181818" points="1325.9,141.64,1320.6123,146.5431,1323.1045,153.3098,1328.3922,148.4068,1325.9,141.64" style="stroke:#181818;stroke-width:1.0;"/></g><!--reverse link NewsArticle_1 to FileAttachment_1--><g id="link_NewsArticle_1_FileAttachment_1"><path codeLine="17" d="M1227.52,286.56 C1186.07,306.94 1135.39,331.86 1099.72,349.4 " fill="none" id="NewsArticle_1-backto-FileAttachment_1" style="stroke:#181818;stroke-width:1.0;"/><polygon fill="#181818" points="1239.07,280.4,1231.92,279.4634,1228.3054,285.7031,1235.4554,286.6398,1239.07,280.4" style="stroke:#181818;stroke-width:1.0;"/></g><!--reverse link NewsArticle_1 to Image_2--><g id="link_NewsArticle_1_Image_2"><path codeLine="21" d="M1300,294.99 C1300,313.6 1300,334.43 1300,349.63 " fill="none" id="NewsArticle_1-backto-Image_2" style="stroke:#181818;stroke-width:1.0;"/><polygon fill="#181818" points="1300,282.01,1296,288.01,1300,294.01,1304,288.01,1300,282.01" style="stroke:#181818;stroke-width:1.0;"/></g><!--link FileAttachment_1 to AttachmentData_1--><g id="link_FileAttachment_1_AttachmentData_1"><path codeLine="27" d="M1045.65,395.33 C1037.22,415.11 1024.59,444.76 1014.18,469.19 " fill="none" id="FileAttachment_1-to-AttachmentData_1" style="stroke:#181818;stroke-width:1.0;"/><polygon fill="#181818" points="1008.82,480.78,1014.8533,476.8304,1013.5279,469.7421,1007.4947,473.6917,1008.82,480.78" style="stroke:#181818;stroke-width:1.0;"/><text fill="#000000" font-family="sans-serif" font-size="13" lengthAdjust="spacing" textLength="178" x="1028" y="448.6884">also linked to other editions</text></g><!--link Image_2 to ImageData_2--><g id="link_Image_2_ImageData_2"><path codeLine="31" d="M1304.75,395.33 C1309.47,417.11 1316.78,450.84 1322.32,476.41 " fill="none" id="Image_2-to-ImageData_2" style="stroke:#181818;stroke-width:1.0;"/><polygon fill="#181818" points="1325.27,489.02,1327.906,482.308,1322.7241,477.2932,1320.0881,484.0052,1325.27,489.02" style="stroke:#181818;stroke-width:1.0;"/><text fill="#000000" font-family="sans-serif" font-size="13" lengthAdjust="spacing" textLength="178" x="1317" y="448.6884">also linked to other editions</text></g><!--reverse link pubapi_Document_4 to pubapi_Edition_4--><g id="link_pubapi_Document_4_pubapi_Edition_4"><path codeLine="41" d="M1642,286.5 C1642,304.02 1642,324.91 1642,341.58 " fill="none" id="pubapi_Document_4-backto-pubapi_Edition_4" style="stroke:#181818;stroke-width:1.0;"/><polygon fill="#181818" points="1642,273.74,1638,279.74,1642,285.74,1646,279.74,1642,273.74" style="stroke:#181818;stroke-width:1.0;"/></g><!--link Document_1 to pubapi_Document_4--><g id="link_Document_1_pubapi_Document_4"><path codeLine="76" d="M1428.92,140.85 C1485.23,169.4 1554.69,204.64 1598.67,226.95 " fill="none" id="Document_1-pubapi_Document_4" style="stroke:#181818;stroke-width:1.0;stroke-dasharray:7.0,7.0;"/></g><!--link AttachmentData_1 to am_WhitehallAsset_X164e681f--><g id="link_AttachmentData_1_am_WhitehallAsset_X164e681f"><path codeLine="77" d="M846.73,534.98 C756.87,549.49 640.72,571.41 540,600.59 C488.23,615.58 432.42,636.91 385.92,656.2 " fill="none" id="AttachmentData_1-am_WhitehallAsset_X164e681f" style="stroke:#181818;stroke-width:1.0;stroke-dasharray:7.0,7.0;"/><text fill="#000000" font-family="sans-serif" font-size="13" lengthAdjust="spacing" textLength="186" x="626" y="589.1584">no link apart from legacy URL</text></g><!--link AttachmentData_1 to am_WhitehallAsset_X174e681f--><g id="link_AttachmentData_1_am_WhitehallAsset_X174e681f"><path codeLine="78" d="M973.18,543.8 C950.11,574.08 914.11,621.3 887.34,656.43 " fill="none" id="AttachmentData_1-am_WhitehallAsset_X174e681f" style="stroke:#181818;stroke-width:1.0;stroke-dasharray:7.0,7.0;"/></g><!--link ImageData_2 to am_WhitehallAsset_X174e6824--><g id="link_ImageData_2_am_WhitehallAsset_X174e6824"><path codeLine="79" d="M1479.99,522.62 C1609.39,532.97 1800.24,554.95 1961,600.59 C2009.31,614.3 2060.61,636.2 2102.57,656.21 " fill="none" id="ImageData_2-am_WhitehallAsset_X174e6824" style="stroke:#181818;stroke-width:1.0;stroke-dasharray:7.0,7.0;"/><text fill="#000000" font-family="sans-serif" font-size="13" lengthAdjust="spacing" textLength="186" x="1928" y="589.1584">no link apart from legacy URL</text></g><!--link ImageData_2 to am_WhitehallAsset_X174e6825--><g id="link_ImageData_2_am_WhitehallAsset_X174e6825"><path codeLine="80" d="M1339.87,535.53 C1353.19,564.81 1377.28,617.74 1394.81,656.25 " fill="none" id="ImageData_2-am_WhitehallAsset_X174e6825" style="stroke:#181818;stroke-width:1.0;stroke-dasharray:7.0,7.0;"/></g><!--SRC=[fLNVQzim47xtNw7riL07kqdQ-YtG5GhR68EnlGd5bcrjicIiyqeP-TztKfH4hfCuPG-1-ExytVVTBojTSFAZ5i1h9YNv6-drBvu3kNhKUTzm1LboHPWXkqUQO0mXHlPLHXH_eVWpQCYr0kiMHKRYEBwzNpuyh8kxT7r_Yrx9W1kWl10Wj791YJMBFpmqHfi8TCMXvbt0v0jcM7KWSiazcS3Y-O00z5g7Stwm506JPgJeM0a870YulhaPGknJFGd9Lm0ihmFfG-CmuNFJwWwOWds1CDMGdits5cAVyBbX5SzIbyVzfwc3prbhYvAHnuur3A78azQ0_gFm_atqxN0FoHuPC2zaQFH2SjPrWdSl35jH2gj9x3JHmckAsw8CUWolBOQnjfKYPvRcpFetqGZ_-gOVQyStfT7OU_MR5mGqqQxVVWpCi3IEVL0U1voEY0jNHjjhLonQReiLjwf2Nk6RZfAlrnIJJQJiTdpjrrAOMgXgrOfZ6p9t_Df-pLf1ztCsTopFRyQXOH-tIOTOtkYXfcTyJC5EnrkmdQwLCHm-CuMriEjsPFFsTy65PZ-JvPmlxvFISMGD7Vhftk_eJWoJv1NBNsdVITeog5rjPkmm9mNsQsOnPidi98ZNtxTIiu8NQ76bo0XqFG-gEn9oDo7aRYG4whvPAoOaFSx6pThxP5q8EILoSr7hdA9qVbvnEWyK7zsc4mhT0WRYqjc9jq-AAN4NfrkMBYO4B0819asMzFzKd8EObA8qSDA9gePeUsaM_iAOd4cyE2wT8HX6JArVLCHLOP-sJGq-M74ylYxZQujHPtOIlzRRKuU7ctL0oautlWha-xTF5yFvpHWSrNEXwNmgyyL8Yty0]--></g></svg>