<?xml version="1.0" encoding="us-ascii" standalone="no"?><svg xmlns="http://www.w3.org/2000/svg" xmlns:xlink="http://www.w3.org/1999/xlink" contentStyleType="text/css" height="931px" preserveAspectRatio="none" style="width:2447px;height:931px;background:#FFFFFF;" version="1.1" viewBox="0 0 2447 931" width="2447px" zoomAndPan="magnify"><defs/><g><!--cluster Whitehall--><g id="cluster_Whitehall"><polygon fill="none" points="623,16,633,6,1644,6,1644,705.03,1634,715.03,623,715.03,623,16" style="stroke:#181818;stroke-width:1.0;"/><line style="stroke:#181818;stroke-width:1.0;" x1="1634" x2="1644" y1="16" y2="6"/><line style="stroke:#181818;stroke-width:1.0;" x1="623" x2="1634" y1="16" y2="16"/><line style="stroke:#181818;stroke-width:1.0;" x1="1634" x2="1634" y1="16" y2="715.03"/><text fill="#000000" font-family="sans-serif" font-size="14" font-weight="bold" lengthAdjust="spacing" textLength="68" x="1095.5" y="32.5352">Whitehall</text></g><!--cluster PublishingApi--><g id="cluster_PublishingApi"><polygon fill="none" points="1668,197.44,1678,187.44,1912,187.44,1912,409.12,1902,419.12,1668,419.12,1668,197.44" style="stroke:#181818;stroke-width:1.0;"/><line style="stroke:#181818;stroke-width:1.0;" x1="1902" x2="1912" y1="197.44" y2="187.44"/><line style="stroke:#181818;stroke-width:1.0;" x1="1668" x2="1902" y1="197.44" y2="197.44"/><line style="stroke:#181818;stroke-width:1.0;" x1="1902" x2="1902" y1="197.44" y2="419.12"/><text fill="#000000" font-family="sans-serif" font-size="14" font-weight="bold" lengthAdjust="spacing" textLength="101" x="1735.5" y="213.9752">PublishingApi</text></g><!--cluster AssetManager--><g id="cluster_AssetManager"><polygon fill="none" points="16,758.03,26,748.03,2430,748.03,2430,904.47,2420,914.47,16,914.47,16,758.03" style="stroke:#181818;stroke-width:1.0;"/><line style="stroke:#181818;stroke-width:1.0;" x1="2420" x2="2430" y1="758.03" y2="748.03"/><line style="stroke:#181818;stroke-width:1.0;" x1="16" x2="2420" y1="758.03" y2="758.03"/><line style="stroke:#181818;stroke-width:1.0;" x1="2420" x2="2420" y1="758.03" y2="914.47"/><text fill="#000000" font-family="sans-serif" font-size="14" font-weight="bold" lengthAdjust="spacing" textLength="101" x="1168.5" y="774.5652">AssetManager</text></g><g id="elem_Document_1"><rect fill="#F1F1F1" height="94.4414" style="stroke:#181818;stroke-width:0.5;" width="212" x="1343" y="46"/><text fill="#000000" font-family="sans-serif" font-size="14" lengthAdjust="spacing" textLength="83" x="1407.5" y="61.5352">Document:1</text><line style="stroke:#181818;stroke-width:0.5;" x1="1344" x2="1554" y1="66.4883" y2="66.4883"/><text fill="#000000" font-family="sans-serif" font-size="14" lengthAdjust="spacing" textLength="107" x="1349" y="84.0234">slug: new_news</text><text fill="#000000" font-family="sans-serif" font-size="14" lengthAdjust="spacing" textLength="200" x="1349" y="100.5117">content_id: ...38699bd72b83</text><text fill="#000000" font-family="sans-serif" font-size="14" lengthAdjust="spacing" textLength="129" x="1349" y="117">latest_edition_id: 1</text><text fill="#000000" font-family="sans-serif" font-size="14" lengthAdjust="spacing" textLength="102" x="1349" y="133.4883">live_edition_id:</text></g><g id="elem_NewsArticle_1"><rect fill="#F1F1F1" height="61.4648" style="stroke:#181818;stroke-width:0.5;" width="119" x="1317.5" y="219.19"/><text fill="#000000" font-family="sans-serif" font-size="14" lengthAdjust="spacing" textLength="93" x="1330.5" y="234.7252">NewsArticle:1</text><line style="stroke:#181818;stroke-width:0.5;" x1="1318.5" x2="1435.5" y1="239.6783" y2="239.6783"/><text fill="#000000" font-family="sans-serif" font-size="14" lengthAdjust="spacing" textLength="107" x="1323.5" y="257.2134">title: New News!</text><text fill="#000000" font-family="sans-serif" font-size="14" lengthAdjust="spacing" textLength="74" x="1323.5" y="273.7017">state: draft</text></g><g id="elem_FileAttachment_1"><rect fill="#F1F1F1" height="44.9766" style="stroke:#181818;stroke-width:0.5;" width="188" x="1010" y="349.9"/><text fill="#000000" font-family="sans-serif" font-size="14" lengthAdjust="spacing" textLength="116" x="1046" y="365.4352">FileAttachment:1</text><line style="stroke:#181818;stroke-width:0.5;" x1="1011" x2="1197" y1="370.3883" y2="370.3883"/><text fill="#000000" font-family="sans-serif" font-size="14" lengthAdjust="spacing" textLength="176" x="1016" y="387.9234">title: Important Document</text></g><g id="elem_Image_2"><rect fill="#F1F1F1" height="44.9766" style="stroke:#181818;stroke-width:0.5;" width="192" x="1281" y="349.9"/><text fill="#000000" font-family="sans-serif" font-size="14" lengthAdjust="spacing" textLength="55" x="1349.5" y="365.4352">Image:2</text><line style="stroke:#181818;stroke-width:0.5;" x1="1282" x2="1472" y1="370.3883" y2="370.3883"/><text fill="#000000" font-family="sans-serif" font-size="14" lengthAdjust="spacing" textLength="180" x="1287" y="387.9234">caption: Dramatic Footage</text></g><g id="elem_AttachmentData_1"><rect fill="#F1F1F1" height="61.4648" style="stroke:#181818;stroke-width:0.5;" width="298" x="854" y="482.12"/><text fill="#000000" font-family="sans-serif" font-size="14" lengthAdjust="spacing" textLength="123" x="941.5" y="497.6552">AttachmentData:1</text><line style="stroke:#181818;stroke-width:0.5;" x1="855" x2="1151" y1="502.6083" y2="502.6083"/><text fill="#000000" font-family="sans-serif" font-size="14" lengthAdjust="spacing" textLength="286" x="860" y="520.1434">carrierwave_file: important_document.pdf</text><text fill="#000000" font-family="sans-serif" font-size="14" lengthAdjust="spacing" textLength="202" x="860" y="536.6317">content_type: application/pdf</text></g><g id="elem_ImageData_2"><rect fill="#F1F1F1" height="44.9766" style="stroke:#181818;stroke-width:0.5;" width="299" x="1227.5" y="490.37"/><text fill="#000000" font-family="sans-serif" font-size="14" lengthAdjust="spacing" textLength="86" x="1334" y="505.9052">ImageData:2</text><line style="stroke:#181818;stroke-width:0.5;" x1="1228.5" x2="1525.5" y1="510.8583" y2="510.8583"/><text fill="#000000" font-family="sans-serif" font-size="14" lengthAdjust="spacing" textLength="287" x="1233.5" y="528.3934">carrierwave_image: dramatic_footage.png</text></g><g id="elem_Asset_1"><rect fill="#F1F1F1" height="94.4414" style="stroke:#181818;stroke-width:0.5;" width="219" x="639.5" y="604.59"/><text fill="#000000" font-family="sans-serif" font-size="14" lengthAdjust="spacing" textLength="50" x="724" y="620.1252">Asset:1</text><line style="stroke:#181818;stroke-width:0.5;" x1="640.5" x2="857.5" y1="625.0783" y2="625.0783"/><text fill="#000000" font-family="sans-serif" font-size="14" lengthAdjust="spacing" textLength="207" x="645.5" y="642.6134">asset_manager_id: X164e681f</text><text fill="#000000" font-family="sans-serif" font-size="14" lengthAdjust="spacing" textLength="197" x="645.5" y="659.1017">owner_type: AttachmentData</text><text fill="#000000" font-family="sans-serif" font-size="14" lengthAdjust="spacing" textLength="80" x="645.5" y="675.59">owner_id: 1</text><text fill="#000000" font-family="sans-serif" font-size="14" lengthAdjust="spacing" textLength="108" x="645.5" y="692.0783">variant: original</text></g><g id="elem_Asset_2"><rect fill="#F1F1F1" height="94.4414" style="stroke:#181818;stroke-width:0.5;" width="219" x="893.5" y="604.59"/><text fill="#000000" font-family="sans-serif" font-size="14" lengthAdjust="spacing" textLength="50" x="978" y="620.1252">Asset:2</text><line style="stroke:#181818;stroke-width:0.5;" x1="894.5" x2="1111.5" y1="625.0783" y2="625.0783"/><text fill="#000000" font-family="sans-serif" font-size="14" lengthAdjust="spacing" textLength="207" x="899.5" y="642.6134">asset_manager_id: X174e681f</text><text fill="#000000" font-family="sans-serif" font-size="14" lengthAdjust="spacing" textLength="197" x="899.5" y="659.1017">owner_type: AttachmentData</text><text fill="#000000" font-family="sans-serif" font-size="14" lengthAdjust="spacing" textLength="80" x="899.5" y="675.59">owner_id: 1</text><text fill="#000000" font-family="sans-serif" font-size="14" lengthAdjust="spacing" textLength="125" x="899.5" y="692.0783">variant: thumbnail</text></g><g id="elem_Asset_3"><rect fill="#F1F1F1" height="94.4414" style="stroke:#181818;stroke-width:0.5;" width="223" x="1147.5" y="604.59"/><text fill="#000000" font-family="sans-serif" font-size="14" lengthAdjust="spacing" textLength="50" x="1234" y="620.1252">Asset:3</text><line style="stroke:#181818;stroke-width:0.5;" x1="1148.5" x2="1369.5" y1="625.0783" y2="625.0783"/><text fill="#000000" font-family="sans-serif" font-size="14" lengthAdjust="spacing" textLength="211" x="1153.5" y="642.6134">asset_manager_id: X174e6824</text><text fill="#000000" font-family="sans-serif" font-size="14" lengthAdjust="spacing" textLength="160" x="1153.5" y="659.1017">owner_type: ImageData</text><text fill="#000000" font-family="sans-serif" font-size="14" lengthAdjust="spacing" textLength="80" x="1153.5" y="675.59">owner_id: 2</text><text fill="#000000" font-family="sans-serif" font-size="14" lengthAdjust="spacing" textLength="108" x="1153.5" y="692.0783">variant: original</text></g><g id="elem_Asset_4"><rect fill="#F1F1F1" height="94.4414" style="stroke:#181818;stroke-width:0.5;" width="223" x="1405.5" y="604.59"/><text fill="#000000" font-family="sans-serif" font-size="14" lengthAdjust="spacing" textLength="50" x="1492" y="620.1252">Asset:4</text><line style="stroke:#181818;stroke-width:0.5;" x1="1406.5" x2="1627.5" y1="625.0783" y2="625.0783"/><text fill="#000000" font-family="sans-serif" font-size="14" lengthAdjust="spacing" textLength="211" x="1411.5" y="642.6134">asset_manager_id: X174e6825</text><text fill="#000000" font-family="sans-serif" font-size="14" lengthAdjust="spacing" textLength="160" x="1411.5" y="659.1017">owner_type: ImageData</text><text fill="#000000" font-family="sans-serif" font-size="14" lengthAdjust="spacing" textLength="80" x="1411.5" y="675.59">owner_id: 2</text><text fill="#000000" font-family="sans-serif" font-size="14" lengthAdjust="spacing" textLength="89" x="1411.5" y="692.0783">variant: s216</text></g><g id="elem_pubapi_Document_4"><rect fill="#F1F1F1" height="44.9766" style="stroke:#181818;stroke-width:0.5;" width="212" x="1684" y="227.44"/><text fill="#000000" font-family="sans-serif" font-size="14" lengthAdjust="spacing" textLength="83" x="1748.5" y="242.9752">Document:4</text><line style="stroke:#181818;stroke-width:0.5;" x1="1685" x2="1895" y1="247.9283" y2="247.9283"/><text fill="#000000" font-family="sans-serif" font-size="14" lengthAdjust="spacing" textLength="200" x="1690" y="265.4634">content_id: ...38699bd72b83</text></g><g id="elem_pubapi_Edition_4"><rect fill="#F1F1F1" height="61.4648" style="stroke:#181818;stroke-width:0.5;" width="119" x="1730.5" y="341.66"/><text fill="#000000" font-family="sans-serif" font-size="14" lengthAdjust="spacing" textLength="61" x="1759.5" y="357.1952">Edition:4</text><line style="stroke:#181818;stroke-width:0.5;" x1="1731.5" x2="1848.5" y1="362.1483" y2="362.1483"/><text fill="#000000" font-family="sans-serif" font-size="14" lengthAdjust="spacing" textLength="107" x="1736.5" y="379.6834">title: New News!</text><text fill="#000000" font-family="sans-serif" font-size="14" lengthAdjust="spacing" textLength="74" x="1736.5" y="396.1717">state: draft</text></g><g id="elem_am_WhitehallAsset_X164e681f"><rect fill="#F1F1F1" height="94.4414" style="stroke:#181818;stroke-width:0.5;" width="482" x="40" y="796.03"/><text fill="#000000" font-family="sans-serif" font-size="14" lengthAdjust="spacing" textLength="180" x="191" y="811.5652">WhitehallAsset:X164e681f</text><line style="stroke:#181818;stroke-width:0.5;" x1="41" x2="521" y1="816.5183" y2="816.5183"/><text fill="#000000" font-family="sans-serif" font-size="14" lengthAdjust="spacing" textLength="200" x="46" y="834.0534">file: important_document.pdf</text><text fill="#000000" font-family="sans-serif" font-size="14" lengthAdjust="spacing" textLength="470" x="46" y="850.5417">legacy_url_path: .../attachment_data/file/1/important_document.pdf</text><text fill="#000000" font-family="sans-serif" font-size="14" lengthAdjust="spacing" textLength="106" x="46" y="867.03">state: uploaded</text><text fill="#000000" font-family="sans-serif" font-size="14" lengthAdjust="spacing" textLength="69" x="46" y="883.5183">draft: true</text></g><g id="elem_am_WhitehallAsset_X174e681f"><rect fill="#F1F1F1" height="94.4414" style="stroke:#181818;stroke-width:0.5;" width="590" x="557" y="796.03"/><text fill="#000000" font-family="sans-serif" font-size="14" lengthAdjust="spacing" textLength="180" x="762" y="811.5652">WhitehallAsset:X174e681f</text><line style="stroke:#181818;stroke-width:0.5;" x1="558" x2="1146" y1="816.5183" y2="816.5183"/><text fill="#000000" font-family="sans-serif" font-size="14" lengthAdjust="spacing" textLength="308" x="563" y="834.0534">file: thumbnail_important_document.pdf.png</text><text fill="#000000" font-family="sans-serif" font-size="14" lengthAdjust="spacing" textLength="578" x="563" y="850.5417">legacy_url_path: .../attachment_data/file/1/thumbnail_important_document.pdf.png</text><text fill="#000000" font-family="sans-serif" font-size="14" lengthAdjust="spacing" textLength="106" x="563" y="867.03">state: uploaded</text><text fill="#000000" font-family="sans-serif" font-size="14" lengthAdjust="spacing" textLength="69" x="563" y="883.5183">draft: true</text></g><g id="elem_am_WhitehallAsset_X174e6824"><rect fill="#F1F1F1" height="94.4414" style="stroke:#181818;stroke-width:0.5;" width="427" x="1182.5" y="796.03"/><text fill="#000000" font-family="sans-serif" font-size="14" lengthAdjust="spacing" textLength="184" x="1304" y="811.5652">WhitehallAsset:X174e6824</text><line style="stroke:#181818;stroke-width:0.5;" x1="1183.5" x2="1608.5" y1="816.5183" y2="816.5183"/><text fill="#000000" font-family="sans-serif" font-size="14" lengthAdjust="spacing" textLength="180" x="1188.5" y="834.0534">file: dramatic_footage.png</text><text fill="#000000" font-family="sans-serif" font-size="14" lengthAdjust="spacing" textLength="415" x="1188.5" y="850.5417">legacy_url_path: .../image_data/file/2/dramatic_footage.png</text><text fill="#000000" font-family="sans-serif" font-size="14" lengthAdjust="spacing" textLength="106" x="1188.5" y="867.03">state: uploaded</text><text fill="#000000" font-family="sans-serif" font-size="14" lengthAdjust="spacing" textLength="73" x="1188.5" y="883.5183">draft: false</text></g><g id="elem_am_WhitehallAsset_X174e6825"><rect fill="#F1F1F1" height="94.4414" style="stroke:#181818;stroke-width:0.5;" width="468" x="1645" y="796.03"/><text fill="#000000" font-family="sans-serif" font-size="14" lengthAdjust="spacing" textLength="184" x="1787" y="811.5652">WhitehallAsset:X174e6825</text><line style="stroke:#181818;stroke-width:0.5;" x1="1646" x2="2112" y1="816.5183" y2="816.5183"/><text fill="#000000" font-family="sans-serif" font-size="14" lengthAdjust="spacing" textLength="221" x="1651" y="834.0534">file: s216_dramatic_footage.png</text><text fill="#000000" font-family="sans-serif" font-size="14" lengthAdjust="spacing" textLength="456" x="1651" y="850.5417">legacy_url_path: .../image_data/file/2/s216_dramatic_footage.png</text><text fill="#000000" font-family="sans-serif" font-size="14" lengthAdjust="spacing" textLength="106" x="1651" y="867.03">state: uploaded</text><text fill="#000000" font-family="sans-serif" font-size="14" lengthAdjust="spacing" textLength="73" x="1651" y="883.5183">draft: false</text></g><g id="elem_GMN33"><path d="M2147.5,830.59 L2147.5,839.25 L2113.37,843.25 L2147.5,847.25 L2147.5,855.9005 A0,0 0 0 0 2147.5,855.9005 L2406.5,855.9005 A0,0 0 0 0 2406.5,855.9005 L2406.5,840.59 L2396.5,830.59 L2147.5,830.59 A0,0 0 0 0 2147.5,830.59 " fill="#FEFFDD" style="stroke:#181818;stroke-width:0.5;"/><path d="M2396.5,830.59 L2396.5,840.59 L2406.5,840.59 L2396.5,830.59 " fill="#FEFFDD" style="stroke:#181818;stroke-width:0.5;"/><text fill="#000000" font-family="sans-serif" font-size="13" lengthAdjust="spacing" textLength="238" x="2153.5" y="848.1584">also 5 other scaled images not shown</text></g><!--reverse link Document_1 to NewsArticle_1--><g id="link_Document_1_NewsArticle_1"><path codeLine="13" d="M1421.54,153.22 C1411.06,175.74 1399.56,200.46 1390.87,219.13 " fill="none" id="Document_1-backto-NewsArticle_1" style="stroke:#181818;stroke-width:1.0;"/><polygon fill="#181818" points="1427.4,141.63,1421.2417,145.3817,1422.3362,152.5092,1428.4945,148.7576,1427.4,141.63" style="stroke:#181818;stroke-width:1.0;"/></g><!--reverse link NewsArticle_1 to FileAttachment_1--><g id="link_NewsArticle_1_FileAttachment_1"><path codeLine="17" d="M1304.36,282.98 C1256.78,303.97 1195.84,330.86 1153.73,349.45 " fill="none" id="NewsArticle_1-backto-FileAttachment_1" style="stroke:#181818;stroke-width:1.0;"/><polygon fill="#181818" points="1316.09,277.36,1308.986,276.1217,1305.1107,282.203,1312.2147,283.4413,1316.09,277.36" style="stroke:#181818;stroke-width:1.0;"/></g><!--reverse link NewsArticle_1 to Image_2--><g id="link_NewsArticle_1_Image_2"><path codeLine="21" d="M1377,294.99 C1377,313.6 1377,334.42 1377,349.63 " fill="none" id="NewsArticle_1-backto-Image_2" style="stroke:#181818;stroke-width:1.0;"/><polygon fill="#181818" points="1377,282.01,1373,288.01,1377,294.01,1381,288.01,1377,282.01" style="stroke:#181818;stroke-width:1.0;"/></g><!--link FileAttachment_1 to AttachmentData_1--><g id="link_FileAttachment_1_AttachmentData_1"><path codeLine="27" d="M1088,395.33 C1073.3,415.47 1051.15,445.85 1033.14,470.54 " fill="none" id="FileAttachment_1-to-AttachmentData_1" style="stroke:#181818;stroke-width:1.0;"/><polygon fill="#181818" points="1024.94,480.78,1031.7078,478.2906,1032.0129,471.086,1025.2451,473.5754,1024.94,480.78" style="stroke:#181818;stroke-width:1.0;"/><text fill="#000000" font-family="sans-serif" font-size="13" lengthAdjust="spacing" textLength="178" x="1057" y="448.6884">also linked to other editions</text></g><!--link Image_2 to ImageData_2--><g id="link_Image_2_ImageData_2"><path codeLine="31" d="M1377,395.33 C1377,417 1377,450.52 1377,476.06 " fill="none" id="Image_2-to-ImageData_2" style="stroke:#181818;stroke-width:1.0;"/><polygon fill="#181818" points="1377,489.02,1381,483.02,1377,477.02,1373,483.02,1377,489.02" style="stroke:#181818;stroke-width:1.0;"/><text fill="#000000" font-family="sans-serif" font-size="13" lengthAdjust="spacing" textLength="178" x="1378" y="448.6884">also linked to other editions</text></g><!--reverse link AttachmentData_1 to Asset_1--><g id="link_AttachmentData_1_Asset_1"><path codeLine="59" d="M934.67,550.7 C904.13,567.17 867.78,586.77 835.37,604.24 " fill="none" id="AttachmentData_1-backto-Asset_1" style="stroke:#181818;stroke-width:1.0;"/><polygon fill="#181818" points="945.94,544.08,938.7603,543.4075,935.3782,549.7763,942.5578,550.4488,945.94,544.08" style="stroke:#181818;stroke-width:1.0;"/></g><!--reverse link AttachmentData_1 to Asset_2--><g id="link_AttachmentData_1_Asset_2"><path codeLine="60" d="M1003,557.5 C1003,572.36 1003,589.04 1003,604.13 " fill="none" id="AttachmentData_1-backto-Asset_2" style="stroke:#181818;stroke-width:1.0;"/><polygon fill="#181818" points="1003,544.91,999,550.91,1003,556.91,1007,550.91,1003,544.91" style="stroke:#181818;stroke-width:1.0;"/></g><!--reverse link ImageData_2 to Asset_3--><g id="link_ImageData_2_Asset_3"><path codeLine="61" d="M1349.52,545.75 C1334.53,563.14 1315.7,585 1299.11,604.26 " fill="none" id="ImageData_2-backto-Asset_3" style="stroke:#181818;stroke-width:1.0;"/><polygon fill="#181818" points="1358.3,536.56,1351.3527,538.4925,1350.4645,545.6487,1357.4118,543.7162,1358.3,536.56" style="stroke:#181818;stroke-width:1.0;"/></g><!--reverse link ImageData_2 to Asset_4--><g id="link_ImageData_2_Asset_4"><path codeLine="62" d="M1409.1,545.26 C1426.96,562.73 1449.54,584.81 1469.42,604.26 " fill="none" id="ImageData_2-backto-Asset_4" style="stroke:#181818;stroke-width:1.0;"/><polygon fill="#181818" points="1400.18,536.56,1401.671,543.6153,1408.757,544.9526,1407.266,537.8973,1400.18,536.56" style="stroke:#181818;stroke-width:1.0;"/></g><!--reverse link pubapi_Document_4 to pubapi_Edition_4--><g id="link_pubapi_Document_4_pubapi_Edition_4"><path codeLine="73" d="M1790,286.5 C1790,304.02 1790,324.91 1790,341.58 " fill="none" id="pubapi_Document_4-backto-pubapi_Edition_4" style="stroke:#181818;stroke-width:1.0;"/><polygon fill="#181818" points="1790,273.74,1786,279.74,1790,285.74,1794,279.74,1790,273.74" style="stroke:#181818;stroke-width:1.0;"/></g><!--link Document_1 to pubapi_Document_4--><g id="link_Document_1_pubapi_Document_4"><path codeLine="108" d="M1551.77,140.84 C1614.72,169.4 1692.38,204.64 1741.56,226.95 " fill="none" id="Document_1-pubapi_Document_4" style="stroke:#181818;stroke-width:1.0;stroke-dasharray:7.0,7.0;"/></g><!--link Asset_1 to am_WhitehallAsset_X164e681f--><g id="link_Asset_1_am_WhitehallAsset_X164e681f"><path codeLine="109" d="M639.27,697.22 C566.19,726.81 470.33,765.61 396.16,795.64 " fill="none" id="Asset_1-am_WhitehallAsset_X164e681f" style="stroke:#181818;stroke-width:1.0;stroke-dasharray:7.0,7.0;"/></g><!--link Asset_2 to am_WhitehallAsset_X174e681f--><g id="link_Asset_2_am_WhitehallAsset_X174e681f"><path codeLine="110" d="M966.06,699.15 C942.66,728.51 912.51,766.34 889.08,795.73 " fill="none" id="Asset_2-am_WhitehallAsset_X174e681f" style="stroke:#181818;stroke-width:1.0;stroke-dasharray:7.0,7.0;"/></g><!--link Asset_3 to am_WhitehallAsset_X174e6824--><g id="link_Asset_3_am_WhitehallAsset_X174e6824"><path codeLine="111" d="M1292.51,699.15 C1313.74,728.51 1341.1,766.34 1362.36,795.73 " fill="none" id="Asset_3-am_WhitehallAsset_X174e6824" style="stroke:#181818;stroke-width:1.0;stroke-dasharray:7.0,7.0;"/></g><!--link Asset_4 to am_WhitehallAsset_X174e6825--><g id="link_Asset_4_am_WhitehallAsset_X174e6825"><path codeLine="112" d="M1606.02,699.39 C1662.02,728.7 1734.02,766.38 1790.01,795.68 " fill="none" id="Asset_4-am_WhitehallAsset_X174e6825" style="stroke:#181818;stroke-width:1.0;stroke-dasharray:7.0,7.0;"/></g><!--SRC=[fLR1RgCm4Btp5TuUAoKHX2GjjqhTIZtiQc-xDpG11xnhR0IcrMhLVz-nCSI40ArwY0GpvhrvR-nnX4mf-PapHNFWdFppvF4tJHIvUPH9Kr2X8l-6G4swrzZ7DOJKlCaY8kXhZByQ0uaKIgTP6f7rUhszsz_V7zD3SBpROfQ3ehMAQSeKay8iydMOlL0twBrvIcPKvRHoAlcE30-LOWcdjXWdOkjHJ65M9qpoYovH8Mb4qWfE2e4T0RUhrH2YftfYd3ue1KdkI1y6XuJFHIah1KBr1Y7Li3pDTWdH4puNaD4eC3pcEGuCV0AbDYKYZnKKW53aIKg5-QlmzalCTRXdiaTGO8KCWrP80bN5QFKAs8eJqvfOfobEhQPrcPwS7gk_9Iw3ikGi0LtcHkVVl17-xQePQySlUIsnz-8FJOcIH9f-ssrG3wqnrJls6E1WL3WpDkfU6xFYKslMkXGPrkL-QKgoVYrLSdQphcct6yopzGxCSm42uIgpgt_v-v3kxtnjbtmL66tD6bhJ9xk3y08LGyCZ8YkMCG7SRQKX3npoO9Byy2bobJV5KG3Jx1VqMuT-EqyVX1VqlVq3vk1TiaE7DrpWtNsSjmxylHPxPUUkkaxF9OEBlTN5jnFna7X89_JC_T4SEQjp9hA7absRkwtqiZb2oU9-UhKcpC_RiubVswqynB912xKyESSbQ46NO9qk8_HRsnuak3BF-zkcRN5_P4oDKCJ3VDpdJRaB8uhJ39A_SLFnk0IL6sysS9u-ANPaep4s_cOInEflIYuXfIb6Z1LuGAg6EkwEX1mMX1n6GleZ5r-lnaomZybw9-IIoBTtjSwU-7d5GUWelZgZ9nIQiUw82pOJNq-AEU64NsvPi5iGi7C4w9aHVqx57CIY524L9JWlS-MrzzVEtbjr0XplCKDN4rn6wXpddaT5gj_QfZf_WzRhyNJnkkiDapD7qUikeebbXy6oxUooe2CDvvVj_WC0]--></g></svg>