<?xml version="1.0" encoding="us-ascii" standalone="no"?><svg xmlns="http://www.w3.org/2000/svg" xmlns:xlink="http://www.w3.org/1999/xlink" contentStyleType="text/css" height="3440.625px" preserveAspectRatio="none" style="width:4990px;height:3440px;background:#FFFFFF;" version="1.1" viewBox="0 0 4990 3440" width="4990.625px" zoomAndPan="magnify"><defs/><g><!--cluster Attachables--><g id="cluster_Attachables"><rect fill="none" height="786.6563" rx="7.8125" ry="7.8125" style="stroke:#181818;stroke-width:3.125;" width="1168.75" x="996.875" y="423.75"/><text fill="#000000" font-family="sans-serif" font-size="43.75" font-weight="bold" lengthAdjust="spacing" textLength="262.5" x="1450" y="472.2974">Attachables</text></g><!--cluster Attachments--><g id="cluster_Attachments"><rect fill="none" height="894.8437" rx="7.8125" ry="7.8125" style="stroke:#181818;stroke-width:3.125;" width="2750" x="21.875" y="1313.5312"/><text fill="#000000" font-family="sans-serif" font-size="43.75" font-weight="bold" lengthAdjust="spacing" textLength="284.375" x="1254.6875" y="1362.0786">Attachments</text></g><!--cluster Images--><g id="cluster_Images"><rect fill="none" height="852.2813" rx="7.8125" ry="7.8125" style="stroke:#181818;stroke-width:3.125;" width="1131.25" x="2846.875" y="1338.5312"/><text fill="#000000" font-family="sans-serif" font-size="43.75" font-weight="bold" lengthAdjust="spacing" textLength="162.5" x="3331.25" y="1387.0786">Images</text></g><!--cluster Other models with assets--><g id="cluster_Other models with assets"><rect fill="none" height="362.8438" rx="7.8125" ry="7.8125" style="stroke:#181818;stroke-width:3.125;" width="918.75" x="4053.125" y="1827.9687"/><text fill="#000000" font-family="sans-serif" font-size="43.75" font-weight="bold" lengthAdjust="spacing" textLength="584.375" x="4220.3125" y="1876.5161">Other models with assets</text></g><!--cluster AssetManager--><g id="cluster_AssetManager"><polygon fill="none" points="2809.375,2966.0312,2840.625,2934.7812,3362.5,2934.7812,3362.5,3358.0937,3331.25,3389.3437,2809.375,3389.3437,2809.375,2966.0312" style="stroke:#181818;stroke-width:3.125;"/><line style="stroke:#181818;stroke-width:3.125;" x1="3331.25" x2="3362.5" y1="2966.0312" y2="2934.7812"/><line style="stroke:#181818;stroke-width:3.125;" x1="2809.375" x2="3331.25" y1="2966.0312" y2="2966.0312"/><line style="stroke:#181818;stroke-width:3.125;" x1="3331.25" x2="3331.25" y1="2966.0312" y2="3389.3437"/><text fill="#000000" font-family="sans-serif" font-size="43.75" font-weight="bold" lengthAdjust="spacing" textLength="315.625" x="2915.625" y="3017.7036">AssetManager</text></g><!--class Edition--><g id="elem_Edition"><rect codeLine="9" fill="#F1F1F1" height="203.4668" id="Edition" rx="7.8125" ry="7.8125" style="stroke:#181818;stroke-width:1.5625;" width="250" x="1512.5" y="533.125"/><ellipse cx="1559.375" cy="596.5955" fill="#A9DCDF" rx="34.375" ry="34.375" style="stroke:#181818;stroke-width:3.125;"/><path d="M1558.9478,582.0584 L1555.3421,597.9077 L1562.5793,597.9077 Z M1554.2786,575.0546 L1563.6429,575.0546 L1574.0967,613.783 L1566.4444,613.783 L1564.0579,604.2111 L1553.8116,604.2111 L1551.4771,613.783 L1543.8248,613.783 Z " fill="#000000"/><text fill="#000000" font-family="sans-serif" font-size="37.5" font-style="italic" lengthAdjust="spacing" textLength="150" x="1603.125" y="585.0049">&#171;model&#187;</text><text fill="#000000" font-family="sans-serif" font-size="43.75" font-style="italic" lengthAdjust="spacing" textLength="150" x="1603.125" y="635.2124">Edition</text><line style="stroke:#181818;stroke-width:1.5625;" x1="1515.625" x2="1759.375" y1="660.0659" y2="660.0659"/><text fill="#000000" font-family="sans-serif" font-size="43.75" lengthAdjust="spacing" textLength="103.125" x="1531.25" y="714.8633">state</text></g><!--class PolicyGroup--><g id="elem_PolicyGroup"><rect codeLine="12" fill="#F1F1F1" height="126.9409" id="PolicyGroup" rx="7.8125" ry="7.8125" style="stroke:#181818;stroke-width:1.5625;" width="356.25" x="1046.875" y="571.375"/><ellipse cx="1093.75" cy="634.8455" fill="#ADD1B2" rx="34.375" ry="34.375" style="stroke:#181818;stroke-width:3.125;"/><path d="M1101.4786,654.0425 Q1099.6628,654.9764 1097.6654,655.4433 Q1095.668,655.9102 1093.4631,655.9102 Q1085.6293,655.9102 1081.5048,650.7482 Q1077.3804,645.5861 1077.3804,635.8327 Q1077.3804,626.0533 1081.5048,620.8913 Q1085.6293,615.7292 1093.4631,615.7292 Q1095.668,615.7292 1097.6913,616.1962 Q1099.7147,616.6631 1101.4786,617.5969 L1101.4786,626.1052 Q1099.5071,624.2894 1097.6524,623.4464 Q1095.7977,622.6033 1093.8263,622.6033 Q1089.624,622.6033 1087.484,625.9366 Q1085.3439,629.2699 1085.3439,635.8327 Q1085.3439,642.3696 1087.484,645.7029 Q1089.624,649.0361 1093.8263,649.0361 Q1095.7977,649.0361 1097.6524,648.1931 Q1099.5071,647.35 1101.4786,645.5342 Z " fill="#000000"/><text fill="#000000" font-family="sans-serif" font-size="37.5" font-style="italic" lengthAdjust="spacing" textLength="150" x="1190.625" y="623.2549">&#171;model&#187;</text><text fill="#000000" font-family="sans-serif" font-size="43.75" lengthAdjust="spacing" textLength="256.25" x="1137.5" y="673.4624">PolicyGroup</text></g><g id="elem_othereds"><ellipse cx="1203.1148" cy="1096.9402" fill="#F1F1F1" rx="155.6148" ry="45.909" style="stroke:#181818;stroke-width:1.5625;"/><text fill="#000000" font-family="sans-serif" font-size="43.75" lengthAdjust="spacing" textLength="168.75" x="1111.1061" y="1109.1317">(others)</text></g><!--class Attachable--><g id="elem_Attachable"><rect codeLine="17" fill="#F1F1F1" height="126.9409" id="Attachable" rx="7.8125" ry="7.8125" style="stroke:#181818;stroke-width:1.5625;" width="328.125" x="1467.1875" y="1033.4687"/><ellipse cx="1514.0625" cy="1096.9392" fill="#A9DCDF" rx="34.375" ry="34.375" style="stroke:#181818;stroke-width:3.125;"/><path d="M1513.6353,1082.4022 L1510.0296,1098.2515 L1517.2668,1098.2515 Z M1508.9661,1075.3984 L1518.3304,1075.3984 L1528.7842,1114.1267 L1521.1319,1114.1267 L1518.7454,1104.5549 L1508.4991,1104.5549 L1506.1646,1114.1267 L1498.5123,1114.1267 Z " fill="#000000"/><text fill="#000000" font-family="sans-serif" font-size="37.5" font-style="italic" lengthAdjust="spacing" textLength="178.125" x="1582.8125" y="1085.3486">&#171;concern&#187;</text><text fill="#000000" font-family="sans-serif" font-size="43.75" font-style="italic" lengthAdjust="spacing" textLength="228.125" x="1557.8125" y="1135.5562">Attachable</text></g><!--class Attachment--><g id="elem_Attachment"><rect codeLine="22" fill="#F1F1F1" height="126.9409" id="Attachment" rx="7.8125" ry="7.8125" style="stroke:#181818;stroke-width:1.5625;" width="346.875" x="1017.1875" y="1447.9062"/><ellipse cx="1064.0625" cy="1511.3767" fill="#A9DCDF" rx="34.375" ry="34.375" style="stroke:#181818;stroke-width:3.125;"/><path d="M1063.6353,1496.8397 L1060.0296,1512.689 L1067.2668,1512.689 Z M1058.9661,1489.8359 L1068.3304,1489.8359 L1078.7842,1528.5642 L1071.1319,1528.5642 L1068.7454,1518.9924 L1058.4991,1518.9924 L1056.1646,1528.5642 L1048.5123,1528.5642 Z " fill="#000000"/><text fill="#000000" font-family="sans-serif" font-size="37.5" font-style="italic" lengthAdjust="spacing" textLength="150" x="1156.25" y="1499.7861">&#171;model&#187;</text><text fill="#000000" font-family="sans-serif" font-size="43.75" font-style="italic" lengthAdjust="spacing" textLength="246.875" x="1107.8125" y="1549.9937">Attachment</text></g><!--class FileAttachment--><g id="elem_FileAttachment"><rect codeLine="23" fill="#F1F1F1" height="126.9409" id="FileAttachment" rx="7.8125" ry="7.8125" style="stroke:#181818;stroke-width:1.5625;" width="421.875" x="98.4375" y="1975.5937"/><ellipse cx="145.3125" cy="2039.0642" fill="#ADD1B2" rx="34.375" ry="34.375" style="stroke:#181818;stroke-width:3.125;"/><path d="M153.0411,2058.2613 Q151.2253,2059.1951 149.2279,2059.662 Q147.2305,2060.129 145.0256,2060.129 Q137.1918,2060.129 133.0673,2054.9669 Q128.9429,2049.8049 128.9429,2040.0515 Q128.9429,2030.2721 133.0673,2025.11 Q137.1918,2019.948 145.0256,2019.948 Q147.2305,2019.948 149.2538,2020.4149 Q151.2772,2020.8818 153.0411,2021.8157 L153.0411,2030.324 Q151.0696,2028.5082 149.2149,2027.6651 Q147.3602,2026.8221 145.3888,2026.8221 Q141.1865,2026.8221 139.0465,2030.1554 Q136.9064,2033.4886 136.9064,2040.0515 Q136.9064,2046.5883 139.0465,2049.9216 Q141.1865,2053.2549 145.3888,2053.2549 Q147.3602,2053.2549 149.2149,2052.4118 Q151.0696,2051.5688 153.0411,2049.753 Z " fill="#000000"/><text fill="#000000" font-family="sans-serif" font-size="37.5" font-style="italic" lengthAdjust="spacing" textLength="150" x="275" y="2027.4736">&#171;model&#187;</text><text fill="#000000" font-family="sans-serif" font-size="43.75" lengthAdjust="spacing" textLength="321.875" x="189.0625" y="2077.6812">FileAttachment</text></g><g id="elem_otheratts"><ellipse cx="1062.5067" cy="2039.0638" fill="#F1F1F1" rx="434.0692" ry="94.3138" style="stroke:#181818;stroke-width:1.5625;"/><text fill="#000000" font-family="sans-serif" font-size="43.75" lengthAdjust="spacing" textLength="771.875" x="676.5692" y="2049.3483">(other attachments - html, external)</text></g><!--class AttachmentData--><g id="elem_AttachmentData"><rect codeLine="28" fill="#F1F1F1" height="203.4668" id="AttachmentData" rx="7.8125" ry="7.8125" style="stroke:#181818;stroke-width:1.5625;" width="443.75" x="1606.25" y="1937.3437"/><ellipse cx="1653.125" cy="2000.8142" fill="#ADD1B2" rx="34.375" ry="34.375" style="stroke:#181818;stroke-width:3.125;"/><path d="M1660.8536,2020.0113 Q1659.0378,2020.9451 1657.0404,2021.412 Q1655.043,2021.879 1652.8381,2021.879 Q1645.0043,2021.879 1640.8798,2016.7169 Q1636.7554,2011.5549 1636.7554,2001.8015 Q1636.7554,1992.0221 1640.8798,1986.86 Q1645.0043,1981.698 1652.8381,1981.698 Q1655.043,1981.698 1657.0663,1982.1649 Q1659.0897,1982.6318 1660.8536,1983.5657 L1660.8536,1992.074 Q1658.8821,1990.2582 1657.0274,1989.4151 Q1655.1727,1988.5721 1653.2013,1988.5721 Q1648.999,1988.5721 1646.859,1991.9054 Q1644.7189,1995.2386 1644.7189,2001.8015 Q1644.7189,2008.3383 1646.859,2011.6716 Q1648.999,2015.0049 1653.2013,2015.0049 Q1655.1727,2015.0049 1657.0274,2014.1618 Q1658.8821,2013.3188 1660.8536,2011.503 Z " fill="#000000"/><text fill="#000000" font-family="sans-serif" font-size="37.5" font-style="italic" lengthAdjust="spacing" textLength="150" x="1793.75" y="1989.2236">&#171;model&#187;</text><text fill="#000000" font-family="sans-serif" font-size="43.75" lengthAdjust="spacing" textLength="343.75" x="1696.875" y="2039.4312">AttachmentData</text><line style="stroke:#181818;stroke-width:1.5625;" x1="1609.375" x2="2046.875" y1="2064.2847" y2="2064.2847"/><text fill="#000000" font-family="sans-serif" font-size="43.75" lengthAdjust="spacing" textLength="334.375" x="1625" y="2119.082">carrierwave_file</text></g><g id="elem_GMN17"><path d="M2159.375,1999.5312 L2159.375,2026.5625 L2050.625,2039.0625 L2159.375,2051.5625 L2159.375,2078.6267 A0,0 0 0 0 2159.375,2078.6267 L2721.875,2078.6267 A0,0 0 0 0 2721.875,2078.6267 L2721.875,2030.7812 L2690.625,1999.5312 L2159.375,1999.5312 A0,0 0 0 0 2159.375,1999.5312 " fill="#FEFFDD" style="stroke:#181818;stroke-width:1.5625;"/><path d="M2690.625,1999.5312 L2690.625,2030.7812 L2721.875,2030.7812 L2690.625,1999.5312 " fill="#FEFFDD" style="stroke:#181818;stroke-width:1.5625;"/><text fill="#000000" font-family="sans-serif" font-size="40.625" lengthAdjust="spacing" textLength="496.875" x="2178.125" y="2054.4324">only for file attachments!</text></g><!--class Image--><g id="elem_Image"><rect codeLine="37" fill="#F1F1F1" height="126.9409" id="Image" rx="7.8125" ry="7.8125" style="stroke:#181818;stroke-width:1.5625;" width="237.5" x="2896.875" y="1447.9062"/><ellipse cx="2943.75" cy="1511.3767" fill="#ADD1B2" rx="34.375" ry="34.375" style="stroke:#181818;stroke-width:3.125;"/><path d="M2951.4786,1530.5738 Q2949.6628,1531.5076 2947.6654,1531.9745 Q2945.668,1532.4415 2943.4631,1532.4415 Q2935.6293,1532.4415 2931.5048,1527.2794 Q2927.3804,1522.1174 2927.3804,1512.364 Q2927.3804,1502.5846 2931.5048,1497.4225 Q2935.6293,1492.2605 2943.4631,1492.2605 Q2945.668,1492.2605 2947.6913,1492.7274 Q2949.7147,1493.1943 2951.4786,1494.1282 L2951.4786,1502.6365 Q2949.5071,1500.8207 2947.6524,1499.9776 Q2945.7977,1499.1346 2943.8263,1499.1346 Q2939.624,1499.1346 2937.484,1502.4679 Q2935.3439,1505.8011 2935.3439,1512.364 Q2935.3439,1518.9008 2937.484,1522.2341 Q2939.624,1525.5674 2943.8263,1525.5674 Q2945.7977,1525.5674 2947.6524,1524.7243 Q2949.5071,1523.8813 2951.4786,1522.0655 Z " fill="#000000"/><text fill="#000000" font-family="sans-serif" font-size="37.5" font-style="italic" lengthAdjust="spacing" textLength="150" x="2981.25" y="1499.7861">&#171;model&#187;</text><text fill="#000000" font-family="sans-serif" font-size="43.75" lengthAdjust="spacing" textLength="131.25" x="2990.625" y="1549.9937">Image</text></g><!--class ImageData--><g id="elem_ImageData"><rect codeLine="38" fill="#F1F1F1" height="203.4668" id="ImageData" rx="7.8125" ry="7.8125" style="stroke:#181818;stroke-width:1.5625;" width="371.875" x="2898.4375" y="1937.3437"/><ellipse cx="2965" cy="2000.8142" fill="#ADD1B2" rx="34.375" ry="34.375" style="stroke:#181818;stroke-width:3.125;"/><path d="M2972.7286,2020.0113 Q2970.9128,2020.9451 2968.9154,2021.412 Q2966.918,2021.879 2964.7131,2021.879 Q2956.8793,2021.879 2952.7548,2016.7169 Q2948.6304,2011.5549 2948.6304,2001.8015 Q2948.6304,1992.0221 2952.7548,1986.86 Q2956.8793,1981.698 2964.7131,1981.698 Q2966.918,1981.698 2968.9413,1982.1649 Q2970.9647,1982.6318 2972.7286,1983.5657 L2972.7286,1992.074 Q2970.7571,1990.2582 2968.9024,1989.4151 Q2967.0477,1988.5721 2965.0763,1988.5721 Q2960.874,1988.5721 2958.734,1991.9054 Q2956.5939,1995.2386 2956.5939,2001.8015 Q2956.5939,2008.3383 2958.734,2011.6716 Q2960.874,2015.0049 2965.0763,2015.0049 Q2967.0477,2015.0049 2968.9024,2014.1618 Q2970.7571,2013.3188 2972.7286,2011.503 Z " fill="#000000"/><text fill="#000000" font-family="sans-serif" font-size="37.5" font-style="italic" lengthAdjust="spacing" textLength="150" x="3052.1875" y="1989.2236">&#171;model&#187;</text><text fill="#000000" font-family="sans-serif" font-size="43.75" lengthAdjust="spacing" textLength="228.125" x="3013.125" y="2039.4312">ImageData</text><line style="stroke:#181818;stroke-width:1.5625;" x1="2901.5625" x2="3267.1875" y1="2064.2847" y2="2064.2847"/><text fill="#000000" font-family="sans-serif" font-size="43.75" lengthAdjust="spacing" textLength="334.375" x="2917.1875" y="2119.082">carrierwave_file</text></g><!--class Person--><g id="elem_Person"><rect codeLine="46" fill="#F1F1F1" height="203.4668" id="Person" rx="7.8125" ry="7.8125" style="stroke:#181818;stroke-width:1.5625;" width="246.875" x="4676.5625" y="1937.3437"/><ellipse cx="4723.4375" cy="2000.8142" fill="#ADD1B2" rx="34.375" ry="34.375" style="stroke:#181818;stroke-width:3.125;"/><path d="M4731.1661,2020.0113 Q4729.3503,2020.9451 4727.3529,2021.412 Q4725.3555,2021.879 4723.1506,2021.879 Q4715.3168,2021.879 4711.1923,2016.7169 Q4707.0679,2011.5549 4707.0679,2001.8015 Q4707.0679,1992.0221 4711.1923,1986.86 Q4715.3168,1981.698 4723.1506,1981.698 Q4725.3555,1981.698 4727.3788,1982.1649 Q4729.4022,1982.6318 4731.1661,1983.5657 L4731.1661,1992.074 Q4729.1946,1990.2582 4727.3399,1989.4151 Q4725.4852,1988.5721 4723.5138,1988.5721 Q4719.3115,1988.5721 4717.1715,1991.9054 Q4715.0314,1995.2386 4715.0314,2001.8015 Q4715.0314,2008.3383 4717.1715,2011.6716 Q4719.3115,2015.0049 4723.5138,2015.0049 Q4725.4852,2015.0049 4727.3399,2014.1618 Q4729.1946,2013.3188 4731.1661,2011.503 Z " fill="#000000"/><text fill="#000000" font-family="sans-serif" font-size="37.5" font-style="italic" lengthAdjust="spacing" textLength="150" x="4765.625" y="1989.2236">&#171;model&#187;</text><text fill="#000000" font-family="sans-serif" font-size="43.75" lengthAdjust="spacing" textLength="146.875" x="4767.1875" y="2039.4312">Person</text><line style="stroke:#181818;stroke-width:1.5625;" x1="4679.6875" x2="4920.3125" y1="2064.2847" y2="2064.2847"/><text fill="#000000" font-family="sans-serif" font-size="43.75" lengthAdjust="spacing" textLength="96.875" x="4695.3125" y="2119.082">logo</text></g><g id="elem_N1"><path d="M4101.5625,1975.5937 L4101.5625,2102.5347 L4567.1875,2102.5347 L4567.1875,2006.8437 L4535.9375,1975.5937 L4101.5625,1975.5937 " fill="#FEFFDD" style="stroke:#181818;stroke-width:1.5625;"/><path d="M4535.9375,1975.5937 L4535.9375,2006.8437 L4567.1875,2006.8437 L4535.9375,1975.5937 " fill="#FEFFDD" style="stroke:#181818;stroke-width:3.125;"/><text fill="#000000" font-family="sans-serif" font-size="40.625" lengthAdjust="spacing" textLength="400" x="4120.3125" y="2030.4949">several other similar</text><text fill="#000000" font-family="sans-serif" font-size="40.625" lengthAdjust="spacing" textLength="362.5" x="4120.3125" y="2078.3403">models not shown</text></g><!--class amAsset--><g id="elem_amAsset"><rect codeLine="74" fill="#F1F1F1" height="279.5776" id="amAsset" rx="7.8125" ry="7.8125" style="stroke:#181818;stroke-width:1.5625;" width="371.875" x="2898.4375" y="3059.7812"/><ellipse cx="3015.625" cy="3109.7812" fill="#ADD1B2" rx="34.375" ry="34.375" style="stroke:#181818;stroke-width:3.125;"/><path d="M3023.3536,3128.9783 Q3021.5378,3129.9122 3019.5404,3130.3791 Q3017.543,3130.846 3015.3381,3130.846 Q3007.5043,3130.846 3003.3798,3125.684 Q2999.2554,3120.5219 2999.2554,3110.7685 Q2999.2554,3100.9891 3003.3798,3095.8271 Q3007.5043,3090.665 3015.3381,3090.665 Q3017.543,3090.665 3019.5663,3091.132 Q3021.5897,3091.5989 3023.3536,3092.5327 L3023.3536,3101.041 Q3021.3821,3099.2252 3019.5274,3098.3822 Q3017.6727,3097.5391 3015.7013,3097.5391 Q3011.499,3097.5391 3009.359,3100.8724 Q3007.2189,3104.2057 3007.2189,3110.7685 Q3007.2189,3117.3054 3009.359,3120.6386 Q3011.499,3123.9719 3015.7013,3123.9719 Q3017.6727,3123.9719 3019.5274,3123.1289 Q3021.3821,3122.2858 3023.3536,3120.47 Z " fill="#000000"/><text fill="#000000" font-family="sans-serif" font-size="43.75" lengthAdjust="spacing" textLength="115.625" x="3075" y="3126.3157">Asset</text><line style="stroke:#181818;stroke-width:1.5625;" x1="2901.5625" x2="3267.1875" y1="3159.7812" y2="3159.7812"/><text fill="#000000" font-family="sans-serif" font-size="43.75" lengthAdjust="spacing" textLength="184.375" x="2917.1875" y="3214.5786">filename</text><text fill="#000000" font-family="sans-serif" font-size="43.75" lengthAdjust="spacing" textLength="334.375" x="2917.1875" y="3266.1045">legacy_url_path</text><text fill="#000000" font-family="sans-serif" font-size="43.75" lengthAdjust="spacing" textLength="103.125" x="2917.1875" y="3317.6304">state</text></g><!--class Document--><g id="elem_Document"><rect codeLine="60" fill="#F1F1F1" height="254.9927" id="Document" rx="7.8125" ry="7.8125" style="stroke:#181818;stroke-width:1.5625;" width="325" x="1475" y="21.875"/><ellipse cx="1524.6875" cy="85.3455" fill="#ADD1B2" rx="34.375" ry="34.375" style="stroke:#181818;stroke-width:3.125;"/><path d="M1532.4161,104.5425 Q1530.6003,105.4764 1528.6029,105.9433 Q1526.6055,106.4102 1524.4006,106.4102 Q1516.5668,106.4102 1512.4423,101.2482 Q1508.3179,96.0861 1508.3179,86.3327 Q1508.3179,76.5533 1512.4423,71.3913 Q1516.5668,66.2292 1524.4006,66.2292 Q1526.6055,66.2292 1528.6288,66.6962 Q1530.6522,67.1631 1532.4161,68.0969 L1532.4161,76.6052 Q1530.4446,74.7894 1528.5899,73.9464 Q1526.7352,73.1033 1524.7638,73.1033 Q1520.5615,73.1033 1518.4215,76.4366 Q1516.2814,79.7699 1516.2814,86.3327 Q1516.2814,92.8696 1518.4215,96.2029 Q1520.5615,99.5361 1524.7638,99.5361 Q1526.7352,99.5361 1528.5899,98.6931 Q1530.4446,97.85 1532.4161,96.0342 Z " fill="#000000"/><text fill="#000000" font-family="sans-serif" font-size="37.5" font-style="italic" lengthAdjust="spacing" textLength="150" x="1603.4375" y="73.7549">&#171;model&#187;</text><text fill="#000000" font-family="sans-serif" font-size="43.75" lengthAdjust="spacing" textLength="218.75" x="1569.0625" y="123.9624">Document</text><line style="stroke:#181818;stroke-width:1.5625;" x1="1478.125" x2="1796.875" y1="148.8159" y2="148.8159"/><text fill="#000000" font-family="sans-serif" font-size="43.75" lengthAdjust="spacing" textLength="287.5" x="1493.75" y="203.6133">latest_edition</text><text fill="#000000" font-family="sans-serif" font-size="43.75" lengthAdjust="spacing" textLength="243.75" x="1493.75" y="255.1392">live_edition</text></g><!--class Asset--><g id="elem_Asset"><rect codeLine="65" fill="#F1F1F1" height="382.6294" id="Asset" rx="7.8125" ry="7.8125" style="stroke:#181818;stroke-width:1.5625;" width="421.875" x="2873.4375" y="2355.25"/><ellipse cx="3013.2813" cy="2405.25" fill="#ADD1B2" rx="34.375" ry="34.375" style="stroke:#181818;stroke-width:3.125;"/><path d="M3021.0098,2424.4471 Q3019.194,2425.3809 3017.1967,2425.8478 Q3015.1993,2426.3148 3012.9944,2426.3148 Q3005.1605,2426.3148 3001.0361,2421.1527 Q2996.9116,2415.9907 2996.9116,2406.2372 Q2996.9116,2396.4579 3001.0361,2391.2958 Q3005.1605,2386.1338 3012.9944,2386.1338 Q3015.1993,2386.1338 3017.2226,2386.6007 Q3019.2459,2387.0676 3021.0098,2388.0015 L3021.0098,2396.5098 Q3019.0384,2394.694 3017.1837,2393.8509 Q3015.329,2393.0079 3013.3575,2393.0079 Q3009.1553,2393.0079 3007.0152,2396.3412 Q3004.8752,2399.6744 3004.8752,2406.2372 Q3004.8752,2412.7741 3007.0152,2416.1074 Q3009.1553,2419.4407 3013.3575,2419.4407 Q3015.329,2419.4407 3017.1837,2418.5976 Q3019.0384,2417.7546 3021.0098,2415.9388 Z " fill="#000000"/><text fill="#000000" font-family="sans-serif" font-size="43.75" lengthAdjust="spacing" textLength="115.625" x="3077.3438" y="2421.7844">Asset</text><line style="stroke:#181818;stroke-width:1.5625;" x1="2876.5625" x2="3292.1875" y1="2455.25" y2="2455.25"/><text fill="#000000" font-family="sans-serif" font-size="43.75" lengthAdjust="spacing" textLength="384.375" x="2892.1875" y="2510.0474">asset_manager_id</text><text fill="#000000" font-family="sans-serif" font-size="43.75" lengthAdjust="spacing" textLength="196.875" x="2892.1875" y="2561.5732">owner_id</text><text fill="#000000" font-family="sans-serif" font-size="43.75" lengthAdjust="spacing" textLength="246.875" x="2892.1875" y="2613.0991">owner_type</text><text fill="#000000" font-family="sans-serif" font-size="43.75" lengthAdjust="spacing" textLength="146.875" x="2892.1875" y="2664.625">variant</text><text fill="#000000" font-family="sans-serif" font-size="43.75" lengthAdjust="spacing" textLength="103.125" x="2892.1875" y="2716.1509">state</text></g><!--reverse link Edition to othereds--><g id="link_Edition_othereds"><path codeLine="14" d="M1498.0313,784.3437 C1409.4063,877.3437 1300.875,991.2187 1243.375,1051.5625 " fill="none" id="Edition-backto-othereds" style="stroke:#0000FF;stroke-width:6.25;"/><polygon fill="none" points="1480.0938,771.2812,1539.0625,741.125,1511.7813,801.4687,1480.0938,771.2812" style="stroke:#0000FF;stroke-width:6.25;"/></g><!--reverse link Edition to Attachable--><g id="link_Edition_Attachable"><path codeLine="15" d="M1635.25,803.0625 C1634.125,883.1875 1632.875,974.5625 1632.0938,1033.125 " fill="none" id="Edition-backto-Attachable" style="stroke:#0000FF;stroke-width:6.25;"/><polygon fill="none" points="1613.4063,803.3125,1636.125,741.125,1657.1563,803.9375,1613.4063,803.3125" style="stroke:#0000FF;stroke-width:6.25;"/><path d="M1650,845.9687 L1650,924.0937 L2556.25,924.0937 L2556.25,877.2187 L2525,845.9687 L1650,845.9687 " fill="#FEFFDD" style="stroke:#181818;stroke-width:1.5625;"/><path d="M2525,845.9687 L2525,877.2187 L2556.25,877.2187 L2525,845.9687 " fill="#FEFFDD" style="stroke:#181818;stroke-width:1.5625;"/><text fill="#000000" font-family="sans-serif" font-size="40.625" lengthAdjust="spacing" textLength="840.625" x="1668.75" y="900.8699">several Edition descendants are Attachable</text></g><!--reverse link Attachment to otheratts--><g id="link_Attachment_otheratts"><path codeLine="25" d="M1122.5938,1633.625 C1117.5625,1645.2187 1113.0313,1656.9687 1109.375,1668.5937 C1080.7188,1759.3125 1069.5313,1867.9375 1065.1875,1943.4062 " fill="none" id="Attachment-backto-otheratts" style="stroke:#0000FF;stroke-width:6.25;"/><polygon fill="none" points="1104.375,1624.2812,1152.125,1578.375,1143.4063,1644.0312,1104.375,1624.2812" style="stroke:#0000FF;stroke-width:6.25;"/></g><!--reverse link Attachment to FileAttachment--><g id="link_Attachment_FileAttachment"><path codeLine="26" d="M967.0313,1601.1875 C846.5313,1652.3125 697.8125,1722.6562 575,1802.9687 C498.5,1853 421.0625,1923.7187 369.7188,1974.0937 " fill="none" id="Attachment-backto-FileAttachment" style="stroke:#0000FF;stroke-width:6.25;"/><polygon fill="none" points="957.9688,1580,1024.0625,1576.2813,974.7188,1620.4063,957.9688,1580" style="stroke:#0000FF;stroke-width:6.25;"/></g><!--link Attachment to AttachmentData--><g id="link_Attachment_AttachmentData"><path codeLine="32" d="M1267.2813,1576.1562 C1339.5625,1634.375 1450.8125,1724.3125 1546.875,1802.9687 C1588.6875,1837.1875 1633.8125,1874.4687 1675.4375,1908.9375 " fill="none" id="Attachment-to-AttachmentData" style="stroke:#181818;stroke-width:3.125;"/><polygon fill="#181818" points="1704.8125,1935.875,1698.3347,1914.2914,1675.9199,1911.9696,1682.3977,1933.5532,1704.8125,1935.875" style="stroke:#181818;stroke-width:3.125;"/><path d="M1521.875,1684.2187 L1521.875,1762.3437 L2515.625,1762.3437 L2515.625,1715.4687 L2484.375,1684.2187 L1521.875,1684.2187 " fill="#FEFFDD" style="stroke:#181818;stroke-width:1.5625;"/><path d="M2484.375,1684.2187 L2484.375,1715.4687 L2515.625,1715.4687 L2484.375,1684.2187 " fill="#FEFFDD" style="stroke:#181818;stroke-width:1.5625;"/><text fill="#000000" font-family="sans-serif" font-size="40.625" lengthAdjust="spacing" textLength="928.125" x="1540.625" y="1739.1199">links to attachments from past editions as well</text></g><!--link Image to ImageData--><g id="link_Image_ImageData"><path codeLine="41" d="M3023.7813,1576.375 C3034.0313,1654.0313 3051.9063,1789.6562 3065.5938,1893.5 " fill="none" id="Image-to-ImageData" style="stroke:#181818;stroke-width:3.125;"/><polygon fill="#181818" points="3071.1563,1932.6875,3081.0994,1912.4651,3066.2568,1895.5089,3056.3136,1915.7314,3071.1563,1932.6875" style="stroke:#181818;stroke-width:3.125;"/><path d="M3065.625,1684.2187 L3065.625,1762.3437 L3956.25,1762.3437 L3956.25,1715.4687 L3925,1684.2187 L3065.625,1684.2187 " fill="#FEFFDD" style="stroke:#181818;stroke-width:1.5625;"/><path d="M3925,1684.2187 L3925,1715.4687 L3956.25,1715.4687 L3925,1684.2187 " fill="#FEFFDD" style="stroke:#181818;stroke-width:1.5625;"/><text fill="#000000" font-family="sans-serif" font-size="40.625" lengthAdjust="spacing" textLength="825" x="3084.375" y="1739.1199">links to images from past editions as well</text></g><!--reverse link Edition to Image--><g id="link_Edition_Image"><path codeLine="54" d="M1805.7188,655.4375 C2045.625,683.0625 2471,742.7812 2596.875,830.3437 C2823.4375,987.9062 2951.1875,1311.5937 2996.5313,1446.7812 " fill="none" id="Edition-backto-Image" style="stroke:#181818;stroke-width:3.125;"/><polygon fill="#181818" points="1766.3125,650.6562,1783.5428,665.1797,1803.576,654.8608,1786.3458,640.3373,1766.3125,650.6562" style="stroke:#181818;stroke-width:3.125;"/></g><!--reverse link Document to Edition--><g id="link_Document_Edition"><path codeLine="56" d="M1637.5,321.9687 C1637.5,392.375 1637.5,471.625 1637.5,532.3437 " fill="none" id="Document-backto-Edition" style="stroke:#181818;stroke-width:3.125;"/><polygon fill="#181818" points="1637.5,281.5312,1625,300.2812,1637.5,319.0312,1650,300.2812,1637.5,281.5312" style="stroke:#181818;stroke-width:3.125;"/></g><!--reverse link Attachable to Attachment--><g id="link_Attachable_Attachment"><path codeLine="58" d="M1533.8438,1190.2812 C1449.75,1268.1875 1330.5625,1378.5937 1257.0313,1446.7187 " fill="none" id="Attachable-backto-Attachment" style="stroke:#181818;stroke-width:3.125;"/><polygon fill="#181818" points="1562.1563,1164.2812,1539.9097,1167.8734,1534.6692,1189.7903,1556.9157,1186.1981,1562.1563,1164.2812" style="stroke:#181818;stroke-width:3.125;"/></g><!--link Asset to amAsset--><g id="link_Asset_amAsset"><path codeLine="81" d="M3084.375,2739.375 C3084.375,2841.875 3084.375,2966.125 3084.375,3059.1875 " fill="none" id="Asset-amAsset" style="stroke:#181818;stroke-width:3.125;stroke-dasharray:7.0,7.0;"/><text fill="#000000" font-family="sans-serif" font-size="40.625" lengthAdjust="spacing" textLength="556.25" x="3087.5" y="2874.0574">1:1 relationship based on ID</text></g><!--link AttachmentData to Asset--><g id="link_AttachmentData_Asset"><path codeLine="83" d="M1956.2188,2141.9687 C2001.8125,2174.25 2054.6563,2208.1875 2106.25,2233.375 C2341.2188,2348.2187 2628.375,2433.3125 2830.5625,2485.0312 " fill="none" id="AttachmentData-to-Asset" style="stroke:#181818;stroke-width:3.125;"/><polygon fill="#181818" points="2869.25,2495.5313,2854.1182,2478.8327,2832.8843,2486.378,2848.016,2503.0765,2869.25,2495.5313" style="stroke:#181818;stroke-width:3.125;"/></g><!--link ImageData to Asset--><g id="link_ImageData_Asset"><path codeLine="84" d="M3084.375,2141.2188 C3084.375,2190.125 3084.375,2251.375 3084.375,2311.1875 " fill="none" id="ImageData-to-Asset" style="stroke:#181818;stroke-width:3.125;"/><polygon fill="#181818" points="3084.375,2351.1875,3096.875,2332.4375,3084.375,2313.6875,3071.875,2332.4375,3084.375,2351.1875" style="stroke:#181818;stroke-width:3.125;"/></g><!--link Person to Asset--><g id="link_Person_Asset"><path codeLine="85" d="M4728.0313,2142 C4698.75,2175.875 4662.25,2210.8125 4621.875,2233.375 C4212.7188,2462.1875 3658.5625,2523.4688 3339.4688,2539.0938 " fill="none" id="Person-to-Asset" style="stroke:#181818;stroke-width:3.125;"/><polygon fill="#181818" points="3299.1563,2541,3318.4376,2552.6636,3336.62,2539.3514,3317.3386,2527.6878,3299.1563,2541" style="stroke:#181818;stroke-width:3.125;"/></g><!--SRC=[bLJ9Rjim4BtpAwRkfGtg84PlhX4WGDeYXxRvW0B6I1fBHBW891t7IFtl7PBMOZa6MXq4QPOtCsyMLChkj7oHfXQDh0X8js4F5VdIoJP8QyPYJReWvuL_agP5XnggLiBdcniXIeNUmxqjjvfCWDLAsuhKxQqGZig0fbO4ixiGi6omKEHdy2g07onyS5W6-5h966xmF1h4nmSCbFuEwPs3FLebo_rtPxVjA5xKZq9-iA7Xb3_E03saRwfyCke3_fdFUmsyLzBGib1R-XA_hWkhgdFpeP3B3iO60dPWwTCIF3sJGzN3H8R9L6Y21tGqGZobPP2lLgKr9Jd3HHxUe3NoVgGrs9fYGLEE1yC9OPdGRrBHHPCpJW67i3279cZr2UWbS8QeHdopMIPy3Drp7hMNEPowJ3Ayu1U795SqsDvZmBFPAj4vIMw7pxJUo4Hzz4sTSx9kmf8RgFQmiGwYVbpoEt6Itdn-DOacfYCGtvvxSqBSnbaDBVe0b2V3H-9sfDIaoGyQwsvjSd59SjAbaVn_wir0iOBUzNBoCkNnxtd_IhEIyc2z30tRUGedbJpoXhwn-ihMDgNOPJFhjYWFe9TQAdI_pH6TRS0tTcVIyFrSn4n4jt1NF3wfF27wAnLbdLw8qL9VzJiUxSwkMqxlLVEIsUe0Yg-J3-iZ4HETPAuxpQ53keiK99X4nbgZuSpSMiRnvG9EFyE-ZQrwHYVvNeZk7ZAQuS8ps8-Cm9WvmYn94n6eXt2nwmPrX5DKOxbVRvrQjnYQ4Im3Pu_hwyvv2OlbWcy0bnfxtSWM2lHKnG5vkE-uwnSjRKFq4yCm3h9Zktl1Nm00]--></g></svg>