<?xml version="1.0" encoding="us-ascii" standalone="no"?><svg xmlns="http://www.w3.org/2000/svg" xmlns:xlink="http://www.w3.org/1999/xlink" contentStyleType="text/css" height="898px" preserveAspectRatio="none" style="width:2447px;height:898px;background:#FFFFFF;" version="1.1" viewBox="0 0 2447 898" width="2447px" zoomAndPan="magnify"><defs/><g><!--cluster Whitehall--><g id="cluster_Whitehall"><polygon fill="none" points="623,16,633,6,1644,6,1644,672.06,1634,682.06,623,682.06,623,16" style="stroke:#181818;stroke-width:1.0;"/><line style="stroke:#181818;stroke-width:1.0;" x1="1634" x2="1644" y1="16" y2="6"/><line style="stroke:#181818;stroke-width:1.0;" x1="623" x2="1634" y1="16" y2="16"/><line style="stroke:#181818;stroke-width:1.0;" x1="1634" x2="1634" y1="16" y2="682.06"/><text fill="#000000" font-family="sans-serif" font-size="14" font-weight="bold" lengthAdjust="spacing" textLength="68" x="1095.5" y="32.5352">Whitehall</text></g><!--cluster PublishingApi--><g id="cluster_PublishingApi"><polygon fill="none" points="1668,197.44,1678,187.44,1912,187.44,1912,409.13,1902,419.13,1668,419.13,1668,197.44" style="stroke:#181818;stroke-width:1.0;"/><line style="stroke:#181818;stroke-width:1.0;" x1="1902" x2="1912" y1="197.44" y2="187.44"/><line style="stroke:#181818;stroke-width:1.0;" x1="1668" x2="1902" y1="197.44" y2="197.44"/><line style="stroke:#181818;stroke-width:1.0;" x1="1902" x2="1902" y1="197.44" y2="419.13"/><text fill="#000000" font-family="sans-serif" font-size="14" font-weight="bold" lengthAdjust="spacing" textLength="101" x="1735.5" y="213.9752">PublishingApi</text></g><!--cluster AssetManager--><g id="cluster_AssetManager"><polygon fill="none" points="16,725.06,26,715.06,2430,715.06,2430,871.5,2420,881.5,16,881.5,16,725.06" style="stroke:#181818;stroke-width:1.0;"/><line style="stroke:#181818;stroke-width:1.0;" x1="2420" x2="2430" y1="725.06" y2="715.06"/><line style="stroke:#181818;stroke-width:1.0;" x1="16" x2="2420" y1="725.06" y2="725.06"/><line style="stroke:#181818;stroke-width:1.0;" x1="2420" x2="2420" y1="725.06" y2="881.5"/><text fill="#000000" font-family="sans-serif" font-size="14" font-weight="bold" lengthAdjust="spacing" textLength="101" x="1168.5" y="741.5952">AssetManager</text></g><g id="elem_Document_1"><rect fill="#F1F1F1" height="94.4414" style="stroke:#181818;stroke-width:0.5;" width="212" x="1343" y="46"/><text fill="#000000" font-family="sans-serif" font-size="14" lengthAdjust="spacing" textLength="83" x="1407.5" y="61.5352">Document:1</text><line style="stroke:#181818;stroke-width:0.5;" x1="1344" x2="1554" y1="66.4883" y2="66.4883"/><text fill="#000000" font-family="sans-serif" font-size="14" lengthAdjust="spacing" textLength="107" x="1349" y="84.0234">slug: new_news</text><text fill="#000000" font-family="sans-serif" font-size="14" lengthAdjust="spacing" textLength="200" x="1349" y="100.5117">content_id: ...38699bd72b83</text><text fill="#000000" font-family="sans-serif" font-size="14" lengthAdjust="spacing" textLength="129" x="1349" y="117">latest_edition_id: 1</text><text fill="#000000" font-family="sans-serif" font-size="14" lengthAdjust="spacing" textLength="102" x="1349" y="133.4883">live_edition_id:</text></g><g id="elem_NewsArticle_1"><rect fill="#F1F1F1" height="61.4648" style="stroke:#181818;stroke-width:0.5;" width="119" x="1317.5" y="219.2"/><text fill="#000000" font-family="sans-serif" font-size="14" lengthAdjust="spacing" textLength="93" x="1330.5" y="234.7352">NewsArticle:1</text><line style="stroke:#181818;stroke-width:0.5;" x1="1318.5" x2="1435.5" y1="239.6883" y2="239.6883"/><text fill="#000000" font-family="sans-serif" font-size="14" lengthAdjust="spacing" textLength="107" x="1323.5" y="257.2234">title: New News!</text><text fill="#000000" font-family="sans-serif" font-size="14" lengthAdjust="spacing" textLength="74" x="1323.5" y="273.7117">state: draft</text></g><g id="elem_FileAttachment_1"><rect fill="#F1F1F1" height="44.9766" style="stroke:#181818;stroke-width:0.5;" width="188" x="1010" y="349.91"/><text fill="#000000" font-family="sans-serif" font-size="14" lengthAdjust="spacing" textLength="116" x="1046" y="365.4452">FileAttachment:1</text><line style="stroke:#181818;stroke-width:0.5;" x1="1011" x2="1197" y1="370.3983" y2="370.3983"/><text fill="#000000" font-family="sans-serif" font-size="14" lengthAdjust="spacing" textLength="176" x="1016" y="387.9334">title: Important Document</text></g><g id="elem_Image_2"><rect fill="#F1F1F1" height="44.9766" style="stroke:#181818;stroke-width:0.5;" width="192" x="1281" y="349.91"/><text fill="#000000" font-family="sans-serif" font-size="14" lengthAdjust="spacing" textLength="55" x="1349.5" y="365.4452">Image:2</text><line style="stroke:#181818;stroke-width:0.5;" x1="1282" x2="1472" y1="370.3983" y2="370.3983"/><text fill="#000000" font-family="sans-serif" font-size="14" lengthAdjust="spacing" textLength="180" x="1287" y="387.9334">caption: Dramatic Footage</text></g><g id="elem_AttachmentData_1"><rect fill="#F1F1F1" height="61.4648" style="stroke:#181818;stroke-width:0.5;" width="298" x="854" y="482.13"/><text fill="#000000" font-family="sans-serif" font-size="14" lengthAdjust="spacing" textLength="123" x="941.5" y="497.6652">AttachmentData:1</text><line style="stroke:#181818;stroke-width:0.5;" x1="855" x2="1151" y1="502.6183" y2="502.6183"/><text fill="#000000" font-family="sans-serif" font-size="14" lengthAdjust="spacing" textLength="286" x="860" y="520.1534">carrierwave_file: important_document.pdf</text><text fill="#000000" font-family="sans-serif" font-size="14" lengthAdjust="spacing" textLength="202" x="860" y="536.6417">content_type: application/pdf</text></g><g id="elem_ImageData_2"><rect fill="#F1F1F1" height="44.9766" style="stroke:#181818;stroke-width:0.5;" width="299" x="1227.5" y="490.37"/><text fill="#000000" font-family="sans-serif" font-size="14" lengthAdjust="spacing" textLength="86" x="1334" y="505.9052">ImageData:2</text><line style="stroke:#181818;stroke-width:0.5;" x1="1228.5" x2="1525.5" y1="510.8583" y2="510.8583"/><text fill="#000000" font-family="sans-serif" font-size="14" lengthAdjust="spacing" textLength="287" x="1233.5" y="528.3934">carrierwave_image: dramatic_footage.png</text></g><g id="elem_Asset_1"><rect fill="#F1F1F1" height="61.4648" style="stroke:#181818;stroke-width:0.5;" width="219" x="639.5" y="604.59"/><text fill="#000000" font-family="sans-serif" font-size="14" lengthAdjust="spacing" textLength="50" x="724" y="620.1252">Asset:1</text><line style="stroke:#181818;stroke-width:0.5;" x1="640.5" x2="857.5" y1="625.0783" y2="625.0783"/><text fill="#000000" font-family="sans-serif" font-size="14" lengthAdjust="spacing" textLength="207" x="645.5" y="642.6134">asset_manager_id: X164e681f</text><text fill="#000000" font-family="sans-serif" font-size="14" lengthAdjust="spacing" textLength="68" x="645.5" y="659.1017">state: TBD</text></g><g id="elem_Asset_2"><rect fill="#F1F1F1" height="61.4648" style="stroke:#181818;stroke-width:0.5;" width="219" x="893.5" y="604.59"/><text fill="#000000" font-family="sans-serif" font-size="14" lengthAdjust="spacing" textLength="50" x="978" y="620.1252">Asset:2</text><line style="stroke:#181818;stroke-width:0.5;" x1="894.5" x2="1111.5" y1="625.0783" y2="625.0783"/><text fill="#000000" font-family="sans-serif" font-size="14" lengthAdjust="spacing" textLength="207" x="899.5" y="642.6134">asset_manager_id: X174e681f</text><text fill="#000000" font-family="sans-serif" font-size="14" lengthAdjust="spacing" textLength="68" x="899.5" y="659.1017">state: TBD</text></g><g id="elem_Asset_3"><rect fill="#F1F1F1" height="61.4648" style="stroke:#181818;stroke-width:0.5;" width="223" x="1147.5" y="604.59"/><text fill="#000000" font-family="sans-serif" font-size="14" lengthAdjust="spacing" textLength="50" x="1234" y="620.1252">Asset:3</text><line style="stroke:#181818;stroke-width:0.5;" x1="1148.5" x2="1369.5" y1="625.0783" y2="625.0783"/><text fill="#000000" font-family="sans-serif" font-size="14" lengthAdjust="spacing" textLength="211" x="1153.5" y="642.6134">asset_manager_id: X174e6824</text><text fill="#000000" font-family="sans-serif" font-size="14" lengthAdjust="spacing" textLength="68" x="1153.5" y="659.1017">state: TBD</text></g><g id="elem_Asset_4"><rect fill="#F1F1F1" height="61.4648" style="stroke:#181818;stroke-width:0.5;" width="223" x="1405.5" y="604.59"/><text fill="#000000" font-family="sans-serif" font-size="14" lengthAdjust="spacing" textLength="50" x="1492" y="620.1252">Asset:4</text><line style="stroke:#181818;stroke-width:0.5;" x1="1406.5" x2="1627.5" y1="625.0783" y2="625.0783"/><text fill="#000000" font-family="sans-serif" font-size="14" lengthAdjust="spacing" textLength="211" x="1411.5" y="642.6134">asset_manager_id: X174e6825</text><text fill="#000000" font-family="sans-serif" font-size="14" lengthAdjust="spacing" textLength="68" x="1411.5" y="659.1017">state: TBD</text></g><g id="elem_pubapi_Document_4"><rect fill="#F1F1F1" height="44.9766" style="stroke:#181818;stroke-width:0.5;" width="212" x="1684" y="227.44"/><text fill="#000000" font-family="sans-serif" font-size="14" lengthAdjust="spacing" textLength="83" x="1748.5" y="242.9752">Document:4</text><line style="stroke:#181818;stroke-width:0.5;" x1="1685" x2="1895" y1="247.9283" y2="247.9283"/><text fill="#000000" font-family="sans-serif" font-size="14" lengthAdjust="spacing" textLength="200" x="1690" y="265.4634">content_id: ...38699bd72b83</text></g><g id="elem_pubapi_Edition_4"><rect fill="#F1F1F1" height="61.4648" style="stroke:#181818;stroke-width:0.5;" width="119" x="1730.5" y="341.66"/><text fill="#000000" font-family="sans-serif" font-size="14" lengthAdjust="spacing" textLength="61" x="1759.5" y="357.1952">Edition:4</text><line style="stroke:#181818;stroke-width:0.5;" x1="1731.5" x2="1848.5" y1="362.1483" y2="362.1483"/><text fill="#000000" font-family="sans-serif" font-size="14" lengthAdjust="spacing" textLength="107" x="1736.5" y="379.6834">title: New News!</text><text fill="#000000" font-family="sans-serif" font-size="14" lengthAdjust="spacing" textLength="74" x="1736.5" y="396.1717">state: draft</text></g><g id="elem_am_WhitehallAsset_X164e681f"><rect fill="#F1F1F1" height="94.4414" style="stroke:#181818;stroke-width:0.5;" width="482" x="40" y="763.06"/><text fill="#000000" font-family="sans-serif" font-size="14" lengthAdjust="spacing" textLength="180" x="191" y="778.5952">WhitehallAsset:X164e681f</text><line style="stroke:#181818;stroke-width:0.5;" x1="41" x2="521" y1="783.5483" y2="783.5483"/><text fill="#000000" font-family="sans-serif" font-size="14" lengthAdjust="spacing" textLength="200" x="46" y="801.0834">file: important_document.pdf</text><text fill="#000000" font-family="sans-serif" font-size="14" lengthAdjust="spacing" textLength="470" x="46" y="817.5717">legacy_url_path: .../attachment_data/file/1/important_document.pdf</text><text fill="#000000" font-family="sans-serif" font-size="14" lengthAdjust="spacing" textLength="106" x="46" y="834.06">state: uploaded</text><text fill="#000000" font-family="sans-serif" font-size="14" lengthAdjust="spacing" textLength="69" x="46" y="850.5483">draft: true</text></g><g id="elem_am_WhitehallAsset_X174e681f"><rect fill="#F1F1F1" height="94.4414" style="stroke:#181818;stroke-width:0.5;" width="590" x="557" y="763.06"/><text fill="#000000" font-family="sans-serif" font-size="14" lengthAdjust="spacing" textLength="180" x="762" y="778.5952">WhitehallAsset:X174e681f</text><line style="stroke:#181818;stroke-width:0.5;" x1="558" x2="1146" y1="783.5483" y2="783.5483"/><text fill="#000000" font-family="sans-serif" font-size="14" lengthAdjust="spacing" textLength="308" x="563" y="801.0834">file: thumbnail_important_document.pdf.png</text><text fill="#000000" font-family="sans-serif" font-size="14" lengthAdjust="spacing" textLength="578" x="563" y="817.5717">legacy_url_path: .../attachment_data/file/1/thumbnail_important_document.pdf.png</text><text fill="#000000" font-family="sans-serif" font-size="14" lengthAdjust="spacing" textLength="106" x="563" y="834.06">state: uploaded</text><text fill="#000000" font-family="sans-serif" font-size="14" lengthAdjust="spacing" textLength="69" x="563" y="850.5483">draft: true</text></g><g id="elem_am_WhitehallAsset_X174e6824"><rect fill="#F1F1F1" height="94.4414" style="stroke:#181818;stroke-width:0.5;" width="427" x="1182.5" y="763.06"/><text fill="#000000" font-family="sans-serif" font-size="14" lengthAdjust="spacing" textLength="184" x="1304" y="778.5952">WhitehallAsset:X174e6824</text><line style="stroke:#181818;stroke-width:0.5;" x1="1183.5" x2="1608.5" y1="783.5483" y2="783.5483"/><text fill="#000000" font-family="sans-serif" font-size="14" lengthAdjust="spacing" textLength="180" x="1188.5" y="801.0834">file: dramatic_footage.png</text><text fill="#000000" font-family="sans-serif" font-size="14" lengthAdjust="spacing" textLength="415" x="1188.5" y="817.5717">legacy_url_path: .../image_data/file/2/dramatic_footage.png</text><text fill="#000000" font-family="sans-serif" font-size="14" lengthAdjust="spacing" textLength="106" x="1188.5" y="834.06">state: uploaded</text><text fill="#000000" font-family="sans-serif" font-size="14" lengthAdjust="spacing" textLength="73" x="1188.5" y="850.5483">draft: false</text></g><g id="elem_am_WhitehallAsset_X174e6825"><rect fill="#F1F1F1" height="94.4414" style="stroke:#181818;stroke-width:0.5;" width="468" x="1645" y="763.06"/><text fill="#000000" font-family="sans-serif" font-size="14" lengthAdjust="spacing" textLength="184" x="1787" y="778.5952">WhitehallAsset:X174e6825</text><line style="stroke:#181818;stroke-width:0.5;" x1="1646" x2="2112" y1="783.5483" y2="783.5483"/><text fill="#000000" font-family="sans-serif" font-size="14" lengthAdjust="spacing" textLength="221" x="1651" y="801.0834">file: s216_dramatic_footage.png</text><text fill="#000000" font-family="sans-serif" font-size="14" lengthAdjust="spacing" textLength="456" x="1651" y="817.5717">legacy_url_path: .../image_data/file/2/s216_dramatic_footage.png</text><text fill="#000000" font-family="sans-serif" font-size="14" lengthAdjust="spacing" textLength="106" x="1651" y="834.06">state: uploaded</text><text fill="#000000" font-family="sans-serif" font-size="14" lengthAdjust="spacing" textLength="73" x="1651" y="850.5483">draft: false</text></g><g id="elem_GMN33"><path d="M2147.5,797.62 L2147.5,806.28 L2113.37,810.28 L2147.5,814.28 L2147.5,822.9305 A0,0 0 0 0 2147.5,822.9305 L2406.5,822.9305 A0,0 0 0 0 2406.5,822.9305 L2406.5,807.62 L2396.5,797.62 L2147.5,797.62 A0,0 0 0 0 2147.5,797.62 " fill="#FEFFDD" style="stroke:#181818;stroke-width:0.5;"/><path d="M2396.5,797.62 L2396.5,807.62 L2406.5,807.62 L2396.5,797.62 " fill="#FEFFDD" style="stroke:#181818;stroke-width:0.5;"/><text fill="#000000" font-family="sans-serif" font-size="13" lengthAdjust="spacing" textLength="238" x="2153.5" y="815.1884">also 5 other scaled images not shown</text></g><!--reverse link Document_1 to NewsArticle_1--><g id="link_Document_1_NewsArticle_1"><path codeLine="13" d="M1421.54,153.23 C1411.06,175.74 1399.56,200.46 1390.87,219.14 " fill="none" id="Document_1-backto-NewsArticle_1" style="stroke:#181818;stroke-width:1.0;"/><polygon fill="#181818" points="1427.4,141.64,1421.2417,145.3917,1422.3362,152.5192,1428.4945,148.7676,1427.4,141.64" style="stroke:#181818;stroke-width:1.0;"/></g><!--reverse link NewsArticle_1 to FileAttachment_1--><g id="link_NewsArticle_1_FileAttachment_1"><path codeLine="17" d="M1304.36,282.98 C1256.78,303.98 1195.84,330.87 1153.73,349.45 " fill="none" id="NewsArticle_1-backto-FileAttachment_1" style="stroke:#181818;stroke-width:1.0;"/><polygon fill="#181818" points="1316.09,277.37,1308.9866,276.1286,1305.1086,282.2082,1312.212,283.4496,1316.09,277.37" style="stroke:#181818;stroke-width:1.0;"/></g><!--reverse link NewsArticle_1 to Image_2--><g id="link_NewsArticle_1_Image_2"><path codeLine="21" d="M1377,295 C1377,313.6 1377,334.43 1377,349.63 " fill="none" id="NewsArticle_1-backto-Image_2" style="stroke:#181818;stroke-width:1.0;"/><polygon fill="#181818" points="1377,282.02,1373,288.02,1377,294.02,1381,288.02,1377,282.02" style="stroke:#181818;stroke-width:1.0;"/></g><!--link FileAttachment_1 to AttachmentData_1--><g id="link_FileAttachment_1_AttachmentData_1"><path codeLine="27" d="M1088,395.34 C1073.3,415.48 1051.15,445.86 1033.14,470.55 " fill="none" id="FileAttachment_1-to-AttachmentData_1" style="stroke:#181818;stroke-width:1.0;"/><polygon fill="#181818" points="1024.94,480.78,1031.7056,478.2846,1032.0043,471.0797,1025.2387,473.5751,1024.94,480.78" style="stroke:#181818;stroke-width:1.0;"/><text fill="#000000" font-family="sans-serif" font-size="13" lengthAdjust="spacing" textLength="178" x="1057" y="448.6984">also linked to other editions</text></g><!--link Image_2 to ImageData_2--><g id="link_Image_2_ImageData_2"><path codeLine="31" d="M1377,395.34 C1377,417.01 1377,450.53 1377,476.06 " fill="none" id="Image_2-to-ImageData_2" style="stroke:#181818;stroke-width:1.0;"/><polygon fill="#181818" points="1377,489.02,1381,483.02,1377,477.02,1373,483.02,1377,489.02" style="stroke:#181818;stroke-width:1.0;"/><text fill="#000000" font-family="sans-serif" font-size="13" lengthAdjust="spacing" textLength="178" x="1378" y="448.6984">also linked to other editions</text></g><!--reverse link AttachmentData_1 to Asset_1--><g id="link_AttachmentData_1_Asset_1"><path codeLine="51" d="M926.96,549.93 C890.46,567.24 847.22,587.74 812.51,604.2 " fill="none" id="AttachmentData_1-backto-Asset_1" style="stroke:#181818;stroke-width:1.0;"/><polygon fill="#181818" points="938.56,543.95,931.4246,542.908,927.7184,549.0938,934.8538,550.1358,938.56,543.95" style="stroke:#181818;stroke-width:1.0;"/></g><!--reverse link AttachmentData_1 to Asset_2--><g id="link_AttachmentData_1_Asset_2"><path codeLine="52" d="M1003,557.59 C1003,573.06 1003,590.11 1003,604.2 " fill="none" id="AttachmentData_1-backto-Asset_2" style="stroke:#181818;stroke-width:1.0;"/><polygon fill="#181818" points="1003,544.95,999,550.95,1003,556.95,1007,550.95,1003,544.95" style="stroke:#181818;stroke-width:1.0;"/></g><!--reverse link ImageData_2 to Asset_3--><g id="link_ImageData_2_Asset_3"><path codeLine="53" d="M1345.95,545.55 C1328.08,563.8 1305.75,586.6 1288.2,604.52 " fill="none" id="ImageData_2-backto-Asset_3" style="stroke:#181818;stroke-width:1.0;"/><polygon fill="#181818" points="1354.63,536.68,1347.5736,538.1656,1346.2309,545.2506,1353.2873,543.765,1354.63,536.68" style="stroke:#181818;stroke-width:1.0;"/></g><!--reverse link ImageData_2 to Asset_4--><g id="link_ImageData_2_Asset_4"><path codeLine="54" d="M1412.91,544.76 C1434.18,563.06 1461,586.14 1482.09,604.29 " fill="none" id="ImageData_2-backto-Asset_4" style="stroke:#181818;stroke-width:1.0;"/><polygon fill="#181818" points="1403.35,535.68,1405.2883,542.6257,1412.4452,543.508,1410.5069,536.5622,1403.35,535.68" style="stroke:#181818;stroke-width:1.0;"/></g><!--reverse link pubapi_Document_4 to pubapi_Edition_4--><g id="link_pubapi_Document_4_pubapi_Edition_4"><path codeLine="65" d="M1790,286.51 C1790,304.03 1790,324.92 1790,341.59 " fill="none" id="pubapi_Document_4-backto-pubapi_Edition_4" style="stroke:#181818;stroke-width:1.0;"/><polygon fill="#181818" points="1790,273.75,1786,279.75,1790,285.75,1794,279.75,1790,273.75" style="stroke:#181818;stroke-width:1.0;"/></g><!--link Document_1 to pubapi_Document_4--><g id="link_Document_1_pubapi_Document_4"><path codeLine="100" d="M1551.77,140.85 C1614.72,169.41 1692.38,204.64 1741.56,226.95 " fill="none" id="Document_1-pubapi_Document_4" style="stroke:#181818;stroke-width:1.0;stroke-dasharray:7.0,7.0;"/></g><!--link Asset_1 to am_WhitehallAsset_X164e681f--><g id="link_Asset_1_am_WhitehallAsset_X164e681f"><path codeLine="101" d="M656.58,666.51 C620.11,678.7 577.95,693.16 540,707.06 C492.45,724.48 440.45,744.75 395.6,762.64 " fill="none" id="Asset_1-am_WhitehallAsset_X164e681f" style="stroke:#181818;stroke-width:1.0;stroke-dasharray:7.0,7.0;"/></g><!--link Asset_2 to am_WhitehallAsset_X174e681f--><g id="link_Asset_2_am_WhitehallAsset_X174e681f"><path codeLine="102" d="M976.7,666.45 C953.55,692.97 919.46,732.01 892.78,762.58 " fill="none" id="Asset_2-am_WhitehallAsset_X174e681f" style="stroke:#181818;stroke-width:1.0;stroke-dasharray:7.0,7.0;"/></g><!--link Asset_3 to am_WhitehallAsset_X174e6824--><g id="link_Asset_3_am_WhitehallAsset_X174e6824"><path codeLine="103" d="M1282.86,666.45 C1303.87,692.97 1334.79,732.01 1359,762.58 " fill="none" id="Asset_3-am_WhitehallAsset_X174e6824" style="stroke:#181818;stroke-width:1.0;stroke-dasharray:7.0,7.0;"/></g><!--link Asset_4 to am_WhitehallAsset_X174e6825--><g id="link_Asset_4_am_WhitehallAsset_X174e6825"><path codeLine="104" d="M1580.06,666.45 C1635.56,692.97 1717.27,732.01 1781.25,762.58 " fill="none" id="Asset_4-am_WhitehallAsset_X174e6825" style="stroke:#181818;stroke-width:1.0;stroke-dasharray:7.0,7.0;"/></g><!--SRC=[fLPDZvim4BtpAzmzhXGY2FbORgdIbVRGgeTAxGqvu81ROoCO6gsg_U-rZI4cV6tLGoIOiT-yzyOUmaL2qFUC0iamO-YF8yu_IGpeuIJYEYSSGky1uGgrhv4dro1KiJeD4IVNIFug6OW51vMcIOXSrzqSTazFvsJldmyRcMKOI0KHIIXGmVKYJuNfRs87dJS7H4eW8wN5v8kiS2o1nemOCbR4y04ACgiIElb1KGHPD4H9YIyWWIq1ZwjL7w8hzKmPEGBWEBEazuFzWYzv8Kh073g3PAa-FLNj7g8h-9BZb8I-hgEV8r_3nxXGfeJeLE8SIoZqB0J8_2YysIbpBUwjs0a3DaBwGICancL9INd5iXKNgZJHLbEK64rkaLoi7iDh8PVXec0qnehcMkNVd07-uweUQfSxMILax_alaY0GIEX-csDGzQtHx2rxDB0_84wrZQhNsgpeqfZb5ZoLlEoTcfBnQud9pSsg8krfqC_6EwoVSymbNAbFzGzl5v3TmRlS3k2tZoUxCHhAjw3yIQZzEDGTriR2sinZ-S4yhS222XQWjWDQ8-rVjNRD9Vsx1hNnpKGyG8uinzNW-bgV6QqoojDZGSU6LwEegC-ue54t0XfjyqFhvisdvZpqiKpGG2sFdo459UWUhDMbXNvkN9S5HePYDxARpdNdJdF4UTJFHrrUqrsuvuoaE7wDwf951OPCUxF6jokSo8wi5SRQMq-26FrrmGHEI28ZseeGGLaJozs1aFs2aFr026HrVkQOicYSZHu3_oRhdP1B8j_UrJfpD-SL-u6bU7JGJIZKiz4IvwydTa-AkSWnkTmoVxiWO6i9g7nl5_sVYZc8HIbS044bJJDmce_0rWp_AiPCVWnqkGh9PQZAn9KxX2VghMcgzL_2TOVJnMc_4J8vSnMTTlvFBDltbcrcb_bjqM1-sVOl]--></g></svg>