<?xml version="1.0" encoding="us-ascii" standalone="no"?><svg xmlns="http://www.w3.org/2000/svg" xmlns:xlink="http://www.w3.org/1999/xlink" contentStyleType="text/css" height="587px" preserveAspectRatio="none" style="width:942px;height:587px;background:#FFFFFF;" version="1.1" viewBox="0 0 942 587" width="942px" zoomAndPan="magnify"><defs/><g><!--cluster Whitehall--><g id="cluster_Whitehall"><polygon fill="none" points="328,16,338,6,633,6,633,419,623,429,328,429,328,16" style="stroke:#181818;stroke-width:1.0;"/><line style="stroke:#181818;stroke-width:1.0;" x1="623" x2="633" y1="16" y2="6"/><line style="stroke:#181818;stroke-width:1.0;" x1="328" x2="623" y1="16" y2="16"/><line style="stroke:#181818;stroke-width:1.0;" x1="623" x2="623" y1="16" y2="429"/><text fill="#000000" font-family="sans-serif" font-size="14" font-weight="bold" lengthAdjust="spacing" textLength="68" x="442.5" y="32.5352">Whitehall</text></g><!--cluster PublishingApi--><g id="cluster_PublishingApi"><polygon fill="none" points="657,141.5,667,131.5,834,131.5,834,323,824,333,657,333,657,141.5" style="stroke:#181818;stroke-width:1.0;"/><line style="stroke:#181818;stroke-width:1.0;" x1="824" x2="834" y1="141.5" y2="131.5"/><line style="stroke:#181818;stroke-width:1.0;" x1="657" x2="824" y1="141.5" y2="141.5"/><line style="stroke:#181818;stroke-width:1.0;" x1="824" x2="824" y1="141.5" y2="333"/><text fill="#000000" font-family="sans-serif" font-size="14" font-weight="bold" lengthAdjust="spacing" textLength="101" x="691" y="158.0352">PublishingApi</text></g><!--cluster AssetManager--><g id="cluster_AssetManager"><polygon fill="none" points="16,463,26,453,925,453,925,560,915,570,16,570,16,463" style="stroke:#181818;stroke-width:1.0;"/><line style="stroke:#181818;stroke-width:1.0;" x1="915" x2="925" y1="463" y2="453"/><line style="stroke:#181818;stroke-width:1.0;" x1="16" x2="915" y1="463" y2="463"/><line style="stroke:#181818;stroke-width:1.0;" x1="915" x2="915" y1="463" y2="570"/><text fill="#000000" font-family="sans-serif" font-size="14" font-weight="bold" lengthAdjust="spacing" textLength="101" x="416" y="479.5352">AssetManager</text></g><g id="elem_Document_7"><rect fill="#F1F1F1" height="61.4648" style="stroke:#181818;stroke-width:0.5;" width="141" x="475.5" y="46"/><text fill="#000000" font-family="sans-serif" font-size="14" lengthAdjust="spacing" textLength="83" x="504.5" y="61.5352">Document:7</text><line style="stroke:#181818;stroke-width:0.5;" x1="476.5" x2="615.5" y1="66.4883" y2="66.4883"/><text fill="#000000" font-family="sans-serif" font-size="14" lengthAdjust="spacing" textLength="129" x="481.5" y="84.0234">latest_edition_id: 7</text><text fill="#000000" font-family="sans-serif" font-size="14" lengthAdjust="spacing" textLength="102" x="481.5" y="100.5117">live_edition_id:</text></g><g id="elem_NewsArticle_7"><rect fill="#F1F1F1" height="44.9766" style="stroke:#181818;stroke-width:0.5;" width="107" x="492.5" y="167"/><text fill="#000000" font-family="sans-serif" font-size="14" lengthAdjust="spacing" textLength="93" x="499.5" y="182.5352">NewsArticle:7</text><line style="stroke:#181818;stroke-width:0.5;" x1="493.5" x2="598.5" y1="187.4883" y2="187.4883"/><text fill="#000000" font-family="sans-serif" font-size="14" lengthAdjust="spacing" textLength="74" x="498.5" y="205.0234">state: draft</text></g><g id="elem_FileAttachment_8"><rect fill="#F1F1F1" height="44.9766" style="stroke:#181818;stroke-width:0.5;" width="130" x="482" y="272"/><text fill="#000000" font-family="sans-serif" font-size="14" lengthAdjust="spacing" textLength="116" x="489" y="287.5352">FileAttachment:8</text><line style="stroke:#181818;stroke-width:0.5;" x1="483" x2="611" y1="292.4883" y2="292.4883"/><text fill="#000000" font-family="sans-serif" font-size="14" lengthAdjust="spacing" textLength="91" x="488" y="310.0234">deleted: false</text></g><g id="elem_Image_4"><rect fill="#F1F1F1" height="36.4883" style="stroke:#181818;stroke-width:0.5;" width="69" x="368.5" y="276.5"/><text fill="#000000" font-family="sans-serif" font-size="14" lengthAdjust="spacing" textLength="55" x="375.5" y="292.0352">Image:4</text><line style="stroke:#181818;stroke-width:0.5;" x1="369.5" x2="436.5" y1="296.9883" y2="296.9883"/></g><g id="elem_AttachmentData_8"><rect fill="#F1F1F1" height="36.4883" style="stroke:#181818;stroke-width:0.5;" width="137" x="479.5" y="377"/><text fill="#000000" font-family="sans-serif" font-size="14" lengthAdjust="spacing" textLength="123" x="486.5" y="392.5352">AttachmentData:8</text><line style="stroke:#181818;stroke-width:0.5;" x1="480.5" x2="615.5" y1="397.4883" y2="397.4883"/></g><g id="elem_ImageData_4"><rect fill="#F1F1F1" height="36.4883" style="stroke:#181818;stroke-width:0.5;" width="100" x="344" y="377"/><text fill="#000000" font-family="sans-serif" font-size="14" lengthAdjust="spacing" textLength="86" x="351" y="392.5352">ImageData:4</text><line style="stroke:#181818;stroke-width:0.5;" x1="345" x2="443" y1="397.4883" y2="397.4883"/></g><g id="elem_pubapi_Document_10"><rect fill="#F1F1F1" height="36.4883" style="stroke:#181818;stroke-width:0.5;" width="106" x="673" y="171.5"/><text fill="#000000" font-family="sans-serif" font-size="14" lengthAdjust="spacing" textLength="92" x="680" y="187.0352">Document:10</text><line style="stroke:#181818;stroke-width:0.5;" x1="674" x2="778" y1="191.9883" y2="191.9883"/></g><g id="elem_pubapi_Edition_10"><rect fill="#F1F1F1" height="44.9766" style="stroke:#181818;stroke-width:0.5;" width="86" x="683" y="272"/><text fill="#000000" font-family="sans-serif" font-size="14" lengthAdjust="spacing" textLength="70" x="691" y="287.5352">Edition:10</text><line style="stroke:#181818;stroke-width:0.5;" x1="684" x2="768" y1="292.4883" y2="292.4883"/><text fill="#000000" font-family="sans-serif" font-size="14" lengthAdjust="spacing" textLength="74" x="689" y="310.0234">state: draft</text></g><g id="elem_am_WhitehallAsset_X16c302fa"><rect fill="#F1F1F1" height="61.4648" style="stroke:#181818;stroke-width:0.5;" width="192" x="717" y="493"/><text fill="#000000" font-family="sans-serif" font-size="14" lengthAdjust="spacing" textLength="178" x="724" y="508.5352">WhitehallAsset:X16c302fa</text><line style="stroke:#181818;stroke-width:0.5;" x1="718" x2="908" y1="513.4883" y2="513.4883"/><text fill="#000000" font-family="sans-serif" font-size="14" lengthAdjust="spacing" textLength="106" x="723" y="531.0234">state: uploaded</text><text fill="#000000" font-family="sans-serif" font-size="14" lengthAdjust="spacing" textLength="69" x="723" y="547.5117">draft: true</text></g><g id="elem_am_WhitehallAsset_X17c302f9"><rect fill="#F1F1F1" height="61.4648" style="stroke:#181818;stroke-width:0.5;" width="193" x="488.5" y="493"/><text fill="#000000" font-family="sans-serif" font-size="14" lengthAdjust="spacing" textLength="179" x="495.5" y="508.5352">WhitehallAsset:X17c302f9</text><line style="stroke:#181818;stroke-width:0.5;" x1="489.5" x2="680.5" y1="513.4883" y2="513.4883"/><text fill="#000000" font-family="sans-serif" font-size="14" lengthAdjust="spacing" textLength="106" x="494.5" y="531.0234">state: uploaded</text><text fill="#000000" font-family="sans-serif" font-size="14" lengthAdjust="spacing" textLength="69" x="494.5" y="547.5117">draft: true</text></g><g id="elem_am_WhitehallAsset_X17c302fa"><rect fill="#F1F1F1" height="61.4648" style="stroke:#181818;stroke-width:0.5;" width="192" x="261" y="493"/><text fill="#000000" font-family="sans-serif" font-size="14" lengthAdjust="spacing" textLength="178" x="268" y="508.5352">WhitehallAsset:X17c302fa</text><line style="stroke:#181818;stroke-width:0.5;" x1="262" x2="452" y1="513.4883" y2="513.4883"/><text fill="#000000" font-family="sans-serif" font-size="14" lengthAdjust="spacing" textLength="106" x="267" y="531.0234">state: uploaded</text><text fill="#000000" font-family="sans-serif" font-size="14" lengthAdjust="spacing" textLength="73" x="267" y="547.5117">draft: false</text></g><g id="elem_am_WhitehallAsset_X16c302fb"><rect fill="#F1F1F1" height="61.4648" style="stroke:#181818;stroke-width:0.5;" width="193" x="32.5" y="493"/><text fill="#000000" font-family="sans-serif" font-size="14" lengthAdjust="spacing" textLength="179" x="39.5" y="508.5352">WhitehallAsset:X16c302fb</text><line style="stroke:#181818;stroke-width:0.5;" x1="33.5" x2="224.5" y1="513.4883" y2="513.4883"/><text fill="#000000" font-family="sans-serif" font-size="14" lengthAdjust="spacing" textLength="106" x="38.5" y="531.0234">state: uploaded</text><text fill="#000000" font-family="sans-serif" font-size="14" lengthAdjust="spacing" textLength="73" x="38.5" y="547.5117">draft: false</text></g><!--reverse link Document_7 to NewsArticle_7--><g id="link_Document_7_NewsArticle_7"><path codeLine="10" d="M546,121.59 C546,137.12 546,153.9 546,166.77 " fill="none" id="Document_7-backto-NewsArticle_7" style="stroke:#181818;stroke-width:1.0;"/><polygon fill="#181818" points="546,108.76,542,114.76,546,120.76,550,114.76,546,108.76" style="stroke:#181818;stroke-width:1.0;"/></g><!--reverse link NewsArticle_7 to FileAttachment_8--><g id="link_NewsArticle_7_FileAttachment_8"><path codeLine="14" d="M546.35,226.53 C546.5,241.59 546.66,258.58 546.79,271.69 " fill="none" id="NewsArticle_7-backto-FileAttachment_8" style="stroke:#181818;stroke-width:1.0;"/><polygon fill="#181818" points="546.23,213.86,542.2895,219.8993,546.3487,225.8594,550.2891,219.8201,546.23,213.86" style="stroke:#181818;stroke-width:1.0;"/></g><!--reverse link NewsArticle_7 to Image_4--><g id="link_NewsArticle_7_Image_4"><path codeLine="17" d="M503.93,220.8 C478.92,238.82 448.09,261.03 427.13,276.12 " fill="none" id="NewsArticle_7-backto-Image_4" style="stroke:#181818;stroke-width:1.0;"/><polygon fill="#181818" points="514.45,213.23,507.2436,213.4892,504.7111,220.241,511.9175,219.9818,514.45,213.23" style="stroke:#181818;stroke-width:1.0;"/></g><!--link FileAttachment_8 to AttachmentData_8--><g id="link_FileAttachment_8_AttachmentData_8"><path codeLine="21" d="M547.22,317.36 C547.36,330.65 547.53,347.85 547.68,362.58 " fill="none" id="FileAttachment_8-to-AttachmentData_8" style="stroke:#181818;stroke-width:1.0;"/><polygon fill="#181818" points="547.81,375.27,551.7505,369.2307,547.6913,363.2706,543.7509,369.3099,547.81,375.27" style="stroke:#181818;stroke-width:1.0;"/></g><!--link Image_4 to ImageData_4--><g id="link_Image_4_ImageData_4"><path codeLine="24" d="M401.43,312.66 C400.18,326.34 398.4,345.89 396.89,362.39 " fill="none" id="Image_4-to-ImageData_4" style="stroke:#181818;stroke-width:1.0;"/><polygon fill="#181818" points="395.72,375.2,400.2507,369.5899,396.8148,363.25,392.2841,368.8601,395.72,375.2" style="stroke:#181818;stroke-width:1.0;"/></g><!--reverse link pubapi_Document_10 to pubapi_Edition_10--><g id="link_pubapi_Document_10_pubapi_Edition_10"><path codeLine="34" d="M726,222.16 C726,238.19 726,257.25 726,271.63 " fill="none" id="pubapi_Document_10-backto-pubapi_Edition_10" style="stroke:#181818;stroke-width:1.0;"/><polygon fill="#181818" points="726,209.49,722,215.49,726,221.49,730,215.49,726,209.49" style="stroke:#181818;stroke-width:1.0;"/></g><!--link Document_7 to pubapi_Document_10--><g id="link_Document_7_pubapi_Document_10"><path codeLine="58" d="M594.24,107.25 C627.35,127.67 670.16,154.07 697.85,171.14 " fill="none" id="Document_7-pubapi_Document_10" style="stroke:#181818;stroke-width:1.0;stroke-dasharray:7.0,7.0;"/></g><!--link ImageData_4 to am_WhitehallAsset_X17c302fa--><g id="link_ImageData_4_am_WhitehallAsset_X17c302fa"><path codeLine="59" d="M388.93,413.32 C382.96,433.76 372.92,468.07 365.69,492.78 " fill="none" id="ImageData_4-am_WhitehallAsset_X17c302fa" style="stroke:#181818;stroke-width:1.0;stroke-dasharray:7.0,7.0;"/></g><!--link ImageData_4 to am_WhitehallAsset_X16c302fb--><g id="link_ImageData_4_am_WhitehallAsset_X16c302fb"><path codeLine="60" d="M343.67,408.66 C313.89,417.07 275.88,429.43 244,445 C217.07,458.16 189.13,476.85 167.54,492.57 " fill="none" id="ImageData_4-am_WhitehallAsset_X16c302fb" style="stroke:#181818;stroke-width:1.0;stroke-dasharray:7.0,7.0;"/></g><!--link AttachmentData_8 to am_WhitehallAsset_X16c302fa--><g id="link_AttachmentData_8_am_WhitehallAsset_X16c302fa"><path codeLine="61" d="M615.37,413.41 C642.08,421.44 672.64,432.09 699,445 C725.76,458.11 753.45,476.79 774.84,492.53 " fill="none" id="AttachmentData_8-am_WhitehallAsset_X16c302fa" style="stroke:#181818;stroke-width:1.0;stroke-dasharray:7.0,7.0;"/></g><!--link AttachmentData_8 to am_WhitehallAsset_X17c302f9--><g id="link_AttachmentData_8_am_WhitehallAsset_X17c302f9"><path codeLine="62" d="M553.07,413.32 C559.04,433.76 569.08,468.07 576.31,492.78 " fill="none" id="AttachmentData_8-am_WhitehallAsset_X17c302f9" style="stroke:#181818;stroke-width:1.0;stroke-dasharray:7.0,7.0;"/></g><!--SRC=[ZLEnReCm4Dtv2YjZf4H96vMK3IcjrA5LjtQp3hW4LmuWVBH3bN-lSGmnWGOsVFVytZlV8yiJP1-f84n1IlRhvT4NniHckpokZfXHuCyOADOSkQynZ4aWLCGn4IJoZ8iaO7vT5j_e5hsJH_a1ASNIeNx37nMM96A9bjsfM055MY5WIGbxqYoE_7onwE9RtcSXCII2E3N6juQwM-HRmvwWH49jUWzIeURl6gWbhk-rAYz7E62mCUJccsyqvn25xUfUS_T2k0C2wx1RD0vFNgyuNrHZfWodOypSF9jppuRfuitpiZe3xrKaXKf5TWWBCPI3zSem5rK4XU3jGjOh8z30dyxBlqBRwXdSM-u0PVrylRkrMUCrL0hf5J8zWfkhDiQc7tok7-BxrTqUZ1CuycwVjttNKrN8719Cwf3KzW96PONEW3qHtv0y_YjY-vD4nbHWH6Lab2Rj8myMZJnOD4sbZfRptowN0zdf15CZRems1MhzzV-UctYOZBUx_0C0]--></g></svg>