<?xml version="1.0" encoding="us-ascii" standalone="no"?><svg xmlns="http://www.w3.org/2000/svg" xmlns:xlink="http://www.w3.org/1999/xlink" contentStyleType="text/css" height="620px" preserveAspectRatio="none" style="width:958px;height:620px;background:#FFFFFF;" version="1.1" viewBox="0 0 958 620" width="958px" zoomAndPan="magnify"><defs/><g><!--cluster Whitehall--><g id="cluster_Whitehall"><polygon fill="none" points="336,16,346,6,641,6,641,419,631,429,336,429,336,16" style="stroke:#181818;stroke-width:1.0;"/><line style="stroke:#181818;stroke-width:1.0;" x1="631" x2="641" y1="16" y2="6"/><line style="stroke:#181818;stroke-width:1.0;" x1="336" x2="631" y1="16" y2="16"/><line style="stroke:#181818;stroke-width:1.0;" x1="631" x2="631" y1="16" y2="429"/><text fill="#000000" font-family="sans-serif" font-size="14" font-weight="bold" lengthAdjust="spacing" textLength="68" x="450.5" y="32.5352">Whitehall</text></g><!--cluster PublishingApi--><g id="cluster_PublishingApi"><polygon fill="none" points="665,141.5,675,131.5,842,131.5,842,213.5,832,223.5,665,223.5,665,141.5" style="stroke:#181818;stroke-width:1.0;"/><line style="stroke:#181818;stroke-width:1.0;" x1="832" x2="842" y1="141.5" y2="131.5"/><line style="stroke:#181818;stroke-width:1.0;" x1="665" x2="832" y1="141.5" y2="141.5"/><line style="stroke:#181818;stroke-width:1.0;" x1="832" x2="832" y1="141.5" y2="223.5"/><text fill="#000000" font-family="sans-serif" font-size="14" font-weight="bold" lengthAdjust="spacing" textLength="101" x="699" y="158.0352">PublishingApi</text></g><!--cluster AssetManager--><g id="cluster_AssetManager"><polygon fill="none" points="16,463,26,453,941,453,941,593,931,603,16,603,16,463" style="stroke:#181818;stroke-width:1.0;"/><line style="stroke:#181818;stroke-width:1.0;" x1="931" x2="941" y1="463" y2="453"/><line style="stroke:#181818;stroke-width:1.0;" x1="16" x2="931" y1="463" y2="463"/><line style="stroke:#181818;stroke-width:1.0;" x1="931" x2="931" y1="463" y2="603"/><text fill="#000000" font-family="sans-serif" font-size="14" font-weight="bold" lengthAdjust="spacing" textLength="101" x="424" y="479.5352">AssetManager</text></g><g id="elem_Document_7"><rect fill="#F1F1F1" height="61.4648" style="stroke:#181818;stroke-width:0.5;" width="128" x="494" y="46"/><text fill="#000000" font-family="sans-serif" font-size="14" lengthAdjust="spacing" textLength="83" x="516.5" y="61.5352">Document:7</text><line style="stroke:#181818;stroke-width:0.5;" x1="495" x2="621" y1="66.4883" y2="66.4883"/><text fill="#000000" font-family="sans-serif" font-size="14" lengthAdjust="spacing" textLength="116" x="500" y="84.0234">latest_edition_id:</text><text fill="#000000" font-family="sans-serif" font-size="14" lengthAdjust="spacing" textLength="102" x="500" y="100.5117">live_edition_id:</text></g><g id="elem_NewsArticle_7"><rect fill="#F1F1F1" height="44.9766" style="stroke:#181818;stroke-width:0.5;" width="107" x="502.5" y="167"/><text fill="#000000" font-family="sans-serif" font-size="14" lengthAdjust="spacing" textLength="93" x="509.5" y="182.5352">NewsArticle:7</text><line style="stroke:#181818;stroke-width:0.5;" x1="503.5" x2="608.5" y1="187.4883" y2="187.4883"/><text fill="#000000" font-family="sans-serif" font-size="14" lengthAdjust="spacing" textLength="92" x="508.5" y="205.0234">state: deleted</text></g><g id="elem_FileAttachment_8"><rect fill="#F1F1F1" height="44.9766" style="stroke:#181818;stroke-width:0.5;" width="130" x="491" y="272"/><text fill="#000000" font-family="sans-serif" font-size="14" lengthAdjust="spacing" textLength="116" x="498" y="287.5352">FileAttachment:8</text><line style="stroke:#181818;stroke-width:0.5;" x1="492" x2="620" y1="292.4883" y2="292.4883"/><text fill="#000000" font-family="sans-serif" font-size="14" lengthAdjust="spacing" textLength="87" x="497" y="310.0234">deleted: true</text></g><g id="elem_Image_4"><rect fill="#F1F1F1" height="36.4883" style="stroke:#181818;stroke-width:0.5;" width="69" x="376.5" y="276.5"/><text fill="#000000" font-family="sans-serif" font-size="14" lengthAdjust="spacing" textLength="55" x="383.5" y="292.0352">Image:4</text><line style="stroke:#181818;stroke-width:0.5;" x1="377.5" x2="444.5" y1="296.9883" y2="296.9883"/></g><g id="elem_AttachmentData_8"><rect fill="#F1F1F1" height="36.4883" style="stroke:#181818;stroke-width:0.5;" width="137" x="487.5" y="377"/><text fill="#000000" font-family="sans-serif" font-size="14" lengthAdjust="spacing" textLength="123" x="494.5" y="392.5352">AttachmentData:8</text><line style="stroke:#181818;stroke-width:0.5;" x1="488.5" x2="623.5" y1="397.4883" y2="397.4883"/></g><g id="elem_ImageData_4"><rect fill="#F1F1F1" height="36.4883" style="stroke:#181818;stroke-width:0.5;" width="100" x="352" y="377"/><text fill="#000000" font-family="sans-serif" font-size="14" lengthAdjust="spacing" textLength="86" x="359" y="392.5352">ImageData:4</text><line style="stroke:#181818;stroke-width:0.5;" x1="353" x2="451" y1="397.4883" y2="397.4883"/></g><g id="elem_pubapi_Document_10"><rect fill="#F1F1F1" height="36.4883" style="stroke:#181818;stroke-width:0.5;" width="106" x="681" y="171.5"/><text fill="#000000" font-family="sans-serif" font-size="14" lengthAdjust="spacing" textLength="92" x="688" y="187.0352">Document:10</text><line style="stroke:#181818;stroke-width:0.5;" x1="682" x2="786" y1="191.9883" y2="191.9883"/></g><g id="elem_am_WhitehallAsset_X16c302fa"><rect fill="#F1F1F1" height="77.9531" style="stroke:#181818;stroke-width:0.5;" width="192" x="725" y="501"/><text fill="#000000" font-family="sans-serif" font-size="14" lengthAdjust="spacing" textLength="178" x="732" y="516.5352">WhitehallAsset:X16c302fa</text><line style="stroke:#181818;stroke-width:0.5;" x1="726" x2="916" y1="521.4883" y2="521.4883"/><text fill="#000000" font-family="sans-serif" font-size="14" lengthAdjust="spacing" textLength="106" x="731" y="539.0234">state: uploaded</text><text fill="#000000" font-family="sans-serif" font-size="14" lengthAdjust="spacing" textLength="69" x="731" y="555.5117">draft: true</text><text fill="#000000" font-family="sans-serif" font-size="14" lengthAdjust="spacing" textLength="172" x="731" y="572">deleted_at: 25 May 09:55</text></g><g id="elem_am_WhitehallAsset_X17c302f9"><rect fill="#F1F1F1" height="77.9531" style="stroke:#181818;stroke-width:0.5;" width="193" x="496.5" y="501"/><text fill="#000000" font-family="sans-serif" font-size="14" lengthAdjust="spacing" textLength="179" x="503.5" y="516.5352">WhitehallAsset:X17c302f9</text><line style="stroke:#181818;stroke-width:0.5;" x1="497.5" x2="688.5" y1="521.4883" y2="521.4883"/><text fill="#000000" font-family="sans-serif" font-size="14" lengthAdjust="spacing" textLength="106" x="502.5" y="539.0234">state: uploaded</text><text fill="#000000" font-family="sans-serif" font-size="14" lengthAdjust="spacing" textLength="69" x="502.5" y="555.5117">draft: true</text><text fill="#000000" font-family="sans-serif" font-size="14" lengthAdjust="spacing" textLength="172" x="502.5" y="572">deleted_at: 25 May 09:55</text></g><g id="elem_am_WhitehallAsset_X17c302fa"><rect fill="#F1F1F1" height="77.9531" style="stroke:#181818;stroke-width:0.5;" width="192" x="269" y="501"/><text fill="#000000" font-family="sans-serif" font-size="14" lengthAdjust="spacing" textLength="178" x="276" y="516.5352">WhitehallAsset:X17c302fa</text><line style="stroke:#181818;stroke-width:0.5;" x1="270" x2="460" y1="521.4883" y2="521.4883"/><text fill="#000000" font-family="sans-serif" font-size="14" lengthAdjust="spacing" textLength="106" x="275" y="539.0234">state: uploaded</text><text fill="#000000" font-family="sans-serif" font-size="14" lengthAdjust="spacing" textLength="73" x="275" y="555.5117">draft: false</text><text fill="#000000" font-family="sans-serif" font-size="14" lengthAdjust="spacing" textLength="75" x="275" y="572">deleted_at:</text></g><g id="elem_am_WhitehallAsset_X16c302fb"><rect fill="#F1F1F1" height="77.9531" style="stroke:#181818;stroke-width:0.5;" width="193" x="40.5" y="501"/><text fill="#000000" font-family="sans-serif" font-size="14" lengthAdjust="spacing" textLength="179" x="47.5" y="516.5352">WhitehallAsset:X16c302fb</text><line style="stroke:#181818;stroke-width:0.5;" x1="41.5" x2="232.5" y1="521.4883" y2="521.4883"/><text fill="#000000" font-family="sans-serif" font-size="14" lengthAdjust="spacing" textLength="106" x="46.5" y="539.0234">state: uploaded</text><text fill="#000000" font-family="sans-serif" font-size="14" lengthAdjust="spacing" textLength="73" x="46.5" y="555.5117">draft: false</text><text fill="#000000" font-family="sans-serif" font-size="14" lengthAdjust="spacing" textLength="75" x="46.5" y="572">deleted_at:</text></g><!--reverse link Document_7 to NewsArticle_7--><g id="link_Document_7_NewsArticle_7"><path codeLine="11" d="M557.21,121.59 C556.93,137.12 556.62,153.9 556.39,166.77 " fill="none" id="Document_7-backto-NewsArticle_7" style="stroke:#181818;stroke-width:1.0;"/><polygon fill="#181818" points="557.44,108.76,553.3351,114.6888,557.229,120.7581,561.3339,114.8294,557.44,108.76" style="stroke:#181818;stroke-width:1.0;"/></g><!--reverse link NewsArticle_7 to FileAttachment_8--><g id="link_NewsArticle_7_FileAttachment_8"><path codeLine="15" d="M556,226.53 C556,241.59 556,258.58 556,271.69 " fill="none" id="NewsArticle_7-backto-FileAttachment_8" style="stroke:#181818;stroke-width:1.0;"/><polygon fill="#181818" points="556,213.86,552,219.86,556,225.86,560,219.86,556,213.86" style="stroke:#181818;stroke-width:1.0;"/></g><!--reverse link NewsArticle_7 to Image_4--><g id="link_NewsArticle_7_Image_4"><path codeLine="18" d="M513.69,220.56 C488.27,238.62 456.81,260.96 435.46,276.12 " fill="none" id="NewsArticle_7-backto-Image_4" style="stroke:#181818;stroke-width:1.0;"/><polygon fill="#181818" points="524.02,213.22,516.812,213.4332,514.2365,220.1686,521.4445,219.9555,524.02,213.22" style="stroke:#181818;stroke-width:1.0;"/></g><!--link FileAttachment_8 to AttachmentData_8--><g id="link_FileAttachment_8_AttachmentData_8"><path codeLine="22" d="M556,317.36 C556,330.65 556,347.85 556,362.58 " fill="none" id="FileAttachment_8-to-AttachmentData_8" style="stroke:#181818;stroke-width:1.0;"/><polygon fill="#181818" points="556,375.27,560,369.27,556,363.27,552,369.27,556,375.27" style="stroke:#181818;stroke-width:1.0;"/></g><!--link Image_4 to ImageData_4--><g id="link_Image_4_ImageData_4"><path codeLine="25" d="M409.43,312.66 C408.18,326.34 406.4,345.89 404.89,362.39 " fill="none" id="Image_4-to-ImageData_4" style="stroke:#181818;stroke-width:1.0;"/><polygon fill="#181818" points="403.72,375.2,408.2507,369.5899,404.8148,363.25,400.2841,368.8601,403.72,375.2" style="stroke:#181818;stroke-width:1.0;"/></g><!--link Document_7 to pubapi_Document_10--><g id="link_Document_7_pubapi_Document_10"><path codeLine="67" d="M605.16,107.25 C637.54,127.67 679.4,154.07 706.47,171.14 " fill="none" id="Document_7-pubapi_Document_10" style="stroke:#181818;stroke-width:1.0;stroke-dasharray:7.0,7.0;"/></g><!--link ImageData_4 to am_WhitehallAsset_X17c302fa--><g id="link_ImageData_4_am_WhitehallAsset_X17c302fa"><path codeLine="68" d="M397.54,413.25 C391.96,434.79 382.26,472.27 374.9,500.73 " fill="none" id="ImageData_4-am_WhitehallAsset_X17c302fa" style="stroke:#181818;stroke-width:1.0;stroke-dasharray:7.0,7.0;"/></g><!--link ImageData_4 to am_WhitehallAsset_X16c302fb--><g id="link_ImageData_4_am_WhitehallAsset_X16c302fb"><path codeLine="69" d="M351.81,407.41 C321.73,415.45 283.37,427.84 252,445 C224.63,459.97 197.44,481.79 176.37,500.64 " fill="none" id="ImageData_4-am_WhitehallAsset_X16c302fb" style="stroke:#181818;stroke-width:1.0;stroke-dasharray:7.0,7.0;"/></g><!--link AttachmentData_8 to am_WhitehallAsset_X16c302fa--><g id="link_AttachmentData_8_am_WhitehallAsset_X16c302fa"><path codeLine="70" d="M624.77,412.4 C651.38,420.24 681.51,431.02 707,445 C734.21,459.93 761.17,481.74 782.03,500.6 " fill="none" id="AttachmentData_8-am_WhitehallAsset_X16c302fa" style="stroke:#181818;stroke-width:1.0;stroke-dasharray:7.0,7.0;"/></g><!--link AttachmentData_8 to am_WhitehallAsset_X17c302f9--><g id="link_AttachmentData_8_am_WhitehallAsset_X17c302f9"><path codeLine="71" d="M560.46,413.25 C566.04,434.79 575.74,472.27 583.1,500.73 " fill="none" id="AttachmentData_8-am_WhitehallAsset_X17c302f9" style="stroke:#181818;stroke-width:1.0;stroke-dasharray:7.0,7.0;"/></g><!--SRC=[fPCzRy8m48Rt_0gB4Ga450faYuGgTQ3grcxM9Jc8AvD4yQLLLV7VwnWJ70W4jLjo7y_xsdTEinZPMo884v2I_NXP-84HiTugYyeTfkJFUmmKE_xokQvXJ0AX8ewn896bNCH-5HIVs0ZjFO-oBLA2XKD-mIyL52GYYHMyeZiXAw18A_WiHec4iIOv1lg3GREZHZy9YG4HH8cnlZ3Mcq6-C7mBzXaL9Mfyqq6bSDvMYpplO8l-rB3DDvzgP1l2PdNks7i2he306cm6ZS6zTn7i3yekKuRf63ET1tFklo4TlNdLb3mlhVRWjGobK8b8jq4ksdPXF3Bml0mX5xmUoNXaD4wWG2caDQHQeffyonBKAsTA_VVnO_Gmccp0y677ctbUvztbA7EPGQotGu-pW0tPOTR3vQ13anbRmpSRBVtPp1d4XVxSy9TNzMt-l_hjJ-AA6-Xmqt4R6v3gpCwj6pZSSDWnWV0lckRSpWiU3bjsgB6ZkkB6kUyfjNOl7zBDUhYxtYw4zmi0]--></g></svg>