<?xml version="1.0" encoding="us-ascii" standalone="no"?><svg xmlns="http://www.w3.org/2000/svg" xmlns:xlink="http://www.w3.org/1999/xlink" contentStyleType="text/css" height="484px" preserveAspectRatio="none" style="width:730px;height:484px;background:#FFFFFF;" version="1.1" viewBox="0 0 730 484" width="730px" zoomAndPan="magnify"><defs/><g><!--cluster Whitehall--><g id="cluster_Whitehall"><polygon fill="none" points="257,16,267,6,452,6,452,129,442,139,257,139,257,16" style="stroke:#181818;stroke-width:1.0;"/><line style="stroke:#181818;stroke-width:1.0;" x1="442" x2="452" y1="16" y2="6"/><line style="stroke:#181818;stroke-width:1.0;" x1="257" x2="442" y1="16" y2="16"/><line style="stroke:#181818;stroke-width:1.0;" x1="442" x2="442" y1="16" y2="139"/><text fill="#000000" font-family="sans-serif" font-size="14" font-weight="bold" lengthAdjust="spacing" textLength="68" x="316.5" y="32.5352">Whitehall</text></g><!--cluster PublishingApi--><g id="cluster_PublishingApi"><polygon fill="none" points="536,218,546,208,713,208,713,290,703,300,536,300,536,218" style="stroke:#181818;stroke-width:1.0;"/><line style="stroke:#181818;stroke-width:1.0;" x1="703" x2="713" y1="218" y2="208"/><line style="stroke:#181818;stroke-width:1.0;" x1="536" x2="703" y1="218" y2="218"/><line style="stroke:#181818;stroke-width:1.0;" x1="703" x2="703" y1="218" y2="300"/><text fill="#000000" font-family="sans-serif" font-size="14" font-weight="bold" lengthAdjust="spacing" textLength="101" x="570" y="234.5352">PublishingApi</text></g><!--cluster AssetManager--><g id="cluster_AssetManager"><polygon fill="none" points="16,189,26,179,504,179,504,457,494,467,16,467,16,189" style="stroke:#181818;stroke-width:1.0;"/><line style="stroke:#181818;stroke-width:1.0;" x1="494" x2="504" y1="189" y2="179"/><line style="stroke:#181818;stroke-width:1.0;" x1="16" x2="494" y1="189" y2="189"/><line style="stroke:#181818;stroke-width:1.0;" x1="494" x2="494" y1="189" y2="467"/><text fill="#000000" font-family="sans-serif" font-size="14" font-weight="bold" lengthAdjust="spacing" textLength="101" x="205.5" y="205.5352">AssetManager</text></g><g id="elem_Document_7"><rect fill="#F1F1F1" height="61.4648" style="stroke:#181818;stroke-width:0.5;" width="128" x="300" y="54"/><text fill="#000000" font-family="sans-serif" font-size="14" lengthAdjust="spacing" textLength="83" x="322.5" y="69.5352">Document:7</text><line style="stroke:#181818;stroke-width:0.5;" x1="301" x2="427" y1="74.4883" y2="74.4883"/><text fill="#000000" font-family="sans-serif" font-size="14" lengthAdjust="spacing" textLength="116" x="306" y="92.0234">latest_edition_id:</text><text fill="#000000" font-family="sans-serif" font-size="14" lengthAdjust="spacing" textLength="102" x="306" y="108.5117">live_edition_id:</text></g><g id="elem_pubapi_Document_10"><rect fill="#F1F1F1" height="36.4883" style="stroke:#181818;stroke-width:0.5;" width="106" x="552" y="248"/><text fill="#000000" font-family="sans-serif" font-size="14" lengthAdjust="spacing" textLength="92" x="559" y="263.5352">Document:10</text><line style="stroke:#181818;stroke-width:0.5;" x1="553" x2="657" y1="268.4883" y2="268.4883"/></g><g id="elem_am_WhitehallAsset_X16c302fa"><rect fill="#F1F1F1" height="77.9531" style="stroke:#181818;stroke-width:0.5;" width="192" x="59" y="227"/><text fill="#000000" font-family="sans-serif" font-size="14" lengthAdjust="spacing" textLength="178" x="66" y="242.5352">WhitehallAsset:X16c302fa</text><line style="stroke:#181818;stroke-width:0.5;" x1="60" x2="250" y1="247.4883" y2="247.4883"/><text fill="#000000" font-family="sans-serif" font-size="14" lengthAdjust="spacing" textLength="106" x="65" y="265.0234">state: uploaded</text><text fill="#000000" font-family="sans-serif" font-size="14" lengthAdjust="spacing" textLength="69" x="65" y="281.5117">draft: true</text><text fill="#000000" font-family="sans-serif" font-size="14" lengthAdjust="spacing" textLength="172" x="65" y="298">deleted_at: 25 May 09:55</text></g><g id="elem_am_WhitehallAsset_X17c302f9"><rect fill="#F1F1F1" height="77.9531" style="stroke:#181818;stroke-width:0.5;" width="193" x="286.5" y="227"/><text fill="#000000" font-family="sans-serif" font-size="14" lengthAdjust="spacing" textLength="179" x="293.5" y="242.5352">WhitehallAsset:X17c302f9</text><line style="stroke:#181818;stroke-width:0.5;" x1="287.5" x2="478.5" y1="247.4883" y2="247.4883"/><text fill="#000000" font-family="sans-serif" font-size="14" lengthAdjust="spacing" textLength="106" x="292.5" y="265.0234">state: uploaded</text><text fill="#000000" font-family="sans-serif" font-size="14" lengthAdjust="spacing" textLength="69" x="292.5" y="281.5117">draft: true</text><text fill="#000000" font-family="sans-serif" font-size="14" lengthAdjust="spacing" textLength="172" x="292.5" y="298">deleted_at: 25 May 09:55</text></g><g id="elem_am_WhitehallAsset_X17c302fa"><rect fill="#F1F1F1" height="77.9531" style="stroke:#181818;stroke-width:0.5;" width="192" x="59" y="365"/><text fill="#000000" font-family="sans-serif" font-size="14" lengthAdjust="spacing" textLength="178" x="66" y="380.5352">WhitehallAsset:X17c302fa</text><line style="stroke:#181818;stroke-width:0.5;" x1="60" x2="250" y1="385.4883" y2="385.4883"/><text fill="#000000" font-family="sans-serif" font-size="14" lengthAdjust="spacing" textLength="106" x="65" y="403.0234">state: uploaded</text><text fill="#000000" font-family="sans-serif" font-size="14" lengthAdjust="spacing" textLength="73" x="65" y="419.5117">draft: false</text><text fill="#000000" font-family="sans-serif" font-size="14" lengthAdjust="spacing" textLength="75" x="65" y="436">deleted_at:</text></g><g id="elem_am_WhitehallAsset_X16c302fb"><rect fill="#F1F1F1" height="77.9531" style="stroke:#181818;stroke-width:0.5;" width="193" x="286.5" y="365"/><text fill="#000000" font-family="sans-serif" font-size="14" lengthAdjust="spacing" textLength="179" x="293.5" y="380.5352">WhitehallAsset:X16c302fb</text><line style="stroke:#181818;stroke-width:0.5;" x1="287.5" x2="478.5" y1="385.4883" y2="385.4883"/><text fill="#000000" font-family="sans-serif" font-size="14" lengthAdjust="spacing" textLength="106" x="292.5" y="403.0234">state: uploaded</text><text fill="#000000" font-family="sans-serif" font-size="14" lengthAdjust="spacing" textLength="73" x="292.5" y="419.5117">draft: false</text><text fill="#000000" font-family="sans-serif" font-size="14" lengthAdjust="spacing" textLength="75" x="292.5" y="436">deleted_at:</text></g><!--link Document_7 to pubapi_Document_10--><g id="link_Document_7_pubapi_Document_10"><path codeLine="43" d="M421.3,115.48 C445.17,128.89 472.69,145.59 496,163 C531.51,189.52 568.21,226.12 588.67,247.5 " fill="none" id="Document_7-pubapi_Document_10" style="stroke:#181818;stroke-width:1.0;stroke-dasharray:7.0,7.0;"/></g><!--link Whitehall to AssetManager--><g id="link_Whitehall_AssetManager"><path codeLine="44" d="M256.7609,85.6173 C252.0753,85.752 245.5628,86.0337 237.67,86.6167 C221.8844,87.7828 200.5775,90.1544 177.3225,94.9662 C130.8125,104.59 76.51,123.975 43,163 C39.3038,167.305 36.2294,172.0948 33.6798,177.185 C33.5205,177.5032 33.3632,177.8225 33.2079,178.1429 C33.1303,178.3031 33.0531,178.4636 32.9765,178.6244 " fill="none" id="Whitehall-AssetManager" style="stroke:#181818;stroke-width:1.0;stroke-dasharray:7.0,7.0;"/></g><!--SRC=[fLBBQiCm4BpxAvPyGB1JN17T0hq6ScjlOcsjOnL5CjQgK4h-lRBRkav9cZwaasQMdPtHEgy9xbl3rAAry9Bvwf5gXiMTh-E174kn00pmyLGYrG1OP0giI1istYcZvG2Q9pg1ZkccumQDNQoi2Qrn-qrdpkaK-IZKnGexeoQz8a_5yqQR48Ytw71F_QpFv67avKDnMz_agmR7fdXGfxoQ-D5EuEH7GkoiHqqw8Rh7XYLm7sbuaIKchJ11gnAs-0pvMfPb6kkYlXZxho_gl_F_rJ_-CXPn9HRnarWQjE7BNDz5yHPrTUKhghze9lkprLmkp-nFzhdUYP_dbBq2]--></g></svg>