<?xml version="1.0" encoding="us-ascii" standalone="no"?><svg xmlns="http://www.w3.org/2000/svg" xmlns:xlink="http://www.w3.org/1999/xlink" contentStyleType="text/css" height="628px" preserveAspectRatio="none" style="width:1221px;height:628px;background:#FFFFFF;" version="1.1" viewBox="0 0 1221 628" width="1221px" zoomAndPan="magnify"><defs/><g><!--cluster Whitehall--><g id="cluster_Whitehall"><polygon fill="none" points="406,16,416,6,903,6,903,444,893,454,406,454,406,16" style="stroke:#181818;stroke-width:1.0;"/><line style="stroke:#181818;stroke-width:1.0;" x1="893" x2="903" y1="16" y2="6"/><line style="stroke:#181818;stroke-width:1.0;" x1="406" x2="893" y1="16" y2="16"/><line style="stroke:#181818;stroke-width:1.0;" x1="893" x2="893" y1="16" y2="454"/><text fill="#000000" font-family="sans-serif" font-size="14" font-weight="bold" lengthAdjust="spacing" textLength="68" x="616.5" y="32.5352">Whitehall</text></g><!--cluster PublishingApi--><g id="cluster_PublishingApi"><polygon fill="none" points="927,149.5,937,139.5,1104,139.5,1104,339,1094,349,927,349,927,149.5" style="stroke:#181818;stroke-width:1.0;"/><line style="stroke:#181818;stroke-width:1.0;" x1="1094" x2="1104" y1="149.5" y2="139.5"/><line style="stroke:#181818;stroke-width:1.0;" x1="927" x2="1094" y1="149.5" y2="149.5"/><line style="stroke:#181818;stroke-width:1.0;" x1="1094" x2="1094" y1="149.5" y2="349"/><text fill="#000000" font-family="sans-serif" font-size="14" font-weight="bold" lengthAdjust="spacing" textLength="101" x="961" y="166.0352">PublishingApi</text></g><!--cluster AssetManager--><g id="cluster_AssetManager"><polygon fill="none" points="16,488,26,478,1204,478,1204,601,1194,611,16,611,16,488" style="stroke:#181818;stroke-width:1.0;"/><line style="stroke:#181818;stroke-width:1.0;" x1="1194" x2="1204" y1="488" y2="478"/><line style="stroke:#181818;stroke-width:1.0;" x1="16" x2="1194" y1="488" y2="488"/><line style="stroke:#181818;stroke-width:1.0;" x1="1194" x2="1194" y1="488" y2="611"/><text fill="#000000" font-family="sans-serif" font-size="14" font-weight="bold" lengthAdjust="spacing" textLength="101" x="555.5" y="504.5352">AssetManager</text></g><g id="elem_Document_1"><rect fill="#F1F1F1" height="61.4648" style="stroke:#181818;stroke-width:0.5;" width="141" x="698.5" y="46"/><text fill="#000000" font-family="sans-serif" font-size="14" lengthAdjust="spacing" textLength="83" x="727.5" y="61.5352">Document:1</text><line style="stroke:#181818;stroke-width:0.5;" x1="699.5" x2="838.5" y1="66.4883" y2="66.4883"/><text fill="#000000" font-family="sans-serif" font-size="14" lengthAdjust="spacing" textLength="129" x="704.5" y="84.0234">latest_edition_id: 1</text><text fill="#000000" font-family="sans-serif" font-size="14" lengthAdjust="spacing" textLength="115" x="704.5" y="100.5117">live_edition_id: 1</text></g><g id="elem_NewsArticle_1"><rect fill="#F1F1F1" height="61.4648" style="stroke:#181818;stroke-width:0.5;" width="158" x="643" y="167"/><text fill="#000000" font-family="sans-serif" font-size="14" lengthAdjust="spacing" textLength="93" x="675.5" y="182.5352">NewsArticle:1</text><line style="stroke:#181818;stroke-width:0.5;" x1="644" x2="800" y1="187.4883" y2="187.4883"/><text fill="#000000" font-family="sans-serif" font-size="14" lengthAdjust="spacing" textLength="109" x="649" y="205.0234">state: published</text><text fill="#000000" font-family="sans-serif" font-size="14" lengthAdjust="spacing" textLength="146" x="649" y="221.5117">force_published: true</text></g><g id="elem_FileAttachment_1"><rect fill="#F1F1F1" height="44.9766" style="stroke:#181818;stroke-width:0.5;" width="130" x="657" y="288"/><text fill="#000000" font-family="sans-serif" font-size="14" lengthAdjust="spacing" textLength="116" x="664" y="303.5352">FileAttachment:1</text><line style="stroke:#181818;stroke-width:0.5;" x1="658" x2="786" y1="308.4883" y2="308.4883"/><text fill="#000000" font-family="sans-serif" font-size="14" lengthAdjust="spacing" textLength="91" x="663" y="326.0234">deleted: false</text></g><g id="elem_Image_2"><rect fill="#F1F1F1" height="36.4883" style="stroke:#181818;stroke-width:0.5;" width="69" x="494.5" y="292.5"/><text fill="#000000" font-family="sans-serif" font-size="14" lengthAdjust="spacing" textLength="55" x="501.5" y="308.0352">Image:2</text><line style="stroke:#181818;stroke-width:0.5;" x1="495.5" x2="562.5" y1="312.9883" y2="312.9883"/></g><g id="elem_AttachmentData_1"><rect fill="#F1F1F1" height="44.9766" style="stroke:#181818;stroke-width:0.5;" width="329" x="557.5" y="393"/><text fill="#000000" font-family="sans-serif" font-size="14" lengthAdjust="spacing" textLength="123" x="660.5" y="408.5352">AttachmentData:1</text><line style="stroke:#181818;stroke-width:0.5;" x1="558.5" x2="885.5" y1="413.4883" y2="413.4883"/><text fill="#000000" font-family="sans-serif" font-size="14" lengthAdjust="spacing" textLength="317" x="563.5" y="431.0234">uploaded_to_asset_manager_at: 24 May 16:28</text></g><g id="elem_ImageData_2"><rect fill="#F1F1F1" height="36.4883" style="stroke:#181818;stroke-width:0.5;" width="100" x="422" y="397.5"/><text fill="#000000" font-family="sans-serif" font-size="14" lengthAdjust="spacing" textLength="86" x="429" y="413.0352">ImageData:2</text><line style="stroke:#181818;stroke-width:0.5;" x1="423" x2="521" y1="417.9883" y2="417.9883"/></g><g id="elem_pubapi_Document_4"><rect fill="#F1F1F1" height="36.4883" style="stroke:#181818;stroke-width:0.5;" width="97" x="949.5" y="179.5"/><text fill="#000000" font-family="sans-serif" font-size="14" lengthAdjust="spacing" textLength="83" x="956.5" y="195.0352">Document:4</text><line style="stroke:#181818;stroke-width:0.5;" x1="950.5" x2="1045.5" y1="199.9883" y2="199.9883"/></g><g id="elem_pubapi_Edition_4"><rect fill="#F1F1F1" height="44.9766" style="stroke:#181818;stroke-width:0.5;" width="121" x="943.5" y="288"/><text fill="#000000" font-family="sans-serif" font-size="14" lengthAdjust="spacing" textLength="61" x="973.5" y="303.5352">Edition:4</text><line style="stroke:#181818;stroke-width:0.5;" x1="944.5" x2="1063.5" y1="308.4883" y2="308.4883"/><text fill="#000000" font-family="sans-serif" font-size="14" lengthAdjust="spacing" textLength="109" x="949.5" y="326.0234">state: published</text></g><g id="elem_am_WhitehallAsset_X164e681f"><rect fill="#F1F1F1" height="61.4648" style="stroke:#181818;stroke-width:0.5;" width="194" x="986" y="526"/><text fill="#000000" font-family="sans-serif" font-size="14" lengthAdjust="spacing" textLength="180" x="993" y="541.5352">WhitehallAsset:X164e681f</text><line style="stroke:#181818;stroke-width:0.5;" x1="987" x2="1179" y1="546.4883" y2="546.4883"/><text fill="#000000" font-family="sans-serif" font-size="14" lengthAdjust="spacing" textLength="106" x="992" y="564.0234">state: uploaded</text><text fill="#000000" font-family="sans-serif" font-size="14" lengthAdjust="spacing" textLength="73" x="992" y="580.5117">draft: false</text></g><g id="elem_am_WhitehallAsset_X174e681f"><rect fill="#F1F1F1" height="61.4648" style="stroke:#181818;stroke-width:0.5;" width="194" x="757" y="526"/><text fill="#000000" font-family="sans-serif" font-size="14" lengthAdjust="spacing" textLength="180" x="764" y="541.5352">WhitehallAsset:X174e681f</text><line style="stroke:#181818;stroke-width:0.5;" x1="758" x2="950" y1="546.4883" y2="546.4883"/><text fill="#000000" font-family="sans-serif" font-size="14" lengthAdjust="spacing" textLength="106" x="763" y="564.0234">state: uploaded</text><text fill="#000000" font-family="sans-serif" font-size="14" lengthAdjust="spacing" textLength="73" x="763" y="580.5117">draft: false</text></g><g id="elem_am_WhitehallAsset_X174e6824"><rect fill="#F1F1F1" height="61.4648" style="stroke:#181818;stroke-width:0.5;" width="198" x="40" y="526"/><text fill="#000000" font-family="sans-serif" font-size="14" lengthAdjust="spacing" textLength="184" x="47" y="541.5352">WhitehallAsset:X174e6824</text><line style="stroke:#181818;stroke-width:0.5;" x1="41" x2="237" y1="546.4883" y2="546.4883"/><text fill="#000000" font-family="sans-serif" font-size="14" lengthAdjust="spacing" textLength="106" x="46" y="564.0234">state: uploaded</text><text fill="#000000" font-family="sans-serif" font-size="14" lengthAdjust="spacing" textLength="73" x="46" y="580.5117">draft: false</text></g><g id="elem_am_WhitehallAsset_X174e6825"><rect fill="#F1F1F1" height="61.4648" style="stroke:#181818;stroke-width:0.5;" width="198" x="273" y="526"/><text fill="#000000" font-family="sans-serif" font-size="14" lengthAdjust="spacing" textLength="184" x="280" y="541.5352">WhitehallAsset:X174e6825</text><line style="stroke:#181818;stroke-width:0.5;" x1="274" x2="470" y1="546.4883" y2="546.4883"/><text fill="#000000" font-family="sans-serif" font-size="14" lengthAdjust="spacing" textLength="106" x="279" y="564.0234">state: uploaded</text><text fill="#000000" font-family="sans-serif" font-size="14" lengthAdjust="spacing" textLength="73" x="279" y="580.5117">draft: false</text></g><g id="elem_GMN25"><path d="M506.5,544 L506.5,552.5 L471.26,556.5 L506.5,560.5 L506.5,569.3105 A0,0 0 0 0 506.5,569.3105 L721.5,569.3105 A0,0 0 0 0 721.5,569.3105 L721.5,554 L711.5,544 L506.5,544 A0,0 0 0 0 506.5,544 " fill="#FEFFDD" style="stroke:#181818;stroke-width:0.5;"/><path d="M711.5,544 L711.5,554 L721.5,554 L711.5,544 " fill="#FEFFDD" style="stroke:#181818;stroke-width:0.5;"/><text fill="#000000" font-family="sans-serif" font-size="13" lengthAdjust="spacing" textLength="194" x="512.5" y="561.5684">also 5 other images not shown</text></g><!--reverse link Document_1 to NewsArticle_1--><g id="link_Document_1_NewsArticle_1"><path codeLine="11" d="M751.94,120.7 C745.9,135.98 739.25,152.83 733.75,166.74 " fill="none" id="Document_1-backto-NewsArticle_1" style="stroke:#181818;stroke-width:1.0;"/><polygon fill="#181818" points="756.71,108.63,750.7862,112.7419,752.3034,119.7916,758.2272,115.6797,756.71,108.63" style="stroke:#181818;stroke-width:1.0;"/></g><!--reverse link NewsArticle_1 to FileAttachment_1--><g id="link_NewsArticle_1_FileAttachment_1"><path codeLine="15" d="M722,242.59 C722,258.12 722,274.9 722,287.77 " fill="none" id="NewsArticle_1-backto-FileAttachment_1" style="stroke:#181818;stroke-width:1.0;"/><polygon fill="#181818" points="722,229.76,718,235.76,722,241.76,726,235.76,722,229.76" style="stroke:#181818;stroke-width:1.0;"/></g><!--reverse link NewsArticle_1 to Image_2--><g id="link_NewsArticle_1_Image_2"><path codeLine="18" d="M657.64,235.51 C624.5,254.57 585.65,276.92 559.39,292.02 " fill="none" id="NewsArticle_1-backto-Image_2" style="stroke:#181818;stroke-width:1.0;"/><polygon fill="#181818" points="668.71,229.15,661.515,228.6686,658.3033,235.125,665.4983,235.6064,668.71,229.15" style="stroke:#181818;stroke-width:1.0;"/></g><!--link FileAttachment_1 to AttachmentData_1--><g id="link_FileAttachment_1_AttachmentData_1"><path codeLine="23" d="M722,333.34 C722,346.45 722,363.45 722,378.5 " fill="none" id="FileAttachment_1-to-AttachmentData_1" style="stroke:#181818;stroke-width:1.0;"/><polygon fill="#181818" points="722,391.17,726,385.17,722,379.17,718,385.17,722,391.17" style="stroke:#181818;stroke-width:1.0;"/></g><!--link Image_2 to ImageData_2--><g id="link_Image_2_ImageData_2"><path codeLine="26" d="M519.33,328.97 C510.89,344.23 498.45,366.7 488.44,384.79 " fill="none" id="Image_2-to-ImageData_2" style="stroke:#181818;stroke-width:1.0;"/><polygon fill="#181818" points="482.26,395.96,488.6648,392.6467,488.0698,385.4602,481.665,388.7735,482.26,395.96" style="stroke:#181818;stroke-width:1.0;"/></g><!--reverse link pubapi_Document_4 to pubapi_Edition_4--><g id="link_pubapi_Document_4_pubapi_Edition_4"><path codeLine="34" d="M999.71,230.06 C1000.7,248.49 1001.93,271.27 1002.82,287.7 " fill="none" id="pubapi_Document_4-backto-pubapi_Edition_4" style="stroke:#181818;stroke-width:1.0;"/><polygon fill="#181818" points="999.02,217.36,995.3491,223.5668,999.6666,229.3426,1003.3375,223.1357,999.02,217.36" style="stroke:#181818;stroke-width:1.0;"/></g><!--link Document_1 to pubapi_Document_4--><g id="link_Document_1_pubapi_Document_4"><path codeLine="61" d="M826.49,107.38 C870.08,130.03 928.47,160.37 964.64,179.16 " fill="none" id="Document_1-pubapi_Document_4" style="stroke:#181818;stroke-width:1.0;stroke-dasharray:7.0,7.0;"/></g><!--link AttachmentData_1 to am_WhitehallAsset_X164e681f--><g id="link_AttachmentData_1_am_WhitehallAsset_X164e681f"><path codeLine="62" d="M873.26,438.49 C905.7,446.15 939.17,456.38 969,470 C999.38,483.87 1029.42,506.89 1051.03,525.55 " fill="none" id="AttachmentData_1-am_WhitehallAsset_X164e681f" style="stroke:#181818;stroke-width:1.0;stroke-dasharray:7.0,7.0;"/></g><!--link AttachmentData_1 to am_WhitehallAsset_X174e681f--><g id="link_AttachmentData_1_am_WhitehallAsset_X174e681f"><path codeLine="63" d="M742.62,438.22 C764.96,461.74 800.73,499.4 825.68,525.68 " fill="none" id="AttachmentData_1-am_WhitehallAsset_X174e681f" style="stroke:#181818;stroke-width:1.0;stroke-dasharray:7.0,7.0;"/></g><!--link ImageData_2 to am_WhitehallAsset_X174e6824--><g id="link_ImageData_2_am_WhitehallAsset_X174e6824"><path codeLine="64" d="M421.69,423.29 C376.69,430.67 309.73,444.91 256,470 C225.23,484.37 194.37,507.36 172.08,525.89 " fill="none" id="ImageData_2-am_WhitehallAsset_X174e6824" style="stroke:#181818;stroke-width:1.0;stroke-dasharray:7.0,7.0;"/></g><!--link ImageData_2 to am_WhitehallAsset_X174e6825--><g id="link_ImageData_2_am_WhitehallAsset_X174e6825"><path codeLine="65" d="M459.54,433.82 C443.04,456.75 413.71,497.52 393.58,525.5 " fill="none" id="ImageData_2-am_WhitehallAsset_X174e6825" style="stroke:#181818;stroke-width:1.0;stroke-dasharray:7.0,7.0;"/></g><!--SRC=[hLJBRi8m4BpdArOSaK1A5A3A3ObMwe6gj_PccMGXheoDuarHLV7ljPq72L2WKc_nx7fc7-CedI6yvO8mvrB2Tw1N7vWI31OwBRUeA0a7m0qqHnRQ70392Gqnp0G9hPZ84WWTB3xn13m4f3T8EHOTyXVSctb18fLOytUGMiAGrKXWLwwaC3bc5bhh8aNM8WbGKQ9Lw1Gt78twNAtcav0u9-9ftcch3zRA6KeaHx_cqZZ-Vd5EulHUg_AyvHjC8a_klrbaEIzHr54RQ-uU2HUSU5rX7wmhB7TIymmpHffnOv3ObYjBLp1E2KGnBFaNXDCaUh3qPmp3KNch0rz0fmj_i-gaU_PCnqQKCzDhjHwXDlETk6IesDFQBVATOEtgOa_U93zM7khdrg1FlU2FGt3EwGPzUhifTEu6jwpcPXalsBHz5purUG-dCKuVmhKlYczPFyxQUBU-PbNELmLVqz5LlwhCRgZC_g9okAinJnd5roMZ-3yQYoOtL2RtgIXD28NOv1I0XJHCGFisXVEZ0Hi7a-kz2b1bxbHDe_El68_FNNZ-McpMbLNVdLylhVTyhgL6yVsfany0]--></g></svg>