<?xml version="1.0" encoding="us-ascii" standalone="no"?><svg xmlns="http://www.w3.org/2000/svg" xmlns:xlink="http://www.w3.org/1999/xlink" contentStyleType="text/css" height="570px" preserveAspectRatio="none" style="width:633px;height:570px;background:#FFFFFF;" version="1.1" viewBox="0 0 633 570" width="633px" zoomAndPan="magnify"><defs/><g><!--cluster Whitehall--><g id="cluster_Whitehall"><polygon fill="none" points="16,16,26,6,415,6,415,543,405,553,16,553,16,16" style="stroke:#181818;stroke-width:1.0;"/><line style="stroke:#181818;stroke-width:1.0;" x1="405" x2="415" y1="16" y2="6"/><line style="stroke:#181818;stroke-width:1.0;" x1="16" x2="405" y1="16" y2="16"/><line style="stroke:#181818;stroke-width:1.0;" x1="405" x2="405" y1="16" y2="553"/><text fill="#000000" font-family="sans-serif" font-size="14" font-weight="bold" lengthAdjust="spacing" textLength="68" x="177.5" y="32.5352">Whitehall</text></g><!--cluster PublishingApi--><g id="cluster_PublishingApi"><polygon fill="none" points="439,144.5,449,134.5,616,134.5,616,326,606,336,439,336,439,144.5" style="stroke:#181818;stroke-width:1.0;"/><line style="stroke:#181818;stroke-width:1.0;" x1="606" x2="616" y1="144.5" y2="134.5"/><line style="stroke:#181818;stroke-width:1.0;" x1="439" x2="606" y1="144.5" y2="144.5"/><line style="stroke:#181818;stroke-width:1.0;" x1="606" x2="606" y1="144.5" y2="336"/><text fill="#000000" font-family="sans-serif" font-size="14" font-weight="bold" lengthAdjust="spacing" textLength="101" x="473" y="161.0352">PublishingApi</text></g><!--cluster AssetManager--><g id="cluster_AssetManager"><polygon fill="none" points="439,28.5,449,18.5,616,18.5,616,100.5,606,110.5,439,110.5,439,28.5" style="stroke:#181818;stroke-width:1.0;"/><line style="stroke:#181818;stroke-width:1.0;" x1="606" x2="616" y1="28.5" y2="18.5"/><line style="stroke:#181818;stroke-width:1.0;" x1="439" x2="606" y1="28.5" y2="28.5"/><line style="stroke:#181818;stroke-width:1.0;" x1="606" x2="606" y1="28.5" y2="110.5"/><text fill="#000000" font-family="sans-serif" font-size="14" font-weight="bold" lengthAdjust="spacing" textLength="101" x="473" y="45.0352">AssetManager</text></g><g id="elem_Document_1"><rect fill="#F1F1F1" height="61.4648" style="stroke:#181818;stroke-width:0.5;" width="141" x="255.5" y="46"/><text fill="#000000" font-family="sans-serif" font-size="14" lengthAdjust="spacing" textLength="83" x="284.5" y="61.5352">Document:1</text><line style="stroke:#181818;stroke-width:0.5;" x1="256.5" x2="395.5" y1="66.4883" y2="66.4883"/><text fill="#000000" font-family="sans-serif" font-size="14" lengthAdjust="spacing" textLength="129" x="261.5" y="84.0234">latest_edition_id: 1</text><text fill="#000000" font-family="sans-serif" font-size="14" lengthAdjust="spacing" textLength="102" x="261.5" y="100.5117">live_edition_id:</text></g><g id="elem_NewsArticle_1"><rect fill="#F1F1F1" height="44.9766" style="stroke:#181818;stroke-width:0.5;" width="107" x="266.5" y="170"/><text fill="#000000" font-family="sans-serif" font-size="14" lengthAdjust="spacing" textLength="93" x="273.5" y="185.5352">NewsArticle:1</text><line style="stroke:#181818;stroke-width:0.5;" x1="267.5" x2="372.5" y1="190.4883" y2="190.4883"/><text fill="#000000" font-family="sans-serif" font-size="14" lengthAdjust="spacing" textLength="74" x="272.5" y="208.0234">state: draft</text></g><g id="elem_FileAttachment_1"><rect fill="#F1F1F1" height="44.9766" style="stroke:#181818;stroke-width:0.5;" width="130" x="252" y="275"/><text fill="#000000" font-family="sans-serif" font-size="14" lengthAdjust="spacing" textLength="116" x="259" y="290.5352">FileAttachment:1</text><line style="stroke:#181818;stroke-width:0.5;" x1="253" x2="381" y1="295.4883" y2="295.4883"/><text fill="#000000" font-family="sans-serif" font-size="14" lengthAdjust="spacing" textLength="91" x="258" y="313.0234">deleted: false</text></g><g id="elem_AttachmentData_1"><rect fill="#F1F1F1" height="36.4883" style="stroke:#181818;stroke-width:0.5;" width="137" x="247.5" y="380"/><text fill="#000000" font-family="sans-serif" font-size="14" lengthAdjust="spacing" textLength="123" x="254.5" y="395.5352">AttachmentData:1</text><line style="stroke:#181818;stroke-width:0.5;" x1="248.5" x2="383.5" y1="400.4883" y2="400.4883"/></g><g id="elem_RemoteAsset_1"><rect fill="#F1F1F1" height="61.4648" style="stroke:#181818;stroke-width:0.5;" width="166" x="32" y="476"/><text fill="#000000" font-family="sans-serif" font-size="14" lengthAdjust="spacing" textLength="102" x="64" y="491.5352">RemoteAsset:1</text><line style="stroke:#181818;stroke-width:0.5;" x1="33" x2="197" y1="496.4883" y2="496.4883"/><text fill="#000000" font-family="sans-serif" font-size="14" lengthAdjust="spacing" textLength="154" x="38" y="514.0234">state: awaiting_upload</text><text fill="#000000" font-family="sans-serif" font-size="14" lengthAdjust="spacing" textLength="73" x="38" y="530.5117">remote_id:</text></g><g id="elem_RemoteAsset_2"><rect fill="#F1F1F1" height="61.4648" style="stroke:#181818;stroke-width:0.5;" width="166" x="233" y="476"/><text fill="#000000" font-family="sans-serif" font-size="14" lengthAdjust="spacing" textLength="102" x="265" y="491.5352">RemoteAsset:2</text><line style="stroke:#181818;stroke-width:0.5;" x1="234" x2="398" y1="496.4883" y2="496.4883"/><text fill="#000000" font-family="sans-serif" font-size="14" lengthAdjust="spacing" textLength="154" x="239" y="514.0234">state: awaiting_upload</text><text fill="#000000" font-family="sans-serif" font-size="14" lengthAdjust="spacing" textLength="73" x="239" y="530.5117">remote_id:</text></g><g id="elem_pubapi_Document_4"><rect fill="#F1F1F1" height="36.4883" style="stroke:#181818;stroke-width:0.5;" width="97" x="455.5" y="174.5"/><text fill="#000000" font-family="sans-serif" font-size="14" lengthAdjust="spacing" textLength="83" x="462.5" y="190.0352">Document:4</text><line style="stroke:#181818;stroke-width:0.5;" x1="456.5" x2="551.5" y1="194.9883" y2="194.9883"/></g><g id="elem_pubapi_Edition_4"><rect fill="#F1F1F1" height="44.9766" style="stroke:#181818;stroke-width:0.5;" width="86" x="461" y="275"/><text fill="#000000" font-family="sans-serif" font-size="14" lengthAdjust="spacing" textLength="61" x="473.5" y="290.5352">Edition:4</text><line style="stroke:#181818;stroke-width:0.5;" x1="462" x2="546" y1="295.4883" y2="295.4883"/><text fill="#000000" font-family="sans-serif" font-size="14" lengthAdjust="spacing" textLength="74" x="467" y="313.0234">state: draft</text></g><!--entity no assets--><g id="elem_no assets"><rect fill="#F1F1F1" height="36.4883" rx="2.5" ry="2.5" style="stroke:#181818;stroke-width:0.5;" width="84" x="485" y="58.5"/><text fill="#000000" font-family="sans-serif" font-size="14" lengthAdjust="spacing" textLength="64" x="495" y="82.0352">no assets</text></g><!--reverse link Document_1 to NewsArticle_1--><g id="link_Document_1_NewsArticle_1"><path codeLine="10" d="M323.66,121.92 C322.8,138.31 321.86,156.16 321.15,169.67 " fill="none" id="Document_1-backto-NewsArticle_1" style="stroke:#181818;stroke-width:1.0;"/><polygon fill="#181818" points="324.34,108.96,320.0352,114.7452,323.7197,120.944,328.0245,115.1587,324.34,108.96" style="stroke:#181818;stroke-width:1.0;"/></g><!--reverse link NewsArticle_1 to FileAttachment_1--><g id="link_NewsArticle_1_FileAttachment_1"><path codeLine="14" d="M318.95,229.53 C318.51,244.59 318.02,261.58 317.64,274.69 " fill="none" id="NewsArticle_1-backto-FileAttachment_1" style="stroke:#181818;stroke-width:1.0;"/><polygon fill="#181818" points="319.32,216.86,315.1503,222.7433,318.9773,228.8551,323.147,222.9718,319.32,216.86" style="stroke:#181818;stroke-width:1.0;"/></g><!--link FileAttachment_1 to AttachmentData_1--><g id="link_FileAttachment_1_AttachmentData_1"><path codeLine="18" d="M316.78,320.36 C316.64,333.65 316.47,350.85 316.32,365.58 " fill="none" id="FileAttachment_1-to-AttachmentData_1" style="stroke:#181818;stroke-width:1.0;"/><polygon fill="#181818" points="316.19,378.27,320.2491,372.3099,316.3087,366.2706,312.2495,372.2307,316.19,378.27" style="stroke:#181818;stroke-width:1.0;"/></g><!--link AttachmentData_1 to RemoteAsset_1--><g id="link_AttachmentData_1_RemoteAsset_1"><path codeLine="27" d="M283.26,416.35 C256.43,430.56 217.54,451.17 183.9,468.99 " fill="none" id="AttachmentData_1-to-RemoteAsset_1" style="stroke:#181818;stroke-width:1.0;"/><polygon fill="#181818" points="172.64,474.96,179.8145,475.6854,183.2435,469.3417,176.069,468.6163,172.64,474.96" style="stroke:#181818;stroke-width:1.0;"/></g><!--link AttachmentData_1 to RemoteAsset_2--><g id="link_AttachmentData_1_RemoteAsset_2"><path codeLine="28" d="M316,416.11 C316,428.36 316,445.43 316,461.37 " fill="none" id="AttachmentData_1-to-RemoteAsset_2" style="stroke:#181818;stroke-width:1.0;"/><polygon fill="#181818" points="316,474.02,320,468.02,316,462.02,312,468.02,316,474.02" style="stroke:#181818;stroke-width:1.0;"/></g><!--reverse link pubapi_Document_4 to pubapi_Edition_4--><g id="link_pubapi_Document_4_pubapi_Edition_4"><path codeLine="36" d="M504,225.16 C504,241.19 504,260.25 504,274.63 " fill="none" id="pubapi_Document_4-backto-pubapi_Edition_4" style="stroke:#181818;stroke-width:1.0;"/><polygon fill="#181818" points="504,212.49,500,218.49,504,224.49,508,218.49,504,212.49" style="stroke:#181818;stroke-width:1.0;"/></g><!--link Document_1 to pubapi_Document_4--><g id="link_Document_1_pubapi_Document_4"><path codeLine="42" d="M372.77,107.45 C405.93,128.69 449.29,156.46 476.9,174.14 " fill="none" id="Document_1-pubapi_Document_4" style="stroke:#181818;stroke-width:1.0;stroke-dasharray:7.0,7.0;"/></g><!--SRC=[bP8nRuCm48LtVeN5Y4Iae4niI6ctHbMNZkY02xXoR8IFPgZottkuaDe1gUh8y_Ft7kVJfa7ntad23fGINv6fFh0c4HzDFLvGKxwF1LYnV9PxzWYXWD1IYOqaQNGfcrpi9rb-eYz6juXCYzJXuA5FUBN5GB9MEDCzPGwmn0cvQ0Ou4rEy-2HDG_-T-omL5aHGTrxnK9pf3IeavD9dK1QP7nQO8XxliMd9-PMFG33dXABBkKKhCKd73VG2ViEB8IoinQMzfuI3WIlmb7LRZhqoqF31uApprBU8sOgO_OEu-fKqJS9wVriovkXfuLx7IadRSLhHowsbExYk_LX1Bylxun_SK1Vpqy-UXTvPTDRL5grvqqi_tbnAkiuleA5rspjmAEXMeOYruKG-jB4h5ApdRhUk7Nq3]--></g></svg>