<?xml version="1.0" encoding="us-ascii" standalone="no"?><svg xmlns="http://www.w3.org/2000/svg" xmlns:xlink="http://www.w3.org/1999/xlink" contentStyleType="text/css" height="717px" preserveAspectRatio="none" style="width:660px;height:717px;background:#FFFFFF;" version="1.1" viewBox="0 0 660 717" width="660px" zoomAndPan="magnify"><defs/><g><!--cluster Whitehall--><g id="cluster_Whitehall"><polygon fill="none" points="44,16,54,6,442,6,442,549,432,559,44,559,44,16" style="stroke:#181818;stroke-width:1.0;"/><line style="stroke:#181818;stroke-width:1.0;" x1="432" x2="442" y1="16" y2="6"/><line style="stroke:#181818;stroke-width:1.0;" x1="44" x2="432" y1="16" y2="16"/><line style="stroke:#181818;stroke-width:1.0;" x1="432" x2="432" y1="16" y2="559"/><text fill="#000000" font-family="sans-serif" font-size="14" font-weight="bold" lengthAdjust="spacing" textLength="68" x="205" y="32.5352">Whitehall</text></g><!--cluster AssetManager--><g id="cluster_AssetManager"><polygon fill="none" points="16,593,26,583,471,583,471,690,461,700,16,700,16,593" style="stroke:#181818;stroke-width:1.0;"/><line style="stroke:#181818;stroke-width:1.0;" x1="461" x2="471" y1="593" y2="583"/><line style="stroke:#181818;stroke-width:1.0;" x1="16" x2="461" y1="593" y2="593"/><line style="stroke:#181818;stroke-width:1.0;" x1="461" x2="461" y1="593" y2="700"/><text fill="#000000" font-family="sans-serif" font-size="14" font-weight="bold" lengthAdjust="spacing" textLength="101" x="189" y="609.5352">AssetManager</text></g><!--cluster PublishingApi--><g id="cluster_PublishingApi"><polygon fill="none" points="466,141.5,476,131.5,643,131.5,643,323,633,333,466,333,466,141.5" style="stroke:#181818;stroke-width:1.0;"/><line style="stroke:#181818;stroke-width:1.0;" x1="633" x2="643" y1="141.5" y2="131.5"/><line style="stroke:#181818;stroke-width:1.0;" x1="466" x2="633" y1="141.5" y2="141.5"/><line style="stroke:#181818;stroke-width:1.0;" x1="633" x2="633" y1="141.5" y2="333"/><text fill="#000000" font-family="sans-serif" font-size="14" font-weight="bold" lengthAdjust="spacing" textLength="101" x="500" y="158.0352">PublishingApi</text></g><g id="elem_Document_1"><rect fill="#F1F1F1" height="61.4648" style="stroke:#181818;stroke-width:0.5;" width="141" x="272.5" y="46"/><text fill="#000000" font-family="sans-serif" font-size="14" lengthAdjust="spacing" textLength="83" x="301.5" y="61.5352">Document:1</text><line style="stroke:#181818;stroke-width:0.5;" x1="273.5" x2="412.5" y1="66.4883" y2="66.4883"/><text fill="#000000" font-family="sans-serif" font-size="14" lengthAdjust="spacing" textLength="129" x="278.5" y="84.0234">latest_edition_id: 1</text><text fill="#000000" font-family="sans-serif" font-size="14" lengthAdjust="spacing" textLength="102" x="278.5" y="100.5117">live_edition_id:</text></g><g id="elem_NewsArticle_1"><rect fill="#F1F1F1" height="44.9766" style="stroke:#181818;stroke-width:0.5;" width="107" x="242.5" y="167"/><text fill="#000000" font-family="sans-serif" font-size="14" lengthAdjust="spacing" textLength="93" x="249.5" y="182.5352">NewsArticle:1</text><line style="stroke:#181818;stroke-width:0.5;" x1="243.5" x2="348.5" y1="187.4883" y2="187.4883"/><text fill="#000000" font-family="sans-serif" font-size="14" lengthAdjust="spacing" textLength="74" x="248.5" y="205.0234">state: draft</text></g><g id="elem_FileAttachment_1"><rect fill="#F1F1F1" height="44.9766" style="stroke:#181818;stroke-width:0.5;" width="130" x="208" y="272"/><text fill="#000000" font-family="sans-serif" font-size="14" lengthAdjust="spacing" textLength="116" x="215" y="287.5352">FileAttachment:1</text><line style="stroke:#181818;stroke-width:0.5;" x1="209" x2="337" y1="292.4883" y2="292.4883"/><text fill="#000000" font-family="sans-serif" font-size="14" lengthAdjust="spacing" textLength="91" x="214" y="310.0234">deleted: false</text></g><g id="elem_AttachmentData_1"><rect fill="#F1F1F1" height="44.9766" style="stroke:#181818;stroke-width:0.5;" width="329" x="96.5" y="377"/><text fill="#000000" font-family="sans-serif" font-size="14" lengthAdjust="spacing" textLength="123" x="199.5" y="392.5352">AttachmentData:1</text><line style="stroke:#181818;stroke-width:0.5;" x1="97.5" x2="424.5" y1="397.4883" y2="397.4883"/><text fill="#000000" font-family="sans-serif" font-size="14" lengthAdjust="spacing" textLength="317" x="102.5" y="415.0234">uploaded_to_asset_manager_at: 24 May 16:28</text></g><g id="elem_RemoteAsset_1"><rect fill="#F1F1F1" height="61.4648" style="stroke:#181818;stroke-width:0.5;" width="165" x="60.5" y="482"/><text fill="#000000" font-family="sans-serif" font-size="14" lengthAdjust="spacing" textLength="102" x="92" y="497.5352">RemoteAsset:1</text><line style="stroke:#181818;stroke-width:0.5;" x1="61.5" x2="224.5" y1="502.4883" y2="502.4883"/><text fill="#000000" font-family="sans-serif" font-size="14" lengthAdjust="spacing" textLength="106" x="66.5" y="520.0234">state: uploaded</text><text fill="#000000" font-family="sans-serif" font-size="14" lengthAdjust="spacing" textLength="153" x="66.5" y="536.5117">remote_id: X164e681f</text></g><g id="elem_RemoteAsset_2"><rect fill="#F1F1F1" height="61.4648" style="stroke:#181818;stroke-width:0.5;" width="165" x="260.5" y="482"/><text fill="#000000" font-family="sans-serif" font-size="14" lengthAdjust="spacing" textLength="102" x="292" y="497.5352">RemoteAsset:2</text><line style="stroke:#181818;stroke-width:0.5;" x1="261.5" x2="424.5" y1="502.4883" y2="502.4883"/><text fill="#000000" font-family="sans-serif" font-size="14" lengthAdjust="spacing" textLength="106" x="266.5" y="520.0234">state: uploaded</text><text fill="#000000" font-family="sans-serif" font-size="14" lengthAdjust="spacing" textLength="153" x="266.5" y="536.5117">remote_id: X174e681f</text></g><g id="elem_am_WhitehallAsset_X164e681f"><rect fill="#F1F1F1" height="61.4648" style="stroke:#181818;stroke-width:0.5;" width="194" x="32" y="623"/><text fill="#000000" font-family="sans-serif" font-size="14" lengthAdjust="spacing" textLength="180" x="39" y="638.5352">WhitehallAsset:X164e681f</text><line style="stroke:#181818;stroke-width:0.5;" x1="33" x2="225" y1="643.4883" y2="643.4883"/><text fill="#000000" font-family="sans-serif" font-size="14" lengthAdjust="spacing" textLength="116" x="38" y="661.0234">state: unscanned</text><text fill="#000000" font-family="sans-serif" font-size="14" lengthAdjust="spacing" textLength="69" x="38" y="677.5117">draft: true</text></g><g id="elem_am_WhitehallAsset_X174e681f"><rect fill="#F1F1F1" height="61.4648" style="stroke:#181818;stroke-width:0.5;" width="194" x="261" y="623"/><text fill="#000000" font-family="sans-serif" font-size="14" lengthAdjust="spacing" textLength="180" x="268" y="638.5352">WhitehallAsset:X174e681f</text><line style="stroke:#181818;stroke-width:0.5;" x1="262" x2="454" y1="643.4883" y2="643.4883"/><text fill="#000000" font-family="sans-serif" font-size="14" lengthAdjust="spacing" textLength="116" x="267" y="661.0234">state: unscanned</text><text fill="#000000" font-family="sans-serif" font-size="14" lengthAdjust="spacing" textLength="69" x="267" y="677.5117">draft: true</text></g><g id="elem_pubapi_Document_4"><rect fill="#F1F1F1" height="36.4883" style="stroke:#181818;stroke-width:0.5;" width="97" x="482.5" y="171.5"/><text fill="#000000" font-family="sans-serif" font-size="14" lengthAdjust="spacing" textLength="83" x="489.5" y="187.0352">Document:4</text><line style="stroke:#181818;stroke-width:0.5;" x1="483.5" x2="578.5" y1="191.9883" y2="191.9883"/></g><g id="elem_pubapi_Edition_4"><rect fill="#F1F1F1" height="44.9766" style="stroke:#181818;stroke-width:0.5;" width="86" x="488" y="272"/><text fill="#000000" font-family="sans-serif" font-size="14" lengthAdjust="spacing" textLength="61" x="500.5" y="287.5352">Edition:4</text><line style="stroke:#181818;stroke-width:0.5;" x1="489" x2="573" y1="292.4883" y2="292.4883"/><text fill="#000000" font-family="sans-serif" font-size="14" lengthAdjust="spacing" textLength="74" x="494" y="310.0234">state: draft</text></g><!--reverse link Document_1 to NewsArticle_1--><g id="link_Document_1_NewsArticle_1"><path codeLine="10" d="M324.94,120.15 C318.2,136.08 310.82,153.5 305.2,166.77 " fill="none" id="Document_1-backto-NewsArticle_1" style="stroke:#181818;stroke-width:1.0;"/><polygon fill="#181818" points="329.81,108.64,323.7905,112.6105,325.1403,119.6942,331.1599,115.7236,329.81,108.64" style="stroke:#181818;stroke-width:1.0;"/></g><!--reverse link NewsArticle_1 to FileAttachment_1--><g id="link_NewsArticle_1_FileAttachment_1"><path codeLine="14" d="M288.06,226.06 C284.67,241.23 280.83,258.45 277.87,271.69 " fill="none" id="NewsArticle_1-backto-FileAttachment_1" style="stroke:#181818;stroke-width:1.0;"/><polygon fill="#181818" points="290.79,213.82,285.5801,218.8057,288.1785,225.5324,293.3884,220.5467,290.79,213.82" style="stroke:#181818;stroke-width:1.0;"/></g><!--link FileAttachment_1 to AttachmentData_1--><g id="link_FileAttachment_1_AttachmentData_1"><path codeLine="19" d="M270.46,317.34 C268.93,330.45 266.95,347.45 265.19,362.5 " fill="none" id="FileAttachment_1-to-AttachmentData_1" style="stroke:#181818;stroke-width:1.0;"/><polygon fill="#181818" points="263.72,375.18,268.3855,369.6816,265.1045,363.2601,260.439,368.7586,263.72,375.18" style="stroke:#181818;stroke-width:1.0;"/></g><!--link AttachmentData_1 to RemoteAsset_1--><g id="link_AttachmentData_1_RemoteAsset_1"><path codeLine="28" d="M237.69,422.43 C222.64,436.58 202.63,455.41 184.89,472.1 " fill="none" id="AttachmentData_1-to-RemoteAsset_1" style="stroke:#181818;stroke-width:1.0;"/><polygon fill="#181818" points="175.86,480.59,182.9716,479.3963,184.605,472.3726,177.4934,473.5663,175.86,480.59" style="stroke:#181818;stroke-width:1.0;"/></g><!--link AttachmentData_1 to RemoteAsset_2--><g id="link_AttachmentData_1_RemoteAsset_2"><path codeLine="29" d="M277.2,422.43 C287.27,436.06 300.53,454 312.5,470.22 " fill="none" id="AttachmentData_1-to-RemoteAsset_2" style="stroke:#181818;stroke-width:1.0;"/><polygon fill="#181818" points="320.04,480.41,319.6906,473.2074,312.9077,470.7596,313.257,477.9622,320.04,480.41" style="stroke:#181818;stroke-width:1.0;"/></g><!--reverse link pubapi_Document_4 to pubapi_Edition_4--><g id="link_pubapi_Document_4_pubapi_Edition_4"><path codeLine="48" d="M531,222.16 C531,238.19 531,257.25 531,271.63 " fill="none" id="pubapi_Document_4-backto-pubapi_Edition_4" style="stroke:#181818;stroke-width:1.0;"/><polygon fill="#181818" points="531,209.49,527,215.49,531,221.49,535,215.49,531,209.49" style="stroke:#181818;stroke-width:1.0;"/></g><!--link Document_1 to pubapi_Document_4--><g id="link_Document_1_pubapi_Document_4"><path codeLine="50" d="M393.38,107.25 C427.97,127.67 472.68,154.07 501.6,171.14 " fill="none" id="Document_1-pubapi_Document_4" style="stroke:#181818;stroke-width:1.0;stroke-dasharray:7.0,7.0;"/></g><!--link RemoteAsset_1 to am_WhitehallAsset_X164e681f--><g id="link_RemoteAsset_1_am_WhitehallAsset_X164e681f"><path codeLine="51" d="M140,543.32 C137.63,566.77 134.36,599.29 132,622.73 " fill="none" id="RemoteAsset_1-am_WhitehallAsset_X164e681f" style="stroke:#181818;stroke-width:1.0;stroke-dasharray:7.0,7.0;"/></g><!--link RemoteAsset_2 to am_WhitehallAsset_X174e681f--><g id="link_RemoteAsset_2_am_WhitehallAsset_X174e681f"><path codeLine="52" d="M346.22,543.32 C348.75,566.77 352.26,599.29 354.79,622.73 " fill="none" id="RemoteAsset_2-am_WhitehallAsset_X174e681f" style="stroke:#181818;stroke-width:1.0;stroke-dasharray:7.0,7.0;"/></g><!--SRC=[bLD1ReCm4Bpp2Yl7I4G2eIJY5YdjBLNLItkpDh09hen1U6bLLVrxZGF43cdJ7ZqUpyokTrML8tik1641KhBFeDg_OaPijgsojaH5QJHZeDbmv97XC2Q1K1F7N92e51Tvog8E5c_eWi5NGDKHgS36aNx0TxrfI6GIUtK7wGqq6OUKvGqSoAWuzlCmzFcZxhsGk262h722-s2ldgD4GXFw05AZqVS3T1QNxmnfy3d3Mo3eVNomzsbhMK6EEQUAWzP8l0G5HsmuKChYXEtWWqNBD5uR-Od2F6olv1XIF65P4MuwrJw2W_XT768OfB4S-s4lqJB1vJewEAMvel54DFwBw6eKdHGKXdC_v6rAR7HKDwFsk3jrpvcbSNHFcSUQR7OekN_Fntkl4gKpKCgMOWSkPTIqwBHbuhAwuRBwZyjGucExbq8NGXqtjRYsYedrgzizr8AFAv4OwZdgtMdxV6uFMkfajwPwtVnVllINSB6OnWZy-JEKN_eV-7Fr0xblupS0]--></g></svg>