<?xml version="1.0" encoding="us-ascii" standalone="no"?><svg xmlns="http://www.w3.org/2000/svg" xmlns:xlink="http://www.w3.org/1999/xlink" contentStyleType="text/css" height="2590.625px" preserveAspectRatio="none" style="width:4000px;height:2590px;background:#FFFFFF;" version="1.1" viewBox="0 0 4000 2590" width="4000px" zoomAndPan="magnify"><defs/><g><!--cluster Editions--><g id="cluster_Editions"><rect fill="none" height="787.5" rx="7.8125" ry="7.8125" style="stroke:#181818;stroke-width:3.125;" width="1168.75" x="1000" y="425"/><text fill="#000000" font-family="sans-serif" font-size="43.75" font-weight="bold" lengthAdjust="spacing" textLength="184.375" x="1492.1875" y="473.5474">Editions</text></g><!--cluster Attachments--><g id="cluster_Attachments"><rect fill="none" height="829.6875" rx="7.8125" ry="7.8125" style="stroke:#181818;stroke-width:3.125;" width="2753.125" x="21.875" y="1315.625"/><text fill="#000000" font-family="sans-serif" font-size="43.75" font-weight="bold" lengthAdjust="spacing" textLength="284.375" x="1256.25" y="1364.1724">Attachments</text></g><!--cluster Images--><g id="cluster_Images"><rect fill="none" height="787.5" rx="7.8125" ry="7.8125" style="stroke:#181818;stroke-width:3.125;" width="1131.25" x="2850" y="1340.625"/><text fill="#000000" font-family="sans-serif" font-size="43.75" font-weight="bold" lengthAdjust="spacing" textLength="162.5" x="3334.375" y="1389.1724">Images</text></g><!--class Edition--><g id="elem_Edition"><rect codeLine="9" fill="#F1F1F1" height="203.4668" id="Edition" rx="7.8125" ry="7.8125" style="stroke:#181818;stroke-width:1.5625;" width="250" x="1056.25" y="534.375"/><ellipse cx="1103.125" cy="597.8455" fill="#A9DCDF" rx="34.375" ry="34.375" style="stroke:#181818;stroke-width:3.125;"/><path d="M1102.6978,583.3084 L1099.0921,599.1577 L1106.3293,599.1577 Z M1098.0286,576.3046 L1107.3929,576.3046 L1117.8467,615.033 L1110.1944,615.033 L1107.8079,605.4611 L1097.5616,605.4611 L1095.2271,615.033 L1087.5748,615.033 Z " fill="#000000"/><text fill="#000000" font-family="sans-serif" font-size="37.5" font-style="italic" lengthAdjust="spacing" textLength="150" x="1146.875" y="586.2549">&#171;model&#187;</text><text fill="#000000" font-family="sans-serif" font-size="43.75" font-style="italic" lengthAdjust="spacing" textLength="150" x="1146.875" y="636.4624">Edition</text><line style="stroke:#181818;stroke-width:1.5625;" x1="1059.375" x2="1303.125" y1="661.3159" y2="661.3159"/><text fill="#000000" font-family="sans-serif" font-size="43.75" lengthAdjust="spacing" textLength="103.125" x="1075" y="716.1133">state</text></g><g id="elem_othereds"><ellipse cx="1205.6148" cy="1099.034" fill="#F1F1F1" rx="155.6148" ry="45.909" style="stroke:#181818;stroke-width:1.5625;"/><text fill="#000000" font-family="sans-serif" font-size="43.75" lengthAdjust="spacing" textLength="168.75" x="1113.6061" y="1111.2255">(others)</text></g><!--class Attachable--><g id="elem_Attachable"><rect codeLine="16" fill="#F1F1F1" height="126.9409" id="Attachable" rx="7.8125" ry="7.8125" style="stroke:#181818;stroke-width:1.5625;" width="328.125" x="1473.4375" y="1034.375"/><ellipse cx="1520.3125" cy="1097.8455" fill="#A9DCDF" rx="34.375" ry="34.375" style="stroke:#181818;stroke-width:3.125;"/><path d="M1519.8853,1083.3084 L1516.2796,1099.1577 L1523.5168,1099.1577 Z M1515.2161,1076.3046 L1524.5804,1076.3046 L1535.0342,1115.033 L1527.3819,1115.033 L1524.9954,1105.4611 L1514.7491,1105.4611 L1512.4146,1115.033 L1504.7623,1115.033 Z " fill="#000000"/><text fill="#000000" font-family="sans-serif" font-size="37.5" font-style="italic" lengthAdjust="spacing" textLength="178.125" x="1589.0625" y="1086.2549">&#171;concern&#187;</text><text fill="#000000" font-family="sans-serif" font-size="43.75" font-style="italic" lengthAdjust="spacing" textLength="228.125" x="1564.0625" y="1136.4624">Attachable</text></g><!--class Attachment--><g id="elem_Attachment"><rect codeLine="21" fill="#F1F1F1" height="126.9409" id="Attachment" rx="7.8125" ry="7.8125" style="stroke:#181818;stroke-width:1.5625;" width="346.875" x="1020.3125" y="1450"/><ellipse cx="1067.1875" cy="1513.4705" fill="#A9DCDF" rx="34.375" ry="34.375" style="stroke:#181818;stroke-width:3.125;"/><path d="M1066.7603,1498.9334 L1063.1546,1514.7827 L1070.3918,1514.7827 Z M1062.0911,1491.9296 L1071.4554,1491.9296 L1081.9092,1530.658 L1074.2569,1530.658 L1071.8704,1521.0861 L1061.6241,1521.0861 L1059.2896,1530.658 L1051.6373,1530.658 Z " fill="#000000"/><text fill="#000000" font-family="sans-serif" font-size="37.5" font-style="italic" lengthAdjust="spacing" textLength="150" x="1159.375" y="1501.8799">&#171;model&#187;</text><text fill="#000000" font-family="sans-serif" font-size="43.75" font-style="italic" lengthAdjust="spacing" textLength="246.875" x="1110.9375" y="1552.0874">Attachment</text></g><!--class FileAttachment--><g id="elem_FileAttachment"><rect codeLine="22" fill="#F1F1F1" height="126.9409" id="FileAttachment" rx="7.8125" ry="7.8125" style="stroke:#181818;stroke-width:1.5625;" width="421.875" x="98.4375" y="1912.5"/><ellipse cx="145.3125" cy="1975.9705" fill="#ADD1B2" rx="34.375" ry="34.375" style="stroke:#181818;stroke-width:3.125;"/><path d="M153.0411,1995.1675 Q151.2253,1996.1014 149.2279,1996.5683 Q147.2305,1997.0352 145.0256,1997.0352 Q137.1918,1997.0352 133.0673,1991.8732 Q128.9429,1986.7111 128.9429,1976.9577 Q128.9429,1967.1783 133.0673,1962.0163 Q137.1918,1956.8542 145.0256,1956.8542 Q147.2305,1956.8542 149.2538,1957.3212 Q151.2772,1957.7881 153.0411,1958.7219 L153.0411,1967.2302 Q151.0696,1965.4144 149.2149,1964.5714 Q147.3602,1963.7283 145.3888,1963.7283 Q141.1865,1963.7283 139.0465,1967.0616 Q136.9064,1970.3949 136.9064,1976.9577 Q136.9064,1983.4946 139.0465,1986.8279 Q141.1865,1990.1611 145.3888,1990.1611 Q147.3602,1990.1611 149.2149,1989.3181 Q151.0696,1988.475 153.0411,1986.6592 Z " fill="#000000"/><text fill="#000000" font-family="sans-serif" font-size="37.5" font-style="italic" lengthAdjust="spacing" textLength="150" x="275" y="1964.3799">&#171;model&#187;</text><text fill="#000000" font-family="sans-serif" font-size="43.75" lengthAdjust="spacing" textLength="321.875" x="189.0625" y="2014.5874">FileAttachment</text></g><g id="elem_otheratts"><ellipse cx="1065.3192" cy="1977.1263" fill="#F1F1F1" rx="434.0692" ry="94.3138" style="stroke:#181818;stroke-width:1.5625;"/><text fill="#000000" font-family="sans-serif" font-size="43.75" lengthAdjust="spacing" textLength="771.875" x="679.3817" y="1987.4108">(other attachments - html, external)</text></g><!--class AttachmentData--><g id="elem_AttachmentData"><rect codeLine="27" fill="#F1F1F1" height="203.4668" id="AttachmentData" rx="7.8125" ry="7.8125" style="stroke:#181818;stroke-width:1.5625;" width="443.75" x="1609.375" y="1875"/><ellipse cx="1656.25" cy="1938.4705" fill="#ADD1B2" rx="34.375" ry="34.375" style="stroke:#181818;stroke-width:3.125;"/><path d="M1663.9786,1957.6675 Q1662.1628,1958.6014 1660.1654,1959.0683 Q1658.168,1959.5352 1655.9631,1959.5352 Q1648.1293,1959.5352 1644.0048,1954.3732 Q1639.8804,1949.2111 1639.8804,1939.4577 Q1639.8804,1929.6783 1644.0048,1924.5163 Q1648.1293,1919.3542 1655.9631,1919.3542 Q1658.168,1919.3542 1660.1913,1919.8212 Q1662.2147,1920.2881 1663.9786,1921.2219 L1663.9786,1929.7302 Q1662.0071,1927.9144 1660.1524,1927.0714 Q1658.2977,1926.2283 1656.3263,1926.2283 Q1652.124,1926.2283 1649.984,1929.5616 Q1647.8439,1932.8949 1647.8439,1939.4577 Q1647.8439,1945.9946 1649.984,1949.3279 Q1652.124,1952.6611 1656.3263,1952.6611 Q1658.2977,1952.6611 1660.1524,1951.8181 Q1662.0071,1950.975 1663.9786,1949.1592 Z " fill="#000000"/><text fill="#000000" font-family="sans-serif" font-size="37.5" font-style="italic" lengthAdjust="spacing" textLength="150" x="1796.875" y="1926.8799">&#171;model&#187;</text><text fill="#000000" font-family="sans-serif" font-size="43.75" lengthAdjust="spacing" textLength="343.75" x="1700" y="1977.0874">AttachmentData</text><line style="stroke:#181818;stroke-width:1.5625;" x1="1612.5" x2="2050" y1="2001.9409" y2="2001.9409"/><text fill="#000000" font-family="sans-serif" font-size="43.75" lengthAdjust="spacing" textLength="65.625" x="1628.125" y="2056.7383">file</text></g><g id="elem_GMN16"><path d="M2162.5,1937.5 L2162.5,1964.0625 L2053.75,1976.5625 L2162.5,1989.0625 L2162.5,2016.5955 A0,0 0 0 0 2162.5,2016.5955 L2725,2016.5955 A0,0 0 0 0 2725,2016.5955 L2725,1968.75 L2693.75,1937.5 L2162.5,1937.5 A0,0 0 0 0 2162.5,1937.5 " fill="#FEFFDD" style="stroke:#181818;stroke-width:1.5625;"/><path d="M2693.75,1937.5 L2693.75,1968.75 L2725,1968.75 L2693.75,1937.5 " fill="#FEFFDD" style="stroke:#181818;stroke-width:1.5625;"/><text fill="#000000" font-family="sans-serif" font-size="40.625" lengthAdjust="spacing" textLength="496.875" x="2181.25" y="1992.4011">only for file attachments!</text></g><!--class Image--><g id="elem_Image"><rect codeLine="36" fill="#F1F1F1" height="126.9409" id="Image" rx="7.8125" ry="7.8125" style="stroke:#181818;stroke-width:1.5625;" width="237.5" x="2900" y="1450"/><ellipse cx="2946.875" cy="1513.4705" fill="#ADD1B2" rx="34.375" ry="34.375" style="stroke:#181818;stroke-width:3.125;"/><path d="M2954.6036,1532.6675 Q2952.7878,1533.6014 2950.7904,1534.0683 Q2948.793,1534.5352 2946.5881,1534.5352 Q2938.7543,1534.5352 2934.6298,1529.3732 Q2930.5054,1524.2111 2930.5054,1514.4577 Q2930.5054,1504.6783 2934.6298,1499.5163 Q2938.7543,1494.3542 2946.5881,1494.3542 Q2948.793,1494.3542 2950.8163,1494.8212 Q2952.8397,1495.2881 2954.6036,1496.2219 L2954.6036,1504.7302 Q2952.6321,1502.9144 2950.7774,1502.0714 Q2948.9227,1501.2283 2946.9513,1501.2283 Q2942.749,1501.2283 2940.609,1504.5616 Q2938.4689,1507.8949 2938.4689,1514.4577 Q2938.4689,1520.9946 2940.609,1524.3279 Q2942.749,1527.6611 2946.9513,1527.6611 Q2948.9227,1527.6611 2950.7774,1526.8181 Q2952.6321,1525.975 2954.6036,1524.1592 Z " fill="#000000"/><text fill="#000000" font-family="sans-serif" font-size="37.5" font-style="italic" lengthAdjust="spacing" textLength="150" x="2984.375" y="1501.8799">&#171;model&#187;</text><text fill="#000000" font-family="sans-serif" font-size="43.75" lengthAdjust="spacing" textLength="131.25" x="2993.75" y="1552.0874">Image</text></g><!--class ImageData--><g id="elem_ImageData"><rect codeLine="37" fill="#F1F1F1" height="203.4668" id="ImageData" rx="7.8125" ry="7.8125" style="stroke:#181818;stroke-width:1.5625;" width="328.125" x="2901.5625" y="1875"/><ellipse cx="2948.4375" cy="1938.4705" fill="#ADD1B2" rx="34.375" ry="34.375" style="stroke:#181818;stroke-width:3.125;"/><path d="M2956.1661,1957.6675 Q2954.3503,1958.6014 2952.3529,1959.0683 Q2950.3555,1959.5352 2948.1506,1959.5352 Q2940.3168,1959.5352 2936.1923,1954.3732 Q2932.0679,1949.2111 2932.0679,1939.4577 Q2932.0679,1929.6783 2936.1923,1924.5163 Q2940.3168,1919.3542 2948.1506,1919.3542 Q2950.3555,1919.3542 2952.3788,1919.8212 Q2954.4022,1920.2881 2956.1661,1921.2219 L2956.1661,1929.7302 Q2954.1946,1927.9144 2952.3399,1927.0714 Q2950.4852,1926.2283 2948.5138,1926.2283 Q2944.3115,1926.2283 2942.1715,1929.5616 Q2940.0314,1932.8949 2940.0314,1939.4577 Q2940.0314,1945.9946 2942.1715,1949.3279 Q2944.3115,1952.6611 2948.5138,1952.6611 Q2950.4852,1952.6611 2952.3399,1951.8181 Q2954.1946,1950.975 2956.1661,1949.1592 Z " fill="#000000"/><text fill="#000000" font-family="sans-serif" font-size="37.5" font-style="italic" lengthAdjust="spacing" textLength="150" x="3031.25" y="1926.8799">&#171;model&#187;</text><text fill="#000000" font-family="sans-serif" font-size="43.75" lengthAdjust="spacing" textLength="228.125" x="2992.1875" y="1977.0874">ImageData</text><line style="stroke:#181818;stroke-width:1.5625;" x1="2904.6875" x2="3226.5625" y1="2001.9409" y2="2001.9409"/><text fill="#000000" font-family="sans-serif" font-size="43.75" lengthAdjust="spacing" textLength="65.625" x="2920.3125" y="2056.7383">file</text></g><!--class Document--><g id="elem_Document"><rect codeLine="50" fill="#F1F1F1" height="254.9927" id="Document" rx="7.8125" ry="7.8125" style="stroke:#181818;stroke-width:1.5625;" width="325" x="1018.75" y="21.875"/><ellipse cx="1068.4375" cy="85.3455" fill="#ADD1B2" rx="34.375" ry="34.375" style="stroke:#181818;stroke-width:3.125;"/><path d="M1076.1661,104.5425 Q1074.3503,105.4764 1072.3529,105.9433 Q1070.3555,106.4102 1068.1506,106.4102 Q1060.3168,106.4102 1056.1923,101.2482 Q1052.0679,96.0861 1052.0679,86.3327 Q1052.0679,76.5533 1056.1923,71.3913 Q1060.3168,66.2292 1068.1506,66.2292 Q1070.3555,66.2292 1072.3788,66.6962 Q1074.4022,67.1631 1076.1661,68.0969 L1076.1661,76.6052 Q1074.1946,74.7894 1072.3399,73.9464 Q1070.4852,73.1033 1068.5138,73.1033 Q1064.3115,73.1033 1062.1715,76.4366 Q1060.0314,79.7699 1060.0314,86.3327 Q1060.0314,92.8696 1062.1715,96.2029 Q1064.3115,99.5361 1068.5138,99.5361 Q1070.4852,99.5361 1072.3399,98.6931 Q1074.1946,97.85 1076.1661,96.0342 Z " fill="#000000"/><text fill="#000000" font-family="sans-serif" font-size="37.5" font-style="italic" lengthAdjust="spacing" textLength="150" x="1147.1875" y="73.7549">&#171;model&#187;</text><text fill="#000000" font-family="sans-serif" font-size="43.75" lengthAdjust="spacing" textLength="218.75" x="1112.8125" y="123.9624">Document</text><line style="stroke:#181818;stroke-width:1.5625;" x1="1021.875" x2="1340.625" y1="148.8159" y2="148.8159"/><text fill="#000000" font-family="sans-serif" font-size="43.75" lengthAdjust="spacing" textLength="287.5" x="1037.5" y="203.6133">latest_edition</text><text fill="#000000" font-family="sans-serif" font-size="43.75" lengthAdjust="spacing" textLength="243.75" x="1037.5" y="255.1392">live_edition</text></g><!--class RemoteAsset--><g id="elem_RemoteAsset"><rect codeLine="55" fill="#F1F1F1" height="279.5776" id="RemoteAsset" rx="7.8125" ry="7.8125" style="stroke:#181818;stroke-width:1.5625;" width="378.125" x="2257.8125" y="2292.1875"/><ellipse cx="2304.6875" cy="2342.1875" fill="#ADD1B2" rx="34.375" ry="34.375" style="stroke:#181818;stroke-width:3.125;"/><path d="M2312.4161,2361.3846 Q2310.6003,2362.3184 2308.6029,2362.7853 Q2306.6055,2363.2523 2304.4006,2363.2523 Q2296.5668,2363.2523 2292.4423,2358.0902 Q2288.3179,2352.9282 2288.3179,2343.1747 Q2288.3179,2333.3954 2292.4423,2328.2333 Q2296.5668,2323.0713 2304.4006,2323.0713 Q2306.6055,2323.0713 2308.6288,2323.5382 Q2310.6522,2324.0051 2312.4161,2324.939 L2312.4161,2333.4473 Q2310.4446,2331.6315 2308.5899,2330.7884 Q2306.7352,2329.9454 2304.7638,2329.9454 Q2300.5615,2329.9454 2298.4215,2333.2787 Q2296.2814,2336.6119 2296.2814,2343.1747 Q2296.2814,2349.7116 2298.4215,2353.0449 Q2300.5615,2356.3782 2304.7638,2356.3782 Q2306.7352,2356.3782 2308.5899,2355.5351 Q2310.4446,2354.6921 2312.4161,2352.8763 Z " fill="#000000"/><text fill="#000000" font-family="sans-serif" font-size="43.75" lengthAdjust="spacing" textLength="278.125" x="2348.4375" y="2358.7219">RemoteAsset</text><line style="stroke:#181818;stroke-width:1.5625;" x1="2260.9375" x2="2632.8125" y1="2392.1875" y2="2392.1875"/><text fill="#000000" font-family="sans-serif" font-size="43.75" lengthAdjust="spacing" textLength="184.375" x="2276.5625" y="2446.9849">filename</text><text fill="#000000" font-family="sans-serif" font-size="43.75" lengthAdjust="spacing" textLength="215.625" x="2276.5625" y="2498.5107">remote_id</text><text fill="#000000" font-family="sans-serif" font-size="43.75" lengthAdjust="spacing" textLength="103.125" x="2276.5625" y="2550.0366">state</text></g><!--reverse link Edition to othereds--><g id="link_Edition_othereds"><path codeLine="13" d="M1077.0313,798.5625 C1059.125,844.4688 1051.25,894.5625 1068.75,940.625 C1086.125,986.3125 1123.8438,1027.0938 1155.375,1055.3125 " fill="none" id="Edition-backto-othereds" style="stroke:#0000FF;stroke-width:6.25;"/><polygon fill="none" points="1057.375,788.9375,1104.6563,742.5625,1096.5938,808.3125,1057.375,788.9375" style="stroke:#0000FF;stroke-width:6.25;"/></g><!--reverse link Edition to Attachable--><g id="link_Edition_Attachable"><path codeLine="14" d="M1327.1563,784.9688 C1410.875,868.6875 1511.625,969.4375 1575.1562,1032.9688 " fill="none" id="Edition-backto-Attachable" style="stroke:#0000FF;stroke-width:6.25;"/><polygon fill="none" points="1312.3125,801.0625,1283.5938,741.4063,1343.25,770.125,1312.3125,801.0625" style="stroke:#0000FF;stroke-width:6.25;"/><path d="M1490.625,846.875 L1490.625,925 L2396.875,925 L2396.875,878.125 L2365.625,846.875 L1490.625,846.875 " fill="#FEFFDD" style="stroke:#181818;stroke-width:1.5625;"/><path d="M2365.625,846.875 L2365.625,878.125 L2396.875,878.125 L2365.625,846.875 " fill="#FEFFDD" style="stroke:#181818;stroke-width:1.5625;"/><text fill="#000000" font-family="sans-serif" font-size="40.625" lengthAdjust="spacing" textLength="840.625" x="1509.375" y="901.7761">several Edition descendants are Attachable</text></g><!--reverse link Attachment to otheratts--><g id="link_Attachment_otheratts"><path codeLine="24" d="M1126.0625,1636.9062 C1120.9688,1648.5 1116.3438,1660.2813 1112.5,1671.875 C1089.9063,1740.3125 1078.0938,1821.125 1071.9688,1881.875 " fill="none" id="Attachment-backto-otheratts" style="stroke:#0000FF;stroke-width:6.25;"/><polygon fill="none" points="1105.8125,1628.4688,1153.5313,1582.5625,1144.8438,1648.1875,1105.8125,1628.4688" style="stroke:#0000FF;stroke-width:6.25;"/></g><!--reverse link Attachment to FileAttachment--><g id="link_Attachment_FileAttachment"><path codeLine="25" d="M1013.8438,1610 C839.9063,1699.75 581.1563,1833.2188 430.4375,1910.9688 " fill="none" id="Attachment-backto-FileAttachment" style="stroke:#0000FF;stroke-width:6.25;"/><polygon fill="none" points="1002.8438,1591.0625,1068.4375,1581.8438,1022.9063,1629.9375,1002.8438,1591.0625" style="stroke:#0000FF;stroke-width:6.25;"/></g><!--link Attachment to AttachmentData--><g id="link_Attachment_AttachmentData"><path codeLine="31" d="M1281.0625,1579.6563 C1377.1563,1648.4688 1534.1875,1760.8438 1655.9375,1847.9688 " fill="none" id="Attachment-to-AttachmentData" style="stroke:#181818;stroke-width:3.125;"/><polygon fill="#181818" points="1688.625,1871.375,1680.6599,1850.2949,1658.1379,1849.5396,1666.103,1870.6197,1688.625,1871.375" style="stroke:#181818;stroke-width:3.125;"/><path d="M1565.625,1687.5 L1565.625,1765.625 L2559.375,1765.625 L2559.375,1718.75 L2528.125,1687.5 L1565.625,1687.5 " fill="#FEFFDD" style="stroke:#181818;stroke-width:1.5625;"/><path d="M2528.125,1687.5 L2528.125,1718.75 L2559.375,1718.75 L2528.125,1687.5 " fill="#FEFFDD" style="stroke:#181818;stroke-width:1.5625;"/><text fill="#000000" font-family="sans-serif" font-size="40.625" lengthAdjust="spacing" textLength="928.125" x="1584.375" y="1742.4011">links to attachments from past editions as well</text></g><!--link Image to ImageData--><g id="link_Image_ImageData"><path codeLine="40" d="M3025.1563,1579.6563 C3031.75,1643.7188 3042.2188,1745.5312 3050.8438,1829.5938 " fill="none" id="Image-to-ImageData" style="stroke:#181818;stroke-width:3.125;"/><polygon fill="#181818" points="3054.9375,1869.4063,3065.4553,1849.4767,3051.1041,1832.1027,3040.5863,1852.0323,3054.9375,1869.4063" style="stroke:#181818;stroke-width:3.125;"/><path d="M3059.375,1687.5 L3059.375,1765.625 L3950,1765.625 L3950,1718.75 L3918.75,1687.5 L3059.375,1687.5 " fill="#FEFFDD" style="stroke:#181818;stroke-width:1.5625;"/><path d="M3918.75,1687.5 L3918.75,1718.75 L3950,1718.75 L3918.75,1687.5 " fill="#FEFFDD" style="stroke:#181818;stroke-width:1.5625;"/><text fill="#000000" font-family="sans-serif" font-size="40.625" lengthAdjust="spacing" textLength="825" x="3078.125" y="1742.4011">links to images from past editions as well</text></g><!--reverse link Edition to Image--><g id="link_Edition_Image"><path codeLine="44" d="M1351.9688,650.4687 C1650.8125,672.8437 2254.2813,729.3438 2437.5,831.25 C2708.875,982.1875 2911,1312.125 2986.4375,1449.25 " fill="none" id="Edition-backto-Image" style="stroke:#181818;stroke-width:3.125;"/><polygon fill="#181818" points="1312.3125,647.5625,1330.107,661.3889,1349.7138,650.2811,1331.9194,636.4547,1312.3125,647.5625" style="stroke:#181818;stroke-width:3.125;"/></g><!--reverse link Document to Edition--><g id="link_Document_Edition"><path codeLine="46" d="M1181.25,323.7813 C1181.25,393.9688 1181.25,472.8437 1181.25,533.3437 " fill="none" id="Document-backto-Edition" style="stroke:#181818;stroke-width:3.125;"/><polygon fill="#181818" points="1181.25,283.875,1168.75,302.625,1181.25,321.375,1193.75,302.625,1181.25,283.875" style="stroke:#181818;stroke-width:3.125;"/></g><!--reverse link Attachable to Attachment--><g id="link_Attachable_Attachment"><path codeLine="48" d="M1537.25,1194.0313 C1452.5938,1272.1563 1333.7188,1381.8125 1260.3125,1449.5313 " fill="none" id="Attachable-backto-Attachment" style="stroke:#181818;stroke-width:3.125;"/><polygon fill="#181818" points="1566.625,1166.9375,1544.3674,1170.4605,1539.0588,1192.361,1561.3164,1188.838,1566.625,1166.9375" style="stroke:#181818;stroke-width:3.125;"/></g><!--link AttachmentData to RemoteAsset--><g id="link_AttachmentData_RemoteAsset"><path codeLine="61" d="M1967.875,2079.2188 C2042.875,2133.8438 2137.7813,2202.9688 2223.2813,2265.25 " fill="none" id="AttachmentData-to-RemoteAsset" style="stroke:#181818;stroke-width:3.125;"/><polygon fill="#181818" points="2255.4375,2288.6875,2247.6344,2267.5469,2225.1188,2266.6188,2232.9219,2287.7594,2255.4375,2288.6875" style="stroke:#181818;stroke-width:3.125;"/></g><!--link ImageData to RemoteAsset--><g id="link_ImageData_RemoteAsset"><path codeLine="62" d="M2928.3125,2079.2188 C2852.9063,2133.8438 2757.5313,2202.9688 2671.5938,2265.25 " fill="none" id="ImageData-to-RemoteAsset" style="stroke:#181818;stroke-width:3.125;"/><polygon fill="#181818" points="2639.25,2288.6875,2661.7675,2287.8085,2669.6168,2266.685,2647.0992,2267.564,2639.25,2288.6875" style="stroke:#181818;stroke-width:3.125;"/></g><!--SRC=[XLJRRgGm37tFLtYdBxkZPLMfRxEZIfMwA-th_a1bm0DHSq69UrFBlpS930H6g3mWi8-FxMCdg9HzqV9LcaQqiYOWtV4RrEGh9pkMrkHcJReavuL_bAP3XnhgJiBDzRKGbKBluTvMJveCm_6eRKtgzbO8HnMZQHJ1xayj8wNVmRk0y63fsM75C3hci14G7y_8bFxwzCxulbjkGpq_Te0UqZVLFe4cme-Yc3nmfQIXGwcUw7Vy-bLQLL_2xvYnQh4C6JO3Z6M2412iZmVmz4mErKGJvIDJes4Fw2XZNBOzsu_7ofgAd0cAzGlD1amKTPIDRKEneRM6Cp1JFoA6qVoLYZOX5ve2pccXW9Qr-Wdqog52L9dU0JO8dbDFcaVljeRha5M56t5n2OQEPkmzCbxipaackIC-JSl9fkL369fwWvDroP-t-KqiIYgA_Ig3M8yzldsOnqAiaxCQElGCD6vx5Ek5b5eDzf_6XiQP3Wqbos8ocVsh7eVWMFK4tovOfjnVr7hUvdsOJU8KOZhVqNRs2v6TcFrqW2BkubuOodxNOODjtOCAHzlpmvXzvPFFD7dwCzD_qg6bE-zf88iA6DHH1PTS3p9koN1fzEVIfYM9-cGKOfPsxVa4]--></g></svg>